<svg width="500" height="500" viewBox="0 0 500 500" fill="none" xmlns="http://www.w3.org/2000/svg">
<path d="M225.58 185.67C269.79 244.44 410.46 291.72 393.06 361.84C372.34 445.32 239.21 326.07 169.06 314.04C70.06 297.04 29.37 167.96 81.06 100.47C104.52 69.82 154.27 60.47 196.97 99.27C236.94 135.63 200.25 152 225.58 185.67Z" fill="#08B952"/>
<path opacity="0.9" d="M225.58 185.67C269.79 244.44 410.46 291.72 393.06 361.84C372.34 445.32 239.21 326.07 169.06 314.04C70.06 297.04 29.37 167.96 81.06 100.47C104.52 69.82 154.27 60.47 196.97 99.27C236.94 135.63 200.25 152 225.58 185.67Z" fill="#181C35"/>
<path d="M250 427.56C357.083 427.56 443.89 422.492 443.89 416.24C443.89 409.988 357.083 404.92 250 404.92C142.918 404.92 56.1101 409.988 56.1101 416.24C56.1101 422.492 142.918 427.56 250 427.56Z" fill="#162C38"/>
<path d="M403.64 359.66H289.12C287.682 359.667 286.257 359.381 284.932 358.821C283.607 358.26 282.41 357.437 281.413 356.4C280.416 355.363 279.641 354.134 279.133 352.788C278.625 351.442 278.396 350.007 278.46 348.57L286.87 131.17C287.013 128.202 288.284 125.401 290.423 123.34C292.563 121.278 295.409 120.112 298.38 120.08H412.9C414.339 120.073 415.763 120.359 417.088 120.919C418.413 121.48 419.61 122.303 420.607 123.34C421.604 124.377 422.38 125.606 422.887 126.952C423.395 128.298 423.624 129.733 423.56 131.17L415.15 348.57C415.007 351.538 413.736 354.339 411.597 356.4C409.457 358.462 406.611 359.628 403.64 359.66V359.66Z" fill="#08B952"/>
<path d="M423.485 204.515L422.785 222.481L423.884 222.524L424.584 204.557L423.485 204.515Z" fill="#08B952"/>
<path d="M424.056 190.528L423.766 197.952L424.865 197.995L425.155 190.571L424.056 190.528Z" fill="#08B952"/>
<path opacity="0.8" d="M403.64 359.66H289.12C287.682 359.667 286.257 359.381 284.932 358.821C283.607 358.26 282.41 357.437 281.413 356.4C280.416 355.363 279.641 354.134 279.133 352.788C278.625 351.442 278.396 350.007 278.46 348.57L286.87 131.17C287.013 128.202 288.284 125.401 290.423 123.34C292.563 121.278 295.409 120.112 298.38 120.08H412.9C414.339 120.073 415.763 120.359 417.088 120.919C418.413 121.48 419.61 122.303 420.607 123.34C421.604 124.377 422.38 125.606 422.887 126.952C423.395 128.298 423.624 129.733 423.56 131.17L415.15 348.57C415.007 351.538 413.736 354.339 411.597 356.4C409.457 358.462 406.611 359.628 403.64 359.66V359.66Z" fill="#181C35"/>
<path d="M392.68 355.25H291.68C290.419 355.255 289.171 355.005 288.009 354.513C286.848 354.022 285.799 353.3 284.925 352.391C284.051 351.483 283.37 350.406 282.924 349.227C282.478 348.047 282.276 346.79 282.33 345.53L290.2 141.93C290.327 139.328 291.444 136.872 293.321 135.066C295.198 133.259 297.695 132.237 300.3 132.21H401.3C402.561 132.203 403.811 132.453 404.973 132.944C406.134 133.435 407.184 134.157 408.059 135.066C408.933 135.975 409.614 137.052 410.059 138.232C410.505 139.412 410.706 140.67 410.65 141.93L402.78 345.53C402.65 348.131 401.533 350.586 399.657 352.392C397.78 354.198 395.285 355.22 392.68 355.25V355.25Z" fill="#08B952"/>
<path opacity="0.8" d="M347.36 343.721C350.033 341.099 350.156 336.889 347.634 334.319C345.112 331.748 340.901 331.79 338.228 334.412C335.555 337.034 335.432 341.244 337.954 343.815C340.476 346.385 344.687 346.343 347.36 343.721Z" fill="white"/>
<path d="M344.59 292.75C339.257 292.786 333.972 291.735 329.057 289.661C324.143 287.588 319.703 284.535 316.007 280.689C312.311 276.844 309.437 272.286 307.56 267.293C305.683 262.3 304.843 256.978 305.09 251.65L306.44 216.6H306.37C305.975 216.598 305.58 216.565 305.19 216.5L303.83 251.65C303.578 257.14 304.445 262.624 306.381 267.768C308.316 272.912 311.278 277.609 315.087 281.571C318.896 285.533 323.471 288.678 328.535 290.815C333.599 292.952 339.044 294.036 344.54 294C356.188 293.948 367.339 289.272 375.54 281C375.242 280.698 374.98 280.363 374.76 280C370.821 284.01 366.127 287.201 360.949 289.389C355.771 291.577 350.211 292.719 344.59 292.75V292.75Z" fill="white"/>
<path d="M349.43 167.44C328 167.44 309.63 183.44 306.05 204.13C306.316 204.114 306.584 204.114 306.85 204.13C307.01 204.13 307.16 204.13 307.32 204.13C310.86 184.13 328.65 168.71 349.38 168.71C354.714 168.673 360.001 169.723 364.916 171.796C369.831 173.869 374.273 176.921 377.97 180.767C381.667 184.613 384.542 189.171 386.419 194.165C388.297 199.158 389.137 204.481 388.89 209.81L387.27 251.67C387.008 258.207 385.224 264.593 382.06 270.32C382.457 270.435 382.837 270.603 383.19 270.82C386.43 264.937 388.255 258.381 388.52 251.67L390.14 209.81C390.397 204.318 389.532 198.831 387.599 193.684C385.665 188.537 382.703 183.838 378.894 179.873C375.085 175.908 370.508 172.761 365.442 170.624C360.376 168.486 354.928 167.403 349.43 167.44V167.44Z" fill="white"/>
<path d="M349.1 176C355.838 175.984 362.437 177.918 368.1 181.57C368.279 181.182 368.497 180.814 368.75 180.47C362.892 176.71 356.071 174.723 349.11 174.75C341.233 174.775 333.554 177.219 327.11 181.75C327.331 182.104 327.515 182.479 327.66 182.87C333.925 178.419 341.415 176.019 349.1 176V176Z" fill="white"/>
<path d="M310.4 255.67C310.09 253.528 309.976 251.363 310.06 249.2L311.49 212.2C311.802 204.573 314.448 197.225 319.07 191.15C318.712 190.969 318.377 190.748 318.07 190.49C313.31 196.758 310.588 204.336 310.27 212.2L308.84 249.2C308.753 251.463 308.873 253.729 309.2 255.97C309.589 255.831 309.991 255.73 310.4 255.67V255.67Z" fill="white"/>
<path d="M377.77 188.77C377.467 189.079 377.132 189.353 376.77 189.59C381.727 196.071 384.247 204.089 383.89 212.24L382.46 249.24C382.003 258.938 377.852 268.093 370.858 274.826C363.864 281.56 354.558 285.361 344.85 285.45V285.45C337.143 285.485 329.641 282.964 323.52 278.28C323.162 278.558 322.773 278.793 322.36 278.98C328.753 284.016 336.663 286.737 344.8 286.7C354.844 286.609 364.472 282.677 371.707 275.711C378.943 268.745 383.238 259.273 383.71 249.24L385.14 212.24C385.516 203.794 382.906 195.485 377.77 188.77V188.77Z" fill="white"/>
<path d="M315.81 226.91L316.28 214.69C316.676 206.302 320.266 198.384 326.316 192.56C332.365 186.736 340.413 183.448 348.81 183.37C355.879 183.318 362.737 185.773 368.167 190.298C373.597 194.824 377.248 201.128 378.47 208.09C378.879 208.017 379.294 207.981 379.71 207.98V207.98C378.467 200.707 374.679 194.113 369.022 189.376C363.365 184.638 356.208 182.067 348.83 182.12C340.097 182.197 331.725 185.616 325.434 191.673C319.142 197.73 315.409 205.966 315 214.69L314.55 227C314.839 226.964 315.129 226.944 315.42 226.94L315.81 226.91Z" fill="white"/>
<path d="M358.19 275.26C354.103 277.103 349.673 278.06 345.19 278.07C341.119 278.108 337.082 277.316 333.327 275.741C329.572 274.166 326.178 271.841 323.352 268.91C320.526 265.978 318.328 262.501 316.892 258.691C315.456 254.881 314.812 250.817 315 246.75L315.29 239.39H314.9C314.612 239.391 314.325 239.371 314.04 239.33L313.75 246.73C313.555 250.953 314.221 255.171 315.709 259.128C317.197 263.085 319.475 266.697 322.405 269.745C325.334 272.792 328.854 275.211 332.749 276.854C336.644 278.497 340.833 279.329 345.06 279.3C349.805 279.295 354.494 278.272 358.81 276.3C358.564 275.978 358.356 275.629 358.19 275.26Z" fill="white"/>
<path d="M379.23 220.5C379.05 220.5 378.87 220.5 378.7 220.5L377.7 246.78C377.358 254.767 374.082 262.347 368.5 268.07C368.75 268.412 368.962 268.781 369.13 269.17C375.087 263.196 378.59 255.208 378.95 246.78L379.95 220.49C379.72 220.48 379.48 220.5 379.23 220.5Z" fill="white"/>
<path d="M359.74 191.85C356.233 190.267 352.428 189.452 348.58 189.46C341.157 189.526 334.041 192.431 328.693 197.578C323.345 202.726 320.17 209.725 319.82 217.14L318.77 244.29C318.713 245.891 318.794 247.493 319.01 249.08C319.374 248.748 319.773 248.456 320.2 248.21C320.039 246.91 319.979 245.599 320.02 244.29L321.07 217.14C321.405 210.06 324.436 203.377 329.542 198.462C334.649 193.548 341.443 190.774 348.53 190.71C352.17 190.715 355.766 191.496 359.08 193C359.263 192.596 359.484 192.211 359.74 191.85Z" fill="white"/>
<path d="M369.36 199.32C369.117 199.68 368.839 200.015 368.53 200.32C372.291 205.097 374.21 211.066 373.94 217.14L372.89 244.29C372.562 251.165 369.689 257.673 364.83 262.548C359.972 267.423 353.474 270.318 346.6 270.67C346.469 271.118 346.292 271.55 346.07 271.96C353.374 271.733 360.324 268.757 365.528 263.627C370.733 258.496 373.808 251.59 374.14 244.29L375.19 217.14C375.477 210.689 373.404 204.354 369.36 199.32V199.32Z" fill="white"/>
<path d="M343.29 198.63C343.31 198.192 343.37 197.757 343.47 197.33C340.276 198.023 337.26 199.368 334.61 201.28C334.996 201.476 335.353 201.725 335.67 202.02C337.974 200.42 340.559 199.27 343.29 198.63V198.63Z" fill="white"/>
<path d="M367.12 247.43C365.713 252.023 362.881 256.049 359.034 258.926C355.186 261.802 350.523 263.38 345.72 263.43C342.919 263.45 340.144 262.898 337.564 261.808C334.984 260.719 332.653 259.115 330.713 257.094C328.774 255.074 327.267 252.679 326.285 250.056C325.303 247.433 324.865 244.637 325 241.84L325.86 219.59C325.967 216.96 326.55 214.372 327.58 211.95C327.223 211.661 326.907 211.324 326.64 210.95C325.43 213.666 324.751 216.589 324.64 219.56L323.78 241.81C323.644 244.766 324.112 247.719 325.154 250.488C326.196 253.258 327.791 255.786 329.842 257.919C331.893 260.052 334.356 261.746 337.083 262.896C339.809 264.046 342.741 264.629 345.7 264.61C350.788 264.552 355.725 262.88 359.8 259.833C363.875 256.786 366.876 252.523 368.37 247.66C367.947 247.621 367.529 247.544 367.12 247.43V247.43Z" fill="white"/>
<path d="M369 219.59L368.82 224.21C369.15 224.151 369.485 224.118 369.82 224.11H370.09L370.26 219.56C370.457 214.837 369.11 210.178 366.424 206.288C363.737 202.398 359.857 199.488 355.37 198C355.41 198.446 355.41 198.894 355.37 199.34C359.508 200.815 363.064 203.578 365.517 207.222C367.971 210.866 369.191 215.201 369 219.59V219.59Z" fill="white"/>
<path d="M348 204.13C343.198 204.176 338.595 206.058 335.136 209.39C331.677 212.723 329.625 217.252 329.4 222.05L329.21 226.99C329.628 227.018 330.043 227.081 330.45 227.18L330.65 222.05C330.86 217.58 332.776 213.361 336.004 210.261C339.232 207.162 343.525 205.418 348 205.39C350.161 205.378 352.301 205.806 354.292 206.648C356.282 207.489 358.08 208.727 359.576 210.285C361.073 211.844 362.237 213.69 362.998 215.713C363.758 217.735 364.099 219.892 364 222.05L363.33 239.39C363.142 243.294 361.654 247.023 359.103 249.984C356.552 252.944 353.083 254.967 349.25 255.73C349.295 256.149 349.295 256.571 349.25 256.99C353.414 256.21 357.193 254.048 359.977 250.854C362.761 247.661 364.386 243.622 364.59 239.39L365.26 222.05C365.368 219.724 365 217.4 364.179 215.221C363.358 213.042 362.102 211.053 360.486 209.376C358.871 207.699 356.931 206.369 354.784 205.467C352.637 204.565 350.329 204.11 348 204.13V204.13Z" fill="white"/>
<path d="M336.32 218.83C336.58 218.815 336.84 218.815 337.1 218.83C338.177 216.975 339.72 215.432 341.575 214.355C343.431 213.279 345.535 212.705 347.68 212.69C348.988 212.69 350.287 212.913 351.52 213.35C351.66 212.951 351.837 212.566 352.05 212.2C350.666 211.693 349.204 211.432 347.73 211.43C345.247 211.456 342.819 212.157 340.704 213.459C338.59 214.761 336.871 216.615 335.73 218.82C335.927 218.813 336.124 218.817 336.32 218.83Z" fill="white"/>
<path d="M358.52 236.94C358.455 238.371 358.136 239.78 357.58 241.1C357.969 241.244 358.337 241.443 358.67 241.69C359.325 240.188 359.698 238.577 359.77 236.94L360.25 224.5C360.288 223.34 360.17 222.179 359.9 221.05C359.523 221.249 359.123 221.404 358.71 221.51C358.94 222.493 359.037 223.502 359 224.51L358.52 236.94Z" fill="white"/>
<path d="M349 248.38C348.103 248.597 347.183 248.707 346.26 248.71C344.737 248.713 343.229 248.407 341.828 247.81C340.427 247.213 339.162 246.337 338.109 245.237C337.056 244.136 336.238 242.834 335.703 241.407C335.169 239.981 334.93 238.461 335 236.94L335.22 231.31C334.8 231.274 334.385 231.197 333.98 231.08L333.75 236.94C333.676 238.627 333.945 240.311 334.541 241.89C335.138 243.469 336.049 244.911 337.221 246.127C338.392 247.343 339.798 248.308 341.354 248.963C342.909 249.619 344.582 249.951 346.27 249.94C347.318 249.936 348.362 249.809 349.38 249.56C349.219 249.179 349.092 248.784 349 248.38V248.38Z" fill="white"/>
<path d="M347.44 218.81C345.253 218.836 343.158 219.7 341.588 221.223C340.018 222.747 339.092 224.814 339 227L338.71 234.54C338.683 235.243 338.754 235.946 338.92 236.63C339.238 236.247 339.608 235.91 340.02 235.63C339.97 235.272 339.95 234.911 339.96 234.55L340.25 227.01C340.339 225.166 341.131 223.426 342.462 222.146C343.794 220.867 345.564 220.146 347.41 220.13C348.3 220.128 349.181 220.306 350 220.654C350.819 221.002 351.559 221.513 352.175 222.155C352.791 222.797 353.27 223.558 353.584 224.39C353.898 225.223 354.039 226.111 354 227L353.71 234.54C353.645 235.877 353.211 237.17 352.455 238.275C351.7 239.38 350.653 240.254 349.43 240.8C349.408 241.272 349.342 241.741 349.23 242.2C350.842 241.642 352.249 240.614 353.27 239.249C354.291 237.883 354.88 236.243 354.96 234.54L355.26 227C355.316 225.941 355.155 224.882 354.786 223.887C354.418 222.893 353.85 221.984 353.118 221.217C352.386 220.45 351.504 219.841 350.528 219.427C349.551 219.013 348.501 218.803 347.44 218.81V218.81Z" fill="white"/>
<path d="M368.47 128.9H333.37C333.11 128.9 332.853 128.848 332.614 128.747C332.374 128.646 332.158 128.497 331.977 128.311C331.796 128.124 331.654 127.903 331.56 127.661C331.466 127.418 331.422 127.16 331.43 126.9V126.9C331.461 126.362 331.695 125.856 332.085 125.485C332.475 125.113 332.992 124.904 333.53 124.9H368.62C368.881 124.899 369.139 124.95 369.38 125.05C369.62 125.151 369.838 125.299 370.02 125.486C370.202 125.672 370.345 125.894 370.439 126.137C370.534 126.38 370.578 126.639 370.57 126.9V126.9C370.537 127.437 370.303 127.942 369.913 128.313C369.524 128.684 369.008 128.893 368.47 128.9V128.9Z" fill="#08B952"/>
<path opacity="0.2" d="M313.57 164C311.494 164.163 309.411 164.209 307.33 164.14C306.594 163.982 305.839 163.935 305.09 164H304.86C298.989 163.57 293.18 162.521 287.53 160.87C286.95 160.7 286.35 160.5 285.74 160.29L280.88 286.16L313.36 264.49C314.828 263.526 316.047 262.228 316.916 260.701C317.785 259.175 318.28 257.465 318.36 255.71L321.62 171.56C321.666 170.512 321.486 169.467 321.091 168.496C320.695 167.524 320.095 166.65 319.331 165.932C318.566 165.214 317.656 164.67 316.661 164.336C315.667 164.003 314.613 163.888 313.57 164Z" fill="black"/>
<path d="M305.74 154.61C303.668 154.776 301.588 154.826 299.51 154.76C298.774 154.604 298.02 154.554 297.27 154.61H297.03C291.162 154.184 285.356 153.135 279.71 151.48C272.63 149.279 266.106 145.582 260.58 140.64C259.238 139.347 257.444 138.63 255.58 138.64H247.1C245.199 138.654 243.37 139.366 241.96 140.64C236.094 145.567 229.291 149.255 221.96 151.48C216.231 153.127 210.346 154.176 204.4 154.61H204.16C203.407 154.554 202.649 154.604 201.91 154.76C199.835 154.826 197.759 154.776 195.69 154.61C194.625 154.529 193.554 154.661 192.54 155.001C191.527 155.34 190.592 155.879 189.79 156.585C188.989 157.292 188.337 158.152 187.873 159.114C187.409 160.077 187.143 161.123 187.09 162.19L183.83 246.35C183.756 248.054 184.109 249.749 184.859 251.281C185.608 252.813 186.729 254.133 188.12 255.12L235.27 288.28C237.007 289.498 239.079 290.148 241.2 290.14H249.67C251.836 290.132 253.951 289.485 255.75 288.28L305.46 255.12C306.924 254.154 308.14 252.856 309.008 251.333C309.877 249.809 310.374 248.102 310.46 246.35L313.71 162.19C313.753 161.149 313.573 160.112 313.182 159.146C312.791 158.181 312.199 157.31 311.444 156.593C310.689 155.875 309.79 155.327 308.806 154.985C307.823 154.643 306.777 154.515 305.74 154.61V154.61Z" fill="#08B952"/>
<path opacity="0.8" d="M305.74 154.61C303.668 154.776 301.588 154.826 299.51 154.76C298.774 154.604 298.02 154.554 297.27 154.61H297.03C291.162 154.184 285.356 153.135 279.71 151.48C272.63 149.279 266.106 145.582 260.58 140.64C259.238 139.347 257.444 138.63 255.58 138.64H247.1C245.199 138.654 243.37 139.366 241.96 140.64C236.094 145.567 229.291 149.255 221.96 151.48C216.231 153.127 210.346 154.176 204.4 154.61H204.16C203.407 154.554 202.649 154.604 201.91 154.76C199.835 154.826 197.759 154.776 195.69 154.61C194.625 154.529 193.554 154.661 192.54 155.001C191.527 155.34 190.592 155.879 189.79 156.585C188.989 157.292 188.337 158.152 187.873 159.114C187.409 160.077 187.143 161.123 187.09 162.19L183.83 246.35C183.756 248.054 184.109 249.749 184.859 251.281C185.608 252.813 186.729 254.133 188.12 255.12L235.27 288.28C237.007 289.498 239.079 290.148 241.2 290.14H249.67C251.836 290.132 253.951 289.485 255.75 288.28L305.46 255.12C306.924 254.154 308.14 252.856 309.008 251.333C309.877 249.809 310.374 248.102 310.46 246.35L313.71 162.19C313.753 161.149 313.573 160.112 313.182 159.146C312.791 158.181 312.199 157.31 311.444 156.593C310.689 155.875 309.79 155.327 308.806 154.985C307.823 154.643 306.777 154.515 305.74 154.61V154.61Z" fill="#181C35"/>
<path d="M189.34 246.19L192.45 165.72C192.519 164.245 193.15 162.852 194.214 161.827C195.278 160.802 196.693 160.224 198.17 160.21H200C207.913 160.112 215.775 158.934 223.37 156.71C230.594 154.521 237.367 151.056 243.37 146.48C244.359 145.674 245.595 145.234 246.87 145.234C248.145 145.234 249.382 145.674 250.37 146.48C256.067 151.085 262.59 154.561 269.59 156.72C277.093 158.955 284.871 160.133 292.7 160.22H294.39C295.118 160.214 295.84 160.356 296.512 160.639C297.183 160.921 297.79 161.338 298.294 161.863C298.799 162.388 299.191 163.011 299.447 163.693C299.702 164.375 299.815 165.102 299.78 165.83L296.67 246.2C296.628 247.105 296.374 247.988 295.927 248.777C295.481 249.566 294.855 250.238 294.1 250.74L244.7 283.74C243.783 284.365 242.7 284.699 241.59 284.699C240.481 284.699 239.397 284.365 238.48 283.74L191.62 250.74C190.887 250.235 190.294 249.553 189.896 248.758C189.497 247.962 189.306 247.079 189.34 246.19Z" fill="#08B952"/>
<path opacity="0.2" d="M203.07 241.94L205.71 173.53C212.78 172.971 219.775 171.701 226.59 169.74C233.542 167.649 240.169 164.6 246.28 160.68C252.133 164.618 258.536 167.671 265.28 169.74C271.994 171.71 278.894 172.98 285.87 173.53L283.22 241.94L242.08 269.38L203.07 241.94Z" fill="white"/>
<path opacity="0.2" d="M216.9 234.79L218.81 185.38C222.47 184.69 226.16 183.82 229.81 182.77C235.28 181.159 240.581 179.022 245.64 176.39C250.531 179.031 255.677 181.169 261 182.77C264.613 183.817 268.223 184.687 271.83 185.38L269.92 234.79L242.72 253L216.9 234.79Z" fill="white"/>
<path d="M126.14 157.64C124.27 161.52 122.38 165.5 120.56 169.42C119.653 171.42 118.78 173.38 117.94 175.3C117.156 177.136 116.468 179.012 115.88 180.92C115.468 182.744 115.28 184.611 115.32 186.48C115.32 188.58 115.32 190.76 115.32 192.93L115.65 206.11L111.03 206.79C109.873 202.436 108.936 198.028 108.22 193.58C107.88 191.34 107.54 189.09 107.36 186.76C107.26 185.6 107.18 184.42 107.16 183.18C107.16 182.55 107.16 181.92 107.16 181.18C107.16 180.84 107.21 180.48 107.27 180.08C107.33 179.68 107.39 179.4 107.45 179.08C107.946 176.701 108.614 174.362 109.45 172.08C110.22 169.9 111.06 167.77 111.93 165.68C113.68 161.49 115.56 157.45 117.66 153.4L126.14 157.64Z" fill="#FF8B7B"/>
<path d="M119 207.93L115.16 203.51L110.82 203.73C108.82 208.48 113.17 211.51 113.17 211.51L113.94 214.11C114.019 214.369 114.155 214.608 114.337 214.809C114.519 215.01 114.743 215.168 114.993 215.273C115.242 215.378 115.512 215.427 115.783 215.416C116.054 215.405 116.319 215.335 116.56 215.21L119 214C119.34 213.834 119.625 213.574 119.823 213.252C120.022 212.93 120.125 212.558 120.12 212.18V210.69C120.079 209.668 119.683 208.692 119 207.93V207.93Z" fill="#FF8B7B"/>
<path d="M106.78 405.47C106.043 405.141 105.348 404.724 104.71 404.23C104.676 404.205 104.651 404.171 104.637 404.132C104.622 404.093 104.62 404.05 104.63 404.01C104.641 403.967 104.663 403.929 104.695 403.899C104.727 403.869 104.767 403.848 104.81 403.84C105.18 403.77 108.45 403.17 109.23 404.03C109.316 404.129 109.374 404.248 109.398 404.376C109.423 404.504 109.413 404.637 109.37 404.76C109.328 404.972 109.232 405.169 109.092 405.334C108.952 405.498 108.772 405.624 108.57 405.7C107.965 405.844 107.329 405.762 106.78 405.47V405.47ZM105.4 404.18C106.72 405.09 107.84 405.51 108.4 405.29C108.533 405.236 108.649 405.148 108.738 405.036C108.828 404.924 108.887 404.791 108.91 404.65C108.943 404.603 108.96 404.547 108.96 404.49C108.96 404.433 108.943 404.377 108.91 404.33C108.49 403.87 106.71 404 105.4 404.18Z" fill="#08B952"/>
<path d="M104.75 404.26L104.66 404.19C104.642 404.156 104.633 404.118 104.633 404.08C104.633 404.042 104.642 404.004 104.66 403.97C104.66 403.87 105.8 401.41 107.07 400.97C107.232 400.903 107.407 400.876 107.581 400.892C107.755 400.907 107.923 400.965 108.07 401.06C108.226 401.13 108.354 401.252 108.43 401.405C108.507 401.558 108.528 401.733 108.49 401.9C108.25 402.95 105.92 404.15 104.92 404.27C104.893 404.28 104.863 404.285 104.834 404.283C104.805 404.281 104.776 404.273 104.75 404.26V404.26ZM107.75 401.39C107.583 401.325 107.397 401.325 107.23 401.39C106.47 401.65 105.68 402.95 105.23 403.75C106.31 403.44 107.87 402.45 108.01 401.82C108.01 401.71 108.01 401.58 107.79 401.44L107.75 401.39Z" fill="#08B952"/>
<path d="M141.3 121.62C142.13 127.1 144 139.05 140.01 142.62C140.01 142.62 141.25 148.19 151.4 148.39C162.57 148.61 156.99 142.95 156.99 142.95C150.99 141.38 151.32 136.87 152.58 132.65L141.3 121.62Z" fill="#FF8B7B"/>
<path d="M164.16 112.54L163.98 112.45C163.901 112.368 163.857 112.259 163.857 112.145C163.857 112.031 163.901 111.922 163.98 111.84C164.412 111.291 164.968 110.852 165.603 110.558C166.237 110.264 166.932 110.125 167.63 110.15C167.687 110.156 167.741 110.174 167.791 110.201C167.841 110.229 167.885 110.266 167.92 110.311C167.956 110.355 167.982 110.406 167.997 110.461C168.013 110.516 168.017 110.573 168.01 110.63C167.995 110.746 167.935 110.851 167.844 110.924C167.753 110.997 167.636 111.031 167.52 111.02V111.02C166.968 111.01 166.422 111.129 165.924 111.367C165.425 111.604 164.989 111.955 164.65 112.39C164.592 112.46 164.514 112.511 164.427 112.538C164.34 112.564 164.247 112.565 164.16 112.54V112.54Z" fill="#263238"/>
<path d="M166.24 117.93C166.67 119.682 167.343 121.365 168.24 122.93C167.838 123.164 167.39 123.307 166.927 123.348C166.464 123.39 165.997 123.329 165.56 123.17L166.24 117.93Z" fill="#FF5652"/>
<path d="M165.73 116.59C165.64 117.33 165.96 117.97 166.44 118.02C166.92 118.07 167.38 117.5 167.44 116.76C167.5 116.02 167.21 115.38 166.73 115.33C166.25 115.28 165.82 115.85 165.73 116.59Z" fill="#263238"/>
<path d="M166.55 115.35L168.38 115.01C168.38 115.01 167.3 116.31 166.55 115.35Z" fill="#263238"/>
<path d="M174.64 409.13L184.38 406.05L183.43 386.21L173.68 389.28L174.64 409.13Z" fill="#FF8B7B"/>
<path d="M94.6902 402.04L103.46 404.52L110.81 384.21L102.03 381.73L94.6902 402.04Z" fill="#FF8B7B"/>
<path d="M104.58 402.77L95.1801 398.77C95.0162 398.701 94.8332 398.694 94.6642 398.749C94.4953 398.804 94.3519 398.918 94.2601 399.07L89.8501 406.22C89.7432 406.398 89.6756 406.597 89.6517 406.803C89.6279 407.01 89.6484 407.219 89.7118 407.417C89.7752 407.615 89.8801 407.797 90.0195 407.951C90.1589 408.105 90.3295 408.227 90.5201 408.31C93.8301 409.63 95.5201 410.1 99.6201 411.85C102.16 412.92 104.15 416.18 109.74 416.18C113.52 416.18 114.24 412.76 112.74 412.26C105.74 410.02 107.17 406.69 105.74 403.86C105.495 403.37 105.084 402.984 104.58 402.77V402.77Z" fill="#263238"/>
<path d="M187.86 407.42C187.034 407.397 186.213 407.287 185.41 407.09C185.368 407.078 185.33 407.055 185.3 407.024C185.27 406.992 185.249 406.953 185.24 406.91C185.232 406.869 185.237 406.826 185.253 406.787C185.269 406.748 185.295 406.714 185.33 406.69C185.64 406.49 188.33 404.69 189.46 405.17C189.583 405.224 189.689 405.308 189.77 405.415C189.85 405.522 189.902 405.647 189.92 405.78C189.97 405.985 189.966 406.2 189.908 406.404C189.85 406.607 189.741 406.792 189.59 406.94C189.091 407.304 188.476 407.475 187.86 407.42V407.42ZM186.02 406.78C187.63 407.1 188.84 407.04 189.29 406.62C189.388 406.519 189.459 406.393 189.494 406.257C189.529 406.12 189.528 405.976 189.49 405.84C189.485 405.781 189.464 405.724 189.431 405.676C189.398 405.627 189.353 405.587 189.3 405.56C188.72 405.3 187.14 406.09 186 406.78H186.02Z" fill="#08B952"/>
<path d="M185.46 407.09H185.35C185.317 407.073 185.289 407.048 185.269 407.016C185.25 406.984 185.24 406.947 185.24 406.91C185.24 406.79 185.16 404.14 186.13 403.26C186.251 403.144 186.396 403.057 186.556 403.007C186.716 402.956 186.885 402.944 187.05 402.97C187.223 402.975 187.39 403.037 187.525 403.145C187.66 403.253 187.757 403.402 187.8 403.57C188.04 404.57 186.43 406.57 185.57 407.1C185.533 407.107 185.495 407.104 185.46 407.09V407.09ZM186.91 403.36C186.732 403.363 186.562 403.43 186.43 403.55C185.85 404.08 185.7 405.55 185.67 406.45C186.53 405.75 187.52 404.26 187.37 403.63C187.37 403.53 187.29 403.4 187.01 403.37L186.91 403.36Z" fill="#08B952"/>
<path d="M184.65 405.81H174.31C174.132 405.804 173.959 405.866 173.826 405.983C173.692 406.1 173.608 406.263 173.59 406.44L172.68 414.62C172.666 414.83 172.696 415.04 172.766 415.238C172.837 415.436 172.947 415.617 173.091 415.771C173.234 415.924 173.407 416.047 173.6 416.131C173.792 416.215 174 416.259 174.21 416.26C177.82 416.2 179.55 415.99 184.1 415.99C186.9 415.99 190.99 416.28 194.86 416.28C198.73 416.28 198.8 412.46 197.18 412.11C189.92 410.56 188.71 408.42 186.18 406.38C185.749 406.023 185.21 405.822 184.65 405.81V405.81Z" fill="#263238"/>
<path opacity="0.2" d="M183.42 386.21L183.94 396.84L174.17 399.52L173.68 389.29L183.42 386.21Z" fill="black"/>
<path opacity="0.2" d="M102.03 381.74L110.8 384.22L107.02 394.68L98.24 392.2L102.03 381.74Z" fill="black"/>
<path d="M122 143.78C118.16 144.68 113.94 158.51 113.94 158.51L124.65 169.84C124.65 169.84 133.75 156.77 131.96 152.05C130.07 147.13 126.49 142.72 122 143.78Z" fill="#08B952"/>
<path opacity="0.2" d="M122 143.78C118.16 144.68 113.94 158.51 113.94 158.51L124.65 169.84C124.65 169.84 133.75 156.77 131.96 152.05C130.07 147.13 126.49 142.72 122 143.78Z" fill="black"/>
<path opacity="0.4" d="M127.93 152.45C129.93 150.65 131.19 151.15 132.07 152.55C132.91 156.62 127.22 165.84 125.07 169.12C124.16 165.27 123.52 156.54 127.93 152.45Z" fill="black"/>
<path d="M171 147C171.53 151 171.2 163.29 163.44 200.47L126.05 199.74C127.36 184.55 127.8 175.17 121.94 143.82C127.224 142.848 132.571 142.257 137.94 142.05C143.607 141.756 149.289 141.866 154.94 142.38C160.35 142.98 166.28 144.16 168.94 144.73C169.476 144.848 169.963 145.13 170.332 145.537C170.701 145.944 170.934 146.455 171 147V147Z" fill="#08B952"/>
<path opacity="0.2" d="M171 147C171.53 151 171.2 163.29 163.44 200.47L126.05 199.74C127.36 184.55 127.8 175.17 121.94 143.82C127.224 142.848 132.571 142.257 137.94 142.05C143.607 141.756 149.289 141.866 154.94 142.38C160.35 142.98 166.28 144.16 168.94 144.73C169.476 144.848 169.963 145.13 170.332 145.537C170.701 145.944 170.934 146.455 171 147V147Z" fill="black"/>
<path d="M141.29 111.7C140.75 120.85 140.29 124.7 144.34 129.82C150.34 137.5 161.66 135.82 164.91 126.99C167.83 118.99 168.22 105.37 159.8 100.91C151.38 96.45 141.82 102.55 141.29 111.7Z" fill="#FF8B7B"/>
<path d="M153.59 200.24C153.59 200.24 148.16 267 141 302.43C135.22 331.08 109 392.99 109 392.99L97.5901 388.17C97.5901 388.17 110.8 318.05 119.73 301C129.73 242.19 113.54 222.14 126.07 199.74L153.59 200.24Z" fill="#263238"/>
<path opacity="0.4" d="M143.42 236.75C139.33 254.14 141.98 269.93 144.75 280.35C146.39 269.18 147.87 257.15 149.13 245.88C147.4 242.64 145.23 239.58 143.42 236.75Z" fill="black"/>
<path d="M163.46 200.43C163.46 200.43 177.66 265.62 179.46 293.49C181.36 322.49 185.17 391.19 185.17 391.19L172.65 394.55C172.65 394.55 158.57 323.74 159.65 302.43C152.65 272.19 128.24 199.78 128.24 199.78L163.46 200.43Z" fill="#263238"/>
<path d="M187.06 394.37L170.8 397.11L169.24 391.31L186.65 388.35L187.06 394.37Z" fill="#08B952"/>
<path d="M111.05 393.56L95.8201 389.25L96.6701 383.6L112.95 387.61L111.05 393.56Z" fill="#08B952"/>
<path d="M125.61 197.5L123.77 200.81C123.63 201.06 123.93 201.33 124.36 201.34L163.57 202.11C163.91 202.11 164.2 201.96 164.23 201.75L164.72 198.41C164.72 198.18 164.47 197.98 164.1 197.97L126.23 197.23C126.112 197.216 125.993 197.234 125.884 197.281C125.775 197.328 125.68 197.404 125.61 197.5V197.5Z" fill="white"/>
<path d="M130.5 201.83H129.5C129.3 201.83 129.15 201.71 129.17 201.59L129.84 197.25C129.84 197.13 130.04 197.03 130.24 197.03H131.24C131.44 197.03 131.59 197.14 131.57 197.27L130.9 201.6C130.89 201.73 130.71 201.83 130.5 201.83Z" fill="#263238"/>
<path d="M155.09 202.31H154.09C153.89 202.31 153.74 202.2 153.76 202.07L154.43 197.74C154.43 197.61 154.63 197.51 154.84 197.51H155.84C156.04 197.51 156.19 197.62 156.17 197.75L155.5 202.08C155.47 202.21 155.29 202.31 155.09 202.31Z" fill="#263238"/>
<path d="M173.07 151.71C174.9 155.6 176.94 159.64 179.07 163.47C181.092 167.267 183.395 170.907 185.96 174.36C186.28 174.77 186.6 175.19 186.86 175.49C187.12 175.79 187.45 176.15 187.79 176.49C188.49 177.172 189.231 177.81 190.01 178.4C191.687 179.667 193.448 180.819 195.28 181.85C199.115 184.014 203.071 185.954 207.13 187.66L205.91 192.16C201.201 191.367 196.591 190.07 192.16 188.29C189.854 187.377 187.627 186.276 185.5 185C184.382 184.322 183.309 183.57 182.29 182.75C181.76 182.33 181.29 181.86 180.74 181.37C180.19 180.88 179.74 180.37 179.38 179.93C178.52 179 177.76 178.05 176.98 177.1C176.2 176.15 175.5 175.16 174.82 174.17C173.42 172.17 172.16 170.17 170.94 168.17C168.508 164.107 166.34 159.892 164.45 155.55L173.07 151.71Z" fill="#FF8B7B"/>
<path d="M168.38 144.55C177.14 146.46 179.26 160.23 179.26 160.23L170.63 170.29C170.63 170.29 156.92 157.29 157.63 150.22C158.1 145 163.6 143.51 168.38 144.55Z" fill="#08B952"/>
<path opacity="0.2" d="M168.38 144.55C177.14 146.46 179.26 160.23 179.26 160.23L170.63 170.29C170.63 170.29 156.92 157.29 157.63 150.22C158.1 145 163.6 143.51 168.38 144.55Z" fill="black"/>
<path d="M217.26 191.2L214.83 188.33C214.83 188.33 206.99 186.5 203.52 188.2L202.45 191.43L211.21 195.97L213.04 196.83C213.475 197.034 213.969 197.075 214.432 196.945C214.895 196.814 215.295 196.522 215.56 196.12L217.32 193.64C217.581 193.284 217.716 192.851 217.705 192.41C217.694 191.968 217.538 191.543 217.26 191.2V191.2Z" fill="#FF8B7B"/>
<path d="M166.86 162.25C168.39 158.17 169.24 153.25 168.86 150.9C168.34 155.08 165.16 160.8 161.97 165.05C156.239 167.34 150.063 168.303 143.906 167.867C137.749 167.43 131.771 165.606 126.42 162.53C123.79 157.21 121.61 148.9 122.99 143.94C121.3 146.46 120.05 153.35 120.85 158.21C118.16 155.46 116.59 152.37 116.58 149.33C116.58 134.72 134.19 135.61 134.43 124.95C134.67 114.29 130.33 92.5 152.07 97.15C166.31 96.48 163.33 109.04 161.01 116.68C158.9 123.73 180.44 150.79 166.86 162.25Z" fill="#263238"/>
<path d="M152.11 97.15C161.01 92.4 170.11 99.88 165.45 107.71C161.34 107.53 158.01 110.14 161.23 115.36C151.68 109.34 145.83 97.68 152.11 97.15Z" fill="#263238"/>
<path d="M161.47 114C162.438 115.668 162.845 117.603 162.63 119.52C162.35 121.98 160.43 121.98 159.08 120.52C157.73 119.06 156.61 116.03 157.39 114.15C157.546 113.744 157.818 113.393 158.172 113.14C158.526 112.888 158.946 112.744 159.381 112.728C159.815 112.712 160.245 112.824 160.616 113.05C160.988 113.277 161.285 113.607 161.47 114V114Z" fill="#FF8B7B"/>
</svg>
