<svg width="925" height="531" viewBox="0 0 925 531" fill="none" xmlns="http://www.w3.org/2000/svg">
<g clip-path="url(#clip0)">
<path d="M16.1263 159.262C14.0441 159.914 11.8268 160.006 9.69783 159.528C7.56883 159.05 5.60328 158.02 3.99921 156.541C2.39514 155.062 1.2092 153.186 0.560827 151.103C-0.0875415 149.02 -0.175431 146.802 0.306019 144.674C7.52975 114.621 34.9978 41.1279 135.065 10.2165C178.41 -3.17318 219.979 -3.40176 258.565 9.53208C290.309 20.1284 311.382 36.7102 321.462 44.7248C324.024 46.751 325.675 49.7116 326.053 52.9553C326.431 56.1991 325.505 59.4602 323.479 62.0213C323.454 62.053 323.429 62.0846 323.403 62.1161C321.323 64.6851 318.316 66.3337 315.031 66.7065C311.746 67.0794 308.446 66.1467 305.843 64.1095C287.58 49.7198 232.158 6.00453 142.335 33.7515C54.6282 60.8447 30.8036 124.217 24.6241 150.145C24.1548 152.287 23.1185 154.263 21.6235 155.867C20.1285 157.471 18.2299 158.643 16.1263 159.262L16.1263 159.262Z" fill="#08B952"/>
<path d="M288.867 329.48C287.873 329.801 286.842 329.995 285.8 330.057C207.624 334.267 157.886 269.322 155.844 266.614L155.465 265.989C154.219 264.056 124.123 218.267 137.372 181.901C143.458 165.276 156.917 153.607 177.489 147.252C196.622 141.342 212.278 143.09 225.604 152.606C236.531 160.359 243.534 171.921 250.321 183.085C264.438 206.267 273.089 218.062 299.921 211.257C311.703 208.267 317.204 199.056 319.717 191.881C326.483 172.356 320.486 145.738 304.621 125.6C284.123 99.4743 226.761 56.0803 155.986 77.9432C125.763 87.2794 101.028 105.677 84.4639 131.011C70.7417 152.035 62.7644 178.147 62.5895 202.498C62.3142 247.839 99.4738 307.489 99.8262 308.03C100.682 309.398 101.26 310.922 101.526 312.514C101.793 314.105 101.744 315.734 101.381 317.307C101.018 318.879 100.349 320.365 99.4125 321.68C98.4756 322.994 97.289 324.111 95.9205 324.966C95.8825 324.99 95.8444 325.013 95.8061 325.037C93.0023 326.786 89.6231 327.361 86.3983 326.64C83.1736 325.918 80.3621 323.957 78.5711 321.18C76.8938 318.452 37.2152 254.85 37.5349 202.448C37.9799 145.648 72.4964 77.86 148.69 54.3234C183.908 43.4443 220.918 45.2728 255.748 59.5528C282.743 70.6885 307.727 89.1226 324.245 110.172C345.342 137.04 352.775 172.21 343.171 199.659C336.768 217.959 323.512 230.585 305.895 235.1C259.981 246.779 241.995 217.373 228.877 195.923C215.407 173.932 207.956 163.622 184.675 170.813C171.891 174.762 164.016 181.09 160.703 190.181C156.196 202.609 160.468 218.539 164.845 229.706C164.89 229.823 164.936 229.939 164.981 230.056C170.593 244.25 179.35 256.987 190.594 267.308C208.607 283.942 242.046 307.655 284.665 305.368C287.923 305.166 291.128 306.266 293.575 308.427C296.022 310.588 297.51 313.632 297.713 316.89C297.715 316.929 297.718 316.969 297.72 317.008C297.82 319.771 297.007 322.49 295.407 324.744C293.807 326.998 291.508 328.663 288.867 329.48L288.867 329.48Z" fill="#08B952"/>
<path d="M194.069 352.829C192.44 353.333 190.725 353.502 189.028 353.325C187.332 353.147 185.689 352.628 184.199 351.797C145.641 329.952 118.574 300.569 99.0824 259.387L99.0039 259.133C86.7197 231.676 79.3248 189.725 95.6367 154.268C107.679 128.106 130.283 109.716 162.708 99.7003C201.058 87.8536 236.767 96.5758 266.075 124.803C279.403 137.831 290.242 153.182 298.059 170.101C299.305 173.145 299.302 176.558 298.052 179.6C296.802 182.643 294.404 185.071 291.377 186.359C288.351 187.647 284.939 187.692 281.879 186.485C278.819 185.277 276.358 182.913 275.028 179.905C268.41 165.783 259.271 152.987 248.062 142.145C225.472 120.653 199.211 114.298 169.919 123.346C144.606 131.166 127.176 144.989 118.253 164.438C105.386 192.432 112.011 227.387 121.624 248.9C138.81 285.323 162.649 311.158 196.585 330.351C197.987 331.142 199.219 332.201 200.212 333.468C201.204 334.735 201.938 336.185 202.37 337.735C202.802 339.285 202.925 340.905 202.731 342.503C202.537 344.101 202.03 345.644 201.24 347.046C201.208 347.102 201.176 347.157 201.144 347.212C199.564 349.896 197.042 351.898 194.069 352.829V352.829Z" fill="#08B952"/>
<path d="M198.129 229.717C206.938 229.717 214.078 222.576 214.078 213.768C214.078 204.959 206.938 197.819 198.129 197.819C189.321 197.819 182.18 204.959 182.18 213.768C182.18 222.576 189.321 229.717 198.129 229.717Z" fill="#E6E6E6"/>
<path d="M485.706 408.519C485.376 408.519 485.047 408.494 484.721 408.445C483.876 408.32 483.065 408.028 482.334 407.587C481.602 407.146 480.966 406.564 480.46 405.876L471.7 393.997C471.193 393.31 470.826 392.53 470.621 391.701C470.416 390.873 470.376 390.012 470.503 389.168C470.631 388.324 470.923 387.513 471.364 386.782C471.805 386.051 472.386 385.415 473.073 384.908L547.972 329.668C548.659 329.161 549.439 328.795 550.268 328.589C551.097 328.384 551.958 328.344 552.802 328.472C553.646 328.599 554.456 328.892 555.187 329.332C555.919 329.773 556.556 330.354 557.062 331.041L565.822 342.919C566.845 344.306 567.276 346.043 567.018 347.748C566.761 349.452 565.837 350.985 564.45 352.009L489.55 407.249C488.438 408.074 487.09 408.519 485.706 408.519V408.519Z" fill="#FFB9B9"/>
<path d="M538.899 364.043L527.435 348.5C526.491 347.219 526.094 345.616 526.331 344.042C526.569 342.469 527.422 341.054 528.703 340.11L572.564 301.68C573.845 300.735 575.448 300.338 577.022 300.576C578.595 300.814 580.01 301.667 580.954 302.947L601.918 327.991C602.862 329.271 603.26 330.875 603.022 332.448C602.784 334.021 601.931 335.436 600.65 336.381L547.289 365.31C546.008 366.255 544.405 366.652 542.832 366.414C541.258 366.177 539.844 365.324 538.899 364.043Z" fill="#2F2E41"/>
<path d="M609.376 530.25H594.617C592.894 530.248 591.242 529.563 590.023 528.344C588.805 527.126 588.119 525.474 588.117 523.75V400.736C588.119 399.013 588.805 397.361 590.023 396.142C591.242 394.924 592.894 394.238 594.617 394.236H609.376C611.1 394.238 612.752 394.924 613.97 396.142C615.189 397.361 615.874 399.013 615.876 400.736V523.75C615.874 525.474 615.189 527.126 613.97 528.344C612.752 529.563 611.1 530.248 609.376 530.25V530.25Z" fill="#FFB9B9"/>
<path d="M638.569 530.25H623.809C622.086 530.248 620.434 529.563 619.215 528.344C617.997 527.126 617.311 525.474 617.309 523.75V400.736C617.311 399.013 617.997 397.361 619.215 396.142C620.434 394.924 622.086 394.238 623.809 394.236H638.569C640.292 394.238 641.944 394.924 643.163 396.142C644.382 397.361 645.067 399.013 645.069 400.736V523.75C645.067 525.474 644.382 527.126 643.163 528.344C641.944 529.563 640.292 530.248 638.569 530.25V530.25Z" fill="#FFB9B9"/>
<path d="M776.959 528.349H452.925V530.59H776.959V528.349Z" fill="#3F3D56"/>
<path d="M610.219 249.261C639.777 249.261 663.739 225.3 663.739 195.742C663.739 166.184 639.777 142.223 610.219 142.223C580.661 142.223 556.7 166.184 556.7 195.742C556.7 225.3 580.661 249.261 610.219 249.261Z" fill="#FFB9B9"/>
<path d="M693.076 467.174L662.082 329.529V297.007C662.082 294.886 661.239 292.851 659.738 291.351C658.238 289.85 656.203 289.007 654.082 289.007H624.391V268.094C624.391 267.044 624.184 266.003 623.782 265.033C623.38 264.062 622.791 263.18 622.048 262.437C621.305 261.695 620.423 261.105 619.453 260.703C618.482 260.301 617.442 260.094 616.391 260.094H600.391C599.34 260.094 598.3 260.301 597.329 260.703C596.359 261.105 595.477 261.695 594.734 262.437C593.991 263.18 593.402 264.062 593 265.033C592.598 266.003 592.391 267.044 592.391 268.094V289.007H562.7C560.579 289.007 558.544 289.85 557.043 291.351C555.543 292.851 554.7 294.886 554.7 297.007V468.094C554.7 469.12 554.899 470.136 555.284 471.086C555.646 472.795 556.569 474.334 557.905 475.459C559.242 476.583 560.916 477.229 562.662 477.293L688.087 481.475C695.583 481.671 698.984 471.922 693.076 467.174Z" fill="#2F2E41"/>
<path d="M610.734 214.756C607.428 214.663 603.314 214.548 600.145 212.232C599.201 211.515 598.425 210.6 597.873 209.551C597.32 208.503 597.003 207.346 596.944 206.162C596.887 205.32 597.025 204.476 597.347 203.696C597.67 202.917 598.169 202.222 598.805 201.667C600.462 200.269 602.881 199.941 605.482 200.706L602.783 180.98L604.766 180.708L607.938 203.898L606.283 203.14C604.364 202.259 601.731 201.812 600.096 203.194C599.694 203.556 599.381 204.005 599.181 204.508C598.981 205.01 598.9 205.552 598.943 206.091C598.992 206.972 599.229 207.832 599.64 208.614C600.051 209.395 600.626 210.078 601.324 210.617C603.791 212.419 607.07 212.652 610.79 212.756L610.734 214.756Z" fill="#2F2E41"/>
<path d="M592.985 182.682H582.213V184.682H592.985V182.682Z" fill="#2F2E41"/>
<path d="M626.985 182.682H616.214V184.682H626.985V182.682Z" fill="#2F2E41"/>
<path d="M563.352 161.149C553.845 155.388 549.368 144.458 549.36 133.649C549.355 127.887 550.606 122.194 553.026 116.965C555.446 111.737 558.976 107.099 563.372 103.374C573.164 94.9053 586.204 90.761 598.943 89.708C614.356 88.4339 629.669 91.7841 644.389 96.06C660.15 100.639 675.594 106.399 691.728 109.605C707.384 112.715 723.082 113.022 738.496 108.524C752.723 104.372 767.164 97.0363 782.36 98.3077C795.485 99.4057 805.452 108.14 812.157 118.931C825.469 140.354 826.521 169.109 845.664 186.949C853.941 194.662 864.724 198.157 875.501 200.768C885.835 203.273 896.858 204.877 906.341 209.945C916.51 215.38 922.666 225.595 921.075 237.3C919.269 250.593 909.809 262.035 899.394 269.844C888.43 277.962 875.794 283.531 862.405 286.148C849.016 288.765 835.213 288.362 821.999 284.97C794.367 277.639 771.911 256.224 742.472 254.882C726.048 254.133 709.877 258.607 693.456 257.866C682.075 257.351 669.826 253.144 661.899 244.681C658.094 240.72 655.716 235.605 655.142 230.143C654.963 228.238 651.961 228.219 652.142 230.143C653.267 242.1 662.069 250.932 672.572 255.788C678.101 258.325 684.004 259.95 690.052 260.6C698.088 261.487 706.281 260.648 714.28 259.771C722.735 258.844 731.205 257.702 739.728 257.804C747.509 257.928 755.22 259.299 762.566 261.865C776.671 266.703 789.379 274.73 802.854 280.982C815.897 287.032 829.554 290.784 844 290.877C857.924 290.946 871.697 287.992 884.368 282.219C896.846 276.535 908.571 268.05 916.34 256.612C923.624 245.887 927.448 231.819 920.893 219.813C915.756 210.403 905.957 205.641 896.077 202.709C885.125 199.459 873.678 197.975 862.957 193.928C857.354 191.914 852.2 188.823 847.785 184.828C843.05 180.231 839.148 174.848 836.254 168.917C830.117 156.944 826.98 143.794 821.811 131.426C817.023 119.971 810.471 108.424 799.918 101.364C794.246 97.6123 787.655 95.4849 780.86 95.2126C773.342 94.8726 765.872 96.5984 758.727 98.7731C751.165 101.074 743.787 103.949 736.169 106.067C728.144 108.301 719.825 109.295 711.5 109.013C694.378 108.455 677.838 103.369 661.629 98.241C633.233 89.2575 601.652 79.6403 573.104 93.4879C561.98 98.8835 552.557 107.936 548.585 119.823C545.07 130.341 545.556 142.61 550.975 152.409C553.543 157.07 557.289 160.977 561.838 163.74C563.493 164.743 565.003 162.15 563.352 161.149L563.352 161.149Z" fill="#08B952"/>
<path d="M646.091 428.593H631.331C629.608 428.591 627.956 427.906 626.737 426.687C625.519 425.469 624.833 423.817 624.831 422.093V336.839C624.833 335.115 625.519 333.463 626.737 332.245C627.956 331.026 629.608 330.341 631.331 330.339H646.091C647.815 330.341 649.467 331.026 650.685 332.245C651.904 333.463 652.589 335.115 652.591 336.839V422.093C652.589 423.817 651.904 425.469 650.685 426.687C649.467 427.906 647.815 428.591 646.091 428.593V428.593Z" fill="#FFB9B9"/>
<path d="M589.119 147.907C589.448 150.257 590.427 152.469 591.945 154.292C593.464 156.116 595.462 157.479 597.714 158.228C599.966 158.976 602.382 159.081 604.69 158.53C606.999 157.978 609.107 156.793 610.777 155.108L608.27 154.446C609.669 158.024 612.013 161.154 615.053 163.504C618.092 165.853 621.713 167.332 625.528 167.784C629.343 168.235 633.209 167.642 636.713 166.067C640.217 164.492 643.227 161.995 645.422 158.842C646.552 157.273 643.951 155.774 642.832 157.328C640.94 159.977 638.372 162.071 635.396 163.39C632.42 164.71 629.145 165.208 625.912 164.832C622.678 164.457 619.604 163.221 617.01 161.254C614.417 159.287 612.397 156.661 611.163 153.648C611.088 153.399 610.95 153.174 610.763 152.993C610.576 152.813 610.346 152.683 610.095 152.617C609.843 152.55 609.579 152.549 609.327 152.614C609.075 152.679 608.844 152.807 608.656 152.986C607.355 154.302 605.706 155.22 603.903 155.634C602.099 156.048 600.216 155.94 598.471 155.324C596.726 154.708 595.193 153.609 594.049 152.154C592.905 150.7 592.199 148.95 592.012 147.11C591.744 145.206 588.853 146.016 589.119 147.907V147.907Z" fill="#2F2E41"/>
<path d="M494.554 360.892L494.241 361.104L488.434 352.537C487.992 351.886 487.427 351.328 486.77 350.896C486.113 350.463 485.377 350.164 484.605 350.016C483.832 349.868 483.038 349.873 482.268 350.032C481.497 350.19 480.765 350.499 480.114 350.94V350.94L461.964 363.245C461.313 363.686 460.755 364.251 460.323 364.908C459.89 365.565 459.591 366.301 459.443 367.074C459.295 367.846 459.3 368.64 459.459 369.411C459.617 370.181 459.926 370.913 460.367 371.564L492.229 418.562C492.67 419.213 493.236 419.771 493.893 420.203C494.55 420.636 495.285 420.935 496.058 421.083C496.831 421.232 497.625 421.226 498.395 421.068C499.166 420.909 499.897 420.6 500.548 420.159V420.159L518.698 407.854C519.349 407.413 519.907 406.848 520.34 406.191C520.773 405.534 521.072 404.798 521.22 404.026C521.368 403.253 521.363 402.459 521.204 401.688C521.046 400.918 520.737 400.186 520.295 399.535V399.535L498.375 367.202L498.688 366.99L494.554 360.892Z" fill="#3F3D56"/>
<path d="M481.488 353.165L479.194 354.719C479.475 354.906 479.706 355.159 479.865 355.457C480.025 355.754 480.11 356.086 480.111 356.423C480.112 356.76 480.031 357.093 479.873 357.391C479.716 357.69 479.488 357.945 479.208 358.134L469.144 364.957C468.865 365.146 468.543 365.264 468.208 365.299C467.873 365.335 467.533 365.288 467.221 365.162C466.908 365.036 466.631 364.834 466.414 364.576C466.197 364.317 466.047 364.01 465.977 363.68L463.835 365.132C463.365 365.451 462.961 365.86 462.649 366.334C462.336 366.809 462.12 367.341 462.013 367.9C461.905 368.458 461.909 369.032 462.024 369.589C462.139 370.146 462.362 370.675 462.681 371.145V371.145L493.474 416.568C493.794 417.039 494.202 417.442 494.677 417.755C495.152 418.067 495.684 418.283 496.242 418.39C496.801 418.498 497.375 418.494 497.932 418.379C498.488 418.264 499.017 418.041 499.488 417.722L517.14 405.756C518.09 405.111 518.746 404.116 518.962 402.988C519.179 401.86 518.938 400.693 518.294 399.742V399.742L487.5 354.319C487.181 353.849 486.773 353.446 486.298 353.133C485.823 352.82 485.291 352.604 484.733 352.497C484.174 352.39 483.6 352.393 483.043 352.508C482.486 352.623 481.957 352.846 481.487 353.165V353.165L481.488 353.165Z" fill="white"/>
</g>
<defs>
<clipPath id="clip0">
<rect width="924.26" height="530.59" fill="white"/>
</clipPath>
</defs>
</svg>
