<svg width="500" height="500" viewBox="0 0 500 500" fill="none" xmlns="http://www.w3.org/2000/svg">
<path d="M401.85 174.32C395.05 228.54 347.55 282.67 295.31 317.53C160.31 408.35 29.8 254.24 62.72 198.89C87.43 142.75 164.51 158.17 197.3 136.1C381.59 11.18 408.24 128.94 401.85 174.32Z" fill="#08B952"/>
<path opacity="0.9" d="M401.85 174.32C395.05 228.54 347.55 282.67 295.31 317.53C160.31 408.35 29.8 254.24 62.72 198.89C87.43 142.75 164.51 158.17 197.3 136.1C381.59 11.18 408.24 128.94 401.85 174.32Z" fill="white"/>
<path d="M250 427.56C357.083 427.56 443.89 422.492 443.89 416.24C443.89 409.988 357.083 404.92 250 404.92C142.918 404.92 56.1101 409.988 56.1101 416.24C56.1101 422.492 142.918 427.56 250 427.56Z" fill="#F5F5F5"/>
<path d="M249.96 361.05H107.96L100.19 132.68H242.19L249.96 361.05Z" fill="#08B952"/>
<path d="M257.05 353.96H115.05L107.27 125.59H249.27L257.05 353.96Z" fill="#08B952"/>
<path opacity="0.3" d="M257.05 353.96H115.05L107.27 125.59H249.27L257.05 353.96Z" fill="white"/>
<path d="M209.473 219.564C224.677 204.097 224.03 178.807 208.028 163.076C192.026 147.346 166.728 147.131 151.524 162.598C136.32 178.064 136.966 203.355 152.969 219.085C168.971 234.816 194.268 235.03 209.473 219.564Z" fill="#08B952"/>
<path d="M213.47 191.09C213.675 196.532 212.487 201.935 210.02 206.79C207.357 212.022 203.29 216.408 198.273 219.456C193.257 222.505 187.49 224.096 181.62 224.05C175.612 224.018 169.718 222.406 164.53 219.376C159.342 216.347 155.041 212.006 152.06 206.79C149.28 202.01 147.728 196.616 147.54 191.09C147.356 186.805 148.044 182.527 149.564 178.517C151.084 174.506 153.403 170.847 156.381 167.76C159.359 164.674 162.934 162.225 166.887 160.562C170.841 158.9 175.091 158.059 179.38 158.09C188.215 158.153 196.687 161.616 203.035 167.761C209.384 173.907 213.121 182.261 213.47 191.09V191.09Z" fill="white"/>
<path opacity="0.6" d="M210 206.79C207.337 212.022 203.27 216.408 198.253 219.457C193.237 222.505 187.47 224.096 181.6 224.05C175.592 224.018 169.698 222.406 164.51 219.376C159.322 216.347 155.021 212.006 152.04 206.79C160.497 201.024 170.504 197.959 180.74 198C191.141 198.023 201.309 201.077 210 206.79Z" fill="#08B952"/>
<path opacity="0.6" d="M190.772 190.268C196.363 184.58 196.125 175.281 190.241 169.497C184.356 163.712 175.054 163.634 169.464 169.321C163.873 175.008 164.111 184.307 169.995 190.092C175.879 195.876 185.181 195.955 190.772 190.268Z" fill="#08B952"/>
<path d="M228.52 271.26H137.94L137.33 253.26H227.91L228.52 271.26Z" fill="white"/>
<path d="M229.62 303.43H139.03L138.42 285.43H229.01L229.62 303.43Z" fill="white"/>
<path d="M194.66 287.91L172.83 290.91C172.622 290.934 172.42 291 172.239 291.106C172.058 291.211 171.9 291.352 171.776 291.521C171.652 291.69 171.565 291.883 171.519 292.088C171.473 292.292 171.47 292.504 171.51 292.71L174.38 307.34C174.474 307.769 174.725 308.148 175.084 308.402C175.443 308.655 175.884 308.765 176.32 308.71L198.15 305.71C198.358 305.684 198.558 305.615 198.738 305.508C198.918 305.402 199.075 305.259 199.197 305.089C199.32 304.919 199.407 304.726 199.452 304.522C199.497 304.317 199.5 304.106 199.46 303.9L196.6 289.27C196.506 288.841 196.254 288.464 195.895 288.212C195.536 287.96 195.095 287.852 194.66 287.91V287.91ZM188.39 302.73L184.39 303.26L184 298.54C183.588 298.362 183.224 298.087 182.941 297.739C182.657 297.391 182.461 296.98 182.37 296.54C182.296 296.199 182.295 295.847 182.366 295.506C182.438 295.165 182.58 294.843 182.783 294.56C182.987 294.277 183.247 294.04 183.548 293.865C183.849 293.689 184.184 293.578 184.53 293.54C185.24 293.449 185.959 293.627 186.544 294.04C187.129 294.453 187.538 295.07 187.69 295.77C187.776 296.193 187.75 296.631 187.613 297.04C187.476 297.449 187.233 297.815 186.91 298.1L188.39 302.73Z" fill="#08B952"/>
<path d="M192.5 287.12C192.114 287.169 191.724 287.072 191.405 286.848C191.087 286.625 190.864 286.29 190.78 285.91L190.5 284.48C190.1 282.529 189.006 280.788 187.421 279.582C185.836 278.376 183.867 277.785 181.88 277.92C180.877 277.977 179.898 278.249 179.01 278.719C178.122 279.188 177.345 279.842 176.732 280.638C176.119 281.434 175.685 282.353 175.458 283.331C175.232 284.31 175.219 285.326 175.42 286.31L175.74 287.96C175.777 288.143 175.776 288.331 175.736 288.514C175.696 288.696 175.619 288.868 175.509 289.019C175.398 289.169 175.258 289.295 175.096 289.388C174.935 289.482 174.755 289.54 174.57 289.56V289.56C174.183 289.614 173.79 289.519 173.471 289.294C173.152 289.07 172.93 288.732 172.85 288.35L172.58 286.96C172.305 285.661 172.296 284.32 172.553 283.017C172.81 281.714 173.328 280.477 174.075 279.38C174.822 278.282 175.784 277.347 176.902 276.63C178.019 275.914 179.271 275.431 180.58 275.21C183.419 274.733 186.332 275.368 188.716 276.982C191.099 278.597 192.769 281.067 193.38 283.88L193.7 285.52C193.737 285.705 193.735 285.896 193.693 286.08C193.652 286.264 193.572 286.438 193.458 286.589C193.345 286.74 193.201 286.865 193.036 286.957C192.871 287.048 192.688 287.104 192.5 287.12V287.12Z" fill="#08B952"/>
<path d="M214.67 328.64H155.7L155.31 316.92H214.27L214.67 328.64Z" fill="#08B952"/>
<path d="M186.22 262.26C186.237 262.687 186.168 263.114 186.016 263.514C185.864 263.914 185.632 264.279 185.335 264.586C185.037 264.894 184.681 265.138 184.286 265.304C183.892 265.469 183.468 265.553 183.04 265.55C182.158 265.543 181.313 265.198 180.678 264.586C180.044 263.973 179.668 263.141 179.63 262.26C179.612 261.833 179.682 261.406 179.834 261.006C179.986 260.606 180.218 260.241 180.515 259.934C180.812 259.626 181.169 259.382 181.564 259.216C181.958 259.051 182.382 258.967 182.81 258.97C183.692 258.974 184.539 259.319 185.174 259.932C185.809 260.544 186.184 261.378 186.22 262.26V262.26Z" fill="#263238"/>
<path d="M172 262.26C172.019 262.688 171.951 263.115 171.799 263.516C171.647 263.916 171.416 264.281 171.118 264.589C170.82 264.897 170.463 265.141 170.068 265.306C169.673 265.472 169.248 265.554 168.82 265.55C167.939 265.543 167.095 265.197 166.462 264.585C165.829 263.973 165.456 263.14 165.42 262.26C165.402 261.833 165.472 261.406 165.624 261.006C165.776 260.606 166.008 260.241 166.305 259.934C166.602 259.626 166.959 259.382 167.354 259.216C167.748 259.051 168.172 258.967 168.6 258.97C169.481 258.975 170.327 259.319 170.961 259.932C171.594 260.545 171.966 261.379 172 262.26V262.26Z" fill="#263238"/>
<path d="M157.87 262.26C157.888 262.687 157.818 263.114 157.666 263.514C157.514 263.914 157.282 264.279 156.985 264.586C156.688 264.894 156.331 265.138 155.936 265.304C155.542 265.469 155.118 265.553 154.69 265.55C153.809 265.545 152.963 265.201 152.329 264.588C151.696 263.975 151.324 263.141 151.29 262.26C151.272 261.833 151.342 261.406 151.494 261.006C151.646 260.606 151.878 260.241 152.175 259.934C152.473 259.626 152.829 259.382 153.224 259.216C153.618 259.051 154.042 258.967 154.47 258.97C155.352 258.975 156.197 259.319 156.831 259.932C157.464 260.545 157.837 261.379 157.87 262.26V262.26Z" fill="#263238"/>
<path d="M200.39 262.26C200.408 262.688 200.338 263.114 200.186 263.514C200.034 263.914 199.802 264.279 199.505 264.586C199.207 264.894 198.851 265.138 198.456 265.304C198.062 265.469 197.638 265.553 197.21 265.55C196.329 265.546 195.483 265.201 194.849 264.588C194.216 263.975 193.844 263.141 193.81 262.26C193.795 261.834 193.867 261.409 194.021 261.011C194.175 260.614 194.408 260.251 194.707 259.947C195.005 259.642 195.362 259.401 195.756 259.238C196.15 259.075 196.574 258.994 197 259C197.875 259.007 198.714 259.348 199.344 259.955C199.975 260.561 200.349 261.386 200.39 262.26V262.26Z" fill="#263238"/>
<path d="M214.56 262.26C214.579 262.688 214.511 263.115 214.359 263.516C214.207 263.916 213.976 264.281 213.678 264.589C213.38 264.897 213.023 265.141 212.628 265.306C212.233 265.472 211.808 265.554 211.38 265.55C210.499 265.543 209.655 265.197 209.022 264.585C208.389 263.973 208.016 263.14 207.98 262.26C207.962 261.833 208.032 261.406 208.184 261.006C208.336 260.606 208.568 260.241 208.865 259.934C209.163 259.626 209.519 259.382 209.914 259.216C210.308 259.051 210.732 258.967 211.16 258.97C212.041 258.975 212.887 259.319 213.521 259.932C214.154 260.545 214.526 261.379 214.56 262.26V262.26Z" fill="#263238"/>
<path d="M333.91 174.28C335.24 176.42 336.35 178.46 337.49 180.59C338.63 182.72 339.66 184.86 340.67 187.05C342.731 191.484 344.436 196.076 345.77 200.78C345.95 201.37 346.08 202 346.23 202.61L346.45 203.54L346.56 204L346.69 204.76C346.916 206.484 346.81 208.235 346.38 209.92C345.69 212.536 344.64 215.043 343.26 217.37C340.792 221.599 337.809 225.505 334.38 229L330.17 225.82C332.283 221.935 334.163 217.928 335.8 213.82C336.529 212.01 337.043 210.12 337.33 208.19C337.422 207.601 337.395 206.999 337.25 206.42L336.85 205.2C336.69 204.7 336.54 204.2 336.35 203.69C334.829 199.565 333.069 195.531 331.08 191.61C329.08 187.61 326.93 183.61 324.78 179.79L333.91 174.28Z" fill="#FF8B7B"/>
<path d="M331.24 224.43L326.64 226.86L331.92 233.04C331.92 233.04 335.22 230.81 335.37 227.41L331.24 224.43Z" fill="#FF8B7B"/>
<path d="M320.47 230.67L326.12 235.16L331.92 233.04L326.64 226.86L320.47 230.67Z" fill="#FF8B7B"/>
<path d="M301.15 141.56C301.04 142.12 300.65 142.51 300.29 142.44C299.93 142.37 299.72 141.85 299.83 141.3C299.94 140.75 300.33 140.3 300.7 140.42C301.07 140.54 301.26 141 301.15 141.56Z" fill="#263238"/>
<path d="M300.7 142.52C299.693 144.086 298.475 145.506 297.08 146.74C297.409 147.081 297.809 147.348 298.251 147.52C298.693 147.693 299.167 147.768 299.64 147.74L300.7 142.52Z" fill="#FF5652"/>
<path d="M298.9 162.14V155.58L307.58 156.58C307.58 156.58 307.44 162.22 302.58 163.88L298.9 162.14Z" fill="#FF8B7B"/>
<path d="M301.4 150.86L307.51 152.62L307.62 156.63L298.94 155.58L301.4 150.86Z" fill="#FF8B7B"/>
<path opacity="0.2" d="M307.51 152.62L301.4 150.86L300.21 153.14C300.275 154.937 300.836 156.68 301.832 158.177C302.827 159.674 304.218 160.865 305.85 161.62C306.9 160.154 307.513 158.42 307.62 156.62L307.51 152.62Z" fill="black"/>
<path d="M303.81 138.89C303.874 138.888 303.937 138.868 303.99 138.833C304.043 138.797 304.085 138.747 304.111 138.689C304.138 138.63 304.147 138.565 304.138 138.502C304.128 138.438 304.102 138.379 304.06 138.33C303.709 137.933 303.268 137.626 302.774 137.435C302.28 137.244 301.747 137.173 301.22 137.23C301.134 137.245 301.057 137.293 301.007 137.364C300.956 137.435 300.936 137.524 300.95 137.61C300.965 137.697 301.013 137.774 301.084 137.827C301.154 137.879 301.243 137.902 301.33 137.89C301.747 137.849 302.168 137.908 302.558 138.063C302.948 138.218 303.295 138.464 303.57 138.78C303.601 138.813 303.638 138.84 303.679 138.859C303.72 138.878 303.765 138.889 303.81 138.89Z" fill="#263238"/>
<path d="M316.59 151.68C315.59 156.83 314.97 163.96 318.59 167.39C318.59 167.39 317.19 172.61 307.59 172.61C297.08 172.61 302.54 168.03 302.54 168.03C306.91 166.67 306.87 161.7 305.87 157.7L316.59 151.68Z" fill="#FF8B7B"/>
<path d="M320.54 170.83C321.48 169.51 321.44 165.32 320.44 164.58C318.83 163.39 311.92 163.11 302.63 165.25C303.63 169.31 301.48 171.43 301.48 171.43L320.54 170.83Z" fill="#08B952"/>
<path d="M351.8 408.24C351.515 408.34 351.212 408.383 350.91 408.366C350.608 408.349 350.312 408.272 350.04 408.14C349.937 408.044 349.866 407.918 349.837 407.78C349.809 407.643 349.824 407.499 349.88 407.37C349.912 407.262 349.966 407.162 350.041 407.077C350.115 406.993 350.207 406.925 350.31 406.88C351.26 406.42 353.44 407.31 353.54 407.35C353.57 407.362 353.595 407.383 353.613 407.41C353.631 407.436 353.64 407.468 353.64 407.5C353.64 407.532 353.631 407.564 353.616 407.592C353.6 407.62 353.577 407.643 353.55 407.66C352.986 407.908 352.4 408.102 351.8 408.24V408.24ZM350.65 407.11C350.584 407.126 350.52 407.149 350.46 407.18C350.398 407.203 350.342 407.24 350.296 407.289C350.251 407.337 350.218 407.396 350.2 407.46C350.11 407.76 350.2 407.86 350.26 407.89C350.64 408.21 352.04 407.89 353.03 407.52C352.277 407.208 351.464 407.068 350.65 407.11V407.11Z" fill="#08B952"/>
<path d="M353.51 407.67H353.43C352.63 407.44 350.93 406.23 350.91 405.44C350.909 405.314 350.952 405.192 351.03 405.094C351.108 404.996 351.218 404.927 351.34 404.9C351.459 404.856 351.586 404.838 351.712 404.848C351.838 404.859 351.96 404.897 352.07 404.96C353.01 405.44 353.61 407.38 353.63 407.47C353.644 407.494 353.652 407.522 353.652 407.55C353.652 407.578 353.644 407.606 353.63 407.63C353.615 407.646 353.596 407.657 353.575 407.664C353.554 407.671 353.532 407.673 353.51 407.67V407.67ZM351.51 405.18H351.43C351.23 405.25 351.23 405.35 351.23 405.4C351.23 405.87 352.37 406.82 353.23 407.2C353.02 406.64 352.56 405.53 351.95 405.2C351.815 405.138 351.661 405.131 351.52 405.18H351.51Z" fill="#08B952"/>
<path d="M299.86 409.42C298.96 409.42 298.09 409.29 297.8 408.89C297.724 408.783 297.684 408.656 297.684 408.525C297.684 408.394 297.724 408.267 297.8 408.16C297.857 408.062 297.934 407.977 298.025 407.91C298.116 407.843 298.22 407.795 298.33 407.77C299.5 407.45 301.96 408.85 302.06 408.91C302.091 408.925 302.115 408.95 302.13 408.981C302.145 409.012 302.148 409.047 302.14 409.08C302.136 409.114 302.122 409.146 302.098 409.172C302.075 409.197 302.044 409.214 302.01 409.22C301.301 409.35 300.581 409.417 299.86 409.42ZM298.75 408.05C298.644 408.033 298.536 408.033 298.43 408.05C298.362 408.064 298.298 408.092 298.241 408.131C298.185 408.171 298.137 408.221 298.1 408.28C297.98 408.49 298.03 408.59 298.1 408.65C298.43 409.11 300.2 409.12 301.51 408.93C300.655 408.463 299.718 408.164 298.75 408.05V408.05Z" fill="#08B952"/>
<path d="M302 409.22H301.93C301.08 408.84 299.4 407.32 299.53 406.52C299.53 406.33 299.69 406.1 300.15 406.06C300.314 406.041 300.481 406.056 300.639 406.104C300.798 406.152 300.944 406.232 301.07 406.34C301.711 407.106 302.096 408.054 302.17 409.05C302.17 409.079 302.163 409.107 302.151 409.133C302.139 409.158 302.122 409.181 302.1 409.2C302.069 409.216 302.035 409.223 302 409.22ZM300.28 406.37H300.18C299.88 406.37 299.86 406.51 299.86 406.55C299.78 407.03 300.92 408.23 301.79 408.75C301.714 407.947 301.389 407.189 300.86 406.58C300.696 406.44 300.486 406.365 300.27 406.37H300.28Z" fill="#08B952"/>
<path d="M309.72 409.06H302.69L301.99 392.77H309.02L309.72 409.06Z" fill="#FF8B7B"/>
<path d="M361.35 405.8L354.48 407.29L347.57 392.12L354.45 390.63L361.35 405.8Z" fill="#FF8B7B"/>
<path d="M353.81 406.6L361.54 404.93C361.675 404.901 361.816 404.919 361.939 404.981C362.063 405.043 362.162 405.145 362.22 405.27L364.9 411.09C364.971 411.231 365.008 411.387 365.008 411.545C365.007 411.703 364.969 411.858 364.897 411.999C364.825 412.139 364.721 412.261 364.592 412.353C364.464 412.445 364.316 412.506 364.16 412.53C361.46 413.06 360.11 413.19 356.72 413.92C354.63 414.38 349.91 415.53 347.02 416.15C344.13 416.77 343.14 414 344.27 413.49C349.32 411.18 351.42 409.15 352.79 407.26C353.038 406.923 353.401 406.688 353.81 406.6V406.6Z" fill="#263238"/>
<path d="M302.74 408.24H310.42C310.559 408.241 310.694 408.289 310.803 408.376C310.912 408.463 310.989 408.584 311.02 408.72L312.41 414.97C312.451 415.121 312.456 415.28 312.424 415.433C312.392 415.586 312.325 415.73 312.228 415.852C312.131 415.975 312.006 416.073 311.864 416.138C311.722 416.204 311.566 416.235 311.41 416.23C308.64 416.18 304.64 416.02 301.16 416.02C297.08 416.02 293.57 416.24 288.79 416.24C285.9 416.24 285.1 413.32 286.31 413.05C291.81 411.85 296.31 411.72 301.06 408.79C301.559 408.456 302.14 408.266 302.74 408.24V408.24Z" fill="#263238"/>
<path d="M331.17 169C337.76 170.51 343.17 187.34 343.17 187.34L330 197.41C326.582 193.755 324.17 189.276 323 184.41C320.67 175.59 324.43 167.44 331.17 169Z" fill="#08B952"/>
<path opacity="0.4" d="M331.17 169C337.76 170.51 343.17 187.34 343.17 187.34L330 197.41C326.582 193.755 324.17 189.276 323 184.41C320.67 175.59 324.43 167.44 331.17 169Z" fill="black"/>
<path d="M296.5 189.07C294.86 190.84 293.22 192.42 291.5 194.07C290.65 194.87 289.79 195.67 288.91 196.44L287.58 197.61L287.25 197.9L286.68 198.36C286.093 198.829 285.444 199.212 284.75 199.5C283.978 199.828 283.149 199.998 282.31 200C281.594 200.003 280.882 199.878 280.21 199.63C279.465 199.346 278.784 198.914 278.21 198.36C277.478 197.644 276.94 196.752 276.65 195.77C276.498 195.286 276.401 194.786 276.36 194.28C276.308 193.688 276.308 193.092 276.36 192.5C276.41 192.02 276.47 191.6 276.55 191.21C276.824 189.846 277.212 188.508 277.71 187.21C278.16 185.976 278.677 184.767 279.26 183.59C279.9 182.32 280.51 181.39 281.12 180.33C283.598 176.271 286.425 172.437 289.57 168.87C292.683 165.324 296.114 162.071 299.82 159.15L303.5 162.94C300.92 166.4 298.38 170.11 296.03 173.76C293.691 177.389 291.555 181.145 289.63 185.01C289.2 185.95 288.63 187.01 288.36 187.77C288.002 188.653 287.692 189.554 287.43 190.47C287.178 191.295 286.988 192.137 286.86 192.99C286.853 193.123 286.853 193.257 286.86 193.39C286.86 193.47 286.86 193.51 286.86 193.3C286.844 193.076 286.8 192.854 286.73 192.64C286.514 191.931 286.118 191.29 285.58 190.78C285.102 190.341 284.541 190.001 283.93 189.78C283.393 189.577 282.824 189.472 282.25 189.47C281.698 189.463 281.15 189.569 280.64 189.78C280.467 189.851 280.3 189.934 280.14 190.03L280.52 189.68L281.73 188.58L284.12 186.34C285.7 184.85 287.29 183.26 288.79 181.78L296.5 189.07Z" fill="#FF8B7B"/>
<path opacity="0.2" d="M325.52 181.36C329.1 184.9 330.27 191.36 330.52 196.96L329.94 197.41C326.522 193.755 324.11 189.276 322.94 184.41C322.81 183.89 322.69 183.41 322.6 182.84L325.52 181.36Z" fill="black"/>
<path d="M289.51 176C288.07 183.6 287.17 199.21 291.34 230.11H329C329.26 224.34 325.63 196.16 331.2 168.95C327.039 168.151 322.83 167.62 318.6 167.36C313.271 167.054 307.929 167.054 302.6 167.36C300.84 167.52 299.1 167.78 297.6 168.05C295.605 168.4 293.764 169.347 292.319 170.767C290.874 172.187 289.895 174.011 289.51 176Z" fill="#08B952"/>
<path opacity="0.4" d="M289.51 176C288.07 183.6 287.17 199.21 291.34 230.11H329C329.26 224.34 325.63 196.16 331.2 168.95C327.039 168.151 322.83 167.62 318.6 167.36C313.271 167.054 307.929 167.054 302.6 167.36C300.84 167.52 299.1 167.78 297.6 168.05C295.605 168.4 293.764 169.347 292.319 170.767C290.874 172.187 289.895 174.011 289.51 176Z" fill="black"/>
<path opacity="0.2" d="M295.27 187.27L288.47 185.64C288.26 189.76 288.24 194.86 288.54 201.17C291.67 197.61 295.67 192.05 295.27 187.27Z" fill="black"/>
<path opacity="0.2" d="M301.99 392.77L302.35 401.17H309.39L309.03 392.77H301.99Z" fill="black"/>
<path opacity="0.2" d="M354.45 390.63L347.57 392.12L351.13 399.94L358.01 398.45L354.45 390.63Z" fill="black"/>
<path d="M319.93 144.16C318.13 150.9 317.41 154.94 313.25 157.74C307 162 299.2 157.12 299 150C298.78 143.57 301.77 133.62 309 132.26C310.589 131.962 312.227 132.073 313.761 132.583C315.295 133.094 316.674 133.986 317.767 135.177C318.861 136.367 319.633 137.817 320.012 139.388C320.39 140.96 320.362 142.602 319.93 144.16V144.16Z" fill="#FF8B7B"/>
<path d="M304.15 144.41C303.81 143.51 302.26 136.54 303.72 134.73C305.18 132.92 321.83 134.23 324.29 136.65C328.38 140.65 325.54 144.25 321.07 148.88C317.71 152.36 317.58 156.28 315.88 156.88C312.88 157.88 308.3 156.94 307.38 153.77C306.46 150.6 304.15 144.41 304.15 144.41Z" fill="#263238"/>
<path d="M322.27 128.72C316.39 126.22 305.36 128.99 299.4 127.55C299.324 129.766 300.053 131.935 301.452 133.655C302.851 135.376 304.825 136.532 307.01 136.91C311.954 137.852 316.977 138.318 322.01 138.3C328.55 138 327.27 130.85 322.27 128.72Z" fill="#263238"/>
<path d="M323.19 136.86C325.338 137.071 327.501 136.658 329.42 135.67C330.52 138.33 324.47 139.06 323.19 136.86Z" fill="#263238"/>
<path d="M307.35 144.69C307.215 146.424 306.512 148.066 305.35 149.36C303.81 151.05 302.21 149.99 301.94 147.94C301.7 146.08 302.2 142.94 304.08 142.04C305.96 141.14 307.48 142.6 307.35 144.69Z" fill="#FF8B7B"/>
<path d="M304.69 230.14C304.69 230.14 312.69 283.89 317.06 304.03C321.85 326.08 347.59 399.03 347.59 399.03L360.18 396.3C360.18 396.3 342.18 336.84 338.18 306.01C335.08 282.33 328.99 230.12 328.99 230.12L304.69 230.14Z" fill="#08B952"/>
<path d="M344.57 394.84C344.52 394.84 346.92 399.4 346.92 399.4L361.08 396.33L359.89 392.07L344.57 394.84Z" fill="#263238"/>
<path opacity="0.3" d="M309.74 249.29C318.97 251.1 317.99 285.52 316.88 303.23C314.22 290.71 310.32 266.63 307.66 249.54C308.305 249.222 309.039 249.134 309.74 249.29V249.29Z" fill="black"/>
<path d="M291.34 230.14C291.34 230.14 290.34 282.73 291.14 304.14C291.94 326.45 299.73 399.5 299.73 399.5H311.65C311.65 399.5 312.08 327.75 312.65 305.84C313.23 281.96 316.11 230.1 316.11 230.1L291.34 230.14Z" fill="#08B952"/>
<path d="M297.44 394.8C297.38 394.8 298.11 399.74 298.11 399.74H312.6L313 395.33L297.44 394.8Z" fill="#263238"/>
<path d="M304.25 178.34C307.62 187.43 287.81 198.14 287.81 198.14L279.23 187.14C279.23 187.14 285 175.72 292 170.58C300.65 164.24 301.68 171.42 304.25 178.34Z" fill="#08B952"/>
<path opacity="0.4" d="M304.25 178.34C307.62 187.43 287.81 198.14 287.81 198.14L279.23 187.14C279.23 187.14 285 175.72 292 170.58C300.65 164.24 301.68 171.42 304.25 178.34Z" fill="black"/>
<path d="M381.87 109.33C401.802 109.33 417.96 99.0326 417.96 86.33C417.96 73.6275 401.802 63.33 381.87 63.33C361.938 63.33 345.78 73.6275 345.78 86.33C345.78 99.0326 361.938 109.33 381.87 109.33Z" fill="#08B952"/>
<path d="M368.85 97.91C366.472 97.9023 364.174 97.057 362.358 95.5226C360.542 93.9882 359.324 91.8629 358.92 89.52C358.522 86.9823 359.095 84.3878 360.523 82.2531C361.952 80.1183 364.132 78.5999 366.63 78V78C368.68 77.5277 370.826 77.7098 372.767 78.5205C374.707 79.3313 376.345 80.73 377.45 82.52L400.62 77.74C401.51 77.545 402.442 77.6931 403.228 78.1547C404.014 78.6163 404.596 79.3574 404.86 80.23C404.981 80.6888 405.008 81.1675 404.938 81.6368C404.868 82.1062 404.703 82.5563 404.453 82.9597C404.203 83.3631 403.873 83.7113 403.484 83.983C403.095 84.2547 402.655 84.4443 402.19 84.54L401.59 84.66C401.501 84.676 401.417 84.7123 401.344 84.766C401.271 84.8198 401.211 84.8896 401.17 84.97C401.133 85.0517 401.114 85.1403 401.114 85.23C401.114 85.3197 401.133 85.4083 401.17 85.49L401.58 86.55C401.717 86.8936 401.731 87.2743 401.617 87.6266C401.504 87.9789 401.272 88.2807 400.96 88.48C400.714 88.6319 400.506 88.8378 400.352 89.0822C400.198 89.3265 400.101 89.6028 400.07 89.89C400.041 90.2197 399.908 90.5316 399.69 90.7812C399.473 91.0309 399.182 91.2054 398.86 91.28L398.39 91.38C398.064 91.4402 397.728 91.3951 397.429 91.2513C397.131 91.1075 396.886 90.8724 396.73 90.58C396.522 90.2312 396.211 89.9559 395.84 89.7924C395.468 89.6289 395.055 89.5854 394.658 89.668C394.26 89.7506 393.898 89.955 393.623 90.253C393.347 90.5509 393.171 90.9274 393.12 91.33C393.092 91.6576 392.961 91.9678 392.745 92.2158C392.529 92.4639 392.24 92.637 391.92 92.71L391.45 92.81C391.124 92.8686 390.788 92.8228 390.49 92.6792C390.192 92.5355 389.947 92.3013 389.79 92.01C389.64 91.762 389.438 91.5495 389.198 91.3872C388.958 91.2249 388.686 91.1167 388.4 91.07C388.015 91.0237 387.661 90.8387 387.403 90.5496C387.145 90.2605 387.002 89.8873 387 89.5V88.36C386.996 88.2708 386.973 88.1836 386.932 88.1042C386.891 88.0249 386.833 87.9553 386.763 87.9002C386.693 87.8451 386.611 87.8059 386.525 87.7851C386.438 87.7644 386.348 87.7626 386.26 87.78L378.87 89.3C378.568 91.3474 377.644 93.2521 376.221 94.7552C374.799 96.2582 372.948 97.2864 370.92 97.7C370.239 97.8393 369.545 97.9097 368.85 97.91V97.91ZM366.85 78.91C364.582 79.4398 362.599 80.8093 361.3 82.7428C360.001 84.6762 359.483 87.0299 359.85 89.33C360.243 91.4699 361.389 93.3984 363.081 94.7666C364.773 96.1348 366.898 96.8524 369.073 96.7895C371.248 96.7267 373.328 95.8876 374.938 94.424C376.548 92.9604 377.581 90.969 377.85 88.81V88.45L386 86.8C386.234 86.7435 386.477 86.7397 386.713 86.7889C386.948 86.8382 387.17 86.9393 387.361 87.0848C387.553 87.2304 387.709 87.4167 387.82 87.6304C387.93 87.844 387.992 88.0796 388 88.32V89.46C388.002 89.5957 388.051 89.7266 388.139 89.8304C388.226 89.9342 388.347 90.0047 388.48 90.03C388.917 90.0926 389.334 90.2539 389.7 90.5017C390.065 90.7495 390.37 91.0772 390.59 91.46C390.643 91.5679 390.728 91.6567 390.834 91.714C390.94 91.7714 391.061 91.7944 391.18 91.78L391.64 91.68C391.757 91.65 391.86 91.5832 391.936 91.4895C392.012 91.3959 392.055 91.2803 392.06 91.16C392.123 90.5375 392.382 89.9511 392.8 89.4857C393.219 89.0202 393.774 88.6998 394.386 88.5707C394.998 88.4415 395.636 88.5104 396.206 88.7674C396.777 89.0243 397.251 89.456 397.56 90C397.611 90.1071 397.695 90.1955 397.799 90.2529C397.903 90.3103 398.022 90.3337 398.14 90.32L398.62 90.22C398.735 90.1882 398.836 90.1206 398.91 90.0271C398.984 89.9336 399.026 89.819 399.03 89.7C399.079 89.261 399.229 88.839 399.466 88.4664C399.703 88.0938 400.023 87.7803 400.4 87.55C400.51 87.4705 400.591 87.3565 400.629 87.2261C400.667 87.0957 400.66 86.9563 400.61 86.83L400.2 85.77C400.115 85.5515 400.079 85.3171 400.094 85.0832C400.11 84.8493 400.176 84.6215 400.288 84.4158C400.4 84.2101 400.556 84.0314 400.745 83.8923C400.934 83.7531 401.15 83.6568 401.38 83.61L401.99 83.48C402.32 83.4096 402.633 83.2734 402.909 83.0794C403.185 82.8854 403.419 82.6377 403.598 82.3511C403.776 82.0645 403.895 81.7449 403.947 81.4114C403.999 81.0778 403.983 80.7373 403.9 80.41C403.705 79.7807 403.279 79.2485 402.708 78.9202C402.136 78.5919 401.462 78.4918 400.82 78.64L377 83.59L376.82 83.28C375.863 81.5763 374.377 80.2304 372.588 79.4456C370.798 78.6608 368.802 78.4798 366.9 78.93L366.85 78.91ZM368.85 94.19C367.608 94.2038 366.388 93.8564 365.34 93.19C364.1 92.3759 363.181 91.1569 362.739 89.7409C362.297 88.3248 362.36 86.7993 362.917 85.4245C363.474 84.0497 364.491 82.9106 365.794 82.2015C367.096 81.4923 368.605 81.2571 370.062 81.5357C371.519 81.8144 372.834 82.5898 373.783 83.7297C374.733 84.8696 375.257 86.3034 375.268 87.7868C375.278 89.2701 374.774 90.7112 373.84 91.8642C372.907 93.0173 371.603 93.811 370.15 94.11V94.11C369.724 94.187 369.292 94.2206 368.86 94.21L368.85 94.19ZM368.85 82.38C368.477 82.3821 368.106 82.419 367.74 82.49C367.043 82.6384 366.383 82.9226 365.796 83.3263C365.209 83.73 364.707 84.2453 364.32 84.8428C363.932 85.4404 363.666 86.1084 363.536 86.8089C363.407 87.5093 363.417 88.2284 363.565 88.925C363.713 89.6217 363.997 90.2823 364.401 90.8691C364.805 91.456 365.32 91.9576 365.918 92.3452C366.515 92.7329 367.183 92.9991 367.884 93.1286C368.584 93.2581 369.303 93.2484 370 93.1V93.1C371.046 92.8823 372.004 92.3598 372.753 91.5985C373.502 90.8371 374.01 89.871 374.211 88.8218C374.412 87.7727 374.298 86.6875 373.883 85.703C373.468 84.7186 372.771 83.879 371.88 83.29C370.995 82.7012 369.953 82.3912 368.89 82.4L368.85 82.38Z" fill="white"/>
<path opacity="0.6" d="M352.5 122.82C359.05 122.82 364.36 119.435 364.36 115.26C364.36 111.085 359.05 107.7 352.5 107.7C345.95 107.7 340.64 111.085 340.64 115.26C340.64 119.435 345.95 122.82 352.5 122.82Z" fill="#08B952"/>
<path opacity="0.3" d="M333.63 125.92C336.32 125.92 338.5 124.532 338.5 122.82C338.5 121.108 336.32 119.72 333.63 119.72C330.94 119.72 328.76 121.108 328.76 122.82C328.76 124.532 330.94 125.92 333.63 125.92Z" fill="#08B952"/>
</svg>
