<svg width="500" height="500" viewBox="0 0 500 500" fill="none" xmlns="http://www.w3.org/2000/svg">
<path d="M416.65 405C420.65 405 429.46 370.62 430.47 367C439.523 334.862 443.19 301.446 441.32 268.11C438.87 226.76 434.32 181.78 410.68 149.82C362.78 84.99 273.68 93.16 228.39 157.11C215 176 201 195.37 183 207.85C162.55 222.09 138.48 220.16 116.53 228.98C83.18 242.38 57.28 289.07 58.16 332.49C58.87 367.65 80.66 403.22 110.61 405.79C139.31 408.25 416.53 405 416.65 405Z" fill="#08B952"/>
<path opacity="0.7" d="M416.65 405C420.65 405 429.46 370.62 430.47 367C439.523 334.862 443.19 301.446 441.32 268.11C438.87 226.76 434.32 181.78 410.68 149.82C362.78 84.99 273.68 93.16 228.39 157.11C215 176 201 195.37 183 207.85C162.55 222.09 138.48 220.16 116.53 228.98C83.18 242.38 57.28 289.07 58.16 332.49C58.87 367.65 80.66 403.22 110.61 405.79C139.31 408.25 416.53 405 416.65 405Z" fill="white"/>
<path d="M372.45 140.26C368.45 138.1 366.69 139.9 365.25 138.1C363.81 136.3 369.25 131.62 358.41 126.93C358.41 126.93 357.69 116.85 342.92 116.49C328.15 116.13 332.12 126.57 328.16 129.09C324.2 131.61 323.16 127.65 319.16 130.18C315.16 132.71 317 137.74 313.76 138.46C310.52 139.18 306.19 135.22 302.23 137.74C298.27 140.26 298.23 142.42 296.47 142.42C294.71 142.42 291.07 140.98 288.91 142.42C286.75 143.86 284.23 145.66 284.23 145.66H375.33C375.33 145.66 376.41 142.42 372.45 140.26Z" fill="white"/>
<path d="M200.67 142.3C198.18 140.94 197.04 142.07 196.14 140.94C195.24 139.81 198.63 136.87 191.83 133.94C191.83 133.94 191.38 127.6 182.1 127.37C172.82 127.14 175.3 133.71 172.81 135.3C170.32 136.89 169.64 134.39 167.15 135.98C164.66 137.57 165.79 140.74 163.75 141.19C161.71 141.64 159 139.19 156.51 140.74C154.02 142.29 154.01 143.68 152.88 143.68C151.75 143.68 149.48 142.77 148.13 143.68L145.18 145.68H202.48C202.48 145.68 203.16 143.66 200.67 142.3Z" fill="#08B952"/>
<path d="M200.67 142.3C198.18 140.94 197.04 142.07 196.14 140.94C195.24 139.81 198.63 136.87 191.83 133.94C191.83 133.94 191.38 127.6 182.1 127.37C172.82 127.14 175.3 133.71 172.81 135.3C170.32 136.89 169.64 134.39 167.15 135.98C164.66 137.57 165.79 140.74 163.75 141.19C161.71 141.64 159 139.19 156.51 140.74C154.02 142.29 154.01 143.68 152.88 143.68C151.75 143.68 149.48 142.77 148.13 143.68L145.18 145.68H202.48C202.48 145.68 203.16 143.66 200.67 142.3Z" fill="#08B952"/>
<path opacity="0.7" d="M200.67 142.3C198.18 140.94 197.04 142.07 196.14 140.94C195.24 139.81 198.63 136.87 191.83 133.94C191.83 133.94 191.38 127.6 182.1 127.37C172.82 127.14 175.3 133.71 172.81 135.3C170.32 136.89 169.64 134.39 167.15 135.98C164.66 137.57 165.79 140.74 163.75 141.19C161.71 141.64 159 139.19 156.51 140.74C154.02 142.29 154.01 143.68 152.88 143.68C151.75 143.68 149.48 142.77 148.13 143.68L145.18 145.68H202.48C202.48 145.68 203.16 143.66 200.67 142.3Z" fill="white"/>
<path d="M459.64 401.81H65V408.2H459.64V401.81Z" fill="#263238"/>
<path d="M443.64 307.52C441.64 290.08 435.1 290.84 433.06 273.4C431.02 255.96 437.51 255.2 435.47 237.76C433.43 220.32 426.93 221.08 424.88 203.64C422.83 186.2 429.34 185.44 427.29 168C425.24 150.56 418.75 151.32 416.71 133.89L415.71 137.42C413.71 151.42 407.99 152.14 406.6 168.42C405.1 185.92 411.6 186.48 410.12 203.99C408.64 221.5 402.12 220.94 400.6 238.45C399.08 255.96 405.6 256.51 404.12 274.02C402.64 291.53 396.12 291.02 394.61 308.48C393.977 314.165 394.494 319.919 396.13 325.4C397.48 328.53 403.18 340.11 414.67 343.47C415.399 343.682 416.141 343.848 416.89 343.97V402.45H419.52V344.18C430.08 344.25 437.1 333.84 442.43 325.13L442.5 325.02C444.076 319.327 444.464 313.37 443.64 307.52ZM431.76 300.62L418.71 324.84V343.06H417.59V324.86L403.06 301C402.982 300.867 402.96 300.709 402.997 300.559C403.034 300.41 403.129 300.281 403.26 300.2C403.394 300.123 403.553 300.102 403.703 300.141C403.853 300.181 403.981 300.277 404.06 300.41L417.63 322.68V254C417.528 253.965 417.438 253.903 417.37 253.82L405.76 238.82C405.715 238.762 405.681 238.695 405.662 238.623C405.642 238.552 405.637 238.478 405.646 238.404C405.656 238.331 405.679 238.26 405.716 238.196C405.753 238.132 405.802 238.075 405.86 238.03C405.918 237.985 405.985 237.951 406.057 237.932C406.128 237.912 406.202 237.907 406.276 237.916C406.349 237.926 406.42 237.949 406.484 237.986C406.548 238.023 406.605 238.072 406.65 238.13L417.65 252.3V187L409.84 171.38C409.782 171.243 409.781 171.089 409.835 170.951C409.889 170.813 409.995 170.701 410.13 170.64C410.257 170.585 410.4 170.579 410.531 170.624C410.662 170.668 410.772 170.759 410.84 170.88L417.64 184.49V161.73C417.64 161.581 417.699 161.439 417.804 161.334C417.909 161.229 418.051 161.17 418.2 161.17C418.349 161.17 418.491 161.229 418.596 161.334C418.701 161.439 418.76 161.581 418.76 161.73V183.87L423.3 172.39C423.327 172.321 423.367 172.258 423.418 172.205C423.47 172.151 423.531 172.109 423.599 172.079C423.666 172.049 423.739 172.033 423.813 172.032C423.887 172.03 423.961 172.043 424.03 172.07C424.099 172.097 424.162 172.137 424.215 172.188C424.269 172.24 424.311 172.301 424.341 172.369C424.371 172.437 424.387 172.509 424.388 172.583C424.39 172.657 424.377 172.731 424.35 172.8V172.8L418.76 186.94V251.53L429.39 238.92C429.437 238.864 429.495 238.817 429.56 238.783C429.626 238.749 429.697 238.728 429.77 238.721C429.844 238.715 429.918 238.723 429.988 238.745C430.058 238.767 430.124 238.803 430.18 238.85C430.236 238.897 430.283 238.955 430.317 239.021C430.351 239.086 430.372 239.157 430.379 239.231C430.385 239.304 430.377 239.378 430.355 239.448C430.333 239.518 430.297 239.584 430.25 239.64L418.76 253.28V322.47L430.82 300.08C430.892 299.95 431.012 299.854 431.154 299.813C431.297 299.772 431.45 299.789 431.58 299.86C431.642 299.898 431.696 299.948 431.738 300.006C431.781 300.065 431.812 300.132 431.828 300.203C431.845 300.273 431.848 300.346 431.836 300.418C431.824 300.49 431.798 300.558 431.76 300.62V300.62Z" fill="#263238"/>
<path d="M451 402.43L447.88 401.43C446.27 400.94 445.74 399.48 444.14 396.56C442.54 393.64 438.26 398.02 435.05 398.02C431.84 398.02 435.58 394.61 433.98 391.69C432.38 388.77 428.1 392.18 424.36 391.2C420.62 390.22 425.96 381.46 420.62 381.95C419.62 382.04 418.89 382.83 418.33 384.05C417.82 382.83 417.15 382.05 416.25 381.95C411.38 381.46 416.25 390.23 412.84 391.2C409.43 392.17 405.54 388.77 404.08 391.69C402.62 394.61 406.02 398.02 403.08 398.02C400.14 398.02 396.26 393.64 394.8 396.56C393.34 399.48 392.85 400.94 391.39 401.43L388.55 402.43H451Z" fill="#263238"/>
<path d="M175 259.61V259.56H174.94V259.51C173.55 259.37 159.16 258.14 146.03 264.96C151.828 257.673 154.5 248.384 153.46 239.13C150.3 207.43 120.38 189.28 118.08 187.93V187.85H117.94V188C115.63 189.35 85.72 207.5 82.55 239.2C81.8727 245.336 82.8175 251.543 85.29 257.2C68.45 247.13 48.81 248.83 47 249H46.8V249.06C45.91 251.06 34.67 278.14 48.17 301.06C60.25 321.59 85.58 316.17 92.46 314.24C98.24 320.31 108.78 334.12 113.46 357.71H106.9L110.07 402.37H124.83L128 357.77H120.27C123.811 341.787 130.2 326.571 139.13 312.85C146.01 314.57 164.66 317.47 173.85 301.85C184.81 283.2 175.68 261.28 175 259.61ZM117.54 259.44L101.94 237.77C101.907 237.725 101.883 237.675 101.87 237.621C101.856 237.567 101.854 237.511 101.862 237.456C101.87 237.401 101.889 237.349 101.918 237.301C101.947 237.254 101.985 237.213 102.03 237.18V237.18C102.122 237.113 102.236 237.084 102.349 237.101C102.461 237.118 102.562 237.179 102.63 237.27L117.52 258V236.07L101.92 214.41C101.853 214.318 101.824 214.204 101.841 214.091C101.858 213.979 101.919 213.878 102.01 213.81C102.104 213.746 102.218 213.721 102.33 213.74C102.442 213.758 102.542 213.819 102.61 213.91L117.54 234.66V202.66C117.56 202.548 117.622 202.449 117.713 202.382C117.804 202.315 117.918 202.285 118.03 202.3C118.121 202.312 118.206 202.354 118.271 202.419C118.336 202.484 118.378 202.569 118.39 202.66V233.55L134.59 213C134.659 212.913 134.759 212.856 134.869 212.841C134.979 212.826 135.09 212.855 135.18 212.92V212.92C135.265 212.99 135.32 213.091 135.333 213.201C135.346 213.311 135.316 213.422 135.25 213.51L118.37 235V257L134.57 236.45C134.604 236.405 134.647 236.368 134.696 236.34C134.745 236.312 134.799 236.294 134.855 236.288C134.911 236.281 134.968 236.286 135.022 236.302C135.076 236.318 135.126 236.344 135.17 236.38C135.213 236.414 135.25 236.457 135.277 236.505C135.304 236.553 135.321 236.606 135.327 236.661C135.334 236.715 135.329 236.771 135.314 236.824C135.299 236.877 135.274 236.927 135.24 236.97V236.97L118.37 258.37V276.93L134.57 256.39C134.639 256.303 134.739 256.246 134.849 256.231C134.959 256.216 135.07 256.245 135.16 256.31V256.31C135.245 256.38 135.3 256.481 135.313 256.591C135.326 256.701 135.296 256.812 135.23 256.9L118.37 278.3V278.71H117L101.91 257.71C101.843 257.618 101.814 257.504 101.831 257.391C101.848 257.279 101.909 257.178 102 257.11C102.094 257.046 102.208 257.021 102.32 257.04C102.432 257.058 102.532 257.119 102.6 257.21L117.52 278V259.4L117.54 259.44ZM92.71 312.33L91.18 310.23L69.18 304.11C69.0976 304.077 69.0302 304.015 68.9907 303.936C68.9512 303.857 68.9423 303.765 68.9659 303.68C68.9894 303.594 69.0437 303.521 69.1182 303.473C69.1928 303.425 69.2825 303.406 69.37 303.42L90.5 309.3L81.33 296.76L59.38 290.64C59.2888 290.614 59.2114 290.554 59.1646 290.471C59.1178 290.389 59.1054 290.292 59.13 290.2C59.1556 290.111 59.2151 290.037 59.2957 289.992C59.3762 289.947 59.4712 289.935 59.56 289.96V289.96L80.65 295.84L69.81 281L47.81 274.88C47.7669 274.87 47.7263 274.851 47.6908 274.824C47.6552 274.798 47.6253 274.764 47.6029 274.726C47.5805 274.688 47.566 274.645 47.5604 274.601C47.5547 274.557 47.558 274.513 47.57 274.47V274.47C47.5816 274.425 47.602 274.383 47.6299 274.346C47.6579 274.31 47.6929 274.279 47.7329 274.255C47.7728 274.232 47.817 274.217 47.8629 274.211C47.9087 274.205 47.9553 274.208 48 274.22V274.22L69.09 280.1L53.89 259.24C53.8348 259.163 53.8123 259.067 53.8272 258.974C53.8422 258.88 53.8935 258.796 53.97 258.74C54.0423 258.686 54.1326 258.663 54.222 258.674C54.3114 258.685 54.3931 258.73 54.45 258.8V258.8L70.23 280.38L70.08 259C70.0715 258.953 70.0726 258.905 70.0832 258.859C70.0938 258.813 70.1138 258.769 70.1418 258.731C70.1699 258.692 70.2055 258.66 70.2465 258.636C70.2874 258.612 70.3328 258.596 70.38 258.59C70.426 258.581 70.4733 258.582 70.5191 258.592C70.5648 258.602 70.6081 258.621 70.6463 258.648C70.6845 258.675 70.717 258.71 70.7416 258.75C70.7663 258.789 70.7828 258.834 70.79 258.88C70.8002 258.919 70.8002 258.961 70.79 259L71 281.32L81.83 296.15L81.68 274.76C81.6715 274.713 81.6726 274.665 81.6832 274.619C81.6938 274.573 81.7138 274.529 81.7419 274.491C81.7699 274.452 81.8055 274.42 81.8465 274.396C81.8874 274.372 81.9328 274.356 81.98 274.35C82.026 274.341 82.0733 274.342 82.1191 274.352C82.1648 274.362 82.2081 274.381 82.2463 274.408C82.2845 274.435 82.317 274.47 82.3416 274.51C82.3663 274.549 82.3828 274.594 82.39 274.64C82.4002 274.679 82.4002 274.721 82.39 274.76L82.55 297.1L91.55 309.6L91.39 288.21C91.395 288.117 91.4348 288.029 91.5015 287.965C91.5683 287.9 91.657 287.862 91.75 287.86C91.8428 287.86 91.9318 287.897 91.9975 287.963C92.0631 288.028 92.1 288.117 92.1 288.21V288.21L92.26 310.54L93.57 312.33H92.71ZM95.21 312.33C98.41 307.46 107.65 291.47 102.13 276.08C106.421 278.912 111.012 281.26 115.82 283.08V352.52C110.75 331.24 101.2 318.52 95.39 312.33H95.21ZM119.21 348.24V283.4C123.786 281.733 128.174 279.587 132.3 277C123.49 291.12 133.3 307.43 135.96 311.28C128.558 322.692 122.911 335.151 119.21 348.24V348.24ZM174.13 280.55L156.32 285.55L147.52 297.55L164.63 292.77C164.667 292.76 164.707 292.757 164.745 292.762C164.784 292.766 164.821 292.779 164.855 292.799C164.888 292.818 164.917 292.844 164.941 292.876C164.964 292.907 164.981 292.942 164.99 292.98C165.009 293.053 164.998 293.13 164.961 293.195C164.923 293.261 164.862 293.309 164.79 293.33L146.97 298.33L139.54 308.5L156.65 303.73C156.723 303.711 156.8 303.722 156.865 303.759C156.931 303.797 156.979 303.858 157 303.93C157.019 304.004 157.009 304.083 156.972 304.15C156.934 304.217 156.873 304.267 156.8 304.29L138.99 309.29L138.05 310.57C137.88 310.47 137.71 310.38 137.56 310.27L138.09 309.54L138.22 291.42C138.222 291.344 138.254 291.272 138.308 291.218C138.362 291.164 138.434 291.133 138.51 291.13C138.587 291.13 138.661 291.161 138.715 291.215C138.769 291.269 138.8 291.343 138.8 291.42L138.68 308.77L146.11 298.61L146.24 280.49C146.24 280.413 146.271 280.339 146.325 280.285C146.379 280.231 146.453 280.2 146.53 280.2C146.606 280.203 146.678 280.234 146.732 280.288C146.786 280.342 146.818 280.414 146.82 280.49L146.69 297.85L155.48 285.85L155.61 267.72C155.623 267.654 155.658 267.594 155.71 267.55C155.762 267.507 155.827 267.484 155.895 267.484C155.963 267.484 156.028 267.507 156.08 267.55C156.132 267.594 156.167 267.654 156.18 267.72L156 285L168.8 267.49C168.846 267.43 168.913 267.39 168.988 267.379C169.063 267.368 169.139 267.386 169.2 267.43C169.23 267.451 169.256 267.478 169.276 267.509C169.296 267.54 169.309 267.574 169.316 267.611C169.322 267.647 169.322 267.684 169.314 267.72C169.306 267.756 169.291 267.79 169.27 267.82V267.82L156.9 284.75L174 280C174.073 279.981 174.15 279.992 174.215 280.029C174.281 280.067 174.329 280.128 174.35 280.2C174.372 280.268 174.367 280.341 174.335 280.405C174.303 280.469 174.247 280.517 174.18 280.54L174.13 280.55Z" fill="#263238"/>
<path d="M344.9 198.49L342.25 190.55L336.67 182.91L333.47 191.82L340.78 201.43L344.9 198.49Z" fill="white"/>
<path d="M340.68 202.12L332.91 191.91L336.51 181.85L342.73 190.4L345.49 198.69L340.68 202.12ZM334 191.74L340.86 200.74L344.28 198.3L341.77 190.79L336.77 183.96L334 191.74Z" fill="#263238"/>
<path d="M384.4 223.17L362.16 223.95C361.338 223.982 360.525 223.777 359.816 223.361C359.107 222.944 358.532 222.333 358.16 221.6L344.9 198.49C344.9 198.49 341.08 200.55 340.78 201.43C340.48 202.31 349.64 224.53 353.57 234.43C353.899 235.264 354.481 235.974 355.235 236.46C355.988 236.946 356.875 237.184 357.77 237.14L382.64 236.14" fill="#08B952"/>
<path d="M357.59 237.66C356.629 237.665 355.689 237.381 354.89 236.847C354.092 236.312 353.472 235.55 353.11 234.66C352.31 232.66 351.3 230.12 350.19 227.37C341.52 205.74 340.12 201.89 340.31 201.31C340.63 200.31 343.46 198.74 344.66 198.09L345.09 197.86L358.59 221.39C358.921 222.041 359.43 222.585 360.059 222.957C360.688 223.329 361.41 223.514 362.14 223.49L384.38 222.71V223.71L362.14 224.49C361.224 224.519 360.318 224.289 359.527 223.825C358.736 223.362 358.092 222.684 357.67 221.87L344.67 199.21C343.421 199.83 342.269 200.629 341.25 201.58C341.52 203.15 347.25 217.47 351.08 227C352.18 229.75 353.2 232.28 354 234.29C354.29 235.028 354.804 235.656 355.469 236.087C356.135 236.517 356.918 236.728 357.71 236.69L382.58 235.69V236.69L357.71 237.69L357.59 237.66Z" fill="#263238"/>
<path d="M346.397 202.281L342.914 203.725L343.201 204.418L346.684 202.974L346.397 202.281Z" fill="#263238"/>
<path d="M354.78 241.56H144.48V400.53H354.78V241.56Z" fill="#08B952"/>
<path d="M354.78 401H144.48C144.347 401 144.22 400.947 144.126 400.854C144.033 400.76 143.98 400.633 143.98 400.5V241.5C143.98 241.367 144.033 241.24 144.126 241.146C144.22 241.053 144.347 241 144.48 241H354.78C354.911 241.005 355.035 241.059 355.128 241.152C355.221 241.245 355.275 241.369 355.28 241.5V400.5C355.28 400.633 355.227 400.76 355.134 400.854C355.04 400.947 354.913 401 354.78 401ZM145 400H354.3V242H145V400Z" fill="#263238"/>
<path d="M144.48 241.56L237.74 150.48C240.577 148.076 244.168 146.744 247.886 146.715C251.604 146.686 255.215 147.961 258.09 150.32L354.78 241.56H144.48Z" fill="#08B952"/>
<path d="M354.78 242.06H144.48C144.381 242.061 144.284 242.032 144.202 241.976C144.12 241.921 144.056 241.842 144.02 241.75C143.983 241.658 143.973 241.556 143.993 241.458C144.012 241.361 144.06 241.271 144.13 241.2L237.39 150.13C240.313 147.643 244.016 146.261 247.854 146.225C251.691 146.188 255.42 147.499 258.39 149.93L355.1 241.2C355.174 241.268 355.225 241.358 355.247 241.456C355.268 241.554 355.259 241.657 355.22 241.75C355.184 241.838 355.123 241.914 355.045 241.969C354.967 242.024 354.875 242.056 354.78 242.06ZM145.71 241.06H353.52L257.75 150.68C254.966 148.403 251.472 147.174 247.876 147.209C244.279 147.244 240.809 148.539 238.07 150.87L145.71 241.06Z" fill="#263238"/>
<path d="M337.34 165.68H161.92V313.72H337.34V165.68Z" fill="white"/>
<path d="M337.34 314.21H161.92C161.787 314.21 161.66 314.157 161.566 314.064C161.473 313.97 161.42 313.843 161.42 313.71V165.71C161.42 165.577 161.473 165.45 161.566 165.356C161.66 165.263 161.787 165.21 161.92 165.21H337.34C337.473 165.21 337.6 165.263 337.694 165.356C337.787 165.45 337.84 165.577 337.84 165.71V313.71C337.84 313.843 337.787 313.97 337.694 314.064C337.6 314.157 337.473 314.21 337.34 314.21ZM162.42 313.21H336.84V166.21H162.42V313.21Z" fill="#263238"/>
<path d="M329.65 304.71H169.65C169.549 304.71 169.453 304.67 169.381 304.599C169.31 304.527 169.27 304.431 169.27 304.33V304.33V175.06C169.273 174.961 169.314 174.867 169.385 174.798C169.456 174.729 169.551 174.69 169.65 174.69H329.65C329.747 174.695 329.838 174.735 329.906 174.804C329.975 174.872 330.015 174.963 330.02 175.06V304.33C330.02 304.429 329.981 304.524 329.912 304.595C329.843 304.666 329.749 304.707 329.65 304.71V304.71ZM170 304H329.27V175.44H170V304Z" fill="#08B952"/>
<path d="M324.54 301.2H174.72C174.455 301.2 174.2 301.095 174.013 300.907C173.825 300.72 173.72 300.465 173.72 300.2V179.2C173.72 178.935 173.825 178.68 174.013 178.493C174.2 178.305 174.455 178.2 174.72 178.2H324.54C324.805 178.2 325.06 178.305 325.247 178.493C325.435 178.68 325.54 178.935 325.54 179.2V300.2C325.54 300.465 325.435 300.72 325.247 300.907C325.06 301.095 324.805 301.2 324.54 301.2ZM175.72 299.2H323.54V180.2H175.72V299.2Z" fill="#08B952"/>
<path d="M242.951 221.61C243.667 222.78 244.413 223.37 245.187 223.37V223.46C244.683 223.46 244.025 223.92 243.251 224.84C243.251 225.09 243.164 225.21 242.981 225.21C242.981 224.74 242.69 224.34 242.09 224.01C241.505 223.723 240.859 223.596 240.213 223.64H220.272L218.395 224.38L218.124 224.66H217.979C217.823 224.558 217.689 224.424 217.585 224.268C217.48 224.111 217.406 223.935 217.369 223.748C217.331 223.562 217.329 223.37 217.364 223.183C217.399 222.996 217.47 222.818 217.572 222.66C217.677 222.492 217.816 222.348 217.979 222.24H218.153C218.724 222.672 219.388 222.957 220.088 223.07L220.272 223.26H240.813C242.236 223 242.951 222.49 242.951 221.61ZM246.173 220.97C246.957 220.97 247.586 221.55 248.041 222.72V222.91H247.78C246.522 222.49 245.903 222 245.903 221.43V221.24L246.173 220.97ZM247.683 223.97H247.867L248.041 224.16C248.041 224.67 247.538 225.25 246.522 225.91H246.435C246.125 225.91 245.941 225.82 245.903 225.64V225.27C246.326 224.636 246.959 224.184 247.683 224V223.97ZM251.079 220.97L251.263 221.24V221.43C251.263 221.86 250.721 222.35 249.657 222.91H249.115V222.72C249.115 222.21 249.589 221.66 250.547 221.06L251.079 220.97ZM249.299 223.97C249.724 223.998 250.13 224.162 250.46 224.44C250.992 224.76 251.263 225.1 251.263 225.44V225.63C251.205 225.81 251.021 225.9 250.721 225.9H250.634C250.081 225.608 249.618 225.161 249.299 224.61L249.115 224.33V224.15L249.299 223.97ZM254.204 221.57C254.204 222.45 254.92 223 256.352 223.24H276.894C277.28 222.942 277.747 222.778 278.229 222.77L279.032 222.22H279.216C279.408 222.351 279.565 222.53 279.673 222.739C279.782 222.948 279.839 223.182 279.839 223.42C279.839 223.658 279.782 223.892 279.673 224.101C279.565 224.31 279.408 224.489 279.216 224.62H279.032C278.331 224.129 277.541 223.789 276.71 223.62H256.972C255.52 223.62 254.591 224.06 254.204 224.92V225.19C253.459 224.19 252.84 223.62 252.327 223.62C252.327 223.5 252.211 223.44 251.979 223.44C251.979 223.32 252.182 223.26 252.598 223.26C253.298 222.933 253.845 222.332 254.117 221.59L254.204 221.57Z" fill="#08B952"/>
<path d="M144.48 242.47L249.63 321.95L354.77 242.47V401.43H144.48V242.47Z" fill="#08B952"/>
<path d="M354.78 401.93H144.48C144.347 401.93 144.22 401.877 144.126 401.784C144.033 401.69 143.98 401.563 143.98 401.43V242.43C143.986 242.339 144.014 242.251 144.063 242.174C144.111 242.097 144.179 242.033 144.259 241.99C144.339 241.946 144.428 241.923 144.519 241.923C144.611 241.923 144.7 241.946 144.78 241.99L249.63 321.24L354.47 242C354.574 241.918 354.705 241.881 354.836 241.896C354.968 241.911 355.087 241.977 355.17 242.08C355.24 242.168 355.279 242.277 355.28 242.39V401.39C355.287 401.456 355.281 401.522 355.262 401.586C355.243 401.649 355.212 401.708 355.17 401.759C355.128 401.81 355.076 401.852 355.018 401.883C354.96 401.915 354.896 401.934 354.83 401.94L354.78 401.93ZM144.98 400.93H354.28V243.47L249.93 322.35C249.843 322.413 249.738 322.448 249.63 322.448C249.522 322.448 249.417 322.413 249.33 322.35L145 243.47L144.98 400.93Z" fill="#263238"/>
<path d="M144.48 401.43L235.01 310.9H264.24L354.77 401.43H144.48Z" fill="#08B952"/>
<path d="M354.78 401.93H144.48C144.383 401.929 144.288 401.9 144.206 401.847C144.125 401.794 144.06 401.719 144.02 401.63C143.98 401.538 143.969 401.436 143.989 401.338C144.008 401.239 144.058 401.149 144.13 401.08L234.66 310.55C234.705 310.502 234.759 310.464 234.819 310.438C234.879 310.412 234.944 310.399 235.01 310.4H264.24C264.306 310.399 264.371 310.412 264.431 310.438C264.491 310.464 264.545 310.502 264.59 310.55L355.13 401.08C355.198 401.152 355.244 401.242 355.264 401.339C355.283 401.436 355.275 401.537 355.24 401.63C355.2 401.719 355.135 401.794 355.054 401.847C354.972 401.9 354.877 401.929 354.78 401.93V401.93ZM145.69 400.93H353.57L264 311.4H235.22L145.69 400.93Z" fill="#263238"/>
<path d="M378.5 212.06L378.21 220.49L388.26 218.89L388.61 204.19L378.5 212.06Z" fill="white"/>
<path d="M377.69 221.08L378 211.81L389.14 203.15L388.75 219.32L377.69 221.08ZM378.99 212.31L378.73 219.9L387.73 218.46L388.04 205.23L378.99 212.31Z" fill="#263238"/>
<path d="M370 399.41C369.791 398.822 369.62 398.221 369.49 397.61L368.92 393.38L361.52 392.2L355.35 396.59L351.43 398.75H351.35C350.385 399.141 349.464 399.63 348.6 400.21C347.95 400.78 348.27 401.42 350.22 401.42H369.6C369.6 401.42 370.54 400.87 370 399.41Z" fill="white"/>
<path d="M369.7 401.93H350.19C348.84 401.93 348.04 401.63 347.82 401.04C347.751 400.821 347.754 400.586 347.83 400.37C347.906 400.154 348.05 399.968 348.24 399.84C349.145 399.224 350.114 398.707 351.13 398.3H351.24L355.08 396.19L361.37 391.71L369.37 392.99L369.98 397.58C370.113 398.152 370.276 398.716 370.47 399.27V399.27C370.702 399.711 370.766 400.221 370.653 400.706C370.539 401.191 370.254 401.618 369.85 401.91L369.7 401.93ZM348.77 400.74C349.228 400.888 349.709 400.953 350.19 400.93H369.4C369.55 400.78 369.81 400.38 369.51 399.59C369.289 398.979 369.109 398.354 368.97 397.72L368.45 393.82L361.62 392.72L355.62 397L351.49 399.24C350.586 399.6 349.721 400.052 348.91 400.59C348.856 400.63 348.812 400.681 348.78 400.74H348.77Z" fill="#263238"/>
<path d="M370.12 400H348.9C348.782 400.072 348.671 400.155 348.57 400.25C347.92 400.82 348.24 401.46 350.19 401.46H369.57C369.794 401.297 369.966 401.072 370.064 400.812C370.161 400.553 370.181 400.27 370.12 400V400Z" fill="white"/>
<path d="M369.7 401.93H350.19C348.84 401.93 348.04 401.63 347.82 401.04C347.751 400.821 347.754 400.586 347.83 400.37C347.906 400.154 348.05 399.968 348.24 399.84C348.362 399.735 348.492 399.642 348.63 399.56L348.75 399.47H370.55L370.62 399.9C370.702 400.275 370.669 400.666 370.527 401.023C370.384 401.379 370.138 401.685 369.82 401.9L369.7 401.93ZM348.77 400.74C349.228 400.888 349.709 400.953 350.19 400.93H369.39C369.511 400.803 369.591 400.643 369.62 400.47H349.05L348.9 400.59C348.846 400.63 348.802 400.681 348.77 400.74V400.74Z" fill="#263238"/>
<path d="M402.65 399.41C402.442 398.821 402.268 398.22 402.13 397.61L401.57 393.38L394.17 392.2L388 396.59L384.08 398.75H384C383.032 399.14 382.107 399.63 381.24 400.21C380.59 400.78 380.92 401.42 382.86 401.42H402.24C402.24 401.42 403.21 400.87 402.65 399.41Z" fill="white"/>
<path d="M402.38 401.93H382.86C381.51 401.93 380.72 401.63 380.49 401.04C380.421 400.821 380.424 400.586 380.5 400.37C380.576 400.154 380.72 399.968 380.91 399.84C381.815 399.224 382.784 398.707 383.8 398.3H383.92L387.75 396.19L394.05 391.71L402.05 392.99L402.66 397.58C402.789 398.152 402.95 398.716 403.14 399.27C403.376 399.71 403.443 400.221 403.329 400.707C403.215 401.193 402.927 401.621 402.52 401.91L402.38 401.93ZM381.45 400.74C381.903 400.893 382.382 400.958 382.86 400.93H402.07C402.22 400.78 402.49 400.38 402.18 399.59C401.968 398.977 401.791 398.353 401.65 397.72L401.12 393.82L394.29 392.72L388.29 397L384.16 399.24C383.256 399.6 382.391 400.052 381.58 400.59C381.529 400.633 381.485 400.684 381.45 400.74V400.74Z" fill="#263238"/>
<path d="M402.8 400H381.58C381.46 400.074 381.347 400.158 381.24 400.25C380.59 400.82 380.92 401.46 382.86 401.46H402.24C402.465 401.297 402.638 401.073 402.737 400.813C402.837 400.554 402.859 400.271 402.8 400V400Z" fill="white"/>
<path d="M402.38 401.93H382.86C381.51 401.93 380.72 401.63 380.49 401.04C380.421 400.821 380.424 400.586 380.5 400.37C380.576 400.154 380.72 399.968 380.91 399.84C381.032 399.735 381.162 399.642 381.3 399.56L381.43 399.47H403.23L403.29 399.9C403.374 400.274 403.344 400.665 403.203 401.022C403.062 401.378 402.817 401.684 402.5 401.9L402.38 401.93ZM381.45 400.74C381.903 400.893 382.382 400.958 382.86 400.93H402.07C402.189 400.802 402.269 400.642 402.3 400.47H381.73L381.57 400.59C381.519 400.633 381.475 400.683 381.44 400.74H381.45Z" fill="#263238"/>
<path d="M367.28 275.53L366.39 286.53C366.39 286.53 360.24 330.29 360.53 335.32C360.82 340.35 361.53 392.25 361.53 392.25L368.93 393.43L377.25 335.86L388.93 277.36L367.28 275.53Z" fill="#08B952"/>
<path d="M369.32 394L361 392.62V392.2C361 391.68 360.34 340.27 360.05 335.3C359.76 330.33 365.66 288.2 365.91 286.41L366.83 274.99L389.5 276.85L389.39 277.4L377.7 335.91L369.32 394ZM362 391.77L368.48 392.77L376.72 335.7L388.3 277.7L367.75 276L366.9 286.45C366.84 286.92 360.76 330.25 361.04 335.17C361.32 340.09 361.92 386.81 362 391.77Z" fill="#263238"/>
<path d="M366.69 391.11L366 391C366 390.84 369.2 374.55 369.2 365.78C369.2 357.01 369.2 348.63 371.34 340.39C373.45 332.31 376.34 315.65 376.34 315.48L377.08 315.61C377.08 315.78 374.2 332.46 372.08 340.61C369.96 348.76 370 357 370 365.81C370 374.62 366.72 391 366.69 391.11Z" fill="#263238"/>
<path d="M382.3 272.83C387.19 270.28 392.44 268.57 393.92 271.98C396.92 278.79 393.33 289.15 393.33 289.15L396 336.89L401.31 393.41L392.96 393.33C392.96 393.33 382.17 344.69 380.4 341.73C378.63 338.77 375.82 297.14 375.82 297.14L370.22 292" fill="#08B952"/>
<path d="M401.9 393.91L392.6 393.82L392.51 393.43C388.79 376.64 381.38 344.27 380.01 341.98C378.25 339.05 375.72 302.5 375.38 297.37L369.88 292.37L370.55 291.63L376.35 296.88V297.08C377.47 313.77 379.6 339.35 380.86 341.45C382.59 344.34 392.29 387.88 393.39 392.81L400.79 392.88L395.53 336.88L392.81 289V288.9C392.81 288.8 396.26 278.64 393.41 272.1C393.282 271.772 393.082 271.476 392.827 271.234C392.571 270.992 392.265 270.81 391.93 270.7C390.11 270.05 386.84 270.92 382.48 273.19L382.02 272.3C386.69 269.86 390.14 269.01 392.27 269.76C392.733 269.915 393.157 270.169 393.513 270.504C393.868 270.839 394.147 271.247 394.33 271.7C397.21 278.34 394.16 288.01 393.78 289.13L396.49 336.78L401.9 393.91Z" fill="#263238"/>
<path d="M397.66 390.72C397.66 390.52 395.49 370.27 392.32 355.85C389.92 344.92 390.1 344.26 390.32 343.27C390.451 342.815 390.509 342.343 390.49 341.87V339.87C390.55 336.47 390.64 331.33 389.77 328.46C388.44 324.01 387.77 317.66 387.59 309.04H388.34C388.47 317.59 389.18 323.87 390.49 328.26C391.39 331.26 391.3 336.45 391.24 339.89V341.89C391.257 342.43 391.193 342.969 391.05 343.49C390.83 344.31 390.65 344.95 393.05 355.71C396.23 370.17 398.38 390.46 398.41 390.71L397.66 390.72Z" fill="#263238"/>
<path d="M388.39 303.51H387.64V300.89C387.94 286.74 387.73 285.17 387.64 285L387.98 284.87L387.64 284.7L388.07 284.5C388.45 284.59 388.7 284.65 388.35 300.91C388.41 301.8 388.4 302.67 388.39 303.51Z" fill="#263238"/>
<path d="M372 292.59C371.945 292.589 371.892 292.577 371.842 292.554C371.792 292.532 371.747 292.5 371.71 292.46L369.98 290.46C369.935 290.413 369.905 290.354 369.892 290.29C369.88 290.226 369.886 290.16 369.91 290.1L371.05 286.67L371.28 281.67C371.281 281.621 371.292 281.572 371.313 281.527C371.333 281.482 371.363 281.441 371.399 281.408C371.435 281.374 371.478 281.348 371.525 281.331C371.571 281.315 371.621 281.307 371.67 281.31C371.767 281.315 371.859 281.357 371.926 281.428C371.993 281.499 372.03 281.593 372.03 281.69V281.69L371.79 286.69C371.8 286.726 371.8 286.764 371.79 286.8L370.7 290.07L372.3 291.94C372.368 292.009 372.407 292.103 372.407 292.2C372.407 292.297 372.368 292.391 372.3 292.46V292.46C372.263 292.503 372.217 292.536 372.165 292.559C372.113 292.581 372.057 292.592 372 292.59Z" fill="#263238"/>
<path d="M377.07 287.25C371.48 287.25 369.21 285.05 369.07 284.94C369.036 284.907 369.01 284.867 368.992 284.823C368.973 284.779 368.964 284.732 368.964 284.685C368.964 284.638 368.973 284.591 368.992 284.547C369.01 284.503 369.036 284.463 369.07 284.43C369.139 284.362 369.233 284.323 369.33 284.323C369.427 284.323 369.521 284.362 369.59 284.43C369.59 284.43 372.49 287.19 379.72 286.35C379.767 286.343 379.816 286.345 379.862 286.357C379.908 286.369 379.952 286.39 379.99 286.419C380.028 286.448 380.06 286.484 380.084 286.525C380.108 286.567 380.124 286.613 380.13 286.66V286.66C380.144 286.757 380.12 286.855 380.062 286.934C380.004 287.013 379.917 287.065 379.82 287.08V287.08C378.908 287.192 377.989 287.249 377.07 287.25V287.25Z" fill="#263238"/>
<path d="M387.16 282.18C392.8 281.08 393.16 279.49 395.09 278.18C395.109 276.053 394.712 273.944 393.92 271.97C392.44 268.56 387.19 270.27 382.3 272.82L380 276.57L367.33 275.57L366.93 280.57C373.443 282.739 380.386 283.292 387.16 282.18Z" fill="#263238"/>
<path d="M368.54 278.97L368.42 280.95L371.64 281.69L371.88 279.1L368.54 278.97Z" fill="white"/>
<path d="M372 282.16L368.06 281.25L368.22 278.58L372.32 278.74L372 282.16ZM368.84 280.66L371.33 281.23L371.5 279.46L368.93 279.36L368.84 280.66Z" fill="#263238"/>
<path d="M390.99 281.9L390.44 276.99L392.08 276.44L392.9 280.81" fill="#08B952"/>
<path d="M390.49 281.96L389.9 276.64L392.46 275.78L393.39 280.72L392.41 280.9L391.69 277.1L390.98 277.33L391.48 281.85L390.49 281.96Z" fill="#263238"/>
<path d="M378.42 283.55L377.32 277.81H380.05L381.15 282.73" fill="#08B952"/>
<path d="M377.92 283.64L376.72 277.31H380.46L381.64 282.62L380.66 282.83L379.65 278.31H377.93L378.91 283.45L377.92 283.64Z" fill="#263238"/>
<path d="M375.4 220.53C375.4 220.53 370.09 226.53 367.97 229.02C365.85 231.51 365.85 258.02 365.85 261.93C365.85 265.84 363.73 276.42 367.27 278.54C370.81 280.66 392.39 279.96 394.51 276.42C396.63 272.88 398.04 230.42 397.69 226.55C397.34 222.68 394.14 219.55 391.69 218.41C389.24 217.27 375.4 220.53 375.4 220.53Z" fill="white"/>
<path d="M376.88 280.23C372.63 280.23 368.52 279.87 367.01 278.97C364.01 277.18 364.65 270.46 365.1 265.55C365.23 264.08 365.35 262.82 365.35 261.93C365.35 250.49 365.64 230.93 367.59 228.7C369.69 226.25 374.97 220.26 375.03 220.2L375.13 220.08H375.29C376.72 219.74 389.29 216.81 391.88 217.99C394.75 219.31 397.83 222.66 398.19 226.53C398.55 230.4 397.12 273.08 394.94 276.7C393.46 279.18 385.01 279.92 381.45 280.13C380 280.19 378.42 280.23 376.88 280.23ZM375.67 221C374.91 221.86 370.28 227.12 368.35 229.37C367.12 230.81 366.35 243.29 366.35 261.95C366.35 262.89 366.23 264.17 366.1 265.66C365.7 270.04 365.1 276.66 367.53 278.13C369.08 279.06 375.04 279.49 381.39 279.13C388.16 278.74 393.26 277.56 394.08 276.19C396.08 272.81 397.54 230.46 397.19 226.62C396.84 222.78 393.57 219.86 391.46 218.89C389.79 218.09 381.16 219.7 375.67 221Z" fill="#263238"/>
<path d="M391.67 218.41C391.378 218.288 391.066 218.221 390.75 218.21L389.22 219.01C389.22 219.01 393.46 222.29 394.22 227.3C394.932 232.032 394.868 236.849 394.03 241.56C393.26 246.77 380.92 241.56 383.24 243.49C385.56 245.42 394.24 248.7 394.61 250.43C394.98 252.16 390.37 255.06 388.61 255.25C386.85 255.44 389.77 259.3 391.51 262.58C393.25 265.86 392.66 270.48 388.61 273.58C384.56 276.68 375.29 278.24 371.27 278.4C369.96 278.45 369.14 278.74 368.91 279.13C375.08 280.5 392.58 279.61 394.48 276.44C396.61 272.9 398.01 230.44 397.66 226.57C397.31 222.7 394.14 219.55 391.67 218.41Z" fill="#08B952"/>
<path d="M386.27 247.46C380.57 245.68 375.59 240.69 375.59 240.69C376.849 246.595 380.283 251.81 385.21 255.3" fill="white"/>
<path d="M385.21 255.67C385.131 255.673 385.053 255.648 384.99 255.6C380.001 252.036 376.518 246.742 375.22 240.75C375.206 240.672 375.218 240.592 375.254 240.521C375.29 240.451 375.348 240.394 375.42 240.36C375.488 240.322 375.567 240.307 375.645 240.318C375.723 240.329 375.795 240.365 375.85 240.42C375.85 240.47 380.85 245.42 386.39 247.1C386.483 247.132 386.56 247.199 386.605 247.287C386.65 247.374 386.659 247.476 386.63 247.57C386.617 247.617 386.595 247.662 386.565 247.7C386.535 247.739 386.497 247.771 386.454 247.794C386.411 247.818 386.363 247.832 386.315 247.836C386.266 247.841 386.217 247.835 386.17 247.82V247.82C382.495 246.498 379.12 244.458 376.24 241.82C377.695 247.137 380.937 251.791 385.42 255C385.46 255.027 385.494 255.062 385.521 255.102C385.547 255.143 385.565 255.188 385.573 255.236C385.582 255.283 385.58 255.332 385.57 255.379C385.559 255.426 385.538 255.471 385.51 255.51C385.477 255.559 385.432 255.6 385.38 255.628C385.328 255.656 385.269 255.67 385.21 255.67V255.67Z" fill="#263238"/>
<path d="M390.61 214.52L373.63 218.41L372.57 223.36L391.67 218.41L390.61 214.52Z" fill="white"/>
<path d="M371.91 224.05L373.21 217.99L391 213.92L392.32 218.77L371.91 224.05ZM374.05 218.83L373.23 222.68L391.06 218.05L390.26 215.11L374.05 218.83Z" fill="#263238"/>
<path d="M341.67 192L337.1 189.36C337.1 189.36 335.33 189.13 336.1 191.12L340.66 194.64" fill="white"/>
<path d="M340.65 195.16C340.541 195.162 340.435 195.127 340.35 195.06L335.78 191.53C335.708 191.477 335.652 191.404 335.62 191.32C335.462 191.024 335.385 190.692 335.396 190.357C335.406 190.022 335.504 189.695 335.68 189.41C335.868 189.212 336.1 189.06 336.357 188.968C336.614 188.876 336.889 188.846 337.16 188.88C337.226 188.889 337.29 188.91 337.35 188.94L341.92 191.59C341.984 191.614 342.042 191.651 342.091 191.699C342.14 191.746 342.179 191.803 342.205 191.866C342.231 191.929 342.244 191.997 342.243 192.065C342.242 192.133 342.227 192.201 342.199 192.263C342.171 192.325 342.13 192.381 342.08 192.427C342.03 192.473 341.97 192.508 341.906 192.53C341.841 192.553 341.773 192.561 341.705 192.556C341.637 192.551 341.57 192.532 341.51 192.5L341.42 192.45L337 189.87C336.82 189.853 336.641 189.906 336.5 190.02C336.4 190.15 336.42 190.45 336.55 190.83L341 194.27C341.052 194.308 341.096 194.357 341.13 194.413C341.163 194.468 341.185 194.53 341.194 194.594C341.203 194.658 341.2 194.724 341.184 194.786C341.168 194.849 341.139 194.908 341.1 194.96C341.047 195.027 340.978 195.081 340.9 195.115C340.821 195.15 340.736 195.166 340.65 195.16V195.16Z" fill="#263238"/>
<path d="M341 198.89C340.79 198.343 340.474 197.844 340.07 197.42L339.22 196.5L334.58 190.75C334.58 190.75 333.14 189.75 333.46 191.87L336.34 197.46L331.22 192.67C331.22 192.67 330.22 191.87 330.22 192.98C330.22 194.09 334.86 199.06 334.86 199.06L329.74 196.66C329.74 196.66 328.62 197.46 329.42 198.26C330.22 199.06 334.54 200.66 334.54 200.66L330.7 200.5C330.7 200.5 329.58 201.5 330.38 201.78C331.18 202.06 335.66 203.06 335.66 203.06C336.231 203.541 336.88 203.92 337.58 204.18L338.7 206.26L343 204.1L341 198.89Z" fill="white"/>
<path d="M338.75 206.72C338.66 206.719 338.572 206.695 338.495 206.649C338.418 206.603 338.354 206.538 338.31 206.46L337.31 204.54C336.647 204.288 336.029 203.93 335.48 203.48C334.58 203.28 331.04 202.48 330.28 202.21C330.132 202.157 329.999 202.066 329.896 201.947C329.793 201.828 329.722 201.684 329.69 201.53C329.59 200.89 330.26 200.26 330.46 200.08C330.559 200.001 330.683 199.958 330.81 199.96H331.75C330.825 199.609 329.954 199.131 329.16 198.54C329.011 198.405 328.894 198.237 328.82 198.05C328.745 197.863 328.715 197.661 328.73 197.46C328.822 196.944 329.113 196.484 329.54 196.18C329.611 196.126 329.695 196.093 329.783 196.084C329.871 196.076 329.96 196.091 330.04 196.13L332.91 197.48C331.44 195.79 329.81 193.74 329.81 192.9C329.785 192.701 329.821 192.5 329.911 192.322C330.002 192.143 330.145 191.997 330.32 191.9C330.541 191.838 330.775 191.835 330.998 191.891C331.22 191.948 331.424 192.061 331.59 192.22L334.59 195.06L333.03 192.06C333.02 192.011 333.02 191.96 333.03 191.91C333.03 191.58 332.83 190.56 333.48 190.14C333.713 190.032 333.972 189.99 334.227 190.018C334.483 190.046 334.726 190.144 334.93 190.3C334.971 190.328 335.008 190.362 335.04 190.4L339.68 196.16C339.712 196.203 339.739 196.25 339.76 196.3L340.49 197.09C340.922 197.563 341.261 198.112 341.49 198.71L343.54 203.88C343.588 203.996 343.59 204.126 343.546 204.243C343.501 204.36 343.413 204.456 343.3 204.51L339 206.68C338.92 206.709 338.835 206.722 338.75 206.72V206.72ZM330.68 201.3C331.51 201.59 334.63 202.3 335.81 202.53C335.937 202.556 336.049 202.632 336.12 202.74C336.627 203.145 337.198 203.463 337.81 203.68C337.919 203.721 338.011 203.799 338.07 203.9L338.96 205.56L342.42 203.82L340.53 199.07C340.332 198.588 340.051 198.145 339.7 197.76L338.84 196.84C338.79 196.782 338.753 196.714 338.73 196.64L334.25 191.09C334.152 191.039 334.048 191.002 333.94 190.98C333.9 191.208 333.9 191.442 333.94 191.67L336.78 197.2C336.834 197.303 336.85 197.422 336.824 197.536C336.799 197.649 336.733 197.75 336.64 197.82C336.551 197.897 336.438 197.939 336.32 197.939C336.203 197.939 336.089 197.897 336 197.82L330.88 193.02L330.76 192.94C330.76 193.56 333.13 196.4 335.26 198.68C335.307 198.726 335.344 198.782 335.369 198.843C335.395 198.904 335.408 198.969 335.408 199.035C335.408 199.101 335.395 199.166 335.369 199.227C335.344 199.288 335.307 199.344 335.26 199.39C335.189 199.46 335.098 199.507 334.999 199.523C334.901 199.539 334.8 199.524 334.71 199.48L329.89 197.22C329.789 197.322 329.72 197.45 329.69 197.59C329.702 197.697 329.751 197.796 329.83 197.87C331.386 198.812 333.043 199.577 334.77 200.15C334.882 200.192 334.975 200.273 335.033 200.377C335.092 200.481 335.112 200.603 335.09 200.72C335.066 200.836 335.002 200.941 334.909 201.014C334.815 201.087 334.699 201.125 334.58 201.12L330.95 200.97C330.846 201.067 330.755 201.178 330.68 201.3V201.3Z" fill="#263238"/>
<path d="M390.35 237L357.58 244.82C356.267 245.049 354.915 244.817 353.754 244.163C352.593 243.508 351.694 242.472 351.21 241.23L338.75 206.23L343.05 204.07L357.21 227.17C357.621 227.922 358.262 228.522 359.04 228.883C359.818 229.243 360.691 229.343 361.53 229.17L381.14 223.62" fill="white"/>
<path d="M356.61 245.35C355.344 245.35 354.108 244.969 353.062 244.255C352.017 243.541 351.211 242.529 350.75 241.35L338.13 206L343.23 203.43L357.64 226.93C357.991 227.6 358.551 228.138 359.234 228.463C359.918 228.788 360.689 228.881 361.43 228.73L381 223.17L381.27 224.17L361.66 229.72C360.708 229.916 359.718 229.8 358.837 229.39C357.957 228.979 357.232 228.295 356.77 227.44L342.86 204.75L339.37 206.51L351.68 241C352.123 242.131 352.943 243.075 354.002 243.67C355.061 244.266 356.293 244.478 357.49 244.27L390.23 236.45L390.46 237.45L357.7 245.28C357.339 245.333 356.975 245.357 356.61 245.35Z" fill="#263238"/>
<path d="M343.35 220.17C343.35 220.17 353.56 239.44 357.42 240.79C361.28 242.14 369.37 239.25 369.37 239.25C369.37 239.25 358.19 238.25 362.04 237.9C365.89 237.55 370.33 238.48 377.66 236.75C384.99 235.02 388.66 231.75 386.72 235.01C384.78 238.27 373.99 240.41 370.14 241.76C366.29 243.11 357.8 245.23 355.3 244.84C354.51 244.666 353.77 244.315 353.134 243.815C352.499 243.315 351.985 242.677 351.63 241.95L343.35 220.17Z" fill="#08B952"/>
<path d="M345.295 207.972L340.306 210.47L340.641 211.141L345.631 208.643L345.295 207.972Z" fill="#263238"/>
<path d="M393.82 198.16C394.284 198.084 394.76 198.161 395.177 198.379C395.594 198.598 395.928 198.945 396.13 199.37C396.405 199.93 396.535 200.551 396.509 201.174C396.483 201.798 396.301 202.405 395.98 202.94C394.42 205.68 390.71 206.65 390.71 206.65C390.71 206.65 387.19 211.73 383.71 213.1C380.23 214.47 374.57 214.78 372.96 207.63C372.26 204.49 374.33 191.63 374.33 191.63C374.392 190.692 374.64 189.777 375.059 188.935C375.478 188.094 376.059 187.345 376.77 186.73C379.09 184.96 384.49 184.63 387.58 185.62C390.67 186.61 392.58 189.48 393.43 191.69C393.978 193.321 394.202 195.043 394.09 196.76L393.76 198.2L393.82 198.16Z" fill="white"/>
<path d="M379.76 214.38C378.564 214.4 377.382 214.122 376.32 213.57C374.38 212.57 373.07 210.57 372.44 207.74C371.72 204.54 373.71 192.06 373.8 191.53C373.864 190.528 374.13 189.548 374.582 188.651C375.034 187.754 375.662 186.958 376.43 186.31C378.93 184.41 384.54 184.11 387.7 185.13C391.44 186.33 393.25 189.97 393.85 191.48C394.431 193.183 394.669 194.984 394.55 196.78L394.36 197.65C394.831 197.68 395.286 197.836 395.676 198.102C396.067 198.367 396.379 198.733 396.58 199.16C396.886 199.788 397.031 200.482 397.003 201.18C396.975 201.878 396.775 202.558 396.42 203.16C394.95 205.72 391.81 206.81 391.01 207.06C390.39 207.93 387.17 212.25 383.85 213.54C382.548 214.063 381.163 214.347 379.76 214.38V214.38ZM383.42 185.55C380.99 185.55 378.42 186.05 377.04 187.1C375.719 188.252 374.91 189.881 374.79 191.63C374.79 191.81 372.73 204.51 373.41 207.52C373.98 210.06 375.12 211.8 376.79 212.69C379.29 214.02 382.31 213.1 383.49 212.64C386.82 211.34 390.26 206.42 390.3 206.37L390.4 206.22L390.58 206.17C390.58 206.17 394.11 205.17 395.58 202.69C395.866 202.226 396.027 201.696 396.05 201.152C396.073 200.608 395.956 200.066 395.71 199.58C395.55 199.255 395.289 198.99 394.967 198.824C394.645 198.659 394.278 198.601 393.92 198.66L393.1 198.79L393.6 196.63C393.684 195.014 393.467 193.397 392.96 191.86C392.4 190.48 390.76 187.15 387.42 186.08C386.122 185.7 384.773 185.521 383.42 185.55V185.55Z" fill="#263238"/>
<path d="M382.23 198.15C382.11 198.66 382.23 199.15 382.47 199.15C382.71 199.15 383.03 198.85 383.15 198.34C383.27 197.83 383.15 197.34 382.91 197.34C382.67 197.34 382.35 197.64 382.23 198.15Z" fill="#263238"/>
<path d="M376.8 197.13C376.68 197.63 376.8 198.13 377.04 198.13C377.28 198.13 377.6 197.83 377.72 197.33C377.84 196.83 377.72 196.33 377.48 196.33C377.24 196.33 376.92 196.62 376.8 197.13Z" fill="#263238"/>
<path d="M385.63 196.34C385.55 196.34 385.472 196.318 385.405 196.275C385.338 196.233 385.284 196.172 385.25 196.1C384.98 195.637 384.599 195.249 384.142 194.97C383.684 194.691 383.165 194.529 382.63 194.5C382.573 194.496 382.518 194.481 382.468 194.456C382.417 194.431 382.372 194.396 382.334 194.353C382.297 194.31 382.269 194.261 382.251 194.207C382.233 194.153 382.226 194.096 382.23 194.04V194.04C382.243 193.926 382.298 193.821 382.386 193.747C382.473 193.672 382.585 193.634 382.7 193.64C383.383 193.68 384.046 193.892 384.626 194.255C385.206 194.619 385.686 195.123 386.02 195.72C386.046 195.769 386.063 195.822 386.068 195.877C386.074 195.932 386.069 195.987 386.053 196.04C386.037 196.093 386.011 196.143 385.976 196.185C385.942 196.228 385.899 196.264 385.85 196.29C385.783 196.327 385.707 196.344 385.63 196.34V196.34Z" fill="#263238"/>
<path d="M375.45 195.18C375.334 195.179 375.222 195.133 375.14 195.05C375.1 195.01 375.068 194.963 375.046 194.91C375.024 194.858 375.013 194.802 375.013 194.745C375.013 194.688 375.024 194.632 375.046 194.58C375.068 194.527 375.1 194.48 375.14 194.44V194.44C375.584 193.982 376.159 193.673 376.785 193.555C377.412 193.437 378.06 193.515 378.64 193.78C378.69 193.808 378.733 193.846 378.768 193.89C378.803 193.935 378.828 193.987 378.843 194.042C378.858 194.096 378.862 194.154 378.854 194.21C378.847 194.266 378.829 194.321 378.8 194.37C378.749 194.462 378.665 194.532 378.565 194.565C378.465 194.599 378.356 194.593 378.26 194.55V194.55C377.836 194.368 377.367 194.319 376.915 194.41C376.464 194.502 376.05 194.728 375.73 195.06C375.655 195.134 375.555 195.176 375.45 195.18V195.18Z" fill="#263238"/>
<path d="M379.1 202.48C378.729 202.471 378.37 202.348 378.071 202.128C377.773 201.908 377.549 201.601 377.43 201.25C377.26 200.58 377.71 200.11 378.11 199.7C378.427 199.438 378.663 199.091 378.79 198.7C379 197.7 379.26 195.86 379.26 195.85C379.268 195.794 379.287 195.739 379.316 195.69C379.345 195.641 379.383 195.598 379.428 195.564C379.474 195.529 379.526 195.504 379.581 195.49C379.636 195.475 379.694 195.472 379.75 195.48C379.806 195.488 379.861 195.507 379.91 195.536C379.959 195.565 380.002 195.603 380.036 195.648C380.071 195.694 380.096 195.746 380.11 195.801C380.125 195.856 380.128 195.914 380.12 195.97V195.97C380.12 196.05 379.85 197.81 379.63 198.87C379.481 199.427 379.168 199.925 378.73 200.3C378.38 200.66 378.22 200.84 378.26 201.02C378.39 201.53 379.16 201.6 379.16 201.61C379.217 201.614 379.272 201.629 379.322 201.654C379.373 201.679 379.418 201.714 379.456 201.757C379.493 201.8 379.521 201.849 379.539 201.903C379.557 201.957 379.564 202.014 379.56 202.07V202.07C379.557 202.127 379.544 202.182 379.52 202.233C379.496 202.284 379.462 202.33 379.42 202.368C379.378 202.406 379.329 202.436 379.276 202.455C379.223 202.474 379.166 202.483 379.11 202.48H379.1Z" fill="#263238"/>
<path d="M381.3 206C380.883 206 380.469 205.94 380.07 205.82C380.016 205.803 379.966 205.775 379.923 205.739C379.88 205.703 379.844 205.658 379.818 205.608C379.792 205.558 379.776 205.503 379.771 205.447C379.767 205.391 379.773 205.334 379.79 205.28V205.28C379.827 205.171 379.905 205.08 380.008 205.027C380.111 204.975 380.23 204.965 380.34 205C380.725 205.124 381.132 205.163 381.534 205.117C381.936 205.07 382.323 204.938 382.67 204.73C382.715 204.696 382.767 204.671 382.822 204.657C382.877 204.643 382.934 204.639 382.99 204.647C383.046 204.655 383.1 204.674 383.149 204.703C383.198 204.732 383.241 204.77 383.275 204.815C383.309 204.86 383.334 204.912 383.348 204.967C383.362 205.022 383.366 205.079 383.358 205.135C383.35 205.191 383.331 205.245 383.302 205.294C383.273 205.343 383.235 205.386 383.19 205.42C382.638 205.809 381.976 206.012 381.3 206V206Z" fill="#263238"/>
<path d="M390.32 182.62C390.32 182.62 386.02 178.9 381.91 178.9C377.8 178.9 374.49 181.25 371.91 181.44C369.33 181.63 367.61 179.29 366.04 182.44C364.47 185.59 370.34 190.84 374.25 191.63C378.16 192.42 383.63 191.24 385.2 191.04C386.695 190.93 388.195 190.93 389.69 191.04C389.69 191.04 388.52 194.75 389.69 195.93C390.105 196.257 390.442 196.671 390.679 197.142C390.916 197.614 391.046 198.132 391.06 198.66C391.13 199.515 391.261 200.363 391.45 201.2L392.62 201.59L393.21 199.44C394.794 197.75 395.875 195.651 396.33 193.38C396.92 189.87 393.99 186.38 393.99 186.38L390.32 182.62Z" fill="#263238"/>
<path d="M378.4 190.59C376.866 190.59 375.335 190.47 373.82 190.23C373.766 190.22 373.718 190.19 373.686 190.145C373.654 190.1 373.641 190.044 373.65 189.99V189.99C373.652 189.963 373.66 189.936 373.673 189.912C373.687 189.888 373.704 189.867 373.726 189.85C373.748 189.833 373.772 189.821 373.799 189.814C373.825 189.807 373.853 189.806 373.88 189.81V189.81C373.94 189.81 380.56 191.04 385.67 188.92C387.06 188.35 387.85 187.58 388.03 186.62C388.38 184.78 386.35 182.8 386.33 182.78C386.309 182.76 386.291 182.736 386.28 182.71C386.268 182.683 386.262 182.654 386.262 182.625C386.262 182.596 386.268 182.567 386.28 182.54C386.291 182.514 386.309 182.49 386.33 182.47C386.372 182.431 386.428 182.41 386.485 182.41C386.542 182.41 386.598 182.431 386.64 182.47C386.73 182.55 388.86 184.63 388.46 186.7C388.289 187.325 387.959 187.896 387.502 188.355C387.044 188.814 386.475 189.147 385.85 189.32C383.47 190.212 380.941 190.643 378.4 190.59V190.59Z" fill="white"/>
<path d="M389 191.13C388.946 191.13 388.895 191.111 388.854 191.076C388.814 191.042 388.787 190.993 388.78 190.94C388.774 190.883 388.791 190.826 388.826 190.782C388.862 190.737 388.913 190.707 388.97 190.7C389.04 190.7 390.66 190.49 391.5 188.14C391.604 187.725 391.614 187.292 391.527 186.873C391.44 186.454 391.26 186.06 391 185.72C390.14 184.365 388.954 183.248 387.55 182.47C387.492 182.47 387.436 182.447 387.394 182.406C387.353 182.364 387.33 182.308 387.33 182.25C387.33 182.194 387.352 182.141 387.391 182.101C387.431 182.062 387.484 182.04 387.54 182.04V182.04C388 182.04 389.95 183.46 391.11 185.11C391.49 185.534 391.761 186.044 391.899 186.597C392.037 187.149 392.037 187.727 391.9 188.28C390.96 190.91 389.09 191.13 389.01 191.13H389Z" fill="white"/>
<path d="M218.322 197.3H218.883V205H218.322V197.3ZM227.836 197.3V205H227.374L222.127 198.312V205H221.566V197.3H222.039L227.275 203.988V197.3H227.836ZM236.577 197.3L233.145 205H232.584L229.152 197.3H229.768L232.881 204.274L235.994 197.3H236.577ZM237.819 197.3H238.38V205H237.819V197.3ZM242.537 197.806H239.765V197.3H245.87V197.806H243.098V205H242.537V197.806ZM251.638 202.833H247.172L246.193 205H245.588L249.13 197.3H249.691L253.233 205H252.628L251.638 202.833ZM251.429 202.36L249.405 197.916L247.392 202.36H251.429ZM255.718 197.806H252.946V197.3H259.051V197.806H256.279V205H255.718V197.806ZM260.442 197.3H261.003V205H260.442V197.3ZM266.953 205.055C266.198 205.055 265.516 204.886 264.907 204.549C264.299 204.204 263.818 203.735 263.466 203.141C263.122 202.547 262.949 201.883 262.949 201.15C262.949 200.417 263.122 199.753 263.466 199.159C263.818 198.565 264.299 198.099 264.907 197.762C265.516 197.417 266.198 197.245 266.953 197.245C267.709 197.245 268.391 197.414 268.999 197.751C269.608 198.088 270.085 198.554 270.429 199.148C270.781 199.742 270.957 200.409 270.957 201.15C270.957 201.891 270.781 202.558 270.429 203.152C270.085 203.746 269.608 204.212 268.999 204.549C268.391 204.886 267.709 205.055 266.953 205.055ZM266.953 204.538C267.599 204.538 268.182 204.391 268.702 204.098C269.223 203.805 269.634 203.401 269.934 202.888C270.235 202.367 270.385 201.788 270.385 201.15C270.385 200.512 270.235 199.936 269.934 199.423C269.634 198.902 269.223 198.495 268.702 198.202C268.182 197.909 267.599 197.762 266.953 197.762C266.308 197.762 265.721 197.909 265.193 198.202C264.673 198.495 264.262 198.902 263.961 199.423C263.661 199.936 263.51 200.512 263.51 201.15C263.51 201.788 263.661 202.367 263.961 202.888C264.262 203.401 264.673 203.805 265.193 204.098C265.721 204.391 266.308 204.538 266.953 204.538ZM279.173 197.3V205H278.711L273.464 198.312V205H272.903V197.3H273.376L278.612 203.988V197.3H279.173Z" fill="#263238"/>
<g clip-path="url(#clip0)">
<path d="M251.055 254.857L253.541 257.863C254.789 259.372 260.865 265.357 260.204 271.481C259.868 274.594 258.351 277.58 255.754 279.707L255.655 279.787L255.161 280.183H255.136C252.576 282.024 249.508 282.748 246.557 282.423C243.404 282.076 240.381 280.531 238.252 277.873L236.267 275.398C237.313 275.765 238.406 276.016 239.528 276.139C239.969 276.188 240.412 276.216 240.851 276.225C242.439 278.064 244.62 279.137 246.891 279.387C249.269 279.649 251.745 279.01 253.745 277.407L253.744 277.407L253.815 277.35C255.771 275.75 256.91 273.498 257.169 271.148C257.43 268.771 257.349 267.683 255.366 264.801L252.934 261.518L251.672 259.672C250.344 258.016 248.56 253.892 250.282 252.833C253.457 251.362 255.16 251.124 258.313 251.471C261.264 251.796 263.521 252.747 265.619 255.1L265.643 255.108L266.039 255.602C268.17 258.26 269.019 261.546 268.672 264.699H268.665C268.317 267.855 266.774 270.879 264.12 273.006L261.646 274.989C262.014 273.944 262.264 272.851 262.388 271.729C262.436 271.288 262.464 270.846 262.473 270.405C264.317 268.815 265.391 266.635 265.641 264.366L265.634 264.366C265.896 261.988 265.257 259.512 263.654 257.513L263.635 257.489C262.033 255.504 259.756 254.411 257.395 254.089C254.222 253.657 252.781 253.897 251.052 254.865L251.055 254.857ZM247.678 271.859C245.516 273.346 242.921 274.298 239.769 273.951C236.616 273.604 233.593 272.059 231.462 269.402L231.066 268.908L231.069 268.884C229.228 266.323 228.503 263.256 228.828 260.305C229.176 257.152 230.72 254.129 233.378 251.999L235.853 250.014C235.485 251.061 235.236 252.155 235.112 253.275C235.063 253.717 235.035 254.158 235.027 254.599C233.187 256.186 232.115 258.367 231.864 260.639C231.603 263.017 232.242 265.493 233.844 267.492L233.844 267.493L233.863 267.517C235.466 269.502 237.734 270.656 240.102 270.917C241.998 271.126 244.003 271.552 246.642 270.53L243.165 266.335C241.639 264.561 236.728 260.166 237.297 253.516C237.622 250.566 238.997 247.729 241.35 245.63L241.353 245.606L241.846 245.21C244.504 243.08 247.791 242.23 250.944 242.577L250.943 242.585C254.099 242.932 257.122 244.476 259.249 247.129L261.233 249.603C260.186 249.236 259.093 248.986 257.973 248.862C257.531 248.814 257.09 248.785 256.649 248.777C255.058 246.933 252.878 245.858 250.61 245.608L250.61 245.616C248.232 245.354 245.757 245.994 243.757 247.596C241.757 249.199 240.595 251.477 240.333 253.855C240.132 257.581 241.285 258.926 243.167 262.15L246.074 266.187C248.951 270.31 247.678 271.863 247.678 271.863L247.678 271.859ZM233.844 267.492L233.864 267.516Z" fill="white"/>
<path d="M233.844 267.492L233.864 267.516M251.055 254.857L253.541 257.863C254.789 259.372 260.865 265.357 260.204 271.481C259.868 274.594 258.351 277.58 255.754 279.707L255.655 279.787L255.161 280.183H255.136C252.576 282.024 249.508 282.748 246.557 282.423C243.404 282.076 240.381 280.531 238.252 277.873L236.267 275.398C237.313 275.765 238.406 276.016 239.528 276.139C239.969 276.188 240.412 276.216 240.851 276.225C242.439 278.064 244.62 279.137 246.891 279.387C249.269 279.649 251.745 279.01 253.745 277.407L253.744 277.407L253.815 277.35C255.771 275.75 256.91 273.498 257.169 271.148C257.43 268.771 257.349 267.683 255.366 264.801L252.934 261.518L251.672 259.672C250.344 258.016 248.56 253.892 250.282 252.833C253.457 251.362 255.16 251.124 258.313 251.471C261.264 251.796 263.521 252.747 265.619 255.1L265.643 255.108L266.039 255.602C268.17 258.26 269.019 261.546 268.672 264.699H268.665C268.317 267.855 266.774 270.879 264.12 273.006L261.646 274.989C262.014 273.944 262.264 272.851 262.388 271.729C262.436 271.288 262.464 270.846 262.473 270.405C264.317 268.815 265.391 266.635 265.641 264.366L265.634 264.366C265.896 261.988 265.257 259.512 263.654 257.513L263.635 257.489C262.033 255.504 259.756 254.411 257.395 254.089C254.222 253.657 252.781 253.897 251.052 254.865L251.055 254.857ZM247.678 271.859C245.516 273.346 242.921 274.298 239.769 273.951C236.616 273.604 233.593 272.059 231.462 269.402L231.066 268.908L231.069 268.884C229.228 266.323 228.503 263.256 228.828 260.305C229.176 257.152 230.72 254.129 233.378 251.999L235.853 250.014C235.485 251.061 235.236 252.155 235.112 253.275C235.063 253.717 235.035 254.158 235.027 254.599C233.187 256.186 232.115 258.367 231.864 260.639C231.603 263.017 232.242 265.493 233.844 267.492L233.844 267.493L233.863 267.517C235.466 269.502 237.734 270.656 240.102 270.917C241.998 271.126 244.003 271.552 246.642 270.53L243.165 266.335C241.639 264.561 236.728 260.166 237.297 253.516C237.622 250.566 238.997 247.729 241.35 245.63L241.353 245.606L241.846 245.21C244.504 243.08 247.791 242.23 250.944 242.577L250.943 242.585C254.099 242.932 257.122 244.476 259.249 247.129L261.233 249.603C260.186 249.236 259.093 248.986 257.973 248.862C257.531 248.814 257.09 248.785 256.649 248.777C255.058 246.933 252.878 245.858 250.61 245.608L250.61 245.616C248.232 245.354 245.757 245.994 243.757 247.596C241.757 249.199 240.595 251.477 240.333 253.855C240.132 257.581 241.285 258.926 243.167 262.15L246.074 266.187C248.951 270.31 247.678 271.863 247.678 271.863L247.678 271.859Z" stroke="white" stroke-width="25" stroke-linejoin="round"/>
<path d="M251.267 254.156L253.981 257.438C255.343 259.085 261.976 265.619 261.254 272.304C260.887 275.703 259.231 278.963 256.396 281.285L256.288 281.372L255.749 281.804H255.722C252.927 283.814 249.577 284.605 246.356 284.25C242.914 283.871 239.614 282.184 237.289 279.283L235.123 276.581C236.264 276.982 237.458 277.255 238.682 277.39C239.164 277.443 239.647 277.474 240.127 277.484C241.86 279.492 244.241 280.663 246.721 280.936C249.317 281.222 252.02 280.524 254.203 278.774L254.202 278.774L254.28 278.712C256.415 276.965 257.658 274.507 257.941 271.942C258.226 269.347 258.138 268.159 255.973 265.013L253.318 261.428L251.94 259.413C250.49 257.605 248.543 253.103 250.422 251.946C253.889 250.34 255.748 250.081 259.19 250.46C262.411 250.815 264.875 251.852 267.166 254.422L267.192 254.431L267.624 254.97C269.95 257.871 270.878 261.459 270.499 264.901H270.49C270.111 268.347 268.427 271.647 265.53 273.97L262.829 276.135C263.23 274.994 263.503 273.801 263.638 272.576C263.691 272.094 263.722 271.612 263.731 271.13C265.744 269.394 266.917 267.014 267.19 264.538L267.182 264.537C267.467 261.941 266.77 259.238 265.02 257.056L264.999 257.03C263.251 254.863 260.765 253.669 258.187 253.318C254.724 252.847 253.15 253.108 251.263 254.165L251.267 254.156ZM247.58 272.718C245.22 274.34 242.386 275.381 238.945 275.001C235.503 274.622 232.203 272.936 229.877 270.035L229.445 269.496L229.447 269.469C227.437 266.674 226.647 263.325 227.001 260.104C227.38 256.662 229.067 253.362 231.968 251.036L234.671 248.869C234.269 250.013 233.996 251.206 233.861 252.43C233.808 252.912 233.777 253.393 233.768 253.875C231.76 255.607 230.589 257.988 230.315 260.468C230.03 263.064 230.728 265.768 232.477 267.95L232.477 267.951L232.498 267.977C234.247 270.144 236.724 271.404 239.309 271.689C241.379 271.917 243.568 272.382 246.448 271.267L242.653 266.687C240.987 264.75 235.625 259.952 236.247 252.693C236.602 249.472 238.102 246.374 240.672 244.084L240.674 244.057L241.213 243.625C244.114 241.299 247.702 240.371 251.144 240.75L251.144 240.759C254.589 241.138 257.89 242.823 260.212 245.72L262.377 248.421C261.234 248.019 260.041 247.747 258.818 247.612C258.336 247.559 257.854 247.528 257.373 247.518C255.636 245.505 253.256 244.332 250.781 244.06L250.78 244.068C248.184 243.782 245.482 244.48 243.299 246.23C241.115 247.979 239.846 250.466 239.56 253.062C239.342 257.13 240.6 258.599 242.655 262.119L245.829 266.525C248.969 271.026 247.579 272.722 247.579 272.722L247.58 272.718ZM232.478 267.95L232.499 267.976Z" fill="#344051"/>
</g>
<defs>
<clipPath id="clip0">
<rect width="50" height="50" fill="white" transform="translate(223.75 237.5)"/>
</clipPath>
</defs>
</svg>
