<svg width="821" height="781" viewBox="0 0 821 781" fill="none" xmlns="http://www.w3.org/2000/svg">
<g clip-path="url(#clip0)">
<path d="M496.415 43.8076L69.12 135.49L195.795 725.873L623.09 634.191L496.415 43.8076Z" fill="#585D86"/>
<g opacity="0.5">
<path opacity="0.5" d="M491.341 55.3387L78.4875 143.922L200.881 714.349L613.734 625.766L491.341 55.3387Z" fill="url(#paint0_linear)"/>
</g>
<path d="M486.981 60.6651L84.6385 146.993L204.327 704.817L606.67 618.489L486.981 60.6651Z" fill="#181B35"/>
<path d="M380.947 58.1204L181.35 100.947L191.724 149.296L391.321 106.47L380.947 58.1204Z" fill="url(#paint1_linear)"/>
<path d="M271.01 32.31C255.6 35.62 245.85 51.09 249.24 66.86C252.63 82.63 267.86 92.75 283.24 89.44C298.62 86.13 308.4 70.66 305.01 54.89C301.62 39.12 286.42 29 271.01 32.31ZM280.68 77.41C277.423 78.1867 274.009 77.9761 270.872 76.8051C267.735 75.6341 265.018 73.5557 263.067 70.8347C261.116 68.1137 260.019 64.8734 259.917 61.5268C259.814 58.1802 260.71 54.8788 262.491 52.0434C264.272 49.2079 266.856 46.9669 269.915 45.6058C272.974 44.2448 276.369 43.8253 279.668 44.401C282.966 44.9767 286.018 46.5213 288.435 48.8381C290.853 51.155 292.525 54.139 293.24 57.41C293.734 59.5482 293.801 61.7629 293.436 63.9269C293.072 66.0909 292.283 68.1616 291.116 70.02C289.949 71.8784 288.426 73.488 286.635 74.7562C284.844 76.0244 282.821 76.9262 280.68 77.41V77.41Z" fill="url(#paint2_linear)"/>
<path d="M378.4 56.4976L183.007 98.4219L192.924 144.64L388.317 102.716L378.4 56.4976Z" fill="#08B952"/>
<path d="M271.01 32.31C265.609 33.4692 260.673 36.2039 256.827 40.1683C252.98 44.1327 250.395 49.1487 249.399 54.582C248.403 60.0154 249.04 65.622 251.231 70.6931C253.421 75.7642 257.066 80.0718 261.705 83.0714C266.343 86.071 271.767 87.6278 277.29 87.5449C282.814 87.462 288.188 85.7432 292.735 82.6058C297.281 79.4684 300.795 75.0533 302.832 69.9188C304.87 64.7843 305.339 59.161 304.18 53.76C303.411 50.1735 301.942 46.7737 299.859 43.7546C297.776 40.7356 295.118 38.1565 292.038 36.1647C288.958 34.1728 285.515 32.8072 281.907 32.1458C278.299 31.4844 274.596 31.5402 271.01 32.31V32.31ZM280.25 75.41C277.133 76.0789 273.887 75.8083 270.923 74.6325C267.96 73.4567 265.411 71.4284 263.6 68.8041C261.789 66.1799 260.797 63.0776 260.75 59.8896C260.702 56.7016 261.601 53.571 263.333 50.8939C265.064 48.2167 267.551 46.1132 270.478 44.8493C273.405 43.5855 276.642 43.218 279.778 43.7935C282.914 44.3689 285.808 45.8615 288.096 48.0823C290.384 50.3031 291.962 53.1524 292.63 56.27C293.526 60.4498 292.725 64.8143 290.403 68.4036C288.082 71.9929 284.43 74.5132 280.25 75.41V75.41Z" fill="#08B952"/>
<path d="M694.91 116.91H257.89V720.73H694.91V116.91Z" fill="#585D86"/>
<g opacity="0.5">
<path opacity="0.5" d="M687.53 127.12H265.28V710.53H687.53V127.12Z" fill="url(#paint3_linear)"/>
</g>
<path d="M682.15 131.42H270.65V701.94H682.15V131.42Z" fill="#181B35"/>
<path d="M579.01 106.68H374.87V156.13H579.01V106.68Z" fill="url(#paint4_linear)"/>
<path d="M476.94 58.41C461.18 58.41 448.4 71.49 448.4 87.63C448.4 103.77 461.18 116.85 476.94 116.85C492.7 116.85 505.48 103.77 505.48 87.63C505.48 71.49 492.7 58.41 476.94 58.41ZM476.94 104.49C473.589 104.57 470.291 103.649 467.467 101.845C464.642 100.041 462.419 97.4369 461.081 94.364C459.744 91.2911 459.352 87.8893 459.957 84.5928C460.561 81.2964 462.135 78.255 464.476 75.8569C466.817 73.4588 469.82 71.8129 473.101 71.1292C476.382 70.4456 479.792 70.7553 482.896 72.0188C486 73.2823 488.658 75.4422 490.528 78.2229C492.399 81.0035 493.399 84.2786 493.4 87.63C493.432 92.0348 491.718 96.2731 488.634 99.4176C485.549 102.562 481.345 104.357 476.94 104.41V104.49Z" fill="url(#paint5_linear)"/>
<path d="M576.86 104.56H377.02V151.83H576.86V104.56Z" fill="#08B952"/>
<path d="M476.94 58.41C471.416 58.41 466.016 60.0481 461.423 63.1171C456.83 66.186 453.25 70.5481 451.136 75.6517C449.022 80.7552 448.469 86.371 449.547 91.7889C450.624 97.2068 453.284 102.183 457.191 106.089C461.097 109.996 466.073 112.656 471.491 113.733C476.909 114.811 482.525 114.258 487.628 112.144C492.732 110.03 497.094 106.45 500.163 101.857C503.232 97.264 504.87 91.864 504.87 86.34C504.87 78.9325 501.927 71.8284 496.689 66.5905C491.452 61.3526 484.347 58.41 476.94 58.41ZM476.94 102.46C473.754 102.456 470.641 101.508 467.994 99.7363C465.346 97.9644 463.283 95.4478 462.065 92.5042C460.847 89.5607 460.528 86.3221 461.149 83.1976C461.77 80.073 463.303 77.2025 465.554 74.9485C467.806 72.6945 470.674 71.1581 473.798 70.5332C476.922 69.9083 480.161 70.223 483.106 71.4375C486.051 72.6521 488.57 74.712 490.345 77.3572C492.12 80.0024 493.072 83.1143 493.08 86.3C493.079 88.4178 492.66 90.5145 491.848 92.4704C491.036 94.4263 489.847 96.2031 488.348 97.6992C486.849 99.1953 485.07 100.381 483.113 101.19C481.155 101.998 479.058 102.413 476.94 102.41V102.46Z" fill="#08B952"/>
<g opacity="0.5">
<path opacity="0.5" d="M19.03 737.05H15.27V758.38H19.03V737.05Z" fill="#47E6B1"/>
<path opacity="0.5" d="M27.8199 749.6V745.84H6.48999V749.6H27.8199Z" fill="#47E6B1"/>
</g>
<g opacity="0.5">
<path opacity="0.5" d="M455.25 0H451.49V21.33H455.25V0Z" fill="#47E6B1"/>
<path opacity="0.5" d="M464.04 12.54V8.78003L442.71 8.78003V12.54L464.04 12.54Z" fill="#47E6B1"/>
</g>
<path opacity="0.5" d="M771.08 772.56C770.043 772.109 769.208 771.292 768.734 770.264C768.26 769.237 768.18 768.072 768.51 766.99C768.563 766.824 768.597 766.653 768.61 766.48V766.48C768.64 765.985 768.509 765.493 768.238 765.078C767.967 764.662 767.569 764.345 767.103 764.174C766.638 764.002 766.129 763.985 765.653 764.125C765.177 764.265 764.759 764.554 764.46 764.95V764.95C764.356 765.089 764.269 765.24 764.2 765.4C763.749 766.437 762.932 767.272 761.905 767.746C760.877 768.22 759.712 768.3 758.63 767.97C758.464 767.917 758.293 767.883 758.12 767.87V767.87C757.625 767.84 757.133 767.971 756.718 768.242C756.302 768.513 755.985 768.911 755.814 769.377C755.642 769.842 755.625 770.351 755.765 770.827C755.905 771.303 756.194 771.721 756.59 772.02V772.02C756.729 772.124 756.88 772.211 757.04 772.28C758.077 772.731 758.912 773.548 759.386 774.575C759.86 775.602 759.94 776.768 759.61 777.85C759.557 778.015 759.523 778.187 759.51 778.36V778.36C759.48 778.855 759.611 779.347 759.882 779.762C760.153 780.178 760.551 780.495 761.017 780.666C761.482 780.838 761.991 780.855 762.467 780.715C762.943 780.575 763.361 780.286 763.66 779.89V779.89C763.764 779.751 763.851 779.6 763.92 779.44C764.371 778.403 765.188 777.568 766.215 777.094C767.243 776.62 768.408 776.54 769.49 776.87C769.655 776.923 769.827 776.957 770 776.97C770.495 777 770.987 776.869 771.402 776.598C771.818 776.327 772.135 775.929 772.306 775.463C772.478 774.998 772.495 774.489 772.355 774.013C772.216 773.537 771.926 773.119 771.53 772.82V772.82C771.391 772.716 771.24 772.629 771.08 772.56V772.56Z" fill="#4D8AF0"/>
<path opacity="0.5" d="M136.67 567.5C135.633 567.049 134.798 566.231 134.324 565.204C133.85 564.177 133.77 563.012 134.1 561.93C134.153 561.764 134.187 561.593 134.2 561.42V561.42C134.23 560.925 134.099 560.433 133.828 560.018C133.557 559.602 133.159 559.285 132.693 559.114C132.228 558.942 131.719 558.925 131.243 559.065C130.767 559.204 130.349 559.494 130.05 559.89V559.89C129.946 560.029 129.859 560.18 129.79 560.34C129.339 561.377 128.522 562.212 127.494 562.686C126.467 563.16 125.302 563.239 124.22 562.91C124.054 562.857 123.883 562.823 123.71 562.81V562.81C123.215 562.78 122.723 562.911 122.308 563.182C121.892 563.453 121.575 563.851 121.404 564.317C121.232 564.782 121.215 565.291 121.355 565.767C121.494 566.243 121.784 566.661 122.18 566.96V566.96C122.319 567.064 122.47 567.151 122.63 567.22C123.667 567.671 124.502 568.488 124.976 569.515C125.45 570.542 125.53 571.708 125.2 572.79C125.147 572.955 125.113 573.127 125.1 573.3C125.07 573.795 125.201 574.287 125.472 574.702C125.743 575.118 126.141 575.435 126.607 575.606C127.072 575.778 127.581 575.795 128.057 575.655C128.533 575.515 128.951 575.226 129.25 574.83V574.83C129.354 574.691 129.441 574.54 129.51 574.38C129.961 573.343 130.778 572.508 131.805 572.034C132.833 571.56 133.998 571.48 135.08 571.81C135.245 571.863 135.417 571.897 135.59 571.91C136.085 571.94 136.577 571.809 136.992 571.538C137.408 571.267 137.725 570.869 137.896 570.403C138.068 569.938 138.085 569.429 137.945 568.953C137.805 568.477 137.516 568.059 137.12 567.76V567.76C136.981 567.656 136.83 567.569 136.67 567.5Z" fill="#FDD835"/>
<path opacity="0.5" d="M665.08 68.18C664.043 67.7285 663.208 66.9116 662.734 65.8845C662.26 64.8575 662.18 63.692 662.51 62.61C662.563 62.4445 662.597 62.2733 662.61 62.1C662.64 61.6047 662.509 61.113 662.238 60.6977C661.967 60.2823 661.569 59.9653 661.103 59.7937C660.638 59.6221 660.129 59.6049 659.653 59.7447C659.177 59.8845 658.759 60.1739 658.46 60.57V60.57C658.356 60.7093 658.269 60.8603 658.2 61.02C657.749 62.0571 656.932 62.892 655.905 63.3659C654.877 63.8398 653.712 63.9195 652.63 63.59C652.464 63.5368 652.293 63.5033 652.12 63.49V63.49C651.625 63.4602 651.133 63.5906 650.718 63.8619C650.302 64.1333 649.985 64.5312 649.814 64.9968C649.642 65.4623 649.625 65.9707 649.765 66.4468C649.905 66.9228 650.194 67.3412 650.59 67.64V67.64C650.729 67.744 650.88 67.8312 651.04 67.9C652.077 68.3515 652.912 69.1684 653.386 70.1955C653.86 71.2225 653.94 72.388 653.61 73.47C653.557 73.6355 653.523 73.8067 653.51 73.98V73.98C653.48 74.4753 653.611 74.967 653.882 75.3823C654.153 75.7977 654.551 76.1147 655.017 76.2863C655.482 76.4579 655.991 76.4751 656.467 76.3353C656.943 76.1955 657.361 75.9061 657.66 75.51V75.51C657.764 75.3707 657.851 75.2197 657.92 75.06C658.371 74.0229 659.188 73.188 660.215 72.7141C661.243 72.2402 662.408 72.1605 663.49 72.49C663.655 72.5432 663.827 72.5767 664 72.59C664.495 72.6198 664.987 72.4894 665.402 72.218C665.818 71.9467 666.135 71.5488 666.306 71.0832C666.478 70.6177 666.495 70.1093 666.355 69.6332C666.216 69.1572 665.926 68.7388 665.53 68.44V68.44C665.391 68.336 665.24 68.2487 665.08 68.18V68.18Z" fill="#FDD835"/>
<path opacity="0.5" d="M812.64 322C816.799 322 820.17 318.629 820.17 314.47C820.17 310.311 816.799 306.94 812.64 306.94C808.481 306.94 805.11 310.311 805.11 314.47C805.11 318.629 808.481 322 812.64 322Z" fill="#F55F44"/>
<path opacity="0.5" d="M230.73 754.18C234.889 754.18 238.26 750.809 238.26 746.65C238.26 742.491 234.889 739.12 230.73 739.12C226.571 739.12 223.2 742.491 223.2 746.65C223.2 750.809 226.571 754.18 230.73 754.18Z" fill="#F55F44"/>
<path opacity="0.5" d="M735.31 484.76C739.469 484.76 742.84 481.389 742.84 477.23C742.84 473.071 739.469 469.7 735.31 469.7C731.151 469.7 727.78 473.071 727.78 477.23C727.78 481.389 731.151 484.76 735.31 484.76Z" fill="#F55F44"/>
<path opacity="0.5" d="M87.14 103.88C91.2987 103.88 94.67 100.509 94.67 96.35C94.67 92.1913 91.2987 88.82 87.14 88.82C82.9813 88.82 79.61 92.1913 79.61 96.35C79.61 100.509 82.9813 103.88 87.14 103.88Z" fill="#4D8AF0"/>
<path opacity="0.5" d="M7.53 309.29C11.6887 309.29 15.06 305.919 15.06 301.76C15.06 297.601 11.6887 294.23 7.53 294.23C3.3713 294.23 0 297.601 0 301.76C0 305.919 3.3713 309.29 7.53 309.29Z" fill="#47E6B1"/>
</g>
<defs>
<linearGradient id="paint0_linear" x1="407.303" y1="670.059" x2="284.909" y2="99.6315" gradientUnits="userSpaceOnUse">
<stop stop-color="#808080" stop-opacity="0.25"/>
<stop offset="0.54" stop-color="#808080" stop-opacity="0.12"/>
<stop offset="1" stop-color="#808080" stop-opacity="0.1"/>
</linearGradient>
<linearGradient id="paint1_linear" x1="109806" y1="-14298.9" x2="109293" y2="-16689.8" gradientUnits="userSpaceOnUse">
<stop stop-color="#808080" stop-opacity="0.25"/>
<stop offset="0.54" stop-color="#808080" stop-opacity="0.12"/>
<stop offset="1" stop-color="#808080" stop-opacity="0.1"/>
</linearGradient>
<linearGradient id="paint2_linear" x1="32063.8" y1="1630.97" x2="31348.1" y2="-1704.52" gradientUnits="userSpaceOnUse">
<stop stop-color="#808080" stop-opacity="0.25"/>
<stop offset="0.54" stop-color="#808080" stop-opacity="0.12"/>
<stop offset="1" stop-color="#808080" stop-opacity="0.1"/>
</linearGradient>
<linearGradient id="paint3_linear" x1="201425" y1="414657" x2="201425" y2="74290.2" gradientUnits="userSpaceOnUse">
<stop stop-color="#808080" stop-opacity="0.25"/>
<stop offset="0.54" stop-color="#808080" stop-opacity="0.12"/>
<stop offset="1" stop-color="#808080" stop-opacity="0.1"/>
</linearGradient>
<linearGradient id="paint4_linear" x1="97737.4" y1="7827.31" x2="97737.4" y2="5382.01" gradientUnits="userSpaceOnUse">
<stop stop-color="#808080" stop-opacity="0.25"/>
<stop offset="0.54" stop-color="#808080" stop-opacity="0.12"/>
<stop offset="1" stop-color="#808080" stop-opacity="0.1"/>
</linearGradient>
<linearGradient id="paint5_linear" x1="38512.8" y1="10366.6" x2="38512.8" y2="6951.41" gradientUnits="userSpaceOnUse">
<stop stop-color="#808080" stop-opacity="0.25"/>
<stop offset="0.54" stop-color="#808080" stop-opacity="0.12"/>
<stop offset="1" stop-color="#808080" stop-opacity="0.1"/>
</linearGradient>
<clipPath id="clip0">
<rect width="820.16" height="780.81" fill="white"/>
</clipPath>
</defs>
</svg>
