<svg width="227" height="229" viewBox="0 0 227 229" fill="none" xmlns="http://www.w3.org/2000/svg">
<path d="M108.234 156.421H20.5707C19.8836 156.419 19.2249 156.144 18.739 155.653C18.2531 155.163 17.9796 154.499 17.9784 153.806V29.4906C17.9856 28.8014 18.2617 28.1427 18.747 27.6575C19.2322 27.1722 19.8875 26.8995 20.5707 26.8983H108.234C108.92 26.8995 109.579 27.1756 110.064 27.6659C110.549 28.1562 110.821 28.8207 110.821 29.5135V153.806C110.821 154.498 110.549 155.163 110.064 155.653C109.579 156.143 108.92 156.419 108.234 156.421ZM20.5707 26.9899C19.9137 26.9911 19.2839 27.255 18.8193 27.7237C18.3546 28.1924 18.0931 28.8277 18.0919 29.4906V153.806C18.0931 154.468 18.3546 155.104 18.8193 155.572C19.2839 156.041 19.9137 156.305 20.5707 156.306H108.234C108.89 156.305 109.52 156.041 109.983 155.572C110.447 155.103 110.708 154.468 110.708 153.806V29.4906C110.708 28.8282 110.447 28.1928 109.983 27.724C109.52 27.2551 108.89 26.9911 108.234 26.9899H20.5707Z" fill="#E6E6E6"/>
<path d="M206.434 156.421H118.766C118.08 156.419 117.421 156.143 116.936 155.653C116.451 155.163 116.179 154.498 116.179 153.806V29.4906C116.185 28.8018 116.46 28.1432 116.944 27.6578C117.429 27.1724 118.084 26.8995 118.766 26.8983H206.434C207.117 26.8995 207.771 27.1724 208.256 27.6578C208.74 28.1432 209.016 28.8018 209.022 29.4906V153.806C209.022 154.498 208.749 155.163 208.264 155.653C207.779 156.143 207.121 156.419 206.434 156.421ZM118.766 26.9899C118.11 26.9911 117.48 27.2551 117.017 27.724C116.553 28.1928 116.292 28.8282 116.292 29.4906V153.806C116.292 154.468 116.553 155.103 117.017 155.572C117.48 156.041 118.11 156.305 118.766 156.306H206.434C207.091 156.305 207.722 156.041 208.187 155.573C208.652 155.104 208.915 154.469 208.917 153.806V29.4906C208.915 28.8273 208.652 28.192 208.187 27.7234C207.722 27.2548 207.091 26.9911 206.434 26.9899H118.766Z" fill="#E6E6E6"/>
<path d="M94.3185 90.4367L93.6965 144.27C91.4992 162.182 60.0234 176.403 60.0234 176.403C60.0234 176.403 28.543 162.196 26.332 144.27L25.6919 90.4367L59.3333 79.2661L94.3185 90.4367Z" fill="#F5F5F5"/>
<path d="M89.9283 93.8442L89.3881 142.182C87.4722 157.804 60.0188 170.207 60.0188 170.207C60.0188 170.207 32.5654 157.804 30.6541 142.182L30.0775 93.8442L59.4195 84.1025L89.9283 93.8442Z" fill="#E0E0E0"/>
<path d="M88.0033 96.8944L87.4948 141.27C85.6788 155.926 59.9597 167.541 59.9597 167.541C59.9597 167.541 34.2225 155.912 32.4292 141.27L31.8889 96.8944L59.3968 87.7619L88.0033 96.8944Z" stroke="white" stroke-width="3" stroke-linecap="round" stroke-linejoin="round"/>
<path d="M199.905 72.2678H139.351V179.458H199.905V72.2678Z" fill="#F5F5F5"/>
<path d="M195.515 76.4814H143.827V179.458H195.515V76.4814Z" fill="#E0E0E0"/>
<path d="M145.28 179.916C145.189 179.917 145.1 179.898 145.017 179.861C144.935 179.828 144.86 179.778 144.799 179.715C144.733 179.652 144.682 179.575 144.649 179.49C144.616 179.407 144.599 179.318 144.599 179.229C144.599 179.128 144.621 179.028 144.665 178.936C144.708 178.844 144.77 178.763 144.848 178.699C144.925 178.635 145.016 178.588 145.114 178.564C145.211 178.539 145.313 178.536 145.412 178.556L145.539 178.592L145.657 178.657C145.694 178.683 145.729 178.712 145.761 178.744C145.793 178.774 145.821 178.81 145.843 178.849C145.869 178.886 145.891 178.926 145.907 178.968C145.925 179.009 145.939 179.052 145.947 179.096C145.952 179.14 145.952 179.185 145.947 179.229C145.948 179.319 145.929 179.408 145.893 179.49C145.86 179.574 145.811 179.651 145.748 179.715C145.623 179.839 145.456 179.911 145.28 179.916Z" fill="white"/>
<path d="M144.59 162.356C144.59 162.266 144.609 162.176 144.644 162.093C144.679 162.009 144.73 161.934 144.794 161.87C144.858 161.807 144.934 161.757 145.018 161.723C145.101 161.69 145.19 161.673 145.28 161.674C145.461 161.674 145.634 161.746 145.761 161.875C145.889 162.004 145.961 162.179 145.961 162.361C145.961 162.543 145.889 162.718 145.761 162.847C145.634 162.976 145.461 163.048 145.28 163.048C145.189 163.049 145.099 163.032 145.015 162.998C144.932 162.964 144.855 162.913 144.791 162.848C144.727 162.784 144.676 162.707 144.641 162.623C144.607 162.538 144.589 162.448 144.59 162.356ZM144.59 145.488C144.59 145.306 144.662 145.131 144.789 145.002C144.917 144.874 145.09 144.801 145.271 144.801C145.451 144.801 145.625 144.874 145.752 145.002C145.88 145.131 145.952 145.306 145.952 145.488C145.952 145.67 145.88 145.845 145.752 145.974C145.625 146.103 145.451 146.175 145.271 146.175C145.09 146.175 144.917 146.103 144.789 145.974C144.662 145.845 144.59 145.67 144.59 145.488ZM144.59 128.616C144.59 128.433 144.662 128.259 144.789 128.13C144.917 128.001 145.09 127.929 145.271 127.929C145.451 127.929 145.625 128.001 145.752 128.13C145.88 128.259 145.952 128.433 145.952 128.616C145.952 128.798 145.88 128.972 145.752 129.101C145.625 129.23 145.451 129.303 145.271 129.303C145.181 129.303 145.093 129.285 145.01 129.25C144.928 129.216 144.853 129.165 144.789 129.101C144.726 129.038 144.676 128.962 144.642 128.878C144.607 128.795 144.59 128.706 144.59 128.616ZM144.59 111.743C144.59 111.561 144.662 111.386 144.789 111.257C144.917 111.128 145.09 111.056 145.271 111.056C145.451 111.056 145.625 111.128 145.752 111.257C145.88 111.386 145.952 111.561 145.952 111.743C145.952 111.925 145.88 112.1 145.752 112.229C145.625 112.357 145.451 112.43 145.271 112.43C145.092 112.43 144.92 112.359 144.793 112.232C144.665 112.105 144.592 111.933 144.59 111.752V111.743ZM144.59 94.8747C144.59 94.6925 144.662 94.5177 144.789 94.3889C144.917 94.2601 145.09 94.1877 145.271 94.1877C145.451 94.1877 145.625 94.2601 145.752 94.3889C145.88 94.5177 145.952 94.6925 145.952 94.8747C145.952 95.0569 145.88 95.2316 145.752 95.3605C145.625 95.4893 145.451 95.5617 145.271 95.5617C145.181 95.5617 145.093 95.5439 145.01 95.5094C144.928 95.4749 144.853 95.4243 144.789 95.3605C144.726 95.2967 144.676 95.2209 144.642 95.1376C144.607 95.0542 144.59 94.9649 144.59 94.8747Z" fill="white"/>
<path d="M145.28 78.689C145.191 78.6894 145.102 78.6718 145.019 78.6372C144.937 78.6026 144.862 78.5517 144.799 78.4874C144.765 78.4566 144.736 78.4211 144.713 78.3821C144.689 78.3455 144.667 78.3073 144.649 78.2676C144.63 78.2254 144.618 78.1807 144.613 78.1348C144.608 78.0906 144.608 78.0461 144.613 78.002C144.614 77.82 144.685 77.6458 144.812 77.5165C144.843 77.484 144.876 77.4548 144.912 77.4295C144.949 77.4051 144.989 77.3851 145.03 77.3699C145.071 77.3521 145.114 77.3383 145.157 77.3287C145.246 77.3104 145.337 77.3104 145.425 77.3287C145.469 77.3383 145.511 77.3521 145.552 77.3699C145.594 77.3851 145.634 77.4051 145.67 77.4295C145.707 77.4559 145.742 77.485 145.775 77.5165C145.902 77.6458 145.974 77.82 145.975 78.002C145.979 78.0461 145.979 78.0906 145.975 78.1348C145.965 78.1803 145.952 78.2247 145.934 78.2676C145.917 78.3081 145.896 78.3466 145.87 78.3821C145.848 78.4211 145.821 78.4565 145.789 78.4874C145.722 78.5542 145.642 78.6065 145.555 78.6411C145.467 78.6758 145.374 78.6921 145.28 78.689Z" fill="white"/>
<path d="M177.006 78.0019C177.006 77.8197 177.077 77.645 177.205 77.5162C177.333 77.3873 177.506 77.3149 177.687 77.3149C177.867 77.3149 178.04 77.3873 178.168 77.5162C178.296 77.645 178.368 77.8197 178.368 78.0019C178.368 78.1842 178.296 78.3589 178.168 78.4877C178.04 78.6166 177.867 78.6889 177.687 78.6889C177.506 78.6889 177.333 78.6166 177.205 78.4877C177.077 78.3589 177.006 78.1842 177.006 78.0019ZM160.798 78.0019C160.798 77.8197 160.869 77.645 160.997 77.5162C161.125 77.3873 161.298 77.3149 161.479 77.3149C161.659 77.3149 161.833 77.3873 161.96 77.5162C162.088 77.645 162.16 77.8197 162.16 78.0019C162.16 78.1842 162.088 78.3589 161.96 78.4877C161.833 78.6166 161.659 78.6889 161.479 78.6889C161.298 78.6889 161.125 78.6166 160.997 78.4877C160.869 78.3589 160.798 78.1842 160.798 78.0019Z" fill="white"/>
<path d="M193.894 78.6889C193.85 78.6934 193.806 78.6934 193.763 78.6889L193.635 78.6523L193.517 78.5882C193.481 78.5617 193.446 78.5326 193.413 78.5012C193.285 78.3725 193.213 78.1978 193.213 78.0157C193.214 77.8337 193.286 77.6595 193.413 77.5302C193.445 77.4989 193.48 77.4712 193.517 77.4478C193.553 77.4203 193.593 77.3986 193.635 77.3837C193.676 77.3651 193.719 77.3513 193.763 77.3424C193.851 77.3242 193.942 77.3242 194.03 77.3424L194.158 77.3837C194.199 77.3987 194.237 77.4204 194.271 77.4478C194.31 77.47 194.345 77.4977 194.376 77.5302C194.502 77.6595 194.574 77.8337 194.575 78.0157C194.575 78.1978 194.503 78.3725 194.376 78.5012C194.344 78.5337 194.309 78.5629 194.271 78.5882C194.235 78.6123 194.197 78.6337 194.158 78.6523L194.03 78.6889C193.985 78.6934 193.94 78.6934 193.894 78.6889Z" fill="white"/>
<path d="M193.213 162.356C193.213 162.174 193.285 161.999 193.413 161.871C193.54 161.742 193.714 161.669 193.894 161.669C194.075 161.669 194.248 161.742 194.376 161.871C194.504 161.999 194.575 162.174 194.575 162.356C194.575 162.539 194.504 162.713 194.376 162.842C194.248 162.971 194.075 163.043 193.894 163.043C193.714 163.043 193.54 162.971 193.413 162.842C193.285 162.713 193.213 162.539 193.213 162.356ZM193.213 145.488C193.213 145.306 193.285 145.131 193.413 145.002C193.54 144.874 193.714 144.801 193.894 144.801C194.075 144.801 194.248 144.874 194.376 145.002C194.504 145.131 194.575 145.306 194.575 145.488C194.575 145.67 194.504 145.845 194.376 145.974C194.248 146.103 194.075 146.175 193.894 146.175C193.714 146.175 193.54 146.103 193.413 145.974C193.285 145.845 193.213 145.67 193.213 145.488ZM193.213 128.616C193.213 128.433 193.285 128.259 193.413 128.13C193.54 128.001 193.714 127.929 193.894 127.929C194.075 127.929 194.248 128.001 194.376 128.13C194.504 128.259 194.575 128.433 194.575 128.616C194.575 128.798 194.504 128.972 194.376 129.101C194.248 129.23 194.075 129.303 193.894 129.303C193.805 129.303 193.716 129.285 193.634 129.25C193.551 129.216 193.476 129.165 193.413 129.101C193.349 129.038 193.299 128.962 193.265 128.878C193.231 128.795 193.213 128.706 193.213 128.616ZM193.213 111.743C193.213 111.561 193.285 111.386 193.413 111.257C193.54 111.128 193.714 111.056 193.894 111.056C194.075 111.056 194.248 111.128 194.376 111.257C194.504 111.386 194.575 111.561 194.575 111.743C194.575 111.925 194.504 112.1 194.376 112.229C194.248 112.357 194.075 112.43 193.894 112.43C193.715 112.43 193.543 112.359 193.416 112.232C193.288 112.105 193.216 111.933 193.213 111.752V111.743ZM193.213 94.8747C193.213 94.6925 193.285 94.5177 193.413 94.3889C193.54 94.2601 193.714 94.1877 193.894 94.1877C194.075 94.1877 194.248 94.2601 194.376 94.3889C194.504 94.5177 194.575 94.6925 194.575 94.8747C194.575 95.0569 194.504 95.2316 194.376 95.3605C194.248 95.4893 194.075 95.5617 193.894 95.5617C193.805 95.5617 193.716 95.5439 193.634 95.5094C193.551 95.4749 193.476 95.4243 193.413 95.3605C193.349 95.2967 193.299 95.2209 193.265 95.1376C193.231 95.0542 193.213 94.9649 193.213 94.8747Z" fill="white"/>
<path d="M193.894 179.916C193.76 179.916 193.628 179.876 193.516 179.8C193.404 179.725 193.317 179.617 193.266 179.492C193.214 179.366 193.201 179.228 193.227 179.095C193.253 178.962 193.318 178.84 193.413 178.744C193.446 178.712 193.481 178.683 193.517 178.657L193.635 178.592L193.763 178.556C193.851 178.538 193.942 178.538 194.03 178.556L194.158 178.592C194.197 178.611 194.235 178.632 194.271 178.657C194.309 178.682 194.344 178.711 194.376 178.744C194.503 178.872 194.575 179.047 194.575 179.229C194.576 179.319 194.559 179.409 194.525 179.492C194.49 179.576 194.44 179.651 194.376 179.715C194.248 179.843 194.075 179.916 193.894 179.916Z" fill="white"/>
<path d="M43.13 179.632H24.4207V179.747H43.13V179.632Z" fill="#E0E0E0"/>
<path d="M81.266 178.716H62.5022V178.831H81.266V178.716Z" fill="#E0E0E0"/>
<path d="M105.682 178.716H101.142V178.831H105.682V178.716Z" fill="#E0E0E0"/>
<path d="M60.3049 182.628H39.3074V182.742H60.3049V182.628Z" fill="#E0E0E0"/>
<path d="M132.931 179.573H123.125V179.687H132.931V179.573Z" fill="#E0E0E0"/>
<path d="M149.652 179.573H136.972V179.687H149.652V179.573Z" fill="#E0E0E0"/>
<path d="M210.806 181.51H182.458V181.624H210.806V181.51Z" fill="#E0E0E0"/>
<path d="M105.968 40.1437H85.0524L86.1965 26.9945H107.108L105.968 40.1437Z" fill="#EBEBEB"/>
<path d="M106.39 25.2083L105.818 32.0737L105.246 40.3269H85.134L86.2781 25.2083H106.39Z" fill="#FAFAFA"/>
<path d="M104.47 26.9945L105.61 40.1437H84.6983L83.5542 26.9945H85.3339L85.9513 26.0052H91.5855L92.3936 26.9945H104.47Z" fill="#E0E0E0"/>
<path d="M138.384 43.0795H116.129V65.5306H138.384V43.0795Z" fill="#EBEBEB"/>
<path d="M138.951 43.0795H138.384V65.5306H138.951V43.0795Z" fill="#E0E0E0"/>
<path d="M136.323 45.1588H118.181V63.4605H136.323V45.1588Z" fill="#F5F5F5"/>
<path d="M118.354 45.1588H118.185V63.4605H118.354V45.1588Z" fill="#E0E0E0"/>
<path d="M127.424 56.9523C129.377 56.9523 130.961 54.9181 130.961 52.4089C130.961 49.8997 129.377 47.8655 127.424 47.8655C125.471 47.8655 123.887 49.8997 123.887 52.4089C123.887 54.9181 125.471 56.9523 127.424 56.9523Z" fill="#E0E0E0"/>
<path d="M125.576 59.2514H129.304V55.4912H125.576V59.2514Z" fill="#E0E0E0"/>
<path d="M134.143 63.4604H120.487V62.1781C120.487 61.0071 120.948 59.8841 121.769 59.0561C122.59 58.2281 123.703 57.7629 124.864 57.7629H129.785C130.946 57.7629 132.059 58.2281 132.88 59.0561C133.7 59.8841 134.161 61.0071 134.161 62.1781V63.4604H134.143Z" fill="#E0E0E0"/>
<path d="M120.147 55.821C120.147 56.5676 121.509 57.195 121.509 57.195C121.509 57.195 122.871 56.5859 122.871 55.821C122.871 55.4638 122.38 55.2623 122.058 55.363C121.934 55.4065 121.821 55.4742 121.723 55.5622C121.626 55.6502 121.547 55.7569 121.49 55.876C121.317 55.6397 121.087 55.4509 120.823 55.3264C120.746 55.299 120.663 55.291 120.581 55.3029C120.5 55.3149 120.423 55.3466 120.357 55.3952C120.29 55.4438 120.236 55.5079 120.2 55.5821C120.163 55.6562 120.145 55.7382 120.147 55.821Z" fill="#E0E0E0"/>
<path d="M132.232 52.4822C132.232 53.4669 133.998 54.2638 133.998 54.2638C133.998 54.2638 135.764 53.4669 135.764 52.4822C135.764 52.0242 135.11 51.754 134.697 51.873C134.386 51.9986 134.135 52.2418 133.998 52.5509C133.768 52.2423 133.467 51.9941 133.122 51.8272C133.02 51.7907 132.91 51.7799 132.803 51.7957C132.695 51.8115 132.593 51.8535 132.506 51.918C132.418 51.9825 132.347 52.0676 132.3 52.1659C132.252 52.2642 132.229 52.3728 132.232 52.4822Z" fill="#E0E0E0"/>
<path d="M93.3923 164.569C93.6011 165.892 94.55 167.033 94.6226 168.37C94.6816 169.419 94.1959 170.403 93.9552 171.425C93.7146 172.446 93.8327 173.715 94.718 174.255C95.0401 174.42 95.4 174.496 95.7606 174.474C96.1213 174.452 96.4697 174.334 96.77 174.132C97.3629 173.718 97.8525 173.17 98.2001 172.533C99.5927 170.262 100.353 167.655 100.402 164.985C100.402 163.863 100.289 162.672 99.6348 161.779C97.6099 158.926 92.8747 161.271 93.3923 164.569Z" fill="#F5F5F5"/>
<path d="M91.708 161.065C91.9033 161.28 92.1578 161.432 92.439 161.5C92.609 161.556 92.7904 161.567 92.9659 161.533C93.1414 161.498 93.3054 161.419 93.4423 161.303C93.5466 161.168 93.6208 161.011 93.66 160.845C93.6992 160.678 93.7023 160.505 93.6693 160.337C93.6415 159.915 93.4985 159.509 93.2562 159.164C93.1344 158.994 92.9729 158.857 92.7859 158.765C92.599 158.673 92.3925 158.629 92.1847 158.637C91.9773 158.655 91.7821 158.743 91.6317 158.888C91.4812 159.033 91.3848 159.226 91.3584 159.434C91.3079 160.001 91.4299 160.57 91.708 161.065Z" fill="#F5F5F5"/>
<path d="M95.4807 158.312C95.3879 158.167 95.2549 158.053 95.0983 157.984C94.9417 157.915 94.7684 157.894 94.5999 157.923C94.4333 157.961 94.2817 158.048 94.1651 158.174C94.0485 158.3 93.9722 158.458 93.9461 158.628C93.9389 158.74 93.9389 158.851 93.9461 158.963C93.9478 159.143 93.9676 159.322 94.0052 159.498C94.0431 159.668 94.1227 159.826 94.2367 159.956C94.3925 160.109 94.5902 160.211 94.8042 160.25C94.9366 160.282 95.0747 160.281 95.2067 160.247C95.3387 160.214 95.4607 160.149 95.5624 160.057C95.6527 159.946 95.7202 159.818 95.7607 159.681C95.8013 159.543 95.8141 159.398 95.7985 159.256C95.7881 158.916 95.6774 158.588 95.4807 158.312Z" fill="#F5F5F5"/>
<path d="M97.5828 158.198C97.5084 158.06 97.3872 157.953 97.2413 157.897C97.0954 157.842 96.9346 157.841 96.7883 157.895C96.6454 157.955 96.5194 158.05 96.4213 158.17C96.3231 158.291 96.2558 158.434 96.2253 158.587C96.2253 158.688 96.198 158.789 96.1935 158.889C96.1908 159.056 96.2091 159.222 96.248 159.384C96.2806 159.543 96.3634 159.688 96.4841 159.796C96.6128 159.905 96.771 159.972 96.9381 159.989C97.0469 160.002 97.1572 159.991 97.2615 159.957C97.3658 159.923 97.4615 159.867 97.5419 159.792C97.7184 159.589 97.8153 159.328 97.8143 159.059C97.8342 158.754 97.7527 158.451 97.5828 158.198Z" fill="#F5F5F5"/>
<path d="M99.4578 158.637C99.2354 158.303 99.0038 158.28 98.7496 158.422C98.5236 158.589 98.3629 158.83 98.2956 159.105C98.27 159.193 98.2518 159.283 98.2411 159.375C98.2165 159.526 98.2165 159.681 98.2411 159.833C98.2707 159.98 98.3552 160.109 98.4772 160.195C98.5896 160.265 98.7219 160.298 98.854 160.286C99.0258 160.271 99.1866 160.194 99.308 160.071C99.475 159.89 99.5814 159.661 99.6122 159.416C99.6582 159.146 99.6032 158.869 99.4578 158.637Z" fill="#F5F5F5"/>
<path d="M99.8255 160.492C99.8007 160.601 99.8007 160.714 99.8255 160.822C99.8347 160.878 99.8573 160.93 99.8913 160.975C99.9254 161.02 99.9698 161.055 100.021 161.079C100.113 161.1 100.21 161.093 100.299 161.059C100.388 161.025 100.465 160.965 100.52 160.886C100.654 160.748 100.753 160.578 100.806 160.392C100.833 160.299 100.84 160.201 100.829 160.105C100.817 160.009 100.786 159.917 100.738 159.833C100.334 159.169 99.88 160.163 99.8255 160.492Z" fill="#F5F5F5"/>
<path d="M100.193 195.158C100.497 194.078 100.674 192.891 100.27 191.842C99.0219 188.577 93.8644 189.617 93.5239 192.942L100.193 195.158Z" fill="#F5F5F5"/>
<path d="M92.8067 189.122C92.9415 189.381 93.1502 189.593 93.4059 189.731C93.5557 189.829 93.7276 189.886 93.9056 189.898C94.0835 189.91 94.2616 189.877 94.4229 189.8C94.5555 189.695 94.6646 189.562 94.7428 189.411C94.8211 189.261 94.8668 189.095 94.8769 188.925C94.957 188.511 94.9225 188.083 94.777 187.688C94.7017 187.491 94.5795 187.316 94.4212 187.178C94.2628 187.04 94.0732 186.943 93.869 186.896C93.6648 186.859 93.4544 186.895 93.2727 186.995C93.091 187.096 92.9489 187.257 92.8702 187.45C92.6823 187.988 92.6601 188.571 92.8067 189.122Z" fill="#F5F5F5"/>
<path d="M97.156 187.432C97.1021 187.268 97.0021 187.124 96.8683 187.017C96.7345 186.909 96.5726 186.843 96.4023 186.827C96.2317 186.822 96.0631 186.867 95.9184 186.959C95.7736 187.05 95.6592 187.183 95.5897 187.34C95.5497 187.445 95.5163 187.552 95.4898 187.661C95.4439 187.835 95.4165 188.013 95.4081 188.192C95.3966 188.371 95.4327 188.55 95.5125 188.71C95.6202 188.893 95.7778 189.041 95.9665 189.136C96.086 189.2 96.2193 189.233 96.3547 189.233C96.49 189.233 96.6233 189.2 96.7428 189.136C96.8619 189.054 96.9634 188.949 97.0414 188.827C97.1194 188.705 97.1723 188.569 97.1968 188.426C97.2783 188.097 97.2641 187.752 97.156 187.432Z" fill="#F5F5F5"/>
<path d="M99.1991 187.867C99.162 187.716 99.0734 187.583 98.9488 187.492C98.8242 187.401 98.6717 187.357 98.5181 187.368C98.3644 187.39 98.2185 187.45 98.0927 187.541C97.967 187.633 97.8652 187.754 97.7962 187.894C97.7552 187.986 97.7188 188.079 97.6872 188.174C97.6361 188.329 97.6056 188.491 97.5964 188.655C97.5874 188.816 97.6287 188.976 97.7145 189.113C97.815 189.256 97.9581 189.364 98.1231 189.42C98.2251 189.461 98.335 189.48 98.445 189.473C98.5549 189.467 98.662 189.436 98.7587 189.383C98.9816 189.235 99.1431 189.011 99.2127 188.751C99.3048 188.463 99.3 188.152 99.1991 187.867Z" fill="#F5F5F5"/>
<path d="M100.897 188.778C100.77 188.394 100.529 188.32 100.27 188.385C100.006 188.484 99.7842 188.673 99.6439 188.92C99.5985 189 99.5576 189.083 99.5213 189.168C99.4657 189.305 99.432 189.45 99.4214 189.598C99.4127 189.746 99.4598 189.892 99.5531 190.006C99.643 190.104 99.7627 190.171 99.8936 190.194C100.064 190.227 100.24 190.196 100.388 190.107C100.593 189.974 100.752 189.78 100.842 189.552C100.953 189.31 100.973 189.034 100.897 188.778Z" fill="#F5F5F5"/>
<path d="M100.788 190.665C100.733 190.762 100.7 190.87 100.693 190.981C100.688 191.037 100.697 191.093 100.718 191.145C100.74 191.197 100.773 191.243 100.815 191.279C100.899 191.324 100.995 191.342 101.089 191.333C101.184 191.323 101.273 191.285 101.346 191.224C101.511 191.124 101.649 190.986 101.75 190.821C101.8 190.738 101.832 190.645 101.845 190.55C101.858 190.454 101.852 190.356 101.828 190.262C101.592 189.516 100.933 190.368 100.788 190.665Z" fill="#F5F5F5"/>
<path d="M82.2966 175.716C82.4645 177.049 81.8425 178.409 82.1603 179.715C82.3919 180.736 83.1319 181.547 83.6404 182.463C84.1489 183.379 84.3895 184.624 83.6813 185.394C83.4183 185.643 83.094 185.817 82.742 185.898C82.39 185.978 82.023 185.962 81.6791 185.852C80.9959 185.616 80.3749 185.226 79.8631 184.711C77.9023 182.919 76.4564 180.626 75.6772 178.075C75.3503 176.999 75.1506 175.822 75.5319 174.764C76.726 171.471 81.8925 172.405 82.2966 175.716Z" fill="#F5F5F5"/>
<path d="M82.9367 171.887C82.8091 172.148 82.6066 172.363 82.3556 172.506C82.2082 172.608 82.0372 172.67 81.859 172.686C81.6809 172.702 81.5017 172.672 81.3387 172.597C81.2004 172.497 81.0854 172.368 81.0015 172.218C80.9176 172.069 80.8669 171.903 80.8529 171.732C80.7653 171.319 80.7904 170.89 80.9255 170.491C80.9989 170.291 81.1203 170.113 81.2788 169.972C81.4373 169.831 81.6279 169.733 81.8335 169.684C82.037 169.643 82.2486 169.673 82.4328 169.77C82.617 169.866 82.7628 170.024 82.8459 170.216C82.973 170.642 83.1319 171.471 82.9367 171.887Z" fill="#F5F5F5"/>
<path d="M78.5738 170.289C78.6238 170.124 78.7204 169.977 78.8519 169.866C78.9833 169.756 79.1438 169.686 79.3138 169.666C79.4845 169.657 79.6539 169.7 79.8003 169.789C79.9467 169.878 80.0634 170.009 80.1355 170.165C80.1795 170.268 80.2159 170.373 80.2445 170.481C80.2935 170.653 80.3239 170.83 80.3353 171.008C80.3517 171.188 80.3188 171.368 80.24 171.53C80.1391 171.726 79.9805 171.886 79.786 171.988C79.6691 172.057 79.5372 172.096 79.4018 172.102C79.2664 172.108 79.1317 172.08 79.0096 172.02C78.8911 171.939 78.7898 171.835 78.7119 171.714C78.6339 171.593 78.5808 171.457 78.5556 171.315C78.4571 170.979 78.4634 170.621 78.5738 170.289Z" fill="#F5F5F5"/>
<path d="M76.5217 170.765C76.5552 170.611 76.6424 170.475 76.7675 170.381C76.8925 170.287 77.0471 170.241 77.2027 170.252C77.3562 170.271 77.5028 170.327 77.6301 170.416C77.7574 170.504 77.8616 170.623 77.9337 170.761C77.9773 170.851 78.0152 170.945 78.0472 171.04C78.1028 171.195 78.1379 171.357 78.1516 171.521C78.1608 171.682 78.1212 171.841 78.0381 171.979C77.9413 172.124 77.8015 172.235 77.6386 172.295C77.5376 172.339 77.4282 172.36 77.3182 172.356C77.2083 172.352 77.1006 172.323 77.003 172.272C76.781 172.128 76.6194 171.906 76.549 171.649C76.4436 171.366 76.434 171.055 76.5217 170.765Z" fill="#F5F5F5"/>
<path d="M74.8419 171.713C74.9644 171.329 75.2005 171.255 75.4638 171.306C75.7303 171.401 75.9552 171.587 76.0994 171.832C76.147 171.91 76.1895 171.992 76.2266 172.075C76.2876 172.209 76.3245 172.354 76.3355 172.501C76.3498 172.649 76.3058 172.797 76.2129 172.913C76.1251 173.013 76.0069 173.081 75.877 173.106C75.7072 173.143 75.5296 173.117 75.3776 173.032C75.1668 172.905 75.0004 172.714 74.9009 172.487C74.7889 172.245 74.768 171.97 74.8419 171.713Z" fill="#F5F5F5"/>
<path d="M74.9963 173.582C75.0525 173.679 75.0881 173.786 75.1007 173.898C75.1058 173.954 75.0977 174.011 75.0772 174.063C75.0567 174.116 75.0244 174.163 74.9827 174.2C74.8985 174.246 74.8032 174.265 74.7081 174.257C74.6131 174.249 74.5224 174.213 74.447 174.154C74.2807 174.059 74.1404 173.924 74.0384 173.761C73.9868 173.678 73.9525 173.586 73.9377 173.49C73.9229 173.394 73.9278 173.296 73.9521 173.202C74.1655 172.464 74.8419 173.303 74.9963 173.582Z" fill="#F5F5F5"/>
<path d="M71.1554 65.7642C70.1106 65.9124 69.0457 65.7447 68.0953 65.2823C67.145 64.8199 66.3519 64.0836 65.8164 63.1665C65.2809 62.2494 65.027 61.1927 65.0868 60.13C65.1466 59.0673 65.5175 58.0464 66.1525 57.1964C66.7875 56.3463 67.6581 55.7053 68.6542 55.3544C69.6503 55.0035 70.7272 54.9585 71.7486 55.2251C72.7701 55.4916 73.6903 56.0578 74.3928 56.8519C75.0953 57.646 75.5486 58.6325 75.6954 59.6865C75.8897 61.0994 75.521 62.5324 74.67 63.6716C73.8191 64.8107 72.5552 65.5632 71.1554 65.7642ZM70.0749 57.9324C69.5846 58.0006 69.1255 58.2139 68.7554 58.5454C68.3854 58.8769 68.1211 59.3117 67.9961 59.7947C67.8711 60.2777 67.8909 60.7873 68.053 61.259C68.2151 61.7307 68.5122 62.1433 68.9068 62.4446C69.3014 62.7458 69.7757 62.9223 70.2698 62.9516C70.7638 62.9808 71.2553 62.8616 71.6822 62.6091C72.109 62.3565 72.452 61.9818 72.6678 61.5325C72.8835 61.0832 72.9623 60.5795 72.8942 60.085C72.8018 59.4231 72.4533 58.825 71.925 58.4216C71.3966 58.0182 70.7314 57.8423 70.0749 57.9324Z" fill="#E0E0E0"/>
<path d="M69.1557 44.3816L67.1503 44.6641L68.9518 57.6779L70.9572 57.3953L69.1557 44.3816Z" fill="#E0E0E0"/>
<path d="M70.852 42.5704L67.09 43.1071L67.3734 45.1293L71.1354 44.5926L70.852 42.5704Z" fill="#E0E0E0"/>
<path d="M71.1613 45.3215L67.6226 45.8195L67.9023 47.8426L71.441 47.3447L71.1613 45.3215Z" fill="#E0E0E0"/>
<path d="M71.677 48.9891L68.5879 49.4237L68.8676 51.4468L71.9567 51.0122L71.677 48.9891Z" fill="#E0E0E0"/>
<path d="M113.5 202.706C162.115 202.706 201.526 200.385 201.526 197.522C201.526 194.658 162.115 192.337 113.5 192.337C64.8846 192.337 25.474 194.658 25.474 197.522C25.474 200.385 64.8846 202.706 113.5 202.706Z" fill="#F5F5F5"/>
<path d="M66.9514 111.42C71.137 107.01 70.6626 99.6989 65.8918 95.0916C61.121 90.4843 53.8605 90.3251 49.6749 94.7359C45.4893 99.1468 45.9637 106.457 50.7345 111.065C55.5053 115.672 62.7659 115.831 66.9514 111.42Z" fill="#08B952"/>
<g opacity="0.8">
<path opacity="0.8" d="M66.9514 111.42C71.137 107.01 70.6626 99.6989 65.8918 95.0916C61.121 90.4843 53.8605 90.3251 49.6749 94.7359C45.4893 99.1468 45.9637 106.457 50.7345 111.065C55.5053 115.672 62.7659 115.831 66.9514 111.42Z" fill="white"/>
</g>
<path d="M52.9772 95.832C52.8819 95.832 52.789 95.8017 52.7117 95.7455C52.6344 95.6893 52.5766 95.61 52.5465 95.5188C52.5164 95.4276 52.5154 95.3291 52.5438 95.2374C52.5723 95.1456 52.6286 95.0652 52.7048 95.0076C54.2335 93.9007 56.0762 93.3223 57.9576 93.3587C58.078 93.3587 58.1935 93.407 58.2786 93.4929C58.3637 93.5788 58.4116 93.6953 58.4116 93.8167C58.4116 93.9382 58.3637 94.0547 58.2786 94.1406C58.1935 94.2265 58.078 94.2747 57.9576 94.2747C56.2725 94.2373 54.6207 94.7515 53.2496 95.7403C53.171 95.7998 53.0754 95.832 52.9772 95.832Z" fill="#08B952"/>
<path d="M55.1247 111.587C55.0501 111.587 54.9768 111.568 54.9113 111.532C53.5199 110.782 52.3126 109.727 51.3778 108.444C50.443 107.162 49.8044 105.685 49.5087 104.122C49.2202 102.769 49.2335 101.369 49.5476 100.022C49.8617 98.6758 50.4687 97.4165 51.3247 96.3357C51.4017 96.2422 51.5125 96.1834 51.6325 96.1722C51.7526 96.1611 51.8721 96.1985 51.9648 96.2762C52.0575 96.3539 52.1158 96.4657 52.1269 96.5868C52.138 96.7079 52.1009 96.8284 52.0238 96.922C51.2506 97.9003 50.7031 99.04 50.4212 100.259C50.1392 101.477 50.1299 102.743 50.394 103.966C50.666 105.395 51.2505 106.745 52.105 107.918C52.9594 109.091 54.0624 110.056 55.3335 110.744C55.4223 110.793 55.4925 110.87 55.5332 110.963C55.574 111.056 55.5828 111.16 55.5583 111.259C55.5338 111.357 55.4775 111.445 55.3981 111.508C55.3188 111.571 55.221 111.605 55.1201 111.605L55.1247 111.587Z" fill="#08B952"/>
<path d="M59.6691 112.782C58.6529 112.778 57.6436 112.614 56.6773 112.297C56.6203 112.278 56.5676 112.249 56.5221 112.209C56.4765 112.17 56.4391 112.122 56.4119 112.069C56.3847 112.015 56.3683 111.956 56.3636 111.896C56.3589 111.836 56.366 111.775 56.3845 111.718C56.4029 111.66 56.4325 111.607 56.4713 111.561C56.5102 111.515 56.5576 111.477 56.611 111.45C56.6643 111.423 56.7225 111.406 56.7821 111.401C56.8418 111.396 56.9018 111.404 56.9588 111.422C59.7509 112.338 62.5384 111.825 64.6041 110.048C65.6521 109.115 66.4441 107.925 66.9037 106.594C67.3633 105.262 67.4751 103.833 67.2282 102.445C67.209 102.324 67.2383 102.2 67.3098 102.1C67.3814 102 67.4892 101.934 67.6096 101.914C67.73 101.895 67.8531 101.924 67.9519 101.996C68.0507 102.069 68.117 102.177 68.1362 102.299C68.4115 103.841 68.2864 105.429 67.7733 106.908C67.2602 108.387 66.3764 109.707 65.2079 110.74C63.6684 112.076 61.6999 112.802 59.6691 112.782Z" fill="#08B952"/>
<path d="M67.3055 101.273C67.2092 101.273 67.1155 101.241 67.038 101.184C66.9604 101.126 66.9031 101.045 66.8742 100.952C66.4566 99.6517 65.7728 98.4541 64.8672 97.4371C63.9615 96.4201 62.8542 95.6064 61.6169 95.0487C61.5061 95.0001 61.419 94.9091 61.3747 94.7958C61.3304 94.6824 61.3326 94.5559 61.3808 94.4442C61.429 94.3324 61.5191 94.2445 61.6315 94.1999C61.7439 94.1552 61.8693 94.1574 61.9801 94.206C63.3351 94.8171 64.5477 95.7085 65.5394 96.8226C66.5311 97.9366 67.2797 99.2484 67.7368 100.673C67.774 100.788 67.7643 100.914 67.7099 101.022C67.6554 101.13 67.5606 101.212 67.4462 101.25C67.4005 101.264 67.3532 101.272 67.3055 101.273Z" fill="#08B952"/>
<path d="M60.1505 94.5312C60.1158 94.536 60.0807 94.536 60.046 94.5312C59.3628 94.3706 58.6637 94.2892 57.9622 94.2884C57.8418 94.2884 57.7263 94.2402 57.6412 94.1543C57.556 94.0684 57.5082 93.9519 57.5082 93.8304C57.5082 93.709 57.556 93.5925 57.6412 93.5066C57.7263 93.4207 57.8418 93.3724 57.9622 93.3724C58.7266 93.3748 59.4882 93.4655 60.2322 93.6427C60.3526 93.6566 60.4626 93.7183 60.5379 93.814C60.6133 93.9098 60.6478 94.0319 60.634 94.1533C60.6201 94.2748 60.559 94.3857 60.4641 94.4618C60.3691 94.5378 60.2482 94.5726 60.1278 94.5587L60.1505 94.5312Z" fill="#08B952"/>
<path d="M52.1419 105.473C52.0491 105.473 51.9585 105.445 51.8822 105.392C51.8059 105.338 51.7476 105.263 51.7151 105.175C51.2896 104.067 51.1399 102.87 51.2792 101.69C51.4185 100.51 51.8425 99.3823 52.5142 98.4059C53.149 97.4809 53.9994 96.7273 54.9905 96.2115C55.9815 95.6956 57.0831 95.4331 58.1982 95.4472C58.3186 95.4472 58.4341 95.4954 58.5193 95.5813C58.6044 95.6672 58.6522 95.7837 58.6522 95.9052C58.6522 96.0267 58.6044 96.1432 58.5193 96.229C58.4341 96.3149 58.3186 96.3632 58.1982 96.3632C57.2293 96.3517 56.2723 96.5794 55.4106 97.0264C54.5489 97.4734 53.8086 98.1263 53.2542 98.928C52.6652 99.7879 52.2947 100.781 52.1751 101.819C52.0556 102.857 52.1907 103.909 52.5686 104.882C52.6098 104.996 52.6047 105.121 52.5545 105.231C52.5043 105.341 52.4131 105.426 52.3008 105.468C52.2484 105.479 52.1947 105.48 52.1419 105.473Z" fill="#08B952"/>
<path d="M59.3423 110.703C57.9815 110.657 56.6518 110.281 55.4662 109.605C54.2805 108.93 53.2741 107.976 52.5323 106.824C52.4772 106.723 52.462 106.604 52.4898 106.492C52.5175 106.38 52.5862 106.283 52.6821 106.22C52.7779 106.157 52.8938 106.132 53.0066 106.152C53.1195 106.171 53.2208 106.233 53.2905 106.325C53.9498 107.349 54.8439 108.199 55.8972 108.802C56.9505 109.404 58.1322 109.742 59.3423 109.787C59.4627 109.787 59.5782 109.835 59.6633 109.921C59.7485 110.007 59.7963 110.124 59.7963 110.245C59.7963 110.367 59.7485 110.483 59.6633 110.569C59.5782 110.655 59.4627 110.703 59.3423 110.703Z" fill="#08B952"/>
<path d="M61.0402 110.506C60.9365 110.509 60.8349 110.476 60.7523 110.413C60.6697 110.35 60.6111 110.26 60.5862 110.158C60.5574 110.04 60.5762 109.916 60.6383 109.812C60.7004 109.708 60.8009 109.633 60.9177 109.604C64.5996 108.688 65.553 105.432 65.2488 102.931C64.8538 99.6699 62.3024 96.3677 58.1846 96.3631C58.0642 96.3631 57.9487 96.3149 57.8636 96.229C57.7784 96.1431 57.7306 96.0266 57.7306 95.9051C57.7306 95.7837 57.7784 95.6672 57.8636 95.5813C57.9487 95.4954 58.0642 95.4471 58.1846 95.4471C62.829 95.4471 65.7074 99.1569 66.1523 102.821C66.6063 106.599 64.6405 109.613 61.1356 110.492C61.1044 110.5 61.0724 110.505 61.0402 110.506Z" fill="#08B952"/>
<path d="M56.3414 98.8913C56.2553 98.8907 56.1712 98.8654 56.0989 98.8183C56.0265 98.7713 55.9689 98.7045 55.9328 98.6257C55.8816 98.5158 55.8759 98.3898 55.9167 98.2756C55.9576 98.1614 56.0418 98.0682 56.1507 98.0166C56.8467 97.706 57.6007 97.5498 58.3617 97.5586C58.4821 97.5586 58.5976 97.6068 58.6827 97.6927C58.7679 97.7786 58.8157 97.8951 58.8157 98.0166C58.8157 98.138 58.7679 98.2545 58.6827 98.3404C58.5976 98.4263 58.4821 98.4746 58.3617 98.4746C57.7351 98.475 57.1159 98.6109 56.5457 98.873C56.4799 98.8948 56.41 98.901 56.3414 98.8913Z" fill="#08B952"/>
<path d="M59.2606 108.569C58.1108 108.55 56.9903 108.2 56.032 107.558C55.0737 106.917 54.3176 106.012 53.8535 104.951C52.9137 102.885 53.1906 100.728 54.5935 99.1707C54.6749 99.0816 54.788 99.0288 54.9079 99.0236C55.0279 99.0185 55.145 99.0615 55.2336 99.1432C55.3219 99.2253 55.3743 99.3394 55.3794 99.4604C55.3845 99.5815 55.3419 99.6996 55.2609 99.789C54.6967 100.433 54.3392 101.234 54.2355 102.087C54.1318 102.939 54.2866 103.804 54.6797 104.566C55.081 105.491 55.7429 106.277 56.5831 106.826C57.4234 107.374 58.4049 107.662 59.4059 107.653C60.1631 107.647 60.9025 107.421 61.5349 107.001C62.1674 106.58 62.6657 105.985 62.9698 105.285C63.3117 104.46 63.4148 103.554 63.2669 102.672C63.119 101.79 62.7264 100.968 62.1344 100.302C62.0957 100.256 62.0662 100.203 62.0478 100.146C62.0293 100.089 62.0222 100.029 62.0268 99.9686C62.0315 99.9087 62.0478 99.8502 62.0748 99.7966C62.1018 99.743 62.1391 99.6953 62.1844 99.6562C62.2297 99.6171 62.2822 99.5874 62.3389 99.5688C62.3956 99.5501 62.4553 99.5429 62.5148 99.5476C62.5742 99.5523 62.6322 99.5687 62.6853 99.596C62.7385 99.6233 62.7858 99.6609 62.8245 99.7066C63.5292 100.504 63.9951 101.487 64.1679 102.541C64.3407 103.595 64.2133 104.677 63.8006 105.661C63.4281 106.519 62.8177 107.25 62.0429 107.767C61.2681 108.284 60.3619 108.564 59.4331 108.573L59.2606 108.569Z" fill="#08B952"/>
<path d="M61.172 99.2944C61.0863 99.2949 61.0024 99.2693 60.9313 99.2211C60.1647 98.7234 59.2734 98.4564 58.3617 98.4516C58.2413 98.4516 58.1258 98.4034 58.0407 98.3175C57.9555 98.2316 57.9077 98.1151 57.9077 97.9936C57.9077 97.8722 57.9555 97.7557 58.0407 97.6698C58.1258 97.5839 58.2413 97.5356 58.3617 97.5356C59.4461 97.5397 60.5065 97.8576 61.4171 98.4516C61.4994 98.5052 61.5622 98.5842 61.5963 98.6768C61.6305 98.7693 61.634 98.8706 61.6064 98.9653C61.5788 99.0601 61.5217 99.1433 61.4434 99.2026C61.3651 99.2619 61.2699 99.2941 61.172 99.2944Z" fill="#08B952"/>
<path d="M59.02 106.503C58.4895 106.5 57.9663 106.379 57.487 106.149C57.0078 105.92 56.5842 105.587 56.246 105.175C55.8097 104.671 55.5263 104.051 55.4297 103.39C55.3331 102.728 55.4273 102.052 55.7012 101.442C55.9457 100.889 56.3458 100.421 56.8519 100.095C57.3579 99.7696 57.9476 99.601 58.5478 99.6104C58.6682 99.6104 58.7837 99.6587 58.8688 99.7446C58.954 99.8305 59.0018 99.947 59.0018 100.068C59.0018 100.19 58.954 100.306 58.8688 100.392C58.7837 100.478 58.6682 100.526 58.5478 100.526C58.1233 100.519 57.7058 100.636 57.3468 100.865C56.9877 101.094 56.703 101.423 56.5275 101.813C56.3279 102.263 56.2607 102.761 56.334 103.249C56.4072 103.736 56.6178 104.192 56.9407 104.561C57.2621 104.959 57.6887 105.256 58.171 105.418C58.6532 105.58 59.1712 105.601 59.6647 105.477C60.0661 105.386 60.4331 105.181 60.7221 104.885C61.011 104.59 61.2097 104.216 61.2945 103.81C61.3206 103.692 61.3921 103.589 61.4933 103.524C61.5946 103.458 61.7174 103.436 61.8348 103.462C61.8933 103.475 61.9487 103.499 61.998 103.533C62.0473 103.567 62.0893 103.611 62.1218 103.661C62.1543 103.712 62.1765 103.769 62.1873 103.828C62.198 103.887 62.197 103.948 62.1844 104.007C62.0641 104.58 61.784 105.107 61.377 105.525C60.97 105.943 60.4531 106.235 59.8871 106.366C59.6045 106.446 59.3134 106.493 59.02 106.503Z" fill="#08B952"/>
<path d="M61.6622 102.876C61.5621 102.881 61.4632 102.852 61.3811 102.794C61.299 102.736 61.2382 102.652 61.2082 102.555C61.027 101.981 60.6729 101.479 60.1952 101.118C59.7175 100.757 59.14 100.555 58.5432 100.54C58.4228 100.54 58.3073 100.492 58.2222 100.406C58.1371 100.32 58.0892 100.204 58.0892 100.082C58.0892 99.9607 58.1371 99.8442 58.2222 99.7583C58.3073 99.6724 58.4228 99.6241 58.5432 99.6241C59.3326 99.6419 60.0968 99.9072 60.7298 100.383C61.3628 100.859 61.8331 101.522 62.0753 102.281C62.0937 102.338 62.1006 102.398 62.0957 102.459C62.0908 102.519 62.0741 102.577 62.0467 102.631C62.0193 102.685 61.9816 102.732 61.9359 102.771C61.8902 102.81 61.8373 102.839 61.7802 102.858C61.7419 102.869 61.7022 102.875 61.6622 102.876Z" fill="#08B952"/>
<path d="M59.1425 104.598C59.0221 104.598 58.9066 104.55 58.8215 104.464C58.7363 104.378 58.6885 104.262 58.6885 104.14C58.6885 104.019 58.7363 103.902 58.8215 103.816C58.9066 103.73 59.0221 103.682 59.1425 103.682C59.2045 103.682 59.2658 103.669 59.3228 103.645C59.3797 103.62 59.431 103.584 59.4735 103.538C59.5161 103.493 59.5489 103.439 59.5701 103.38C59.5912 103.322 59.6002 103.259 59.5965 103.197C59.5989 103.107 59.5837 103.019 59.5518 102.935C59.52 102.852 59.472 102.776 59.4107 102.712C59.3495 102.648 59.2762 102.596 59.195 102.561C59.1139 102.525 59.0266 102.506 58.9382 102.505C58.8716 102.507 58.806 102.522 58.7452 102.549C58.6844 102.577 58.6297 102.616 58.5841 102.665C58.5375 102.721 58.5024 102.785 58.4805 102.854C58.4587 102.923 58.4507 102.996 58.457 103.068C58.4605 103.128 58.4523 103.189 58.4328 103.246C58.4133 103.303 58.3829 103.355 58.3432 103.4C58.3036 103.445 58.2556 103.482 58.2019 103.508C58.1482 103.535 58.0898 103.55 58.0302 103.554C57.9706 103.557 57.9108 103.549 57.8544 103.529C57.7979 103.51 57.7459 103.479 57.7012 103.439C57.6565 103.399 57.6201 103.351 57.5939 103.296C57.5678 103.242 57.5525 103.183 57.549 103.123C57.5328 102.931 57.5558 102.738 57.6164 102.555C57.6771 102.372 57.7742 102.203 57.9017 102.06C58.0293 101.916 58.1846 101.8 58.3582 101.719C58.5317 101.638 58.7198 101.594 58.911 101.589C59.1188 101.59 59.3244 101.632 59.516 101.713C59.7075 101.794 59.8812 101.913 60.0269 102.063C60.1725 102.212 60.2874 102.39 60.3647 102.584C60.442 102.779 60.4803 102.987 60.4773 103.197C60.4809 103.379 60.4483 103.561 60.3815 103.731C60.3147 103.901 60.2149 104.055 60.0881 104.186C59.9613 104.316 59.8099 104.42 59.6428 104.491C59.4758 104.562 59.2964 104.598 59.1153 104.598H59.1425Z" fill="#08B952"/>
<path d="M70.824 103.073C71.3778 109.453 66.6971 114.624 60.382 114.624H59.8916C65.9117 114.312 70.2837 109.265 69.748 103.087C69.4386 100.062 68.079 97.246 65.9097 95.1355C63.7404 93.025 60.9011 91.7564 57.894 91.5542C58.0529 91.5542 58.2164 91.5542 58.3798 91.5542C64.7131 91.5267 70.2882 96.6975 70.824 103.073Z" fill="#08B952"/>
<g opacity="0.4">
<path opacity="0.4" d="M70.824 103.073C71.3778 109.453 66.6971 114.624 60.382 114.624H59.8916C65.9117 114.312 70.2837 109.265 69.748 103.087C69.4386 100.062 68.079 97.246 65.9097 95.1355C63.7404 93.025 60.9011 91.7564 57.894 91.5542C58.0529 91.5542 58.2164 91.5542 58.3798 91.5542C64.7131 91.5267 70.2882 96.6975 70.824 103.073Z" fill="white"/>
</g>
<path d="M80.0947 46.7801C80.1058 46.9168 80.124 47.0529 80.1491 47.1877C80.3204 48.0702 80.7694 48.8733 81.4294 49.4777C82.1772 50.1841 83.1608 50.5813 84.1852 50.5907H122.544C122.991 50.5998 123.436 50.519 123.853 50.353C124.27 50.187 124.649 49.9391 124.97 49.6237C125.29 49.3083 125.546 48.9317 125.721 48.5159C125.896 48.1001 125.987 47.6533 125.99 47.2015C125.996 47.0657 125.996 46.9296 125.99 46.7939C125.883 45.7684 125.409 44.8175 124.656 44.1194C123.904 43.4212 122.925 43.0238 121.904 43.0016H83.536C83.055 42.9918 82.5775 43.0853 82.1351 43.276C81.6927 43.4667 81.2956 43.7501 80.9701 44.1074C80.6446 44.4648 80.3982 44.8879 80.2473 45.3487C80.0964 45.8095 80.0443 46.2975 80.0947 46.7801Z" fill="#08B952"/>
<path opacity="0.8" d="M80.0947 46.7801C80.1058 46.9168 80.124 47.0529 80.1491 47.1877C80.3204 48.0702 80.7694 48.8733 81.4294 49.4777C82.1772 50.1841 83.1608 50.5813 84.1852 50.5907H122.544C122.991 50.5998 123.436 50.519 123.853 50.353C124.27 50.187 124.649 49.9391 124.97 49.6237C125.29 49.3083 125.546 48.9317 125.721 48.5159C125.896 48.1001 125.987 47.6533 125.99 47.2015C125.996 47.0657 125.996 46.9296 125.99 46.7939C125.883 45.7684 125.409 44.8175 124.656 44.1194C123.904 43.4212 122.925 43.0238 121.904 43.0016H83.536C83.055 42.9918 82.5775 43.0853 82.1351 43.276C81.6927 43.4667 81.2956 43.7501 80.9701 44.1074C80.6446 44.4648 80.3982 44.8879 80.2473 45.3487C80.0964 45.8095 80.0443 46.2975 80.0947 46.7801Z" fill="white"/>
<path d="M125.99 47.174C125.99 47.2967 125.981 47.4192 125.962 47.5404C125.827 46.5382 125.341 45.6179 124.591 44.9458C123.842 44.2738 122.879 43.8945 121.876 43.8764L81.0935 43.968C81.4168 43.6508 81.799 43.4009 82.2181 43.2327C82.6372 43.0646 83.085 42.9814 83.536 42.9879H121.894C122.916 43.0101 123.895 43.4075 124.647 44.1057C125.4 44.8038 125.874 45.7547 125.98 46.7801C125.99 46.9112 125.993 47.0427 125.99 47.174Z" fill="#08B952"/>
<path opacity="0.5" d="M125.99 47.174C125.99 47.2967 125.981 47.4192 125.962 47.5404C125.827 46.5382 125.341 45.6179 124.591 44.9458C123.842 44.2738 122.879 43.8945 121.876 43.8764L81.0935 43.968C81.4168 43.6508 81.799 43.4009 82.2181 43.2327C82.6372 43.0646 83.085 42.9814 83.536 42.9879H121.894C122.916 43.0101 123.895 43.4075 124.647 44.1057C125.4 44.8038 125.874 45.7547 125.98 46.7801C125.99 46.9112 125.993 47.0427 125.99 47.174Z" fill="white"/>
<path d="M119.402 44.8199L119.565 46.6519L121.272 46.0107L121.677 46.9267L119.933 47.5129L121.186 49.0656L120.401 49.6472L119.18 48.0351L118.272 49.6472L117.413 49.0656L118.38 47.5129L116.564 46.9267L116.81 46.0107L118.648 46.629L118.485 44.797L119.402 44.8199Z" fill="#08B952"/>
<path d="M108.892 44.8199L109.055 46.6519L110.762 46.0107L111.171 46.9267L109.414 47.5267L110.667 49.0793L109.886 49.6609L108.665 48.0488L107.757 49.6609L106.894 49.0793L107.866 47.5267L106.05 46.9404L106.295 46.0244L108.134 46.6427L107.975 44.8107L108.892 44.8199Z" fill="#08B952"/>
<path d="M98.4045 44.8199L98.5634 46.6519L100.27 46.0107L100.679 46.9267L98.9312 47.5129L100.184 49.0655L99.426 49.6609L98.2048 48.0488L97.2968 49.6609L96.4387 49.0793L97.4057 47.5267L95.5897 46.9404L95.8394 46.0244L97.6554 46.6427L97.4965 44.8107L98.4045 44.8199Z" fill="#08B952"/>
<path d="M87.9126 44.8199L88.0715 46.6519L89.7831 46.0107L90.1871 46.9267L88.4392 47.5129L89.6968 49.0656L88.9114 49.6472L87.6901 48.0351L86.7821 49.6472L85.9241 49.0656L86.8911 47.5129L85.0751 46.9267L85.3202 46.0107L87.1362 46.629L86.9773 44.797L87.9126 44.8199Z" fill="#08B952"/>
<path d="M113.341 41.1925H111.552V41.6505H113.341V41.1925Z" fill="#08B952"/>
<path d="M121.027 41.1925H115.193V41.6505H121.027V41.1925Z" fill="#08B952"/>
<path opacity="0.8" d="M180.597 58.2759L178.74 79.692C178.668 80.3755 178.352 81.0093 177.851 81.4747C177.349 81.94 176.697 82.2051 176.016 82.2202H161.274C160.955 82.2219 160.639 82.1558 160.347 82.0261C160.055 81.8965 159.794 81.7061 159.58 81.4676C159.365 81.229 159.204 80.9476 159.104 80.6417C159.005 80.3357 158.971 80.0121 159.004 79.692L160.861 58.2714C160.93 57.5867 161.245 56.9513 161.747 56.4854C162.249 56.0194 162.903 55.7554 163.585 55.7432H178.327C178.646 55.7414 178.962 55.8076 179.255 55.9376C179.547 56.0675 179.809 56.2583 180.023 56.4973C180.237 56.7364 180.399 57.0184 180.498 57.3249C180.597 57.6314 180.63 57.9555 180.597 58.2759Z" fill="#08B952"/>
<path opacity="0.8" d="M180.597 58.2759L178.74 79.692C178.668 80.3755 178.352 81.0093 177.851 81.4747C177.349 81.94 176.697 82.2051 176.016 82.2202H161.274C160.955 82.2219 160.639 82.1558 160.347 82.0261C160.055 81.8965 159.794 81.7061 159.58 81.4676C159.365 81.229 159.204 80.9476 159.104 80.6417C159.005 80.3357 158.971 80.0121 159.004 79.692L160.861 58.2714C160.93 57.5867 161.245 56.9513 161.747 56.4854C162.249 56.0194 162.903 55.7554 163.585 55.7432H178.327C178.646 55.7414 178.962 55.8076 179.255 55.9376C179.547 56.0675 179.809 56.2583 180.023 56.4973C180.237 56.7364 180.399 57.0184 180.498 57.3249C180.597 57.6314 180.63 57.9555 180.597 58.2759Z" fill="white"/>
<path d="M162.205 61.7293H162.164C162.045 61.7188 161.934 61.6608 161.856 61.5681C161.779 61.4754 161.741 61.3555 161.751 61.2346L161.924 59.2744C161.934 59.1602 161.986 59.054 162.07 58.9769C162.154 58.8997 162.264 58.8571 162.378 58.8576H164.43C164.55 58.8576 164.666 58.9059 164.751 58.9918C164.836 59.0776 164.884 59.1941 164.884 59.3156C164.884 59.4371 164.836 59.5536 164.751 59.6395C164.666 59.7254 164.55 59.7736 164.43 59.7736H162.795L162.659 61.3125C162.649 61.4267 162.597 61.5328 162.513 61.61C162.428 61.6872 162.319 61.7297 162.205 61.7293Z" fill="#08B952"/>
<path d="M178.712 61.7293H178.672C178.552 61.7188 178.441 61.6608 178.364 61.5681C178.286 61.4754 178.248 61.3555 178.258 61.2346L178.386 59.7736H176.833C176.712 59.7736 176.597 59.7254 176.512 59.6395C176.427 59.5536 176.379 59.4371 176.379 59.3156C176.379 59.1941 176.427 59.0776 176.512 58.9918C176.597 58.9059 176.712 58.8576 176.833 58.8576H178.876C178.939 58.8573 179.002 58.8704 179.06 58.896C179.118 58.9215 179.17 58.959 179.212 59.006C179.255 59.053 179.288 59.1085 179.308 59.1689C179.328 59.2293 179.336 59.2933 179.33 59.3568L179.157 61.3125C179.147 61.4251 179.096 61.53 179.014 61.607C178.932 61.6839 178.825 61.7275 178.712 61.7293Z" fill="#08B952"/>
<path d="M162.986 76.5089H160.934C160.872 76.5087 160.81 76.4956 160.753 76.4704C160.696 76.4452 160.645 76.4084 160.602 76.3623C160.56 76.3157 160.528 76.2607 160.507 76.2008C160.487 76.1409 160.479 76.0774 160.484 76.0143L160.652 74.054C160.663 73.9326 160.72 73.8202 160.813 73.7416C160.905 73.663 161.025 73.6246 161.145 73.635C161.265 73.6453 161.377 73.7034 161.455 73.7966C161.533 73.8898 161.571 74.0104 161.56 74.1319L161.433 75.5929H162.986C163.106 75.5929 163.222 75.6412 163.307 75.7271C163.392 75.8129 163.44 75.9294 163.44 76.0509C163.44 76.1724 163.392 76.2889 163.307 76.3748C163.222 76.4607 163.106 76.5089 162.986 76.5089Z" fill="#08B952"/>
<path d="M177.428 76.5089H175.38C175.26 76.5089 175.144 76.4606 175.059 76.3747C174.974 76.2888 174.926 76.1723 174.926 76.0509C174.926 75.9294 174.974 75.8129 175.059 75.727C175.144 75.6411 175.26 75.5929 175.38 75.5929H177.015L177.146 74.054C177.157 73.9332 177.214 73.8215 177.306 73.7434C177.398 73.6653 177.517 73.6271 177.637 73.6372C177.756 73.6477 177.867 73.7057 177.944 73.7984C178.022 73.8911 178.06 74.011 178.05 74.1319L177.882 76.0921C177.871 76.2063 177.819 76.3125 177.735 76.3896C177.651 76.4668 177.541 76.5093 177.428 76.5089Z" fill="#08B952"/>
<path d="M175.865 69.1245C176.89 65.1149 175.131 61.1907 171.936 60.3595C168.74 59.5283 165.319 62.1048 164.294 66.1144C163.269 70.1239 165.029 74.0482 168.224 74.8794C171.419 75.7106 174.84 73.134 175.865 69.1245Z" fill="white"/>
<path d="M171.862 79.0187H165.982L166.495 73.0876H172.375L171.862 79.0187Z" fill="white"/>
<path d="M178.74 79.692C178.668 80.3756 178.352 81.0093 177.851 81.4747C177.349 81.94 176.697 82.2051 176.016 82.2202H161.274C160.955 82.222 160.639 82.1558 160.347 82.0262C160.055 81.8965 159.794 81.7062 159.58 81.4676C159.365 81.229 159.204 80.9476 159.104 80.6417C159.005 80.3357 158.971 80.0122 159.004 79.692C159.004 79.692 165.778 77.5303 166.613 77.5303H171.848L178.74 79.692Z" fill="white"/>
<path d="M181.453 64.5347L180.766 72.9471L181.218 72.9848L181.905 64.5723L181.453 64.5347Z" fill="#08B952"/>
<path d="M181.93 60.6852L181.795 62.3376L182.248 62.3752L182.383 60.7228L181.93 60.6852Z" fill="#08B952"/>
<path d="M166.11 111.784H164.321V112.242H166.11V111.784Z" fill="#08B952"/>
<path d="M173.796 111.784H167.962V112.242H173.796V111.784Z" fill="#08B952"/>
<path d="M184.474 103.966L183.343 117.019C183.285 117.596 183.019 118.131 182.595 118.523C182.172 118.916 181.621 119.138 181.046 119.149C180.776 119.153 180.507 119.1 180.259 118.992C180.01 118.885 179.788 118.725 179.605 118.523C179.423 118.322 179.285 118.083 179.2 117.824C179.116 117.565 179.088 117.29 179.117 117.019L180.238 103.966C180.342 102.992 180.24 102.008 179.939 101.077C179.637 100.146 179.143 99.2908 178.489 98.5675C177.834 97.8441 177.035 97.2695 176.144 96.8815C175.252 96.4936 174.29 96.3013 173.319 96.3174H168.706C166.643 96.3568 164.666 97.1564 163.147 98.5654C161.628 99.9744 160.673 101.895 160.462 103.966L160.008 109.297H155.786L156.24 103.966C156.807 97.3983 162.568 92.058 169.074 92.058H173.705C175.216 92.0328 176.715 92.3322 178.102 92.9362C179.49 93.5401 180.734 94.4349 181.753 95.5611C182.771 96.6873 183.54 98.0191 184.01 99.4682C184.479 100.917 184.637 102.45 184.474 103.966Z" fill="#08B952"/>
<g opacity="0.5">
<path opacity="0.5" d="M184.474 103.966L183.343 117.019C183.285 117.596 183.019 118.131 182.595 118.523C182.172 118.916 181.621 119.138 181.046 119.149C180.776 119.153 180.507 119.1 180.259 118.992C180.01 118.885 179.788 118.725 179.605 118.523C179.423 118.322 179.285 118.083 179.2 117.824C179.116 117.565 179.088 117.29 179.117 117.019L180.238 103.966C180.342 102.992 180.24 102.008 179.939 101.077C179.637 100.146 179.143 99.2908 178.489 98.5675C177.834 97.8441 177.035 97.2695 176.144 96.8815C175.252 96.4936 174.29 96.3013 173.319 96.3174H168.706C166.643 96.3568 164.666 97.1564 163.147 98.5654C161.628 99.9744 160.673 101.895 160.462 103.966L160.008 109.297H155.786L156.24 103.966C156.807 97.3983 162.568 92.058 169.074 92.058H173.705C175.216 92.0328 176.715 92.3322 178.102 92.9362C179.49 93.5401 180.734 94.4349 181.753 95.5611C182.771 96.6873 183.54 98.0191 184.01 99.4682C184.479 100.917 184.637 102.45 184.474 103.966Z" fill="white"/>
</g>
<path d="M184.778 116.543L182.576 141.98C182.496 142.769 182.132 143.5 181.553 144.036C180.974 144.572 180.22 144.876 179.434 144.888H154.219C153.85 144.895 153.483 144.822 153.144 144.675C152.805 144.528 152.501 144.309 152.251 144.034C152.002 143.759 151.814 143.434 151.699 143.079C151.585 142.725 151.546 142.35 151.586 141.98L153.793 116.543C153.843 116.035 154.012 115.548 154.285 115.119C154.558 114.69 154.927 114.332 155.363 114.074C155.837 113.782 156.379 113.623 156.934 113.616H182.145C182.66 113.613 183.165 113.758 183.602 114.033C184.01 114.3 184.336 114.676 184.544 115.119C184.752 115.562 184.833 116.055 184.778 116.543Z" fill="#08B952"/>
<path d="M158.56 127.654L165.111 137.826L186.717 116.03C186.75 115.989 186.768 115.938 186.767 115.886C186.766 115.833 186.747 115.782 186.712 115.743C186.678 115.704 186.63 115.678 186.579 115.671C186.527 115.664 186.474 115.676 186.431 115.705L165.842 131.986L161.951 125.661L158.56 127.654Z" fill="white"/>
<path d="M55.388 78.4599H38.9623C38.2023 78.446 37.4736 78.1518 36.914 77.6328C36.3544 77.1139 36.0026 76.4061 35.925 75.6433L34.504 59.082C34.4645 58.7234 34.5014 58.3604 34.612 58.0173C34.7227 57.6741 34.9046 57.3588 35.1456 57.0922C35.3867 56.8256 35.6813 56.614 36.0098 56.4714C36.3384 56.3288 36.6933 56.2585 37.0509 56.2653H53.4585C54.2156 56.2826 54.9404 56.5785 55.4964 57.0972C56.0525 57.616 56.4014 58.3218 56.4776 59.082L57.9122 75.6341C57.9528 75.9915 57.9176 76.3535 57.8089 76.6961C57.7002 77.0387 57.5206 77.3541 57.2818 77.6213C57.0431 77.8885 56.7508 78.1015 56.4243 78.2461C56.0978 78.3907 55.7446 78.4636 55.388 78.4599Z" fill="#08B952"/>
<path opacity="0.8" d="M55.388 78.4599H38.9623C38.2023 78.446 37.4736 78.1518 36.914 77.6328C36.3544 77.1139 36.0026 76.4061 35.925 75.6433L34.504 59.082C34.4645 58.7234 34.5014 58.3604 34.612 58.0173C34.7227 57.6741 34.9046 57.3588 35.1456 57.0922C35.3867 56.8256 35.6813 56.614 36.0098 56.4714C36.3384 56.3288 36.6933 56.2585 37.0509 56.2653H53.4585C54.2156 56.2826 54.9404 56.5785 55.4964 57.0972C56.0525 57.616 56.4014 58.3218 56.4776 59.082L57.9122 75.6341C57.9528 75.9915 57.9176 76.3535 57.8089 76.6961C57.7002 77.0387 57.5206 77.3541 57.2818 77.6213C57.0431 77.8885 56.7508 78.1015 56.4243 78.2461C56.0978 78.3907 55.7446 78.4636 55.388 78.4599Z" fill="white"/>
<path d="M35.9341 69.0344C35.9341 69.0344 41.768 60.8407 46.0628 61.0514C50.3577 61.2621 57.4945 68.8374 57.4945 68.8374C57.4945 68.8374 46.9754 74.4113 35.9341 69.0344Z" fill="white"/>
<path d="M36.1203 69.158L35.7526 68.8924C35.9886 68.558 41.5501 60.8087 45.8995 60.8087H46.0765C50.4168 61.0193 57.363 68.3565 57.6581 68.6679L57.3312 68.984C57.2585 68.9107 50.2125 61.4682 46.0538 61.2667H45.8995C41.7681 61.2758 36.1748 69.0893 36.1203 69.158Z" fill="#263238"/>
<path d="M35.3303 69.3229C34.4496 69.3229 33.3055 68.9931 32.9014 67.7382C32.8828 67.6805 32.8876 67.6177 32.9149 67.5636C32.9421 67.5095 32.9895 67.4685 33.0467 67.4496C33.075 67.4397 33.105 67.4356 33.1349 67.4376C33.1648 67.4397 33.1939 67.4478 33.2206 67.4615C33.2473 67.4752 33.271 67.4941 33.2903 67.5173C33.3096 67.5404 33.324 67.5673 33.3327 67.5962C33.8548 69.2175 35.807 68.8282 35.8887 68.8099C35.9476 68.799 36.0084 68.8115 36.0583 68.8448C36.1083 68.8781 36.1435 68.9296 36.1566 68.9885C36.1626 69.018 36.1627 69.0484 36.157 69.0779C36.1514 69.1074 36.14 69.1355 36.1236 69.1606C36.1071 69.1857 36.0859 69.2073 36.0612 69.2241C36.0365 69.241 36.0087 69.2527 35.9795 69.2587C35.7657 69.3014 35.5483 69.3229 35.3303 69.3229Z" fill="#263238"/>
<path d="M38.7944 65.8054C38.7437 65.8064 38.6942 65.7903 38.6536 65.7596C38.5855 65.7046 36.9738 64.4497 36.5652 63.1719C36.5466 63.1142 36.5514 63.0514 36.5787 62.9973C36.6059 62.9432 36.6533 62.9022 36.7105 62.8833C36.7677 62.8658 36.8294 62.8712 36.8828 62.8986C36.9361 62.9259 36.9768 62.9729 36.9965 63.0299C37.3643 64.1703 38.9124 65.384 38.9306 65.3932C38.978 65.4303 39.009 65.4849 39.0166 65.5449C39.0243 65.605 39.008 65.6657 38.9714 65.7138C38.9507 65.7416 38.9241 65.7643 38.8934 65.7802C38.8627 65.7961 38.8288 65.8047 38.7944 65.8054Z" fill="#263238"/>
<path d="M42.1267 62.6865C42.0672 62.683 42.0113 62.657 41.97 62.6137C41.9288 62.5704 41.9053 62.5129 41.9042 62.4529C41.6391 61.4553 41.31 60.4762 40.919 59.5217C40.8055 59.2194 40.7238 58.9996 40.7057 58.9446C40.6966 58.9154 40.6935 58.8848 40.6964 58.8543C40.6993 58.8239 40.7082 58.7944 40.7225 58.7675C40.7369 58.7406 40.7565 58.7169 40.7801 58.6978C40.8037 58.6786 40.8309 58.6645 40.86 58.6561C40.8886 58.6477 40.9186 58.645 40.9482 58.6483C40.9779 58.6515 41.0066 58.6607 41.0327 58.6751C41.0589 58.6896 41.0819 58.7091 41.1006 58.7325C41.1192 58.756 41.1331 58.7829 41.1415 58.8118C41.1415 58.8668 41.2368 59.0683 41.3413 59.3568C41.9769 61.0377 42.3673 62.1415 42.3582 62.4621C42.3582 62.4923 42.3522 62.5223 42.3405 62.5501C42.3287 62.5779 42.3115 62.6031 42.2899 62.6241C42.2683 62.645 42.2426 62.6614 42.2146 62.6721C42.1866 62.6828 42.1566 62.6877 42.1267 62.6865Z" fill="#263238"/>
<path d="M46.0628 61.2804C46.0062 61.2786 45.9522 61.2563 45.9105 61.2176C45.8688 61.1789 45.8423 61.1264 45.8358 61.0697L45.518 57.4057C45.5126 57.345 45.5313 57.2845 45.57 57.2377C45.6088 57.1909 45.6644 57.1615 45.7246 57.1561C45.7848 57.1506 45.8447 57.1695 45.8911 57.2086C45.9375 57.2477 45.9666 57.3037 45.972 57.3645L46.2898 61.056C46.2937 61.1157 46.2747 61.1748 46.2366 61.2208C46.1986 61.2668 46.1445 61.2964 46.0855 61.3033L46.0628 61.2804Z" fill="#263238"/>
<path d="M58.1755 69.0709C57.9534 69.072 57.7317 69.0537 57.5127 69.016C57.4835 69.01 57.4557 68.9982 57.431 68.9814C57.4063 68.9646 57.3851 68.943 57.3687 68.9179C57.3522 68.8928 57.3409 68.8647 57.3352 68.8351C57.3295 68.8056 57.3297 68.7752 57.3356 68.7458C57.3405 68.7162 57.3513 68.6879 57.3673 68.6627C57.3834 68.6375 57.4044 68.6158 57.4291 68.5991C57.4537 68.5824 57.4815 68.5709 57.5107 68.5654C57.54 68.5599 57.57 68.5605 57.599 68.5671C57.599 68.5671 58.7113 68.7824 59.3923 68.2969C59.538 68.19 59.6594 68.053 59.7487 67.8951C59.8379 67.7371 59.8928 67.5619 59.9098 67.3809C59.9143 67.3509 59.9246 67.322 59.9401 67.2959C59.9557 67.2699 59.9762 67.2471 60.0004 67.2291C60.0246 67.211 60.0522 67.1979 60.0814 67.1906C60.1107 67.1832 60.1411 67.1818 60.1709 67.1863C60.2007 67.1908 60.2293 67.2012 60.2552 67.2169C60.281 67.2325 60.3035 67.2532 60.3214 67.2776C60.3393 67.3021 60.3523 67.3299 60.3596 67.3594C60.3669 67.3889 60.3683 67.4196 60.3638 67.4496C60.3364 67.6906 60.2592 67.9231 60.1372 68.1322C60.0152 68.3412 59.8512 68.5222 59.6556 68.6633C59.2144 68.947 58.6984 69.0891 58.1755 69.0709Z" fill="#263238"/>
<path d="M54.0987 65.5627C54.0667 65.5629 54.0351 65.5561 54.0061 65.5426C53.977 65.5292 53.9513 65.5094 53.9307 65.4848C53.9094 65.4635 53.8925 65.4382 53.881 65.4103C53.8695 65.3824 53.8635 65.3525 53.8635 65.3222C53.8635 65.292 53.8695 65.2621 53.881 65.2342C53.8925 65.2063 53.9094 65.1809 53.9307 65.1597C53.9307 65.1597 55.2927 63.9505 55.438 62.8239C55.448 62.7642 55.4806 62.7109 55.5289 62.675C55.5771 62.6391 55.6373 62.6235 55.6967 62.6315C55.7263 62.636 55.7546 62.6463 55.7802 62.6618C55.8058 62.6774 55.8281 62.6979 55.8458 62.7221C55.8635 62.7464 55.8763 62.7739 55.8834 62.8031C55.8906 62.8324 55.8919 62.8628 55.8874 62.8926C55.6967 64.1841 54.2893 65.4482 54.2303 65.5031C54.1948 65.5381 54.1482 65.5592 54.0987 65.5627Z" fill="#263238"/>
<path d="M50.2624 62.9017H50.2215C50.1623 62.8905 50.1098 62.8565 50.0751 62.8069C50.0403 62.7573 50.0261 62.6961 50.0354 62.6361C50.0354 62.6086 50.5348 59.6636 50.6256 59.0591C50.63 59.029 50.6403 59.0001 50.6559 58.9741C50.6714 58.948 50.6919 58.9253 50.7161 58.9072C50.7404 58.8891 50.7679 58.8761 50.7972 58.8687C50.8264 58.8614 50.8568 58.8599 50.8866 58.8644C50.9164 58.8689 50.9451 58.8793 50.9709 58.895C50.9967 58.9107 51.0192 58.9313 51.0372 58.9558C51.0551 58.9803 51.068 59.008 51.0753 59.0375C51.0826 59.0671 51.084 59.0977 51.0796 59.1278C50.9888 59.7369 50.4939 62.6864 50.4894 62.7139C50.4797 62.7673 50.4516 62.8154 50.41 62.8498C50.3684 62.8842 50.3161 62.9026 50.2624 62.9017Z" fill="#263238"/>
<path d="M50.3957 69.9938C52.2752 68.0131 52.0604 64.7285 49.9159 62.6575C47.7714 60.5865 44.5093 60.5133 42.6297 62.494C40.7502 64.4747 40.965 67.7592 43.1095 69.8302C45.254 71.9012 48.5162 71.9744 50.3957 69.9938Z" fill="#08B952"/>
<path opacity="0.3" d="M48.6416 66.2405C48.6483 66.1246 48.6483 66.0084 48.6416 65.8925C48.5806 65.2953 48.3049 64.7414 47.8665 64.3355C47.4282 63.9296 46.8576 63.6998 46.2626 63.6895C45.983 63.6846 45.7055 63.7398 45.4487 63.8514C45.1918 63.963 44.9615 64.1285 44.7729 64.3369C44.5844 64.5453 44.442 64.7918 44.3552 65.06C44.2684 65.3282 44.2392 65.612 44.2695 65.8925C44.2771 66.0106 44.2984 66.1274 44.3331 66.2405H41.373C41.3007 65.5801 41.3687 64.9117 41.5725 64.2799C41.7763 63.6481 42.1112 63.0673 42.555 62.5763C42.9987 62.0853 43.5411 61.6953 44.146 61.4324C44.7508 61.1695 45.4043 61.0396 46.0628 61.0514C47.4631 61.0775 48.8055 61.6196 49.8367 62.5756C50.868 63.5315 51.5167 64.8352 51.6607 66.2405H48.6416Z" fill="black"/>
<path opacity="0.7" d="M48.6371 65.8924C48.6439 66.0084 48.6439 66.1246 48.6371 66.2405C48.6044 66.7503 48.378 67.2278 48.005 67.5733C47.632 67.9189 47.1413 68.1059 46.6349 68.0954C46.1012 68.0854 45.5857 67.8982 45.168 67.5629C44.7503 67.2277 44.4537 66.7629 44.3241 66.2405C44.2894 66.1274 44.268 66.0106 44.2605 65.8924C44.2302 65.612 44.2594 65.3282 44.3462 65.06C44.433 64.7918 44.5754 64.5453 44.7639 64.3369C44.9525 64.1285 45.1828 63.963 45.4396 63.8514C45.6965 63.7397 45.974 63.6845 46.2536 63.6894C46.8493 63.6986 47.421 63.928 47.8603 64.334C48.2996 64.74 48.576 65.2945 48.6371 65.8924Z" fill="black"/>
<path opacity="0.7" d="M49.822 63.7307C49.8465 63.9593 49.8225 64.1906 49.7517 64.4091C49.6808 64.6277 49.5646 64.8285 49.4109 64.9983C49.2572 65.1681 49.0694 65.303 48.8601 65.394C48.6507 65.485 48.4246 65.53 48.1967 65.5261C47.7127 65.5163 47.2489 65.3285 46.8927 64.9978C46.5365 64.6671 46.3124 64.2165 46.2627 63.7307C46.2374 63.5019 46.2609 63.2704 46.3315 63.0515C46.4021 62.8326 46.5182 62.6314 46.672 62.4615C46.8259 62.2915 47.014 62.1566 47.2237 62.0659C47.4334 61.9752 47.6599 61.9307 47.888 61.9353C48.3723 61.9441 48.8366 62.1316 49.193 62.4625C49.5494 62.7933 49.7732 63.2445 49.822 63.7307Z" fill="white"/>
<path d="M42.794 54.218H41.0052V54.676H42.794V54.218Z" fill="#08B952"/>
<path d="M50.4803 54.218H44.6464V54.676H50.4803V54.218Z" fill="#08B952"/>
<path d="M125.304 87.7757L125.458 87.9635L125.667 88.2062C125.817 88.3665 125.962 88.536 126.121 88.6917C126.434 89.0215 126.775 89.3421 127.12 89.6672C127.809 90.3087 128.532 90.9126 129.286 91.4763C130.053 92.0534 130.861 92.5801 131.669 93.1022C132.123 93.3496 132.495 93.6106 132.922 93.8488L133.907 94.3984C134.05 94.4621 134.212 94.4718 134.361 94.4259C134.679 94.3297 136.504 92.5068 137.085 91.829C138.375 90.3405 140.327 88.3803 141.38 86.7131L142.556 88.3482C141.813 90.3907 140.826 92.3346 139.619 94.1373C138.969 95.1119 138.19 95.9918 137.303 96.7525C136.771 97.2049 136.17 97.5683 135.524 97.8288C134.704 98.1587 133.804 98.2274 132.945 98.0257C132.723 97.9711 132.505 97.8976 132.296 97.8059L131.887 97.6273L131.151 97.2884C130.657 97.0685 130.18 96.8029 129.699 96.5601C128.737 96.0422 127.803 95.4719 126.902 94.8518C125.994 94.2218 125.122 93.5398 124.292 92.8091C123.86 92.429 123.474 92.0443 123.079 91.6275C122.884 91.4214 122.684 91.2061 122.494 90.9817L122.212 90.6336C122.108 90.5054 122.031 90.4092 121.89 90.2123L125.304 87.7757Z" fill="#FFB573"/>
<path d="M141.194 86.965L143.301 82.4217L145.312 86.0582C145.312 86.0582 143.991 88.3482 142.556 88.3482L141.194 86.965Z" fill="#FFB573"/>
<path d="M145.689 80.5347L147.813 83.2919L145.33 86.0536L143.319 82.4217L145.689 80.5347Z" fill="#FFB573"/>
<path d="M144.949 87.3085H148.295C148.389 87.3078 148.48 87.2719 148.549 87.2076C148.619 87.1433 148.662 87.0552 148.671 86.9604L149.366 78.8676C149.371 78.8147 149.365 78.7613 149.348 78.7108C149.332 78.6604 149.305 78.6141 149.269 78.5748C149.234 78.5355 149.191 78.5042 149.142 78.4828C149.094 78.4615 149.042 78.4506 148.989 78.4508H145.648C145.553 78.4516 145.461 78.4882 145.392 78.5535C145.322 78.6187 145.279 78.7079 145.271 78.8035L144.567 86.8917C144.563 86.9449 144.569 86.9984 144.587 87.0488C144.604 87.0993 144.631 87.1456 144.667 87.1848C144.703 87.2239 144.746 87.2552 144.795 87.2765C144.843 87.2978 144.896 87.3087 144.949 87.3085Z" fill="#08B952"/>
<path opacity="0.3" d="M144.985 86.4979H148.335L148.962 79.2661H145.612L144.985 86.4979Z" fill="white"/>
<path d="M144.767 85.4719L145.362 85.1651C145.664 85.0098 145.944 84.8125 146.193 84.5788L146.301 84.1804C146.238 84.0743 146.142 83.9916 146.029 83.9446C145.915 83.8976 145.789 83.8887 145.67 83.9193L145.176 84.0567L142.719 84.2445L142.66 85.2887L143.378 86.4063H143.623C143.893 86.4159 144.158 86.3267 144.368 86.155C144.578 85.9833 144.72 85.7407 144.767 85.4719Z" fill="#FFB573"/>
<path d="M121.018 83.356C122.721 83.0445 134.729 93.5465 134.729 93.5465L131.17 98.8135C131.17 98.8135 118.04 89.5894 118.458 87.3635C118.862 85.0231 118.539 83.814 121.018 83.356Z" fill="#263238"/>
<path opacity="0.2" d="M122.535 86.7131L122.403 92.2091C123.765 93.2763 128.686 97.0823 128.686 97.0823L122.535 86.7131Z" fill="black"/>
<path d="M113.014 192.502L117.041 192.9L118.321 183.479L114.29 183.081L113.014 192.502Z" fill="#FFB573"/>
<path d="M73.3664 137.221L72.3358 141.179L81.0481 144.966L82.855 140.95L73.3664 137.221Z" fill="#FFB573"/>
<path d="M119.924 193.734C120.271 193.777 120.621 193.699 120.918 193.514C120.983 193.458 121.032 193.387 121.064 193.307C121.096 193.228 121.108 193.142 121.1 193.056C121.1 193.003 121.085 192.95 121.058 192.904C121.031 192.858 120.992 192.821 120.946 192.795C120.46 192.502 118.816 193.29 118.63 193.377C118.612 193.385 118.598 193.399 118.588 193.416C118.578 193.433 118.574 193.453 118.576 193.473C118.578 193.493 118.587 193.512 118.601 193.527C118.615 193.542 118.633 193.552 118.653 193.555C119.07 193.654 119.496 193.714 119.924 193.734ZM120.655 192.914C120.718 192.909 120.782 192.924 120.837 192.955C120.856 192.965 120.872 192.981 120.883 192.999C120.894 193.018 120.9 193.039 120.9 193.061C120.905 193.118 120.897 193.176 120.875 193.229C120.854 193.282 120.82 193.33 120.778 193.368C120.528 193.583 119.87 193.601 118.962 193.427C119.497 193.157 120.075 192.982 120.669 192.91L120.655 192.914Z" fill="#08B952"/>
<path d="M118.671 193.537H118.707C119.198 193.331 120.183 192.479 120.119 192.012C120.102 191.931 120.057 191.858 119.992 191.807C119.928 191.755 119.847 191.727 119.765 191.728C119.671 191.71 119.573 191.713 119.48 191.737C119.387 191.761 119.3 191.805 119.225 191.865C118.703 192.273 118.58 193.377 118.571 193.418C118.567 193.435 118.567 193.452 118.571 193.469C118.575 193.486 118.583 193.501 118.594 193.514C118.604 193.523 118.617 193.53 118.63 193.534C118.643 193.538 118.657 193.539 118.671 193.537ZM119.674 191.902H119.729C119.906 191.929 119.915 191.998 119.915 192.021C119.956 192.3 119.284 192.978 118.78 193.249C118.828 192.784 119.022 192.348 119.334 192.003C119.435 191.929 119.56 191.898 119.683 191.916L119.674 191.902Z" fill="#08B952"/>
<path d="M116.841 191.261L113.209 191.417C113.131 191.417 113.056 191.447 112.998 191.5C112.94 191.554 112.904 191.627 112.896 191.705L112.024 196.821C112.02 196.908 112.032 196.995 112.061 197.077C112.089 197.159 112.134 197.235 112.192 197.3C112.249 197.365 112.319 197.417 112.397 197.454C112.476 197.492 112.56 197.513 112.646 197.517H112.719C114.304 197.435 115.066 197.316 117.073 197.247C118.303 197.206 122.067 197.655 123.747 197.27C125.427 196.885 125.109 195.204 124.387 195.218C122.053 195.264 119.361 193.729 118.031 191.934C117.799 191.783 117.096 191.247 116.841 191.261Z" fill="#263238"/>
<path d="M74.1881 141.696L76.0405 138.522C76.0824 138.455 76.0978 138.374 76.0835 138.296C76.0692 138.218 76.0263 138.148 75.9633 138.101L72.186 134.588C72.0456 134.488 71.8721 134.447 71.7024 134.475C71.5328 134.502 71.3805 134.595 71.278 134.734L71.2371 134.799C70.4472 136.173 70.1339 136.896 69.1034 138.632C68.4678 139.699 66.0434 142.662 65.4714 144.279C64.8993 145.896 66.452 146.569 66.8334 145.937C68.0637 143.931 70.8013 142.484 73.0259 142.31C73.2393 142.227 74.061 141.92 74.1881 141.696Z" fill="#263238"/>
<path opacity="0.2" d="M118.322 183.479L117.663 188.339L113.632 187.94L114.285 183.086L118.322 183.479Z" fill="black"/>
<path opacity="0.2" d="M85.5336 141.93L83.6722 146.166L78.0608 143.665L79.4909 139.63L85.5336 141.93Z" fill="black"/>
<path d="M123.592 88.1879C125.894 92.1359 123.079 95.4655 120.728 107.264L105.555 107.305C105.8 100.948 105.773 95.809 103.085 83.301C103.016 82.9928 103.016 82.6727 103.086 82.3646C103.156 82.0565 103.294 81.7683 103.49 81.5217C103.686 81.275 103.935 81.0763 104.218 80.9403C104.501 80.8043 104.81 80.7345 105.124 80.7362C106.377 80.7362 107.952 80.7775 109.555 80.9423C112.083 81.1509 114.593 81.535 117.068 82.0919C118.411 82.4186 119.73 82.8347 121.018 83.3377C121.799 83.6033 122.739 85.7468 123.592 88.1879Z" fill="#263238"/>
<path d="M121.291 108.061C121.291 108.061 129.812 132.916 129.608 144.87C129.49 151.717 128.977 164.477 126.929 173.449C125.259 180.777 118.449 185.449 118.449 185.449L113.001 185.124C113.001 185.124 110.05 173.948 110.563 169.501C111.584 160.648 114.612 153.998 114.245 145.868C113.663 132.559 109.759 107.854 109.759 107.854L121.291 108.061Z" fill="#08B952"/>
<path d="M111.906 186.557L119.602 187.015L120.301 184.684L111.702 183.882L111.906 186.557Z" fill="#263238"/>
<path opacity="0.2" d="M112.878 158.276C112.878 158.276 112.878 158.23 112.923 158.234C117.759 158.692 121.095 151.671 120.301 142.058L117.736 117.555L112.878 158.276Z" fill="black"/>
<path d="M117.468 107.854C117.468 107.854 124.242 151.561 110.159 156.48C102.727 159.32 96.475 156.242 89.0703 152.935C84.789 151.026 79.4409 145.855 79.4409 145.855L81.4975 140.208C85.1964 139.198 89.0668 139.002 92.8475 139.63C100.066 140.757 100.37 142.836 102.935 141.266C108.329 127.819 99.0492 117.188 105.355 107.832L117.468 107.854Z" fill="#08B952"/>
<path d="M81.9016 139.136L79.1504 146.459L81.1752 148.021L84.444 139.305L81.9016 139.136Z" fill="#263238"/>
<path d="M80.7666 99.6425C80.081 100.664 76.6034 99.9722 76.6034 99.9722L75.8634 95.6258L80.1355 97.3525L80.7666 99.6425Z" fill="#FFB573"/>
<path d="M76.726 95.4014L77.3888 99.9173L74.8237 100.302C74.6847 100.315 74.5459 100.275 74.4344 100.19C74.3228 100.106 74.2463 99.9823 74.2199 99.844L73.2347 96.638C73.218 96.5634 73.2303 96.4852 73.2692 96.4195C73.3081 96.3539 73.3705 96.3058 73.4436 96.2854L76.726 95.4014Z" fill="#FFB573"/>
<path d="M75.5773 97.4487L77.0392 97.7097L78.4239 96.6609L77.8882 96.2762C77.5252 96.0154 77.2699 95.6291 77.1709 95.1907C77.0679 94.7316 77.0056 94.2641 76.9847 93.7938V93.6381C76.9673 93.5 76.9055 93.3715 76.8087 93.2722C76.7119 93.173 76.5856 93.1084 76.449 93.0885L76.0858 93.3587C75.8588 93.8579 76.0223 94.4396 75.995 94.8289L75.936 95.5846L75.3503 95.8411L75.5773 97.4487Z" fill="#FFB573"/>
<path d="M103.816 82.44L95.2265 94.348L79.45 97.4899V100.1C79.45 100.1 94.2776 101.209 97.61 99.2532C100.942 97.2975 106.531 85.4353 106.531 85.4353L103.816 82.44Z" fill="#FFB573"/>
<path d="M103.716 59.54C100.111 58.3217 95.9302 60.5796 94.2821 64.033C92.6341 67.4863 93.2107 71.7228 95.0676 75.0662C95.626 76.0784 96.2934 77.031 96.7519 78.089C97.2615 79.1378 97.3729 80.3385 97.0652 81.4645C96.6929 82.5591 96.3115 83.2598 94.9677 83.0858C94.9677 83.0858 94.9677 82.3347 95.4807 82.4263C95.4807 82.4263 94.3911 83.0354 93.9643 82.6369C94.4592 83.4064 95.7803 83.127 96.2026 82.3118C96.8336 81.0981 95.6714 79.4538 94.3094 79.4676C92.9474 79.4813 91.8396 80.8736 91.885 82.2431C91.9418 82.928 92.1834 83.5841 92.5835 84.1404C92.9837 84.6967 93.5272 85.1318 94.155 85.3987C93.787 85.4599 93.4093 85.3964 93.0808 85.2183C92.7523 85.0402 92.4915 84.7574 92.339 84.414C92.9565 86.0445 94.9722 86.7635 96.6747 86.4429C98.3772 86.1223 99.8164 85.0231 101.151 83.9102C102.967 82.4079 104.824 80.5072 104.783 78.1577C104.742 76.4036 103.625 74.8967 102.686 73.4174C101.746 71.9381 100.924 70.1335 101.523 68.4893C102.027 67.0924 103.398 66.2497 104.606 65.3978C105.478 64.7887 107.248 63.4284 107.04 62.1414C106.826 60.914 104.738 59.8835 103.716 59.54Z" fill="#263238"/>
<path d="M95.5943 100.302L93.2153 93.9495L93.7601 93.9953C94.2009 94.0326 94.643 93.941 95.0335 93.7314C95.424 93.5219 95.7463 93.2032 95.962 92.8137C97.778 89.5527 102.468 81.2766 103.789 80.8644C105.673 80.3011 107.612 81.8217 108.329 84.0704C108.869 85.7238 103.335 92.8137 100.784 96.8441C98.5181 100.412 95.5943 100.302 95.5943 100.302Z" fill="#263238"/>
<path d="M72.3904 143.784V143.835C72.4238 143.923 72.4788 144.001 72.5503 144.062C72.6217 144.123 72.7073 144.164 72.799 144.183C72.854 144.2 72.9126 144.203 72.9691 144.191C73.0255 144.179 73.078 144.153 73.1213 144.114C73.5027 143.762 73.2575 142.282 73.2348 142.136C73.2323 142.117 73.224 142.099 73.2109 142.085C73.1979 142.071 73.1808 142.062 73.1622 142.058C73.1445 142.056 73.1266 142.058 73.11 142.064C73.0934 142.071 73.0786 142.081 73.0668 142.094C72.7581 142.534 72.2678 143.317 72.3904 143.784ZM73.0895 142.41C73.1713 142.997 73.2076 143.784 72.9942 143.977C72.972 143.989 72.947 143.996 72.9215 143.996C72.8961 143.996 72.8711 143.989 72.8489 143.977C72.7879 143.965 72.7308 143.938 72.6831 143.898C72.6354 143.858 72.5987 143.806 72.5765 143.748C72.4948 143.501 72.6673 142.997 73.0895 142.401V142.41Z" fill="#08B952"/>
<path d="M73.094 142.328C73.212 142.823 73.6751 143.665 74.0837 143.766C74.1582 143.781 74.2355 143.771 74.3031 143.736C74.3708 143.701 74.4246 143.644 74.456 143.574C74.4915 143.508 74.5124 143.436 74.5171 143.362C74.5218 143.287 74.5103 143.213 74.4832 143.143C74.2971 142.575 73.2256 142.108 73.1802 142.085C73.1656 142.077 73.1492 142.073 73.1326 142.073C73.1159 142.073 73.0995 142.077 73.0849 142.085C73.0716 142.096 73.0612 142.11 73.0549 142.126C73.0485 142.142 73.0463 142.16 73.0486 142.177C73.0598 142.228 73.0749 142.279 73.094 142.328ZM74.3289 143.244C74.3381 143.285 74.3393 143.326 74.3323 143.367C74.3253 143.408 74.3102 143.447 74.288 143.482C74.229 143.592 74.17 143.592 74.1246 143.583C73.8476 143.528 73.4254 142.836 73.2892 142.356C73.6388 142.534 74.1972 142.869 74.3153 143.217C74.3121 143.225 74.3121 143.235 74.3153 143.244H74.3289Z" fill="#08B952"/>
<path d="M105.501 106.531L105.078 108.019C105.024 108.134 105.155 108.253 105.346 108.248H121.009C121.159 108.248 121.282 108.17 121.291 108.079L121.436 106.59C121.436 106.49 121.318 106.398 121.154 106.403H105.764C105.713 106.399 105.661 106.408 105.615 106.431C105.569 106.453 105.529 106.488 105.501 106.531Z" fill="#08B952"/>
<path opacity="0.5" d="M105.501 106.531L105.078 108.019C105.024 108.134 105.155 108.253 105.346 108.248H121.009C121.159 108.248 121.282 108.17 121.291 108.079L121.436 106.59C121.436 106.49 121.318 106.398 121.154 106.403H105.764C105.713 106.399 105.661 106.408 105.615 106.431C105.569 106.453 105.529 106.488 105.501 106.531Z" fill="white"/>
<path d="M108.506 108.386H108.052C107.966 108.386 107.893 108.34 107.902 108.285L108.106 106.348C108.106 106.293 108.193 106.247 108.283 106.247H108.737C108.824 106.247 108.892 106.293 108.887 106.352L108.683 108.285C108.656 108.34 108.574 108.39 108.506 108.386Z" fill="#08B952"/>
<path d="M119.797 108.386H119.343C119.261 108.386 119.189 108.34 119.198 108.285L119.402 106.352C119.402 106.293 119.484 106.247 119.57 106.247H120.024C120.11 106.247 120.183 106.293 120.174 106.348L119.969 108.28C119.96 108.34 119.888 108.386 119.797 108.386Z" fill="#08B952"/>
<path d="M114.617 108.377H114.163C114.077 108.377 114.004 108.331 114.013 108.276L114.217 106.343C114.217 106.283 114.304 106.238 114.39 106.238H114.844C114.93 106.238 114.998 106.283 114.994 106.338L114.785 108.271C114.785 108.331 114.708 108.377 114.617 108.377Z" fill="#08B952"/>
<path d="M110.263 72.6067C110.744 75.1028 111.216 79.6095 109.537 80.9652C109.537 80.9652 110.209 83.5254 114.699 84.2078C119.656 84.9589 117.055 82.1102 117.055 82.1102C114.354 81.0339 114.422 79.0645 114.885 77.2508L110.263 72.6067Z" fill="#FFB573"/>
<path d="M109.555 80.9424C111.951 81.0956 114.332 81.4293 116.678 81.9408L120.074 82.9621C120.678 84.1896 119.688 86.7132 116.846 87.1941C116.846 87.1941 109.686 88.1879 107.575 80.75L109.555 80.9424Z" fill="#FFB573"/>
<path opacity="0.2" d="M112.138 74.5074L114.862 77.2554C114.747 77.6809 114.673 78.1165 114.64 78.5562C113.604 78.2493 111.943 77.0997 111.829 76.0005C111.831 75.4868 111.936 74.9788 112.138 74.5074Z" fill="black"/>
<path d="M107.23 69.4557C108.447 73.3304 108.874 74.9975 111.366 76.5226C115.08 78.8126 119.538 76.4677 119.493 72.309C119.457 68.5626 117.482 62.8559 113.264 62.233C112.337 62.0929 111.39 62.1943 110.512 62.5279C109.635 62.8614 108.857 63.4158 108.252 64.1384C107.648 64.861 107.236 65.7277 107.057 66.656C106.878 67.5843 106.938 68.5434 107.23 69.4419V69.4557Z" fill="#FFB573"/>
<path d="M116.396 68.8511C116.826 69.5312 117.347 70.1478 117.945 70.6831C117.805 70.8358 117.634 70.9559 117.443 71.035C117.253 71.1141 117.047 71.1503 116.841 71.1411L116.396 68.8511Z" fill="#ED893E"/>
<path d="M115.965 73.2113C116.119 73.1943 116.271 73.1636 116.419 73.1197C116.431 73.117 116.442 73.1121 116.452 73.1051C116.461 73.0981 116.47 73.0892 116.476 73.079C116.482 73.0688 116.486 73.0574 116.488 73.0456C116.49 73.0337 116.49 73.0215 116.487 73.0098C116.481 72.9858 116.465 72.9652 116.444 72.9524C116.423 72.9395 116.398 72.9355 116.374 72.9411C115.986 73.0489 115.579 73.0636 115.185 72.9841C114.791 72.9045 114.42 72.733 114.104 72.4831C114.085 72.4644 114.06 72.4539 114.033 72.4539C114.007 72.4539 113.982 72.4644 113.963 72.4831C113.954 72.4921 113.947 72.5028 113.942 72.5146C113.937 72.5263 113.934 72.539 113.934 72.5518C113.934 72.5646 113.937 72.5773 113.942 72.5891C113.947 72.6009 113.954 72.6116 113.963 72.6205C114.242 72.8469 114.562 73.0156 114.906 73.1169C115.249 73.2183 115.609 73.2504 115.965 73.2113Z" fill="#263238"/>
<path d="M105.909 61.7201C105.409 62.0466 104.993 62.4894 104.698 63.0114C104.402 63.5335 104.235 64.1194 104.211 64.72C104.19 64.9497 104.226 65.1809 104.316 65.3933C104.36 65.4983 104.432 65.5896 104.523 65.658C104.613 65.7263 104.721 65.7693 104.833 65.7826C105.178 65.7826 105.432 65.4711 105.623 65.178L106.504 63.804C106.866 63.3577 107.172 62.8668 107.412 62.343C107.707 61.4407 106.449 61.372 105.909 61.7201Z" fill="#08B952"/>
<path d="M106.34 62.6315C103.93 65.4436 102.849 73.225 109.913 75.396C111.094 74.4525 109.187 72.735 108.379 70.5641C107.848 69.1443 110.54 66.4924 111.589 65.4024C112.637 64.3124 113.604 62.7414 115.084 62.9933C115.46 63.12 115.865 63.1312 116.247 63.0254C117.423 62.4895 116.851 61.7796 116.247 61.285C115.321 60.5935 114.218 60.1835 113.069 60.1033C111.829 59.956 110.572 60.1084 109.402 60.548C108.232 60.9876 107.183 61.7018 106.34 62.6315Z" fill="#263238"/>
<path d="M114.181 61.688C117.019 64.0742 113.273 64.1337 111.289 65.6451C109.387 67.097 110.722 69.474 107.503 70.5778C104.874 71.3518 104.266 70.8847 103.539 70.3717C104.44 70.2145 105.263 69.7614 105.881 69.083C106.5 68.4045 106.878 67.5388 106.958 66.6207C107.18 64.8803 110.94 58.9217 114.181 61.688Z" fill="#263238"/>
<path d="M106.804 72.7121C107.248 73.3581 107.926 73.8021 108.692 73.9487C109.709 74.1273 110.1 73.1884 109.75 72.2724C109.419 71.448 108.497 70.3625 107.512 70.5961C107.173 70.6845 106.883 70.9049 106.705 71.2088C106.527 71.5128 106.476 71.8755 106.563 72.2174C106.609 72.397 106.691 72.5653 106.804 72.7121Z" fill="#FFB573"/>
<path d="M113.695 61.9308C114.245 63.3414 115.829 63.1536 117 64.6284C117.722 65.5444 119.139 62.7185 117.209 61.6056C115.28 60.4927 112.833 59.7232 113.695 61.9308Z" fill="#263238"/>
<path d="M112.024 67.8847C112.065 67.8891 112.106 67.8803 112.141 67.8597C112.176 67.8392 112.203 67.8078 112.22 67.7702C112.592 66.9367 113.709 66.726 113.718 66.726C113.768 66.7149 113.812 66.685 113.84 66.6425C113.869 66.5999 113.88 66.5478 113.872 66.497C113.862 66.4473 113.833 66.4036 113.792 66.3753C113.75 66.347 113.699 66.3364 113.65 66.3458C113.591 66.3458 112.32 66.6161 111.866 67.6236C111.845 67.6705 111.844 67.7235 111.862 67.7713C111.88 67.8192 111.915 67.8582 111.961 67.8801H112.024V67.8847Z" fill="#263238"/>
<path d="M117.927 66.1993C117.96 66.2017 117.993 66.1948 118.023 66.1795C118.052 66.1642 118.077 66.1409 118.095 66.1122C118.109 66.0916 118.119 66.0683 118.125 66.0437C118.13 66.019 118.13 65.9935 118.126 65.9687C118.121 65.9439 118.111 65.9203 118.097 65.8993C118.083 65.8784 118.066 65.8604 118.045 65.8466C117.793 65.6709 117.503 65.5587 117.2 65.5197C116.897 65.4806 116.588 65.5158 116.301 65.6222C116.277 65.6316 116.256 65.6459 116.237 65.6642C116.219 65.6825 116.205 65.7043 116.196 65.7284C116.186 65.7525 116.182 65.7783 116.183 65.8041C116.184 65.83 116.19 65.8554 116.201 65.8787C116.221 65.9253 116.259 65.9621 116.306 65.981C116.352 65.9999 116.405 65.9993 116.451 65.9794C116.677 65.8998 116.918 65.8757 117.155 65.9092C117.392 65.9427 117.618 66.0327 117.813 66.1718C117.848 66.1891 117.887 66.1985 117.927 66.1993Z" fill="#263238"/>
<path d="M136.59 91.2702L133.93 92.7953L131.165 98.7951C131.165 98.7951 133.835 100.508 135.941 99.1203C138.048 97.7326 136.59 91.2702 136.59 91.2702Z" fill="#08B952"/>
<path opacity="0.5" d="M136.59 91.2702L133.93 92.7953L131.165 98.7951C131.165 98.7951 133.835 100.508 135.941 99.1203C138.048 97.7326 136.59 91.2702 136.59 91.2702Z" fill="white"/>
<path d="M90.0691 93.1251L93.2153 94.0411L96.1981 100.265C96.1981 100.265 93.801 102.505 91.2041 100.366C89.261 98.7448 90.0691 93.1251 90.0691 93.1251Z" fill="#08B952"/>
<g opacity="0.5">
<path opacity="0.5" d="M90.0691 93.1251L93.2153 94.0411L96.1981 100.265C96.1981 100.265 93.801 102.505 91.2041 100.366C89.261 98.7448 90.0691 93.1251 90.0691 93.1251Z" fill="white"/>
</g>
<path d="M117.745 67.7519C117.963 67.7107 118.199 67.958 118.249 68.2969C118.299 68.6359 118.176 68.9473 117.958 68.9839C117.74 69.0206 117.504 68.7778 117.454 68.4389C117.404 68.1 117.527 67.784 117.745 67.7519Z" fill="#263238"/>
<path d="M118.417 67.4176L117.65 67.7977C118.113 68.1275 118.417 67.4176 118.417 67.4176Z" fill="#263238"/>
<path d="M113.954 68.5396C114.172 68.4984 114.408 68.7457 114.458 69.0847C114.508 69.4236 114.385 69.735 114.167 69.7717C113.95 69.8083 113.713 69.5656 113.663 69.2266C113.614 68.8877 113.727 68.5809 113.954 68.5396Z" fill="#263238"/>
<path d="M114.617 68.2054L113.85 68.5855C114.313 68.9153 114.617 68.2054 114.617 68.2054Z" fill="#263238"/>
<path d="M94.7317 86.0628C94.3042 86.0653 93.8803 85.9844 93.4832 85.8246C92.0758 85.243 91.4221 83.7682 91.6672 81.7713C91.6751 81.7112 91.7063 81.6568 91.754 81.6199C91.8017 81.5829 91.8619 81.5666 91.9215 81.5744C91.9512 81.5777 91.98 81.5871 92.006 81.602C92.0321 81.6168 92.0549 81.6368 92.0732 81.6607C92.0914 81.6847 92.1046 81.7121 92.1121 81.7413C92.1196 81.7706 92.1211 81.801 92.1167 81.8309C91.8806 83.6033 92.4345 84.9041 93.6376 85.3987C94.3358 85.6398 95.0918 85.6518 95.7973 85.433C96.5027 85.2141 97.1214 84.7757 97.5647 84.1804C98.7042 82.6507 98.3319 80.4798 96.5568 78.2264C91.9078 72.3411 92.2166 69.213 92.8749 66.7398C93.8283 63.1491 96.6204 59.0362 104.52 59.8286C104.58 59.8346 104.636 59.8646 104.674 59.9118C104.712 59.9591 104.73 60.0197 104.724 60.0804C104.718 60.1412 104.689 60.197 104.642 60.2357C104.595 60.2743 104.535 60.2926 104.475 60.2866C96.8973 59.5263 94.2187 63.4468 93.3107 66.8634C92.6569 69.3366 92.4027 72.2266 96.9109 77.947C99.6349 81.3958 98.5317 83.6537 97.9279 84.4598C97.5501 84.9535 97.0661 85.3543 96.5125 85.632C95.9588 85.9097 95.35 86.057 94.7317 86.0628Z" fill="#263238"/>
</svg>
