<?xml version="1.0" encoding="UTF-8" standalone="no"?>
<svg
   xmlns:dc="http://purl.org/dc/elements/1.1/"
   xmlns:cc="http://creativecommons.org/ns#"
   xmlns:rdf="http://www.w3.org/1999/02/22-rdf-syntax-ns#"
   xmlns:svg="http://www.w3.org/2000/svg"
   xmlns="http://www.w3.org/2000/svg"
   xmlns:sodipodi="http://sodipodi.sourceforge.net/DTD/sodipodi-0.dtd"
   xmlns:inkscape="http://www.inkscape.org/namespaces/inkscape"
   sodipodi:docname="Selandra logo.svg"
   inkscape:version="1.0 (4035a4fb49, 2020-05-01)"
   id="svg936"
   version="1.1"
   viewBox="0 0 317.51675 317.51666"
   height="1200.063"
   width="1200.0634">
  <defs
     id="defs930" />
  <sodipodi:namedview
     inkscape:window-maximized="1"
     inkscape:window-y="34"
     inkscape:window-x="0"
     inkscape:window-height="1020"
     inkscape:window-width="1920"
     units="px"
     showgrid="false"
     inkscape:document-rotation="0"
     inkscape:current-layer="layer1"
     inkscape:document-units="mm"
     inkscape:cy="589.41687"
     inkscape:cx="502.53075"
     inkscape:zoom="0.42119488"
     inkscape:pageshadow="2"
     inkscape:pageopacity="0.0"
     borderopacity="1.0"
     bordercolor="#666666"
     pagecolor="#ffffff"
     id="base" />
  <metadata
     id="metadata933">
    <rdf:RDF>
      <cc:Work
         rdf:about="">
        <dc:format>image/svg+xml</dc:format>
        <dc:type
           rdf:resource="http://purl.org/dc/dcmitype/StillImage" />
        <dc:title></dc:title>
      </cc:Work>
    </rdf:RDF>
  </metadata>
  <g
     transform="translate(27.127927,7.7832129)"
     id="layer1"
     inkscape:groupmode="layer"
     inkscape:label="Layer 1">
    <path
       sodipodi:nodetypes="csssccccsccscscccsccccscccccscscccccscccscccsccsccsccccccsccsccccscccscccccc"
       id="path921"
       style="fill:#ffffff;fill-opacity:1;fill-rule:nonzero;stroke:none;stroke-width:0.373724"
       d="m 148.23036,95.939634 17.90146,21.644686 c 8.9887,10.86919 52.74217,53.96091 47.97843,98.05752 -2.4202,22.41991 -13.34614,43.92183 -32.04608,59.23272 v 0 l -0.71373,0.57811 -3.55474,2.84956 h -0.17861 c -18.43625,13.25661 -40.52852,18.47067 -61.77753,16.1313 -22.705649,-2.50052 -44.472517,-13.62389 -59.807375,-32.76128 l -14.29132,-17.82113 c 7.52941,2.64507 15.40326,4.44857 23.479468,5.33749 3.179972,0.34851 6.36474,0.55415 9.53125,0.61643 11.433992,13.24515 27.138567,20.9677 43.495077,22.76835 17.12193,1.88582 34.95076,-2.71526 49.35183,-14.25801 l -0.005,-5.3e-4 0.51073,-0.41135 c 14.08648,-11.52101 22.28641,-27.73232 24.14981,-44.65307 1.88519,-17.11672 1.30194,-24.95239 -12.97941,-45.70303 l -17.51328,-23.64188 -9.08593,-13.29482 c -9.56821,-11.9215 -22.412,-41.617276 -10.01366,-49.246166 22.86774,-10.59153 35.12576,-12.3019 57.83103,-9.80146 21.24898,2.339969 37.50196,9.182719 52.6115,26.130411 l 0.17251,0.0573 2.85308,3.555045 c 15.34221,19.13851 21.4589,42.80266 18.95821,65.50708 h -0.053 c -2.5028,22.72557 -13.61252,44.49708 -32.72285,59.81486 l -17.8157,14.28032 c 2.64482,-7.52496 4.44779,-15.39493 5.33756,-23.47458 0.3508,-3.17974 0.5536,-6.36003 0.61396,-9.53465 13.27828,-11.45246 21.01541,-27.1507 22.81431,-43.48361 l -0.053,-0.005 c 1.8855,-17.1207 -2.716,-34.94868 -14.26013,-49.34496 l -0.136,-0.17149 c -11.5333,-14.28998 -27.92989,-22.164515 -44.93116,-24.479315 -22.8466,-3.111222 -33.22549,-1.386541 -45.67553,5.585389 z M 123.91132,218.37028 c -15.56819,10.70178 -34.256169,17.56226 -56.957635,15.06237 -22.70177,-2.49994 -44.46863,-13.62334 -59.8149601,-32.75838 l -2.8494099,-3.55449 0.0152,-0.17707 c -13.25749,-18.43522 -18.47245,-40.5261 -16.13224,-61.77431 2.50016,-22.70043 13.62388,-44.466225 32.76335,-59.807407 l 17.82447,-14.290559 c -2.65025,7.53972 -4.44995,15.413681 -5.33855,23.48193 -0.35082,3.18375 -0.55365,6.356591 -0.6166,9.530651 -13.24554,11.429595 -20.96786,27.129565 -22.77359,43.492205 -1.8817701,17.12128 2.71905,34.95266 14.25953,49.34891 v 0 l -5.3e-4,0.005 0.13903,0.17149 c 11.5372,14.29062 27.87613,22.6016 44.92692,24.48285 13.652291,1.50359 28.089486,4.57138 47.089955,-2.78328 L 91.411561,178.59291 C 80.424763,165.81623 45.058475,134.16668 49.158055,86.288814 c 2.33975,-21.24428 12.23747,-41.675521 29.18571,-56.78424 l 0.01521,-0.17708 3.554839,-2.849505 C 101.05322,11.136518 124.71931,5.0163882 147.42478,7.5174982 l -0.002,0.0573 c 22.72337,2.5021998 44.49518,13.6147598 59.81088,32.7206668 l 14.28455,17.814808 c -7.5399,-2.646129 -15.41075,-4.445648 -23.47591,-5.334029 -3.17975,-0.348509 -6.36087,-0.554119 -9.53103,-0.61699 -11.4568,-13.277701 -27.15613,-21.01456 -43.48661,-22.81296 l -0.005,0.0573 c -17.12152,-1.885785 -34.94639,2.71588 -49.347159,14.255151 v 0 C 81.271993,55.198023 72.900613,71.601224 71.014703,88.725933 c -1.44159,26.830247 6.85827,36.515737 20.409898,59.733157 l 20.937039,29.06673 c 20.71195,29.6872 11.54458,40.87233 11.54458,40.87233 z m -99.616825,-31.44734 0.13928,0.17149"
       inkscape:export-filename="/home/chealy/Documents/Salendra Logo/Exported/Selandra Icon/SalendraFV6.png"
       inkscape:export-xdpi="250"
       inkscape:export-ydpi="250" />
  </g>
</svg>
