<?xml version="1.0" encoding="UTF-8" standalone="no"?>
<svg
   xmlns:dc="http://purl.org/dc/elements/1.1/"
   xmlns:cc="http://creativecommons.org/ns#"
   xmlns:rdf="http://www.w3.org/1999/02/22-rdf-syntax-ns#"
   xmlns:svg="http://www.w3.org/2000/svg"
   xmlns="http://www.w3.org/2000/svg"
   xmlns:sodipodi="http://sodipodi.sourceforge.net/DTD/sodipodi-0.dtd"
   xmlns:inkscape="http://www.inkscape.org/namespaces/inkscape"
   sodipodi:docname="Salendra-QR.svg"
   inkscape:version="1.0 (4035a4fb49, 2020-05-01)"
   id="svg947"
   version="1.1"
   viewBox="0 0 105.83334 105.83334"
   height="400"
   width="400">
  <defs
     id="defs941" />
  <sodipodi:namedview
     inkscape:window-maximized="1"
     inkscape:window-y="34"
     inkscape:window-x="0"
     inkscape:window-height="1020"
     inkscape:window-width="1920"
     units="px"
     inkscape:pagecheckerboard="true"
     showgrid="false"
     inkscape:document-rotation="0"
     inkscape:current-layer="layer1"
     inkscape:document-units="mm"
     inkscape:cy="274.02314"
     inkscape:cx="275.32747"
     inkscape:zoom="1.191319"
     inkscape:pageshadow="2"
     inkscape:pageopacity="0.0"
     borderopacity="1.0"
     bordercolor="#666666"
     pagecolor="#ffffff"
     id="base" />
  <metadata
     id="metadata944">
    <rdf:RDF>
      <cc:Work
         rdf:about="">
        <dc:format>image/svg+xml</dc:format>
        <dc:type
           rdf:resource="http://purl.org/dc/dcmitype/StillImage" />
        <dc:title></dc:title>
      </cc:Work>
    </rdf:RDF>
  </metadata>
  <g
     transform="translate(-54.974856,-99.599729)"
     id="layer1"
     inkscape:groupmode="layer"
     inkscape:label="Layer 1">
    <g
       transform="translate(37.40769,-48.423491)"
       id="g1380"
       inkscape:export-filename="/home/chealy/Documents/Salendra Logo/Exported/SLD-QR-V4.png"
       inkscape:export-xdpi="300"
       inkscape:export-ydpi="300">
      <g
         id="g958"
         transform="translate(2.8418247,2.7782167)">
        <path
           sodipodi:nodetypes="cccc"
           d="m 21.185882,176.85162 -0.0036,-25.24738 25.247377,-0.004 v 0"
           style="fill:none;stroke:#ffffff;stroke-width:7.1;stroke-linecap:round;stroke-linejoin:round;stroke-miterlimit:4;stroke-dasharray:none;stroke-dashoffset:27.3034;stroke-opacity:1"
           id="path1286" />
        <path
           id="path1288"
           style="fill:none;stroke:#ffffff;stroke-width:7.1;stroke-linecap:round;stroke-linejoin:round;stroke-miterlimit:4;stroke-dasharray:none;stroke-dashoffset:27.3034;stroke-opacity:1"
           d="m 46.368144,244.74712 -25.247378,0.003 -0.0036,-25.24738 v 0"
           sodipodi:nodetypes="cccc" />
        <path
           id="path1290"
           style="fill:none;stroke:#ffffff;stroke-width:7.1;stroke-linecap:round;stroke-linejoin:round;stroke-miterlimit:4;stroke-dasharray:none;stroke-dashoffset:27.3034;stroke-opacity:1"
           d="m 114.14583,219.36618 0.003,25.24739 -25.247377,0.003 v 0"
           sodipodi:nodetypes="cccc" />
        <path
           sodipodi:nodetypes="cccc"
           d="m 88.916468,151.57322 25.110602,0.0718 0.13978,25.17261 v 0"
           style="fill:none;stroke:#ffffff;stroke-width:7.1;stroke-linecap:round;stroke-linejoin:round;stroke-miterlimit:4;stroke-dasharray:none;stroke-dashoffset:27.3034;stroke-opacity:1;paint-order:normal"
           id="path1292" />
        <g
           id="g1302"
           style="fill:#ffffff;stroke:#ffffff;stroke-width:1.7;stroke-linecap:round;stroke-linejoin:round;stroke-miterlimit:4;stroke-dasharray:none;stroke-opacity:1"
           transform="translate(0.10009142,130.50611)">
          <g
             style="fill:#ffffff;stroke:#ffffff;stroke-width:2.9132;stroke-linecap:round;stroke-linejoin:round;stroke-miterlimit:4;stroke-dasharray:none;stroke-opacity:1"
             id="g1300"
             transform="matrix(0.58355078,0,0,0.58355078,158.32235,-47.058357)">
            <path
               style="fill:#ffffff;fill-opacity:1;fill-rule:nonzero;stroke:#ffffff;stroke-width:2.9132;stroke-linecap:round;stroke-linejoin:round;stroke-miterlimit:4;stroke-dasharray:none;stroke-opacity:1"
               d="m -150.04009,176.82725 6.44865,7.79707 c 3.23803,3.91541 18.99942,19.43834 17.28336,35.32326 -0.87183,8.07633 -4.8077,15.82195 -11.54399,21.33738 v 0 l -0.25711,0.20826 -1.28055,1.02651 h -0.0646 c -6.64131,4.7754 -14.59967,6.6537 -22.25427,5.811 -8.17924,-0.90079 -16.02037,-4.90776 -21.54448,-11.80163 l -5.14819,-6.41968 c 2.71232,0.95281 5.54875,1.6025 8.45807,1.92271 1.14552,0.12551 2.29276,0.19961 3.43344,0.22204 4.11889,4.77131 9.77616,7.5532 15.66829,8.20187 6.1679,0.67934 12.59042,-0.97814 17.77811,-5.13616 l -0.001,-2.2e-4 0.184,-0.14818 c 5.07439,-4.1502 8.02825,-9.98998 8.69953,-16.08534 0.67908,-6.16597 0.46899,-8.98862 -4.67562,-16.46362 l -6.30881,-8.51652 -3.27305,-4.78921 c -3.44675,-4.29448 -8.07349,-14.99178 -3.60721,-17.73994 8.23767,-3.81539 12.65341,-4.43153 20.83255,-3.53078 7.65459,0.84293 13.50942,3.30791 18.95236,9.41295 l 0.0627,0.0206 1.02776,1.28064 c 5.52676,6.89426 7.73022,15.41881 6.82943,23.59762 h -0.0186 c -0.9016,8.18643 -4.90364,16.02918 -11.78781,21.54709 l -6.41779,5.14419 c 0.95272,-2.71069 1.60223,-5.54568 1.92274,-8.45621 0.12639,-1.14544 0.19942,-2.29108 0.22118,-3.43468 4.78327,-4.12552 7.5704,-9.78049 8.21841,-15.66411 l -0.0185,-0.002 c 0.67917,-6.16739 -0.9784,-12.58956 -5.13697,-17.77553 l -0.049,-0.0617 c -4.15471,-5.14772 -10.06128,-7.98438 -16.18567,-8.81825 -8.23008,-1.12074 -11.96888,-0.49946 -16.45377,2.01203 z"
               id="path1296" />
            <path
               style="fill:#ffffff;fill-opacity:1;fill-rule:nonzero;stroke:#ffffff;stroke-width:2.9132;stroke-linecap:round;stroke-linejoin:round;stroke-miterlimit:4;stroke-dasharray:none;stroke-opacity:1"
               d="m -158.80058,220.93046 c -5.60816,3.8551 -12.34017,6.32648 -20.51795,5.42592 -8.17791,-0.90056 -16.019,-4.90754 -21.54725,-11.80057 l -1.02644,-1.28043 0.006,-0.0639 c -4.77568,-6.6409 -6.65431,-14.59869 -5.81129,-22.25294 0.90063,-8.17737 4.90777,-16.01807 11.80243,-21.54443 l 6.4209,-5.1479 c -0.9547,2.71606 -1.60298,5.5525 -1.92311,8.4589 -0.12636,1.14688 -0.19942,2.28986 -0.2221,3.43324 -4.77147,4.11729 -7.55331,9.77289 -8.20377,15.66719 -0.67788,6.16761 0.97949,12.59101 5.13671,17.77698 v 0 l -1.6e-4,0.001 0.0499,0.0618 c 4.15605,5.14791 10.04184,8.14178 16.18409,8.81945 4.91801,0.54164 10.11873,1.64676 16.96331,-1.00262 l -9.01807,-10.88166 c -3.95778,-4.60212 -16.69786,-16.00324 -15.22106,-33.25031 0.84287,-7.6528 4.40833,-15.01277 10.51363,-20.45536 l 0.006,-0.0638 1.28057,-1.0265 c 6.89461,-5.52635 15.41987,-7.73101 23.5991,-6.83005 l -6.6e-4,0.0206 c 8.1857,0.90138 16.02859,4.90445 21.54579,11.78698 l 5.14575,6.41743 c -2.71622,-0.95323 -5.55154,-1.60147 -8.45686,-1.92148 -1.14545,-0.12553 -2.29139,-0.19962 -3.43337,-0.22226 -4.12712,-4.78303 -9.7825,-7.57008 -15.66527,-8.21791 l -0.002,0.0206 c -6.16757,-0.67933 -12.58867,0.97833 -17.77625,5.13513 v 0 c -5.18754,4.1568 -8.20319,10.06572 -8.88255,16.23456 -0.51929,9.66505 2.47057,13.15406 7.35232,21.51767 l 7.54217,10.47072 c 7.46111,10.69423 4.15872,14.72344 4.15872,14.72344 z"
               id="path1298" />
          </g>
        </g>
        <path
           sodipodi:nodetypes="ccsscc"
           d="m 101.45992,193.98284 11.32862,-0.18604 c 2.10175,-0.0345 3.82519,1.50781 3.8642,3.45814 0.039,1.95033 -1.62136,3.69175 -3.72337,3.70381 l -11.32862,0.065 c 1.21792,-1.88842 0.64701,-6.02045 -0.14083,-7.0409 z"
           style="opacity:1;fill:#ffffff;fill-opacity:1;stroke:none;stroke-width:1.94121;stroke-linecap:round;stroke-linejoin:round;stroke-miterlimit:4;stroke-dasharray:none;stroke-dashoffset:27.3034;stroke-opacity:1;paint-order:normal"
           id="rect939" />
        <path
           id="path942"
           style="opacity:1;fill:#ffffff;fill-opacity:1;stroke:none;stroke-width:1.94121;stroke-linecap:round;stroke-linejoin:round;stroke-miterlimit:4;stroke-dasharray:none;stroke-dashoffset:27.3034;stroke-opacity:1;paint-order:normal"
           d="m 33.879327,200.89552 -11.32862,0.18604 c -2.10175,0.0345 -3.82519,-1.50781 -3.8642,-3.45814 -0.039,-1.95033 1.621327,-3.75627 3.72337,-3.75823 l 11.32862,-0.0106 c -1.21792,1.88842 -0.64701,6.02045 0.14083,7.0409 z"
           sodipodi:nodetypes="ccsscc" />
      </g>
    </g>
  </g>
</svg>
