<?xml version="1.0" encoding="UTF-8" standalone="no"?>
<svg
   xmlns:dc="http://purl.org/dc/elements/1.1/"
   xmlns:cc="http://creativecommons.org/ns#"
   xmlns:rdf="http://www.w3.org/1999/02/22-rdf-syntax-ns#"
   xmlns:svg="http://www.w3.org/2000/svg"
   xmlns="http://www.w3.org/2000/svg"
   xmlns:sodipodi="http://sodipodi.sourceforge.net/DTD/sodipodi-0.dtd"
   xmlns:inkscape="http://www.inkscape.org/namespaces/inkscape"
   width="130mm"
   height="130mm"
   viewBox="0 0 130 130"
   version="1.1"
   id="svg940"
   inkscape:version="1.0.1 (3bc2e813f5, 2020-09-07)"
   sodipodi:docname="Salendra-QR.svg">
  <style
     id="style1503"></style>
  <defs
     id="defs934" />
  <sodipodi:namedview
     id="base"
     pagecolor="#ffffff"
     bordercolor="#666666"
     borderopacity="1.0"
     inkscape:pageopacity="0.0"
     inkscape:pageshadow="2"
     inkscape:zoom="2.0816206"
     inkscape:cx="157.71846"
     inkscape:cy="173.61997"
     inkscape:document-units="mm"
     inkscape:current-layer="layer1"
     inkscape:document-rotation="0"
     showgrid="false"
     inkscape:pagecheckerboard="true"
     inkscape:window-width="1920"
     inkscape:window-height="1020"
     inkscape:window-x="0"
     inkscape:window-y="34"
     inkscape:window-maximized="1" />
  <metadata
     id="metadata937">
    <rdf:RDF>
      <cc:Work
         rdf:about="">
        <dc:format>image/svg+xml</dc:format>
        <dc:type
           rdf:resource="http://purl.org/dc/dcmitype/StillImage" />
        <dc:title></dc:title>
      </cc:Work>
    </rdf:RDF>
  </metadata>
  <g
     inkscape:label="Layer 1"
     inkscape:groupmode="layer"
     id="layer1"
     transform="translate(-43.281852,-92.718099)">
    <g
       id="g938"
       inkscape:export-filename="/home/chealy/Documents/Salendra Logo/Exported/Selandra Icon/SalendraQR3.png"
       inkscape:export-xdpi="250"
       inkscape:export-ydpi="250"
       transform="translate(-844.18488,-242.67421)">
      <path
         inkscape:export-ydpi="250"
         inkscape:export-xdpi="250"
         inkscape:export-filename="/home/chealy/Documents/Salendra Logo/Exported/Selandra Icon/SalendraFV6.png"
         d="m 958.46031,380.51966 6.46346,7.81544 c 3.24544,3.92463 19.04297,19.48414 17.32299,35.40649 -0.87383,8.09536 -4.81873,15.85924 -11.57048,21.38767 v 0 l -0.2577,0.20875 -1.28347,1.02893 h -0.0646 c -6.65655,4.78668 -14.63313,6.66937 -22.30527,5.82467 -8.19804,-0.90288 -16.05714,-4.91932 -21.59391,-11.82942 l -5.15999,-6.43483 c 2.71854,0.95508 5.56146,1.60629 8.47744,1.92726 1.14816,0.12583 2.29803,0.20009 3.44133,0.22257 4.12833,4.78255 9.79859,7.57101 15.70424,8.22118 6.18201,0.68093 12.61925,-0.98043 17.81887,-5.14826 l -0.002,-2e-4 0.1844,-0.14853 c 5.08604,-4.15999 8.04668,-10.01355 8.71949,-16.12327 0.68065,-6.18049 0.47007,-9.00979 -4.68633,-16.5024 l -6.32331,-8.53659 -3.28055,-4.80048 c -3.45468,-4.3046 -8.09202,-15.02711 -3.61551,-17.78174 8.25658,-3.82438 12.68243,-4.44197 20.88035,-3.5391 7.67213,0.84491 13.54039,3.3157 18.99583,9.43513 l 0.0627,0.0206 1.03014,1.28366 c 5.53947,6.9105 7.74797,15.45513 6.84507,23.65321 h -0.019 c -0.9036,8.20572 -4.91486,16.06695 -11.81482,21.59787 l -6.43253,5.15633 c 0.95494,-2.7171 1.60591,-5.55878 1.92717,-8.47616 0.12666,-1.14814 0.19989,-2.29648 0.22167,-3.44277 4.79425,-4.13524 7.58779,-9.80354 8.23731,-15.70101 l -0.0185,-0.002 c 0.68067,-6.18193 -0.9807,-12.61923 -5.14881,-17.81742 l -0.0491,-0.0619 c -4.16423,-5.1598 -10.08435,-8.00314 -16.22279,-8.83897 -8.24896,-1.12338 -11.99634,-0.50063 -16.49152,2.01678 z m -8.78057,44.20711 c -5.62103,3.86419 -12.36848,6.34138 -20.56501,5.43871 -8.19666,-0.90268 -16.05575,-4.9191 -21.59667,-11.82836 l -1.0288,-1.28346 0.006,-0.0639 c -4.78672,-6.65657 -6.66963,-14.63311 -5.82468,-22.30539 0.9027,-8.19664 4.91901,-16.05581 11.82947,-21.59518 l 6.43566,-5.16003 c -0.9569,2.72245 -1.60669,5.56557 -1.92753,8.47883 -0.12666,1.14958 -0.19989,2.29524 -0.22262,3.44132 -4.78241,4.12699 -7.57061,9.79591 -8.22258,15.70411 -0.67943,6.18213 0.98173,12.62067 5.1485,17.81885 v 0 l -1.7e-4,0.002 0.0501,0.0619 c 4.16559,5.16003 10.06489,8.16096 16.22121,8.84023 4.92928,0.54292 10.14193,1.65063 17.0022,-1.00498 l -9.03898,-10.90735 c -3.96687,-4.6134 -16.73615,-16.04137 -15.25596,-33.32906 0.84479,-7.67085 4.41843,-15.04815 10.53773,-20.50357 l 0.006,-0.0639 1.28349,-1.02891 c 6.91046,-5.53938 15.45526,-7.74922 23.65326,-6.84614 l -7.9e-4,0.0206 c 8.20444,0.90349 16.06533,4.916 21.59519,11.81474 l 5.15754,6.43255 c -2.72243,-0.95547 -5.56425,-1.60524 -8.47625,-1.92601 -1.14808,-0.12583 -2.29665,-0.20008 -3.44125,-0.22277 -4.13659,-4.79442 -9.80495,-7.58804 -15.7012,-8.2374 l -0.002,0.0206 c -6.18186,-0.68092 -12.61767,0.98064 -17.81717,5.14724 v 0 c -5.19942,4.16659 -8.22198,10.08944 -8.9029,16.27281 -0.52049,9.68783 2.47623,13.18505 7.36916,21.56837 l 7.55947,10.49539 c 7.47822,10.71942 4.16827,14.75812 4.16827,14.75812 z m -35.96746,-11.35496 0.0502,0.0619"
         style="fill:#ffffff;fill-opacity:1;fill-rule:nonzero;stroke:#ffffff;stroke-width:25;stroke-linejoin:round;stroke-miterlimit:4;stroke-dasharray:none;stroke-opacity:1"
         id="path2637-6-56-9-9"
         sodipodi:nodetypes="csssccccsccscscccsccccscccccscscccccscccscccsccsccsccccccsccsccccscccscccccc" />
      <path
         sodipodi:nodetypes="csssccccsccscscccsccccscccccscscccccscccscccsccsccsccccccsccsccccscccscccccc"
         id="path2637-6-56-7"
         style="fill:#344051;fill-opacity:1;fill-rule:nonzero;stroke:none;stroke-width:0.147314"
         d="m 959.00985,378.6979 7.05616,8.53211 c 3.54304,4.28452 20.7892,21.27082 18.91149,38.65324 -0.95396,8.83769 -5.2606,17.31352 -12.63149,23.34891 v 0 l -0.28133,0.22789 -1.40116,1.12326 h -0.0704 c -7.26696,5.22561 -15.97499,7.28095 -24.35064,6.35879 -8.94981,-0.98568 -17.52958,-5.3704 -23.57407,-12.91415 l -5.63316,-7.0249 c 2.96784,1.04266 6.07145,1.75358 9.25482,2.10398 1.25344,0.13738 2.50877,0.21844 3.7569,0.24299 4.5069,5.2211 10.69712,8.26525 17.14431,8.97505 6.74889,0.74337 13.77642,-1.07033 19.45284,-5.62036 l -0.002,-2.1e-4 0.20131,-0.16215 c 5.55242,-4.54146 8.78456,-10.93179 9.51905,-17.60177 0.74308,-6.74723 0.51318,-9.83597 -5.11605,-18.01565 l -6.90315,-9.31938 -3.58137,-5.24068 c -3.77147,-4.69933 -8.83406,-16.40509 -3.94705,-19.41232 9.0137,-4.17507 13.8454,-4.84928 22.79506,-3.86363 8.37564,0.92239 14.78202,3.61973 20.73768,10.30033 l 0.068,0.0226 1.1246,1.40136 c 6.0474,7.5442 8.4584,16.87236 7.4727,25.8222 h -0.021 c -0.9865,8.95818 -5.3656,17.54028 -12.89823,23.57839 l -7.02238,5.62915 c 1.0425,-2.96626 1.75317,-6.06852 2.10389,-9.25343 0.13827,-1.25342 0.21821,-2.50706 0.242,-3.75846 5.23388,-4.51444 8.28357,-10.70252 8.99262,-17.14078 l -0.021,-0.002 c 0.7432,-6.7488 -1.07052,-13.7764 -5.62084,-19.45126 l -0.0536,-0.0676 c -4.54606,-5.63296 -11.00905,-8.73702 -17.71038,-9.64949 -9.00537,-1.22641 -13.09638,-0.54656 -18.00377,2.2017 z m -9.58575,48.26087 c -6.13646,4.21853 -13.50264,6.92286 -22.4508,5.93743 -8.94828,-0.98545 -17.52805,-5.37018 -23.57706,-12.91301 l -1.12314,-1.40114 0.006,-0.0698 c -5.22566,-7.26697 -7.28122,-15.97496 -6.35879,-24.35078 0.98548,-8.94827 5.37008,-17.52812 12.91422,-23.57545 l 7.02581,-5.63319 c -1.04464,2.97208 -1.75402,6.07591 -2.10428,9.25633 -0.13828,1.255 -0.21823,2.5057 -0.24304,3.75688 -5.22095,4.50543 -8.26483,10.69419 -8.97659,17.14417 -0.74173,6.74903 1.07176,13.77797 5.62063,19.45282 v 0 l -2e-4,0.002 0.0548,0.0676 c 4.54758,5.63321 10.98784,8.90931 17.70869,9.65088 5.38128,0.5927 11.07194,1.80199 18.56129,-1.09714 l -9.86785,-11.90742 c -4.33063,-5.03643 -18.27084,-17.51235 -16.65492,-36.3853 0.92225,-8.37427 4.8236,-16.42805 11.50403,-22.38375 l 0.006,-0.0698 1.4012,-1.12325 c 7.54412,-6.04744 16.8725,-8.45993 25.82224,-7.47402 l -9.3e-4,0.0226 c 8.95679,0.98634 17.53851,5.36679 23.57545,12.89814 l 5.63049,7.02241 c -2.97198,-1.04308 -6.0744,-1.75243 -9.25342,-2.10262 -1.25335,-0.13738 -2.50724,-0.21843 -3.75681,-0.24321 -4.51589,-5.23393 -10.70404,-8.28372 -17.14097,-8.99263 l -0.002,0.0226 c -6.74873,-0.74336 -13.7747,1.07057 -19.451,5.61923 v 0 c -5.6762,4.54866 -8.97592,11.01463 -9.71928,17.76501 -0.56823,10.5762 2.7033,14.39412 8.0449,23.54618 l 8.25268,11.4578 c 8.16396,11.70238 4.55049,16.11144 4.55049,16.11144 z m -39.26563,-12.39621 0.0549,0.0676"
         inkscape:export-filename="/home/chealy/Documents/Salendra Logo/Exported/Selandra Icon/SalendraFV6.png"
         inkscape:export-xdpi="250"
         inkscape:export-ydpi="250" />
    </g>
  </g>
</svg>
