<svg width="1014" height="611" viewBox="0 0 1014 611" fill="none" xmlns="http://www.w3.org/2000/svg">
<g clip-path="url(#clip0)">
<path d="M689.47 348.394L698.16 346.891C698.993 346.745 699.821 346.567 700.654 346.416C686.899 337.878 676.458 324.916 671.045 309.659C665.632 294.401 665.57 277.757 670.868 262.46C676.167 247.162 686.511 234.122 700.201 225.482C713.891 216.841 730.113 213.114 746.202 214.913L734.812 242.016L761.798 218.453C761.861 218.469 761.922 218.49 761.982 218.515C770.819 221.627 778.956 226.45 785.929 232.707C792.902 238.964 798.574 246.533 802.622 254.983C806.669 263.432 809.013 272.596 809.519 281.951C810.025 291.306 808.683 300.669 805.57 309.506C805.119 310.791 804.581 312.018 804.066 313.26C811.684 309.432 818.992 304.976 824.952 299.27C837.018 287.708 843.628 271.754 851.016 252.097C865.652 213.145 879.743 173.628 893.272 134.026C878.351 125.951 866.797 112.821 860.686 96.9932C854.576 81.1655 854.309 63.6776 859.934 47.6708C860.659 45.6115 861.499 43.6285 862.389 41.6809C862.611 41.1935 862.836 40.7092 863.068 40.2288C863.973 38.3616 864.928 36.5322 865.976 34.7765C866.147 34.4886 866.339 34.2193 866.514 33.9346C867.426 32.4542 868.388 31.0177 869.4 29.625C869.777 29.1021 870.153 28.5807 870.542 28.0702C871.689 26.5706 872.877 25.1115 874.129 23.7184C874.547 23.2523 874.991 22.8168 875.421 22.3627C876.383 21.3476 877.372 20.363 878.387 19.4091C878.922 18.907 879.451 18.4012 880 17.9168C880.141 17.7925 880.273 17.6569 880.414 17.5336C880.422 17.5427 880.427 17.5525 880.434 17.5614C893 6.61083 909.006 0.40943 925.67 0.0350848C942.333 -0.33926 958.602 5.1371 971.647 15.5124L956.825 50.7824L983.504 27.4997C992.841 39.395 998.132 53.9625 998.607 69.0769C999.081 84.1914 994.714 99.0621 986.141 111.519C986.166 111.528 986.191 111.535 986.216 111.543C985.924 111.972 985.594 112.363 985.294 112.784C984.731 113.573 984.156 114.348 983.566 115.109C982.808 116.085 982.021 117.029 981.218 117.959C980.611 118.661 980.013 119.369 979.381 120.045C978.457 121.033 977.49 121.969 976.515 122.899C975.947 123.442 975.403 124.012 974.818 124.535C973.284 125.905 971.698 127.205 970.058 128.435C969.483 128.865 968.876 129.245 968.289 129.658C967.138 130.467 965.981 131.265 964.786 132.004C964.044 132.463 963.283 132.882 962.526 133.312C961.43 133.937 960.327 134.541 959.2 135.106C958.401 135.507 957.596 135.887 956.783 136.257C955.626 136.785 954.455 137.274 953.271 137.739C952.477 138.051 951.686 138.367 950.881 138.651C949.552 139.119 948.204 139.525 946.848 139.914C946.163 140.111 945.49 140.336 944.799 140.512C942.764 141.031 940.707 141.473 938.626 141.811C938.235 141.875 937.836 141.899 937.443 141.957C935.718 142.208 933.984 142.41 932.236 142.534C931.484 142.587 930.729 142.594 929.974 142.624C928.561 142.679 927.147 142.707 925.725 142.676C924.895 142.659 924.066 142.616 923.235 142.569C921.85 142.491 920.464 142.37 919.077 142.207C918.257 142.112 917.439 142.018 916.618 141.894C915.132 141.668 913.647 141.373 912.163 141.05C912.065 141.029 911.967 141.016 911.87 140.995C906.16 157.702 900.344 174.374 894.422 191.011C901.644 184.516 910.118 179.566 919.322 176.464C928.526 173.362 938.267 172.173 947.947 172.971C957.628 173.769 967.042 176.537 975.615 181.104C984.187 185.671 991.735 191.942 997.796 199.532L973.132 226.808L1006.53 213.477C1014.64 230.487 1015.66 250.02 1009.38 267.786C1007.2 274.029 1004.15 279.932 1000.32 285.318C992.068 296.989 980.5 305.911 967.117 310.927C953.734 315.943 939.152 316.822 925.263 313.45C911.374 310.077 898.819 302.609 889.226 292.014C879.633 281.419 873.445 268.186 871.465 254.031C870.838 255.708 870.232 257.405 869.603 259.079C863.083 276.421 854.973 298.002 838.685 313.605C827.644 324.18 814.06 330.89 801.027 336.563C792.541 340.256 783.941 343.671 775.229 346.807C765.543 352.679 754.6 356.167 743.302 356.981C729.555 360.8 715.634 363.988 701.584 366.449L692.822 367.96C684.949 369.308 676.875 370.697 668.863 372.297C670.016 372.639 671.172 372.966 672.319 373.37C686.597 378.395 698.906 387.829 707.47 400.309C716.033 412.789 720.407 427.669 719.959 442.798L665.034 459.657L714.734 467.549C710.188 478.723 702.883 488.562 693.503 496.147C684.123 503.732 672.974 508.816 661.096 510.924C649.219 513.032 637.001 512.095 625.584 508.201C614.166 504.306 603.922 497.582 595.809 488.655C596.313 490.345 596.82 492.033 597.328 493.718C598.337 497.067 599.338 500.396 600.299 503.694C613.378 548.632 607.749 583.981 584.448 603.226L571.805 587.921C594.483 569.187 587.447 530.585 581.238 509.239C580.294 506.001 579.309 502.73 578.318 499.441C569.8 471.143 560.144 439.068 572.65 409.593C591.498 365.169 645.821 355.867 689.47 348.394Z" fill="#08B952"/>
<path d="M673.371 608.99H288.538C275.918 608.99 263.815 603.977 254.891 595.053C245.968 586.13 240.954 574.027 240.954 561.407V385.096C240.954 382.535 241.476 380.002 242.487 377.65C243.499 375.298 244.979 373.176 246.837 371.415L450.761 178.112C458.914 170.384 469.72 166.076 480.955 166.076C492.189 166.076 502.995 170.384 511.148 178.112L705.579 362.416C710.436 367.02 714.304 372.565 716.948 378.713C719.591 384.862 720.955 391.484 720.955 398.176V561.407C720.955 567.656 719.724 573.843 717.333 579.616C714.941 585.389 711.436 590.635 707.018 595.053C702.599 599.472 697.354 602.977 691.581 605.368C685.808 607.759 679.62 608.99 673.371 608.99V608.99Z" fill="#3F3D56"/>
<path opacity="0.1" d="M240.954 387.991H716.954V580.258C716.954 587.878 713.927 595.187 708.539 600.575C703.151 605.963 695.843 608.99 688.222 608.99H269.687C262.066 608.99 254.758 605.963 249.37 600.575C243.981 595.187 240.954 587.878 240.954 580.258V387.991V387.991Z" fill="black"/>
<path d="M631.273 236.491H329.636C315.176 236.491 303.454 248.213 303.454 262.672V564.309C303.454 578.769 315.176 590.49 329.636 590.49H631.273C645.733 590.49 657.455 578.769 657.455 564.309V262.672C657.455 248.213 645.733 236.491 631.273 236.491Z" fill="#08B952"/>
<path opacity="0.1" d="M657.454 395.941V590.491H303.454V395.941L480.454 481.491L657.454 395.941Z" fill="black"/>
<path d="M480.455 492.49L253.661 382.874C252.258 382.196 250.706 381.885 249.15 381.97C247.594 382.056 246.086 382.535 244.766 383.363C243.446 384.191 242.358 385.341 241.604 386.704C240.85 388.068 240.454 389.6 240.454 391.158V579.758C240.454 583.531 241.198 587.267 242.642 590.753C244.085 594.239 246.202 597.407 248.87 600.075C251.538 602.743 254.705 604.859 258.191 606.303C261.677 607.747 265.414 608.49 269.187 608.49H691.722C695.496 608.49 699.232 607.747 702.718 606.303C706.204 604.859 709.371 602.743 712.039 600.075C714.707 597.407 716.824 594.239 718.268 590.753C719.711 587.267 720.455 583.531 720.455 579.758V394.389C720.455 392.488 719.972 390.618 719.052 388.954C718.131 387.29 716.804 385.888 715.193 384.877C713.583 383.867 711.742 383.282 709.844 383.178C707.945 383.073 706.051 383.452 704.34 384.279L480.455 492.49Z" fill="#3F3D56"/>
<path d="M432.954 268.991H333.954V282.991H432.954V268.991Z" fill="#F2F2F2"/>
<path d="M619.955 319.99H325.954V327.991H619.955V319.99Z" fill="#F2F2F2"/>
<path d="M619.955 346.991H325.954V354.991H619.955V346.991Z" fill="#F2F2F2"/>
<path d="M619.955 373.991H325.954V381.991H619.955V373.991Z" fill="#F2F2F2"/>
<path d="M60.9543 608.49H884.955" stroke="#3F3D56" stroke-miterlimit="10"/>
<path d="M0 485.352C0 544.312 36.9886 592.022 82.6994 592.022Z" fill="#46455B"/>
<path d="M82.6994 592.022C82.6994 532.399 123.977 484.154 174.987 484.154Z" fill="#08B952"/>
<path d="M29.9635 490.697C29.9635 546.703 53.5505 592.022 82.6994 592.022Z" fill="#08B952"/>
<path d="M82.6994 592.022C82.6994 515.838 130.409 454.19 189.37 454.19Z" fill="#46455B"/>
<path d="M65.3016 592.774C65.3016 592.774 77.0297 592.413 80.5643 589.896C84.0988 587.379 98.6051 584.374 99.4819 588.41C100.359 592.447 117.107 608.486 103.866 608.593C90.6251 608.7 73.0999 606.531 69.5722 604.382C66.0444 602.233 65.3016 592.774 65.3016 592.774Z" fill="#A8A8A8"/>
<path opacity="0.2" d="M104.102 607.188C90.8614 607.295 73.3362 605.126 69.8085 602.977C67.1219 601.34 66.0513 595.468 65.6931 592.759C65.445 592.769 65.3016 592.774 65.3016 592.774C65.3016 592.774 66.0444 602.233 69.5722 604.382C73.1 606.531 90.6252 608.7 103.866 608.593C107.688 608.562 109.009 607.202 108.936 605.188C108.405 606.405 106.947 607.165 104.102 607.188Z" fill="black"/>
<path d="M719.714 162.77C719.113 168.125 715.028 172.438 713.515 177.61C711.237 185.393 715.176 193.745 720.563 199.807C724.91 204.647 730.175 208.576 736.051 211.366C741.927 214.156 748.299 215.752 754.797 216.062C756.706 216.23 758.629 216.02 760.457 215.445C762.089 214.788 763.559 213.784 764.763 212.502C768.821 208.428 770.999 202.783 771.867 197.1C772.735 191.416 772.397 185.626 772.058 179.886C772.059 178.7 771.844 177.523 771.422 176.414C770.869 175.358 770.109 174.424 769.187 173.667C766.266 170.987 763.049 168.65 759.597 166.7C758.037 166.001 756.661 164.949 755.579 163.626C754.927 162.492 754.504 161.241 754.337 159.944L753.277 154.545C753.088 152.99 752.557 151.495 751.721 150.169C749.85 147.644 746.27 147.301 743.129 147.177L731.624 146.726C728.045 146.586 723.33 145.56 719.836 146.262C716.574 146.919 717.657 149.925 718.25 152.662C719.109 155.967 719.6 159.357 719.714 162.77V162.77Z" fill="#A0616A"/>
<path opacity="0.1" d="M719.714 162.77C719.113 168.125 715.028 172.438 713.515 177.61C711.237 185.393 715.176 193.745 720.563 199.807C724.91 204.647 730.175 208.576 736.051 211.366C741.927 214.156 748.299 215.752 754.797 216.062C756.706 216.23 758.629 216.02 760.457 215.445C762.089 214.788 763.559 213.784 764.763 212.502C768.821 208.428 770.999 202.783 771.867 197.1C772.735 191.416 772.397 185.626 772.058 179.886C772.059 178.7 771.844 177.523 771.422 176.414C770.869 175.358 770.109 174.424 769.187 173.667C766.266 170.987 763.049 168.65 759.597 166.7C758.037 166.001 756.661 164.949 755.579 163.626C754.927 162.492 754.504 161.241 754.337 159.944L753.277 154.545C753.088 152.99 752.557 151.495 751.721 150.169C749.85 147.644 746.27 147.301 743.129 147.177L731.624 146.726C728.045 146.586 723.33 145.56 719.836 146.262C716.574 146.919 717.657 149.925 718.25 152.662C719.109 155.967 719.6 159.357 719.714 162.77V162.77Z" fill="black"/>
<path d="M792.902 403.781C791.272 421.653 789.642 439.522 788.012 457.389C786.736 471.45 785.435 485.568 782.933 499.447C782.068 504.23 781.055 508.989 779.854 513.706C776.511 526.803 771.663 539.604 770.098 553.031C770.049 553.418 770.008 553.813 769.967 554.208C769.792 557.177 769.23 560.111 768.296 562.934C767.513 564.984 766.312 566.853 765.464 568.878C763.776 572.928 763.554 577.407 763.348 581.794C757.412 578.456 750.913 576.235 744.175 575.241C740.923 574.756 737.301 574.41 735.087 571.981C732.634 569.298 732.905 565.19 733.317 561.584C734.609 550.388 735.899 539.198 737.186 528.013C737.606 523.201 738.424 518.432 739.631 513.755C740.075 512.199 740.611 510.668 741.154 509.137C741.903 507.029 742.66 504.922 743.228 502.757C744.047 499.259 744.619 495.707 744.941 492.129C746.266 480.867 747.863 469.63 749.263 458.377L749.337 457.784C751.436 440.727 753.033 423.588 752.572 406.407C752.506 403.863 752.399 401.319 752.234 398.767C752.004 395.071 751.666 393.112 754.729 390.799C758.112 388.247 762.566 386.46 766.435 384.789C768.518 383.884 791.453 375.742 791.988 377.528C793.064 381.339 793.629 385.275 793.667 389.234C793.684 394.094 793.428 398.95 792.902 403.781Z" fill="#605D82"/>
<path opacity="0.1" d="M782.933 499.447C782.068 504.23 781.056 508.988 779.854 513.705C776.511 526.803 771.663 539.604 770.098 553.031C770.049 553.417 770.008 553.813 769.967 554.208C759.742 539.604 751.131 523.897 741.154 509.136C741.903 507.029 742.66 504.921 743.228 502.756C744.047 499.258 744.619 495.707 744.941 492.129C746.266 480.867 747.863 469.63 749.263 458.376L749.337 457.784C749.922 460.173 750.758 462.493 751.831 464.707C758.532 478.323 774.453 485.205 782.241 498.237C782.48 498.64 782.71 499.044 782.933 499.447Z" fill="black"/>
<path d="M699.967 379.718C700.305 390.639 702.053 401.461 703.798 412.247L707.397 434.5C709.367 446.68 711.418 459.108 717.182 470.016C721.494 478.177 727.706 485.14 733.325 492.461C747.141 510.46 757.519 530.848 770.619 549.374C774.427 554.758 779.87 560.582 786.368 559.457C790.633 558.719 793.731 555.169 797.084 552.431C801.036 549.203 805.8 546.841 808.91 542.795C812.02 538.749 812.629 532.024 808.416 529.145C806.891 528.301 805.272 527.638 803.593 527.172C797.062 524.688 792.834 518.31 790.144 511.86C787.454 505.411 785.824 498.476 782.24 492.477C774.453 479.446 758.53 472.564 751.827 458.943C748.073 451.314 747.715 442.521 747.428 434.024L746.697 412.361C746.617 409.993 746.554 407.529 747.517 405.363C750.081 399.597 757.822 399.06 764.09 398.329C771.204 397.495 778.096 395.321 784.4 391.921C788.01 389.971 791.538 387.486 793.469 383.866C795.231 380.564 795.474 376.69 795.681 372.952L797.851 333.695C798.038 330.317 798.208 326.825 797.018 323.659C794.029 315.708 783.989 313.11 775.504 313.49C759.714 314.195 745.137 320.988 730.249 325.575C726.562 326.738 722.818 327.714 719.032 328.5C715.69 329.171 711.647 328.893 708.46 329.967C702.793 331.878 702.936 344.272 702.133 349.413C700.473 359.425 699.748 369.571 699.967 379.718V379.718Z" fill="#605D82"/>
<path d="M784.224 561.103C785.617 562.507 786.072 564.564 786.435 566.508C788.446 577.291 789.492 588.232 789.561 599.201C789.468 600.224 789.672 601.253 790.149 602.163C790.541 602.706 791.072 603.133 791.687 603.399C795.711 605.317 800.382 602.644 803.735 599.706C809.952 594.261 815.212 586.952 815.565 578.695C815.5 576.569 815.575 574.44 815.788 572.323C816.334 569.215 818.149 566.507 819.748 563.786C822.47 559.155 824.665 554.233 826.293 549.114C826.905 547.191 827.311 544.769 825.804 543.427C825.27 543.008 824.662 542.692 824.013 542.495L805.834 535.746C804.259 535.161 800.339 545.23 799.717 546.331C798.195 549.023 796.682 550.552 793.629 551.174C790.512 551.808 786.802 550.898 783.894 552.453C778.975 555.083 781.439 558.294 784.224 561.103Z" fill="#535070"/>
<path d="M756.175 567.317C755.837 566.645 755.366 566.048 754.791 565.563C753.949 565.029 752.993 564.704 752 564.615C748.539 564.027 744.437 563.64 742.049 566.212C739.809 568.624 740.194 572.553 738.322 575.259C737.729 576.116 736.926 576.822 736.412 577.729C735.775 579.114 735.487 580.635 735.575 582.157C735.478 586.353 735.382 590.555 735.671 594.741C735.914 598.249 736.506 601.925 738.699 604.674C742.22 609.085 748.571 609.719 754.208 610.005L758.773 610.237C760.03 610.39 761.306 610.273 762.514 609.894C763.262 609.548 763.933 609.056 764.488 608.446C765.042 607.836 765.468 607.121 765.741 606.344C768.118 600.437 764.354 594.074 762.036 588.144C759.372 581.328 759.85 573.761 756.175 567.317Z" fill="#535070"/>
<path d="M718.391 132.6C718.335 132.001 718.423 131.397 718.647 130.84C719.316 129.657 721.062 129.979 722.379 130.311C727.676 131.647 733.257 130.438 738.711 130.75C744.164 131.062 750.307 133.788 751.404 139.139C755.362 136.333 758.774 132.827 761.472 128.794C762.986 126.529 764.305 123.935 764.099 121.218C763.802 117.3 760.515 114.37 757.471 111.885L748.398 104.478C747.207 103.384 745.831 102.509 744.335 101.896C742.24 101.18 739.955 101.521 737.741 101.522C731.136 101.526 724.094 98.5206 718.22 101.54C715.767 102.801 713.92 104.963 712.139 107.07L704.041 116.656C703.432 117.267 702.986 118.022 702.747 118.851C702.516 120.021 703.117 121.176 703.327 122.35C703.71 124.492 702.787 126.777 703.496 128.834C704.674 132.248 708.819 132.731 711.353 134.688C712.298 135.418 713.778 137.89 714.903 137.86C716.934 137.805 718.338 134.177 718.391 132.6Z" fill="#3F3D56"/>
<path d="M732.131 160.856C746.453 160.856 758.063 149.246 758.063 134.924C758.063 120.603 746.453 108.993 732.131 108.993C717.81 108.993 706.2 120.603 706.2 134.924C706.2 149.246 717.81 160.856 732.131 160.856Z" fill="#A0616A"/>
<path d="M738.205 191.676C737.325 189.156 735.666 186.981 733.467 185.468C731.268 183.955 728.644 183.182 725.976 183.26C725.213 183.402 724.424 183.302 723.72 182.975C723.322 182.669 723.004 182.271 722.793 181.816C721.216 178.98 719.949 175.984 719.012 172.877C718.598 171.505 718.033 169.887 716.644 169.53C716.069 169.455 715.485 169.537 714.953 169.768C714.421 170 713.963 170.371 713.626 170.843C712.966 171.793 712.246 172.698 711.468 173.554C708.207 176.47 702.426 173.812 698.964 176.488C698.399 176.925 697.932 177.485 697.338 177.882C696.744 178.24 696.103 178.515 695.434 178.698C688.749 180.881 682.196 183.447 675.808 186.385C678.11 200.252 680.47 214.361 685.867 227.34C688.436 233.516 691.346 239.566 693.403 245.931C697.96 260.035 698.162 275.125 698.214 289.946C698.249 300.09 698.198 310.451 694.916 320.05C694.033 322.171 693.411 324.391 693.063 326.662C692.865 328.95 693.53 331.472 695.384 332.827C696.458 333.529 697.687 333.961 698.965 334.084C704.652 334.919 710.385 333.405 715.984 332.109C730.992 328.633 746.299 326.644 761.576 324.66L787.176 321.337C789.011 321.212 790.807 320.748 792.473 319.968C797.157 317.403 797.602 310.356 794.693 305.877C793.298 303.73 791.33 301.969 790.159 299.692C788.987 297.416 788.887 294.232 790.904 292.656C795.008 289.448 793.784 283.498 793.98 278.293C794.527 263.741 794.453 249.183 793.757 234.619C793.552 231.604 793.504 228.581 793.613 225.561C794.068 220.444 795.013 215.382 796.436 210.446L804.215 179.818C802.183 176.607 798.292 174.57 794.606 173.645C790.92 172.72 787.082 172.448 783.452 171.323C776.015 169.019 769.395 163.171 761.629 163.716C761.042 163.726 760.464 163.867 759.938 164.129C758.186 165.121 758.464 167.645 758.352 169.655C758.104 174.102 754.833 177.819 751.221 180.424C747.609 183.03 743.484 184.93 740.167 187.902C739.579 188.345 739.098 188.914 738.758 189.567C738.419 190.22 738.23 190.94 738.205 191.676V191.676Z" fill="#3F3D56"/>
<path d="M635.455 220.728C633.736 221.843 631.908 222.784 630.001 223.534C628.133 224.09 626.368 224.946 624.776 226.07C624.042 226.705 623.427 227.465 622.959 228.315C622.081 229.871 621.637 231.635 621.674 233.422C621.71 235.209 622.225 236.953 623.166 238.472C624.106 239.992 625.437 241.231 627.02 242.061C628.603 242.891 630.38 243.28 632.165 243.189C634.537 242.923 636.842 242.236 638.972 241.159L657.262 233.233C660.358 231.892 663.702 230.32 665.165 227.28C665.335 226.996 665.398 226.661 665.343 226.335C665.195 225.99 664.929 225.71 664.592 225.545C660.466 222.866 656.858 219.464 653.942 215.503C653.191 214.484 652.273 212.078 651.212 211.468C647.341 209.238 638.554 218.717 635.455 220.728Z" fill="#A0616A"/>
<path d="M830.983 214.224L837.726 221.927C839.174 223.58 840.623 225.236 841.943 226.994C845.183 231.459 847.783 236.357 849.666 241.543C851.131 245.389 852.348 249.486 851.836 253.57C851.496 255.664 850.93 257.714 850.149 259.687C848.913 263.479 847.381 267.169 845.567 270.722C844.041 273.421 842.318 276.004 840.411 278.449C835.19 285.369 829.478 291.903 823.317 298.001C821.012 300.283 820.045 303.973 819.042 307.058C817.191 312.748 812.786 317.179 808.527 321.381C807.159 322.827 805.646 324.128 804.013 325.266C801.566 326.842 798.707 327.657 795.797 327.606C794.523 327.615 793.262 327.354 792.096 326.84C789.181 325.456 787.7 322.086 787.396 318.874C787.125 315.959 787.613 313.023 788.814 310.353C792.684 301.781 802.62 298.067 809.644 291.813C813.762 288.145 816.912 283.539 820.018 278.982C822.128 276.137 823.889 273.05 825.265 269.786C826.833 265.6 826.223 260.646 827.593 256.391C828.172 254.593 829.202 252.969 829.825 251.186C830.448 249.402 830.605 247.285 829.515 245.741C828.693 244.76 827.646 243.993 826.462 243.506C821.975 241.229 816.95 238.298 816.091 233.34C815.749 230.591 816.467 227.814 818.1 225.576C819.727 223.367 821.629 221.375 823.758 219.646C825.721 217.911 829.021 215.959 830.983 214.224Z" fill="#A0616A"/>
<path d="M631.126 231.48C629.936 229.075 628.447 226.621 626.044 225.425C624.88 224.919 623.624 224.656 622.354 224.65C621.084 224.645 619.827 224.898 618.658 225.394C616.328 226.399 614.147 227.717 612.175 229.314L606.363 233.599C605.045 234.463 603.879 235.539 602.912 236.784C601.995 238.293 601.384 239.969 601.115 241.715C600.102 245.696 599.793 249.824 600.201 253.911C601.123 260.466 605.075 266.188 609.425 271.177C612.142 274.295 615.498 277.441 619.632 277.574C621.416 277.631 623.401 276.928 624.143 275.304C624.4 274.66 624.537 273.975 624.546 273.282C624.992 265.971 622.377 258.83 619.327 252.171C618.355 250.427 617.781 248.49 617.645 246.498C617.623 246.163 617.71 245.829 617.893 245.548C618.156 245.274 618.508 245.102 618.886 245.063C623.06 244.238 630.249 247.48 633.178 242.845C635.076 239.84 632.475 234.205 631.126 231.48Z" fill="#A0616A"/>
<path d="M717.031 124.44C716.975 123.841 717.063 123.238 717.288 122.68C717.956 121.497 719.702 121.819 721.019 122.151C726.316 123.487 731.897 122.278 737.351 122.59C742.804 122.902 748.947 125.628 750.044 130.979C754.002 128.173 757.415 124.667 760.113 120.634C761.626 118.369 762.945 115.775 762.739 113.058C762.442 109.14 759.155 106.21 756.111 103.725L747.038 96.3185C745.847 95.224 744.472 94.3496 742.975 93.7357C740.88 93.0197 738.595 93.3608 736.381 93.3622C729.776 93.3664 722.735 90.3606 716.861 93.3801C714.407 94.6414 712.56 96.8029 710.78 98.9105L702.682 108.496C702.072 109.107 701.627 109.862 701.387 110.691C701.157 111.862 701.758 113.016 701.967 114.19C702.35 116.332 701.427 118.617 702.137 120.674C703.314 124.088 707.459 124.571 709.993 126.528C710.938 127.258 712.418 129.73 713.544 129.7C715.574 129.646 716.978 126.017 717.031 124.44Z" fill="#3F3D56"/>
<path d="M661.954 195.504C660.907 196.18 659.988 197.035 659.24 198.031C658.289 199.469 658.096 201.283 657.279 202.801C655.532 206.049 651.444 207.204 648.894 209.868C648.489 210.234 648.207 210.717 648.088 211.25C648.076 211.974 648.319 212.678 648.773 213.24L661.07 232.572C665.164 232.932 669.092 230.367 673.188 230.708C674.717 230.835 676.282 231.363 677.749 230.911C678.799 230.445 679.783 229.844 680.676 229.121C683.119 227.576 686.374 227.396 688.424 225.357C690.392 223.401 690.643 220.34 690.619 217.566C690.652 215.156 690.407 212.751 689.888 210.398C688.078 202.978 682.403 197.283 678.845 190.71C677.113 187.51 676.171 185.637 672.505 187.834C668.82 190.043 665.422 192.968 661.954 195.504Z" fill="#3F3D56"/>
<path d="M811.296 185.728C813.607 187.229 815.69 189.054 817.482 191.147C819.356 193.563 820.417 196.519 822.216 198.99C823.96 201.385 826.335 203.24 828.313 205.445C831.314 208.79 833.346 212.87 835.342 216.896C830.467 223.253 825.152 229.261 819.435 234.873C818.799 235.623 817.961 236.174 817.02 236.461C816.38 236.529 815.734 236.437 815.138 236.194C814.542 235.951 814.016 235.565 813.606 235.069C812.72 234.14 812.092 232.994 811.246 232.029C809.248 229.968 806.584 228.68 803.728 228.393C800.897 228.12 798.048 228.081 795.21 228.276C794.587 228.346 793.957 228.24 793.391 227.97C792.97 227.68 792.629 227.288 792.398 226.832C789.069 221.167 790.14 214.054 791.315 207.589L794.01 192.753C794.4 189.92 795.154 187.149 796.253 184.508C797.274 182.326 799.557 178.627 802.364 179.28C805.193 179.938 808.916 184.016 811.296 185.728Z" fill="#3F3D56"/>
<path d="M317.954 283.14C340.598 283.14 358.954 264.75 358.954 242.065C358.954 219.381 340.598 200.991 317.954 200.991C295.311 200.991 276.954 219.381 276.954 242.065C276.954 264.75 295.311 283.14 317.954 283.14Z" fill="white"/>
<path d="M317.954 193.991C308.263 193.991 298.789 196.865 290.731 202.249C282.673 207.633 276.393 215.286 272.684 224.239C268.976 233.193 268.005 243.045 269.896 252.55C271.787 262.055 276.453 270.786 283.306 277.639C290.159 284.492 298.89 289.159 308.395 291.049C317.9 292.94 327.752 291.97 336.706 288.261C345.659 284.552 353.312 278.272 358.696 270.214C364.081 262.156 366.954 252.682 366.954 242.991C366.916 230.007 361.742 217.566 352.561 208.385C343.38 199.204 330.938 194.029 317.954 193.991V193.991ZM307.895 269.116L282.783 244.004L289.826 236.96L307.919 255.052L346.106 216.865L353.15 223.909L307.895 269.116L307.895 269.116Z" fill="#57B894"/>
</g>
<defs>
<clipPath id="clip0">
<rect width="1013.45" height="610.28" fill="white"/>
</clipPath>
</defs>
</svg>
