<svg width="800" height="800" viewBox="0 0 800 800" fill="none" xmlns="http://www.w3.org/2000/svg">
<g clip-path="url(#clip0)">
<path d="M687.087 104.64L590.76 162.64L125.605 442.64C124.032 428.462 123.241 414.179 123.236 399.88C123.299 342.828 135.974 286.785 160.004 237.303C184.034 187.82 218.586 146.616 260.237 117.771C301.888 88.9254 349.193 73.4402 397.467 72.849C445.74 72.2578 493.306 86.581 535.454 114.4L590.591 81.2L598.815 76.24C548.307 32.9155 488.646 6.93843 426.427 1.17974C364.207 -4.57896 301.852 10.105 246.252 43.6087C190.652 77.1124 143.974 128.131 111.375 191.026C78.7762 253.921 61.5268 326.244 61.5333 400C61.5333 410.187 61.8604 420.333 62.5148 430.44C63.4313 444.752 60.7454 459.065 54.795 471.578C48.8447 484.09 39.8958 494.244 29.0743 500.76L0 518.28V600L85.5982 548.44L113.319 531.72L140.633 515.28L631.004 220L686.106 186.84L800 118.24V36.56L687.087 104.64Z" fill="white"/>
<path d="M800 200L168.489 580L113.386 613.24L0 681.52V763.16L112.608 695.36L208.936 637.36L674.564 356.96C676.138 371.231 676.93 385.608 676.933 400C676.904 457.118 664.233 513.234 640.179 562.776C616.126 612.319 581.526 653.565 539.814 682.419C498.103 711.273 450.731 726.733 402.402 727.263C354.072 727.793 306.466 713.375 264.309 685.44L260.924 687.56L201.151 723.56C251.647 766.886 311.296 792.87 373.506 798.643C435.716 804.416 498.065 789.751 553.665 756.27C609.265 722.789 655.95 671.795 688.563 608.923C721.176 546.05 738.446 473.746 738.467 400C738.467 389.72 738.128 379.44 737.485 369.28C736.57 354.973 739.253 340.665 745.197 328.154C751.14 315.643 760.08 305.486 770.892 298.96L800 281.44V200Z" fill="white"/>
</g>
<defs>
<clipPath id="clip0">
<rect width="800" height="800" fill="white"/>
</clipPath>
</defs>
</svg>
