<svg width="1096" height="760" viewBox="0 0 1096 760" fill="none" xmlns="http://www.w3.org/2000/svg">
<g clip-path="url(#clip0)">
<path d="M0 0V368H368V0H0ZM187 360C185.022 360 183.089 359.414 181.444 358.315C179.8 357.216 178.518 355.654 177.761 353.827C177.004 352 176.806 349.989 177.192 348.049C177.578 346.109 178.53 344.328 179.929 342.929C181.328 341.53 183.109 340.578 185.049 340.192C186.989 339.806 189 340.004 190.827 340.761C192.654 341.518 194.216 342.8 195.315 344.444C196.414 346.089 197 348.022 197 350C197 352.652 195.947 355.196 194.071 357.071C192.196 358.946 189.652 360 187 360Z" fill="#181C35"/>
<path d="M1096 430C1096 593.89 976.51 729.89 819.9 755.62C802.082 758.542 784.055 760.007 766 760C722.661 760.01 679.745 751.48 639.703 734.9C599.662 718.319 563.279 694.012 532.634 663.366C501.989 632.721 477.681 596.339 461.101 556.297C444.52 516.255 435.991 473.339 436 430C436 247.75 583.75 100 766 100C834.878 99.8949 902.048 121.444 958.01 161.6C1041.56 221.46 1096 319.37 1096 430Z" fill="#181C35"/>
<path d="M995.068 109.894L1023.73 100.958L1026.2 75.7163C1026.2 75.7163 956.493 49.3846 934.207 95.9606C926.338 112.406 916.421 122.282 906.883 128.178C893.744 136.3 877.55 137.253 863.041 131.954C814.73 114.31 803.353 164.485 803.353 164.485C803.353 164.485 807.529 171.628 837.309 173.384C852.13 174.258 864.256 185.411 872.7 196.395C890.781 219.916 927.92 213.118 937.039 184.887C937.186 184.432 937.331 183.972 937.473 183.505C951.719 136.838 1016.57 173.994 1016.57 173.994L1020.71 131.726L995.068 109.894Z" fill="#2F2E41"/>
<path d="M799.784 224.125C819.171 224.125 834.887 208.409 834.887 189.022C834.887 169.635 819.171 153.919 799.784 153.919C780.397 153.919 764.681 169.635 764.681 189.022C764.681 208.409 780.397 224.125 799.784 224.125Z" fill="#2F2E41"/>
<path d="M782.233 376.237C833.931 376.237 875.84 334.327 875.84 282.629C875.84 230.931 833.931 189.022 782.233 189.022C730.535 189.022 688.625 230.931 688.625 282.629C688.625 334.327 730.535 376.237 782.233 376.237Z" fill="#2F2E41"/>
<path d="M779.307 381.113C814.849 381.113 843.662 352.3 843.662 316.758C843.662 281.215 814.849 252.403 779.307 252.403C743.765 252.403 714.952 281.215 714.952 316.758C714.952 352.3 743.765 381.113 779.307 381.113Z" fill="#A0616A"/>
<path d="M753.955 365.512L765.656 427.917L824.161 420.116C824.161 420.116 814.41 371.362 820.26 357.711L753.955 365.512Z" fill="#A0616A"/>
<path d="M465.332 607.331C465.332 607.331 399.027 568.328 393.176 595.63C387.326 622.932 459.482 634.633 459.482 634.633L465.332 607.331Z" fill="#A0616A"/>
<path d="M869.014 229.001C869.014 229.001 822.211 193.898 802.709 207.549C783.208 221.2 855.363 266.054 863.164 262.153C870.965 258.253 869.014 229.001 869.014 229.001Z" fill="#A0616A"/>
<path d="M824.161 386.962L753.955 398.663V429.866C753.955 429.866 687.65 451.318 687.65 461.068C687.65 470.819 670.098 507.872 670.098 507.872C670.098 507.872 627.195 539.075 662.298 576.128C662.298 576.128 675.949 597.579 666.198 599.529C656.447 601.48 634.996 607.33 644.747 615.131C654.497 622.931 800.759 675.585 812.46 671.685C824.161 667.785 913.868 529.324 913.868 494.221C913.868 459.118 876.815 408.414 876.815 408.414L833.912 402.564L824.161 386.962Z" fill="#08B952"/>
<path d="M693.501 459.118C693.501 459.118 666.198 455.218 656.447 488.371C646.697 521.523 613.544 628.782 613.544 628.782C613.544 628.782 494.584 626.832 463.382 597.579L449.731 642.433C449.731 642.433 629.145 706.788 644.747 695.087C660.348 683.386 728.603 494.221 728.603 494.221L693.501 459.118Z" fill="#08B952"/>
<path d="M870.965 414.266L876.815 408.415C876.815 408.415 950.921 328.459 948.971 308.957C948.971 308.957 909.968 260.203 861.214 273.854C861.214 273.854 839.762 221.2 872.915 223.15C906.068 225.1 1028.93 217.3 1026.98 273.854C1025.03 330.409 908.018 503.973 908.018 503.973L870.965 414.266Z" fill="#08B952"/>
<path d="M819.9 755.621C802.082 758.542 784.056 760.007 766 760.001C708.628 760.09 652.233 745.151 602.43 716.671L614.02 693.201L650.91 618.441L652.55 615.131L679.42 623.231L814.41 663.891L814.78 670.121L819.9 755.621Z" fill="#2F2E41"/>
<path d="M843.157 287.759C850.443 266.347 829.072 239.708 795.424 228.259C761.777 216.809 728.593 224.886 721.307 246.298C714.022 267.711 735.392 294.35 769.04 305.799C802.688 317.248 835.871 309.172 843.157 287.759Z" fill="#2F2E41"/>
<path d="M188.598 352.556C202.15 327.725 234.61 312.003 261.163 326.174C273.116 332.553 282.616 343.837 285.633 357.175C289.137 372.668 281.758 387.44 274.145 400.457C270.013 407.521 265.485 414.443 262.065 421.895C258.524 429.611 255.993 438.531 258.659 446.926C261.062 454.489 267.077 459.99 273.667 464.033C280.941 468.324 288.677 471.778 296.728 474.328C313.302 479.84 330.783 482.102 348.214 480.989C356.876 480.4 365.466 479.012 373.873 476.841C382.817 474.561 391.593 471.671 400.551 469.446C415.507 465.731 432.56 463.884 446.742 471.349C460.52 478.601 466.686 493.768 468.593 508.523C472.116 535.769 461.312 564.044 441.807 583.125C432.449 592.28 420.673 599.842 407.847 602.936C396.655 605.636 382.285 605.463 373.38 597.097C363.442 587.76 365.775 572.788 373.673 562.937C383.748 550.368 400.816 547.349 416.047 547.043C433.373 546.695 450.683 549.275 467.999 547.671C476.451 547.014 484.745 545.013 492.567 541.745C499.444 538.72 505.717 534.475 511.082 529.216C521.772 518.83 528.978 504.993 532.568 490.607C536.885 473.307 535.944 455.125 532.593 437.749C530.807 428.788 528.507 419.938 525.705 411.241C524.547 407.572 518.753 409.139 519.919 412.836C530.239 445.561 535.992 483.399 516.054 513.782C507.803 526.667 494.948 535.92 480.111 539.655C462.854 543.944 444.745 541.824 427.202 541.186C410.52 540.579 392.205 541.234 377.903 550.95C366.172 558.919 357.967 574.076 361.512 588.387C364.932 602.187 378.194 609.184 391.458 610.265C405.374 611.399 419.07 606.728 430.757 599.424C455.07 584.231 471.236 557.511 474.619 529.182C476.383 514.421 474.589 498.521 467.895 485.123C464.368 477.87 458.878 471.752 452.048 467.462C445.238 463.287 437.372 461.232 429.472 460.504C411.525 458.851 394.28 465.013 377.255 469.727C368.557 472.251 359.642 473.952 350.627 474.81C341.877 475.535 333.076 475.392 324.355 474.382C315.7 473.361 307.171 471.468 298.898 468.732C290.79 466.226 283.027 462.716 275.79 458.285C269.405 454.202 263.883 448.355 263.569 440.39C263.228 431.75 267.585 423.666 271.729 416.381C279.916 401.991 290.026 387.914 292.164 371.067C294.034 356.33 288.104 341.805 277.865 331.294C272.733 325.959 266.555 321.741 259.717 318.904C252.879 316.068 245.53 314.674 238.128 314.809C222.935 315.244 208.388 321.851 197.213 331.998C191.672 337.034 187.009 342.959 183.417 349.528C181.566 352.919 186.745 355.951 188.598 352.556V352.556Z" fill="#3F3D56"/>
<path d="M199 34.0005C189.479 34.0009 180.218 37.1039 172.618 42.8395C165.019 48.5751 159.496 56.631 156.885 65.7869C154.274 74.9428 154.718 84.7001 158.15 93.5811C161.581 102.462 167.814 109.983 175.902 115.005C176.03 115.084 176.165 115.152 176.293 115.229C177.91 110.491 180.968 106.377 185.04 103.464C189.112 100.551 193.993 98.9846 199 98.9846C204.007 98.9846 208.888 100.551 212.96 103.464C217.032 106.377 220.091 110.491 221.707 115.229C221.836 115.152 221.97 115.084 222.098 115.005C230.187 109.983 236.419 102.462 239.85 93.5811C243.282 84.7001 243.726 74.9428 241.115 65.7869C238.504 56.631 232.981 48.5751 225.382 42.8395C217.782 37.1039 208.521 34.0009 199 34.0005V34.0005ZM199 94.7465C195.927 94.7465 192.922 93.8351 190.367 92.1276C187.811 90.4201 185.819 87.9931 184.643 85.1536C183.467 82.3141 183.159 79.1896 183.759 76.1752C184.359 73.1607 185.839 70.3918 188.012 68.2186C190.185 66.0453 192.954 64.5653 195.968 63.9657C198.983 63.3661 202.107 63.6738 204.947 64.85C207.786 66.0262 210.213 68.0179 211.921 70.5734C213.628 73.1289 214.54 76.1333 214.54 79.2068C214.54 83.3282 212.903 87.2808 209.988 90.195C207.074 93.1093 203.121 94.7465 199 94.7465Z" fill="#605D82"/>
<path d="M124 164C128.418 164 132 160.418 132 156C132 151.582 128.418 148 124 148C119.582 148 116 151.582 116 156C116 160.418 119.582 164 124 164Z" fill="#605D82"/>
<path d="M124 200C128.418 200 132 196.418 132 192C132 187.581 128.418 184 124 184C119.582 184 116 187.581 116 192C116 196.418 119.582 200 124 200Z" fill="#605D82"/>
<path d="M124 236C128.418 236 132 232.418 132 228C132 223.581 128.418 220 124 220C119.582 220 116 223.581 116 228C116 232.418 119.582 236 124 236Z" fill="#605D82"/>
<path d="M124 272C128.418 272 132 268.419 132 264C132 259.582 128.418 256 124 256C119.582 256 116 259.582 116 264C116 268.419 119.582 272 124 272Z" fill="#605D82"/>
<path d="M244 220H154C149.582 220 146 223.581 146 228V228C146 232.418 149.582 236 154 236H244C248.418 236 252 232.418 252 228C252 223.581 248.418 220 244 220Z" fill="#605D82"/>
<path d="M244 256H154C149.582 256 146 259.582 146 264C146 268.419 149.582 272 154 272H244C248.418 272 252 268.419 252 264C252 259.582 248.418 256 244 256Z" fill="#605D82"/>
<path d="M244 184H154C149.582 184 146 187.581 146 192V192C146 196.418 149.582 200 154 200H244C248.418 200 252 196.418 252 192C252 187.581 248.418 184 244 184Z" fill="#605D82"/>
<path d="M244 148H154C149.582 148 146 151.582 146 156V156C146 160.418 149.582 164 154 164H244C248.418 164 252 160.418 252 156C252 151.582 248.418 148 244 148Z" fill="#605D82"/>
</g>
<defs>
<clipPath id="clip0">
<rect width="1096" height="760" fill="white"/>
</clipPath>
</defs>
</svg>
