<?xml version="1.0"?>
<svg xmlns="http://www.w3.org/2000/svg" width="50" height="50" viewBox="0 0 50 50">
    <path style="text-indent:0;text-align:start;line-height:normal;text-transform:none;block-progression:tb;-inkscape-font-specification:Bitstream Vera Sans" d="M 19.875 0.40625 C 15.203288 0.4922551 12.220404 2.3807765 10.9375 5.3125 C 9.7157028 8.1045814 9.9893687 11.633048 10.875 15.28125 C 10.397706 15.838571 10.021163 16.58954 10.15625 17.71875 C 10.304101 18.947691 10.642843 19.822423 11.125 20.4375 C 11.389819 20.775324 11.739614 20.806548 12.0625 20.96875 C 12.239763 22.014549 12.531146 23.063959 12.96875 23.9375 C 13.220273 24.439587 13.502211 24.905233 13.78125 25.28125 C 13.904801 25.44774 14.087846 25.547293 14.21875 25.6875 C 14.22535 26.921103 14.23134 27.949492 14.125 29.25 C 13.799759 30.0344 13.042277 30.667292 11.8125 31.28125 C 10.543234 31.914923 8.8887311 32.500929 7.21875 33.21875 C 5.5487689 33.936571 3.8279819 34.811836 2.46875 36.1875 C 1.1095181 37.563164 0.14955281 39.449336 0 41.9375 L -0.0625 43 L 1 43 L 22 43 L 25 43 L 24.34375 41 L 22 41 L 2.25 41 C 2.5327598 39.584143 3.0592734 38.450966 3.90625 37.59375 C 4.9717681 36.515351 6.4274811 35.707179 8 35.03125 C 9.5725189 34.355321 11.230516 33.82114 12.6875 33.09375 C 14.144484 32.36636 15.491155 31.411632 16.0625 29.875 L 16.09375 29.75 L 16.125 29.625 C 16.276815 27.949841 16.21875 26.760607 16.21875 25.3125 L 16.21875 24.71875 L 15.6875 24.4375 C 15.77781 24.48488 15.563711 24.34805 15.375 24.09375 C 15.186289 23.839454 14.957477 23.476663 14.75 23.0625 C 14.335046 22.234175 13.997606 21.168759 13.90625 20.3125 L 13.8125 19.5 L 12.96875 19.4375 C 12.96115 19.436878 12.867343 19.44817 12.6875 19.21875 C 12.507657 18.989327 12.274399 18.482059 12.15625 17.5 C 12.056864 16.669219 12.480627 16.379999 12.4375 16.40625 L 13.09375 16 L 12.90625 15.28125 C 11.964795 11.658031 11.801904 8.3630265 12.78125 6.125 C 13.757843 3.8932657 15.748064 2.4905767 19.90625 2.40625 C 19.91884 2.40625 19.92497 2.4062044 19.9375 2.40625 C 21.95087 2.41358 23.253751 3.0041913 23.625 3.65625 L 23.875 4.0625 L 24.34375 4.125 C 25.734708 4.3185116 26.531439 4.8786065 27.09375 5.65625 C 27.656061 6.4338935 27.968736 7.518932 28.0625 8.71875 C 28.250028 11.118386 27.55999 13.910519 27.125 15.21875 L 26.875 16 L 27.5625 16.40625 C 27.51938 16.38008 27.943811 16.669422 27.84375 17.5 C 27.725601 18.482059 27.492343 18.989327 27.3125 19.21875 C 27.132657 19.448173 27.038847 19.436878 27.03125 19.4375 L 26.1875 19.5 L 26.09375 20.3125 C 26.00107 21.177237 25.653222 22.2339 25.25 23.0625 C 25.048389 23.4768 24.839738 23.840935 24.65625 24.09375 C 24.472762 24.346565 24.279907 24.487522 24.375 24.4375 L 23.84375 24.71875 L 23.84375 25.3125 C 23.84375 26.759138 23.78566 27.948497 23.9375 29.625 L 23.9375 29.75 L 24 29.875 C 24.320496 30.736562 24.883174 31.604589 25.8125 32.15625 L 26.84375 30.4375 C 26.419953 30.185928 26.142953 29.75975 25.9375 29.25 C 25.831257 27.948982 25.83701 26.920719 25.84375 25.6875 C 25.973694 25.546009 26.159939 25.448396 26.28125 25.28125 C 26.55523 24.903753 26.818236 24.43945 27.0625 23.9375 C 27.488578 23.061932 27.795577 22.01134 27.96875 20.96875 C 28.283109 20.80644 28.616789 20.766894 28.875 20.4375 C 29.357157 19.822423 29.695899 18.947691 29.84375 17.71875 C 29.975563 16.624609 29.610546 15.902586 29.15625 15.34375 C 29.644491 13.757987 30.268134 11.19382 30.0625 8.5625 C 29.950264 7.126318 29.580939 5.6923565 28.71875 4.5 C 27.928682 3.4073826 26.647664 2.6091526 25.03125 2.28125 C 23.981568 0.91932459 22.088357 0.40625 19.90625 0.40625 L 19.875 0.40625 z M 38 26 C 31.384534 26 26 31.384534 26 38 C 26 44.615466 31.384534 50 38 50 C 44.615466 50 50 44.615466 50 38 C 50 31.384534 44.615466 26 38 26 z M 38 28 C 43.534534 28 48 32.465466 48 38 C 48 43.534534 43.534534 48 38 48 C 32.465466 48 28 43.534534 28 38 C 28 32.465466 32.465466 28 38 28 z M 37 32 L 37 37 L 32 37 L 32 39 L 37 39 L 37 44 L 39 44 L 39 39 L 44 39 L 44 37 L 39 37 L 39 32 L 37 32 z" overflow="visible" enable-background="accumulate" font-family="Bitstream Vera Sans"/>
</svg>
