<svg width="100" height="100" viewBox="0 0 100 100" fill="none" xmlns="http://www.w3.org/2000/svg">
<path d="M18.75 79.6875H15.625V85.9375H18.75V79.6875Z" fill="black"/>
<path d="M40.625 64.0625H37.5V85.9375H40.625V64.0625Z" fill="black"/>
<path d="M62.5 76.5625H59.375V85.9375H62.5V76.5625Z" fill="black"/>
<path d="M84.375 51.5625H81.25V85.9375H84.375V51.5625Z" fill="black"/>
<path d="M39.0625 30.4688C40.3569 30.4688 41.4062 29.4194 41.4062 28.125C41.4062 26.8306 40.3569 25.7812 39.0625 25.7812C37.7681 25.7812 36.7188 26.8306 36.7188 28.125C36.7188 29.4194 37.7681 30.4688 39.0625 30.4688Z" fill="black"/>
<path d="M82.8125 21.0938C84.1069 21.0938 85.1562 20.0444 85.1562 18.75C85.1562 17.4556 84.1069 16.4062 82.8125 16.4062C81.5181 16.4062 80.4688 17.4556 80.4688 18.75C80.4688 20.0444 81.5181 21.0938 82.8125 21.0938Z" fill="black"/>
<path d="M21.875 67.1875H12.5C10.7766 67.1875 9.375 68.5891 9.375 70.3125V89.0625H25V70.3125C25 68.5891 23.5984 67.1875 21.875 67.1875ZM21.875 70.3125V73.4375H12.5V70.3125H21.875ZM12.5 85.9375V76.5625H21.875V85.9375H12.5Z" fill="black"/>
<path d="M43.75 51.5625H34.375C32.6516 51.5625 31.25 52.9641 31.25 54.6875V89.0625H46.875V54.6875C46.875 52.9641 45.4734 51.5625 43.75 51.5625ZM43.75 54.6875V57.8125H34.375V54.6875H43.75ZM34.375 85.9375V60.9375H43.75V85.9375H34.375Z" fill="black"/>
<path d="M65.625 64.0625H56.25C54.5266 64.0625 53.125 65.4641 53.125 67.1875V89.0625H68.75V67.1875C68.75 65.4641 67.3484 64.0625 65.625 64.0625ZM65.625 67.1875V70.3125H56.25V67.1875H65.625ZM56.25 85.9375V73.4375H65.625V85.9375H56.25Z" fill="black"/>
<path d="M87.5 39.0625H78.125C76.4016 39.0625 75 40.4641 75 42.1875V89.0625H90.625V42.1875C90.625 40.4641 89.2234 39.0625 87.5 39.0625ZM87.5 42.1875V45.3125H78.125V42.1875H87.5ZM78.125 85.9375V48.4375H87.5V85.9375H78.125Z" fill="black"/>
<path d="M79.7625 25.9406C80.7 26.3406 81.7313 26.5625 82.8125 26.5625C87.1203 26.5625 90.625 23.0578 90.625 18.75C90.625 14.4422 87.1203 10.9375 82.8125 10.9375C78.5047 10.9375 75 14.4422 75 18.75C75 20.85 75.8422 22.75 77.1953 24.1563L65.0969 40.2875C63.8906 39.5219 62.4703 39.0625 60.9375 39.0625C59.0703 39.0625 57.3781 39.7469 56.0328 40.8437L45.625 32.3297C46.4078 31.1125 46.875 29.675 46.875 28.125C46.875 23.8172 43.3703 20.3125 39.0625 20.3125C34.7547 20.3125 31.25 23.8172 31.25 28.125C31.25 29.4516 31.6141 30.6828 32.2 31.7797L21.9187 40.7016C20.6016 39.6891 18.9734 39.0625 17.1875 39.0625C12.8797 39.0625 9.375 42.5672 9.375 46.875C9.375 51.1828 12.8797 54.6875 17.1875 54.6875C21.4953 54.6875 25 51.1828 25 46.875C25 45.4844 24.6047 44.1953 23.9641 43.0625L34.1938 34.1844C35.5344 35.2641 37.2125 35.9375 39.0625 35.9375C40.6875 35.9375 42.1969 35.4375 43.4484 34.5844L54.0531 43.2609C53.4797 44.3469 53.125 45.5641 53.125 46.875C53.125 51.1828 56.6297 54.6875 60.9375 54.6875C65.2453 54.6875 68.75 51.1828 68.75 46.875C68.75 45.2359 68.2391 43.7187 67.3734 42.4609L79.7625 25.9406ZM82.8125 14.0625C85.3969 14.0625 87.5 16.1656 87.5 18.75C87.5 21.3344 85.3969 23.4375 82.8125 23.4375C80.2281 23.4375 78.125 21.3344 78.125 18.75C78.125 16.1656 80.2281 14.0625 82.8125 14.0625ZM17.1875 51.5625C14.6031 51.5625 12.5 49.4594 12.5 46.875C12.5 44.2906 14.6031 42.1875 17.1875 42.1875C19.7719 42.1875 21.875 44.2906 21.875 46.875C21.875 49.4594 19.7719 51.5625 17.1875 51.5625ZM39.0625 32.8125C36.4781 32.8125 34.375 30.7094 34.375 28.125C34.375 25.5406 36.4781 23.4375 39.0625 23.4375C41.6469 23.4375 43.75 25.5406 43.75 28.125C43.75 30.7094 41.6469 32.8125 39.0625 32.8125ZM60.9375 51.5625C58.3531 51.5625 56.25 49.4594 56.25 46.875C56.25 44.2906 58.3531 42.1875 60.9375 42.1875C63.5219 42.1875 65.625 44.2906 65.625 46.875C65.625 49.4594 63.5219 51.5625 60.9375 51.5625Z" fill="black"/>
</svg>
