<?xml version="1.0"?>
<svg xmlns="http://www.w3.org/2000/svg" viewBox="0 0 32 32">
    <path style="text-indent:0;text-align:start;line-height:normal;text-transform:none;block-progression:tb;-inkscape-font-specification:Sans" d="M 13 3 C 9.1458514 3 6 6.1458514 6 10 C 6 12.408843 7.2311596 14.55212 9.09375 15.8125 C 5.5266132 17.342333 3 20.881262 3 25 L 5 25 C 5 20.569334 8.5693339 17 13 17 C 15.146049 17 17.062946 17.878531 18.5 19.25 L 14 23.75 L 13.78125 23.96875 L 13.71875 24.28125 L 13.03125 27.8125 L 12.71875 29.28125 L 14.1875 28.96875 L 17.71875 28.28125 L 18.03125 28.21875 L 18.25 28 L 28.125 18.125 C 29.286959 16.963041 29.286959 15.036959 28.125 13.875 C 27.544021 13.294021 26.769064 13 26 13 C 25.244588 13 24.483417 13.283214 23.90625 13.84375 L 23.875 13.875 L 19.9375 17.8125 C 19.067689 16.974622 18.033404 16.294768 16.90625 15.8125 C 18.76884 14.55212 20 12.408843 20 10 C 20 6.1458513 16.854148 3 13 3 z M 13 5 C 15.773268 5 18 7.2267317 18 10 C 18 12.773268 15.773268 15 13 15 C 10.226732 15 8 12.773268 8 10 C 8 7.2267316 10.226732 5 13 5 z M 26 15 C 26.252936 15 26.519729 15.08223 26.71875 15.28125 C 27.116791 15.679291 27.116791 16.289459 26.71875 16.6875 L 17.03125 26.375 L 15.25 26.75 L 15.625 24.96875 L 25.3125 15.28125 C 25.511521 15.082229 25.747064 15 26 15 z" overflow="visible" font-family="Sans"/>
</svg>
