<svg width="26" height="26" viewBox="0 0 26 26" fill="none" xmlns="http://www.w3.org/2000/svg">
<path d="M9.5 0.59375C6 0.59375 3.5 3.09375 3.5 6.59375C3.5 9.00259 4.63741 10.8334 6.5 12.0938C2.93286 13.6236 0 17.475 0 21.5938H1.5C1.5 17.1631 5.06933 13.0938 9.5 13.0938C11.646 13.0938 13.5629 14.4723 15 15.8438L10.5 20.3438L10.2812 20.5625L10.2188 20.875L9.53125 24.4062L9.21875 25.875L10.6875 25.5625L14.2188 24.875L14.5312 24.8125L14.75 24.5938L24.625 14.7188C25.787 13.5568 25.787 11.6307 24.625 10.4688C24.044 9.88777 23.2691 9.59375 22.5 9.59375C21.7446 9.59375 20.9834 9.87696 20.4062 10.4375L20.375 10.4688L16 14.5938C15.1302 13.7559 13.6272 12.576 12.5 12.0938C14.3626 10.8334 15.5 9.00259 15.5 6.59375C15.5 3.09375 13 0.59375 9.5 0.59375ZM9.5 1.59375C12.2733 1.59375 14.5 3.82048 14.5 6.59375C14.5 9.36702 12.2733 11.5938 9.5 11.5938C6.72673 11.5938 4.5 9.36702 4.5 6.59375C4.5 3.82048 6.72673 1.59375 9.5 1.59375ZM22.5 11C23.5 11 23.801 11.3947 24 11.5938C24.4063 12 24.398 13.4457 24 13.8438L19 18.8438L14 23.8438L10.6875 24.4062L11.625 20.9062L16.5 16.2188L21.5 11.2188C21.699 11.0197 22.2471 11 22.5 11Z" fill="black"/>
</svg>
