<?xml version="1.0"?>
<svg xmlns="http://www.w3.org/2000/svg" viewBox="0 0 50 50">
    <path style="text-indent:0;text-align:start;line-height:normal;text-transform:none;block-progression:tb;-inkscape-font-specification:Sans" d="M 24 2 C 21.012171 2 18.397554 2.6235388 16.15625 3.59375 A 1.0001 1.0001 0 1 0 16.96875 5.40625 C 18.973446 4.5384612 21.281829 4 24 4 C 27.998179 4 31.285834 4.9148381 34.03125 6.34375 A 1.0064489 1.0064489 0 1 0 34.96875 4.5625 C 31.950166 2.9914119 28.305821 2 24 2 z M 13.15625 5.3125 A 1.0001 1.0001 0 0 0 12.71875 5.5 C 9.9143803 7.4586491 7.8550121 9.9082283 6.34375 11.96875 C 5.588119 12.999011 4.9753648 13.930737 4.46875 14.65625 C 3.9621352 15.381763 3.5338031 15.931796 3.40625 16.03125 A 1.0001 1.0001 0 1 0 4.625 17.59375 C 5.1874469 17.155204 5.5660523 16.568206 6.09375 15.8125 C 6.6214477 15.056794 7.245131 14.142864 7.96875 13.15625 C 9.4159879 11.183022 11.30612 8.9286009 13.84375 7.15625 A 1.0001 1.0001 0 0 0 13.25 5.3125 A 1.0001 1.0001 0 0 0 13.15625 5.3125 z M 24.65625 7 A 1.0043849 1.0043849 0 0 0 24.9375 9 C 35.102207 9.5940914 39.398327 15.251486 41.21875 21.65625 C 43.039173 28.061014 42.083772 35.271145 41.21875 37.9375 A 1.0030471 1.0030471 0 1 0 43.125 38.5625 C 44.164978 35.356855 45.130077 28.069486 43.15625 21.125 C 41.182423 14.180514 35.959793 7.6369086 25.0625 7 A 1.0001 1.0001 0 0 0 24.84375 7 A 1.001098 1.001098 0 0 0 24.75 7 A 1.0043849 1.0043849 0 0 0 24.65625 7 z M 38.21875 7.0625 A 1.0001 1.0001 0 0 0 37.84375 8.875 C 45.663504 14.274979 46.90625 26.5 46.90625 26.5 A 1.0043849 1.0043849 0 0 0 48.90625 26.3125 C 48.90625 26.3125 47.836996 13.374021 38.96875 7.25 A 1.0001 1.0001 0 0 0 38.21875 7.0625 z M 20.8125 7.375 A 1.0001 1.0001 0 0 0 20.75 7.40625 C 13.839506 8.7782096 10.494253 13.534707 7.90625 17.5625 A 1.0054782 1.0054782 0 1 0 9.59375 18.65625 C 12.153747 14.672043 14.949494 10.56979 21.125 9.34375 A 1.0001 1.0001 0 0 0 20.8125 7.375 z M 25 12 C 21.523718 12 18.866514 13.114929 16.8125 14.78125 A 1.0004882 1.0004882 0 1 0 18.0625 16.34375 C 19.812486 14.924071 21.940282 14 25 14 C 25.883262 14 26.72685 14.07537 27.53125 14.21875 A 1.0001 1.0001 0 1 0 27.875 12.25 C 26.9514 12.085377 25.996738 12 25 12 z M 31.25 13.4375 A 1.0001 1.0001 0 0 0 31.15625 13.46875 A 1.0001 1.0001 0 0 0 30.9375 15.34375 C 35.31718 17.577304 38 22.445615 38 29 C 38 30.946585 37.76262 33.009693 37.40625 34.96875 A 1.002073 1.002073 0 0 0 39.375 35.34375 C 39.74663 33.300807 40 31.113415 40 29 C 40 21.890385 36.98207 16.182946 31.84375 13.5625 A 1.0001 1.0001 0 0 0 31.25 13.4375 z M 25 17 C 22.396182 17 20.371425 17.837492 18.84375 19.125 C 17.316075 20.412508 16.272118 22.099668 15.34375 23.84375 A 1.0064489 1.0064489 0 1 0 17.125 24.78125 C 18.009632 23.119332 18.920675 21.671242 20.125 20.65625 C 21.329325 19.641258 22.798818 19 25 19 C 27.076442 19 28.592073 19.65051 29.78125 20.6875 C 30.970427 21.72449 31.820647 23.172663 32.34375 24.78125 A 1.0001 1.0001 0 1 0 34.25 24.1875 C 33.641103 22.315087 32.623823 20.52176 31.09375 19.1875 C 29.563677 17.85324 27.512558 17 25 17 z M 14.46875 17.5625 A 1.0001 1.0001 0 0 0 13.8125 18 C 11.817568 20.698965 10.374736 23.693715 8.71875 25.84375 C 7.0627644 27.993785 5.422138 29.268651 2.5 29 A 1.0043849 1.0043849 0 0 0 2.3125 31 C 5.938362 31.333349 8.4557356 29.473215 10.3125 27.0625 C 12.169264 24.651785 13.570182 21.671535 15.40625 19.1875 A 1.0001 1.0001 0 0 0 14.65625 17.5625 A 1.0001 1.0001 0 0 0 14.5625 17.5625 A 1.0001 1.0001 0 0 0 14.46875 17.5625 z M 6.53125 20.375 A 1.0001 1.0001 0 0 0 6.375 20.40625 A 1.0001 1.0001 0 0 0 5.75 20.8125 C 4.5775937 22.411149 3.4141263 23.565965 1.96875 24.0625 A 1.0001 1.0001 0 1 0 2.625 25.9375 C 4.6436237 25.244035 6.0994063 23.739351 7.375 22 A 1.0001 1.0001 0 0 0 6.53125 20.375 z M 23.3125 21.375 A 1.0001 1.0001 0 0 0 22.96875 21.5 C 21.225567 22.44521 20.424596 24.346291 19.75 26.25 C 19.075404 28.153709 18.523676 30.159328 17.84375 31.46875 C 15.88232 35.247262 12.135112 39 7 39 A 1.0001 1.0001 0 1 0 7 41 C 13.096888 41 17.42843 36.637738 19.625 32.40625 C 20.482074 30.755672 20.994846 28.715791 21.625 26.9375 C 22.255154 25.159209 23.028683 23.74279 23.9375 23.25 A 1.0001 1.0001 0 0 0 23.3125 21.375 z M 26.78125 21.5625 A 1.0001 1.0001 0 0 0 26.4375 23.40625 C 27.424387 24.07646 28 25.846057 28 28.125 C 28 29.632403 27.456804 33.178645 26.03125 36.84375 C 24.605696 40.508855 22.29779 44.320081 18.9375 46.71875 A 1.0099602 1.0099602 0 1 0 20.09375 48.375 C 23.91446 45.647669 26.358804 41.460645 27.875 37.5625 C 29.391196 33.664355 30 30.074597 30 28.125 C 30 25.533943 29.436363 23.04379 27.53125 21.75 A 1.0001 1.0001 0 0 0 26.78125 21.5625 z M 24.84375 26 A 1.0001 1.0001 0 0 0 24 26.9375 C 24 26.9375 23.785942 30.223917 22.0625 34.09375 A 1.0001 1.0001 0 1 0 23.875 34.90625 C 25.745558 30.706083 26 27.0625 26 27.0625 A 1.0001 1.0001 0 0 0 24.84375 26 z M 14.125 27 A 1.0001 1.0001 0 0 0 13.4375 27.53125 C 12.471967 29.32877 11.410439 30.974471 9.96875 32.125 C 8.5270613 33.275529 6.7066467 34 3.96875 34 A 1.0001 1.0001 0 1 0 3.96875 36 C 7.0818533 36 9.4419387 35.105471 11.21875 33.6875 C 12.995561 32.269529 14.203283 30.39048 15.21875 28.5 A 1.0001 1.0001 0 0 0 14.21875 27 A 1.0001 1.0001 0 0 0 14.125 27 z M 33.90625 27.96875 A 1.0001 1.0001 0 0 0 33.78125 28 A 1.0001 1.0001 0 0 0 33 29 C 33 39.372533 26.96875 47.03125 26.96875 47.03125 A 1.0127363 1.0127363 0 1 0 28.5625 48.28125 C 28.5625 48.28125 35 40.145467 35 29 A 1.0001 1.0001 0 0 0 33.90625 27.96875 z M 21.0625 36.78125 A 1.0001 1.0001 0 0 0 20.34375 37.25 C 18.615643 39.869325 16.114443 42.348315 12.40625 43.96875 A 1.00122 1.00122 0 1 0 13.1875 45.8125 C 17.287307 44.020935 20.102107 41.220425 22 38.34375 A 1.0001 1.0001 0 0 0 21.0625 36.78125 z M 37.28125 38.34375 A 1.0001 1.0001 0 0 0 36.46875 39.125 C 35.684688 42.09204 34.90625 44.15625 34.90625 44.15625 A 1.0001 1.0001 0 1 0 36.78125 44.84375 C 36.78125 44.84375 37.596312 42.68996 38.40625 39.625 A 1.0001 1.0001 0 0 0 37.375 38.34375 A 1.0001 1.0001 0 0 0 37.28125 38.34375 z"/>
</svg>
