<?xml version="1.0"?>
<svg xmlns="http://www.w3.org/2000/svg" viewBox="0 0 50 50">
    <path style="text-indent:0;text-align:start;line-height:normal;text-transform:none;block-progression:tb;-inkscape-font-specification:Sans" d="M 28.90625 1.96875 A 1.0001 1.0001 0 0 0 28.78125 2 L 11.5 2 C 9.5862093 2 8 3.5567746 8 5.46875 L 8 43.90625 C 8 46.161085 9.8680904 48 12.125 48 L 37.875 48 C 40.13191 48 42 46.161085 42 43.90625 L 42 15.1875 A 1.0001 1.0001 0 0 0 42 14.78125 L 42 14.5 A 1.0001 1.0001 0 0 0 41.71875 13.78125 L 30.21875 2.28125 A 1.0001 1.0001 0 0 0 29.5 2 L 29.1875 2 A 1.0001 1.0001 0 0 0 28.90625 1.96875 z M 11.5 4 L 28 4 L 28 12.34375 C 28 14.357144 29.642856 16 31.65625 16 L 40 16 L 40 43.90625 C 40 45.075415 39.05609 46 37.875 46 L 12.125 46 C 10.94391 46 10 45.075415 10 43.90625 L 10 5.46875 C 10 4.6427254 10.661791 4 11.5 4 z M 30 4.9375 L 39.0625 14 L 31.65625 14 C 30.723644 14 30 13.276356 30 12.34375 L 30 4.9375 z M 17 25 C 16.447715 25 16 25.447715 16 26 C 16 26.552285 16.447715 27 17 27 C 17.552285 27 18 26.552285 18 26 C 18 25.447715 17.552285 25 17 25 z M 21 25 L 21 27 L 33 27 L 33 25 L 21 25 z M 17 30 C 16.447715 30 16 30.447715 16 31 C 16 31.552285 16.447715 32 17 32 C 17.552285 32 18 31.552285 18 31 C 18 30.447715 17.552285 30 17 30 z M 21 30 L 21 32 L 33 32 L 33 30 L 21 30 z M 17 35 C 16.447715 35 16 35.447715 16 36 C 16 36.552285 16.447715 37 17 37 C 17.552285 37 18 36.552285 18 36 C 18 35.447715 17.552285 35 17 35 z M 21 35 L 21 37 L 33 37 L 33 35 L 21 35 z"/>
</svg>
