<?xml version="1.0"?>
<svg xmlns="http://www.w3.org/2000/svg" viewBox="0 0 50 50">
    <path style="line-height:normal;text-indent:0;text-align:start;text-decoration-line:none;text-decoration-style:solid;text-decoration-color:#000;text-transform:none;block-progression:tb;isolation:auto;mix-blend-mode:normal" d="M 6 2 L 6 46 L 32 46 L 32 44 L 8 44 L 8 4 L 42 4 L 42 28 L 44 28 L 44 2 L 6 2 z M 14 11 L 14 13 L 36 13 L 36 11 L 14 11 z M 14 24 L 14 26 L 18 26 L 18 24 L 14 24 z M 21 24 L 21 26 L 36 26 L 36 24 L 21 24 z M 14 30 L 14 32 L 18 32 L 18 30 L 14 30 z M 21 30 L 21 32 L 28 32 L 29 32 L 30.183594 32 C 30.071594 31.686 30 31.353 30 31 C 30 30.647 30.071594 30.314 30.183594 30 L 29 30 L 28 30 L 21 30 z M 33 30 C 32.4 30 32 30.4 32 31 C 32 31.6 32.4 32 33 32 L 34 32 L 34 35 C 34 36.4 34.700391 37.699219 35.900391 38.699219 L 37.5 40 L 36 41.300781 C 34.7 42.300781 34 43.5 34 45 L 34 48 L 33 48 C 32.4 48 32 48.4 32 49 C 32 49.6 32.4 50 33 50 L 49 50 C 49.6 50 50 49.6 50 49 C 50 48.4 49.600391 48 48.900391 48 L 48 48 L 48 45 C 48 43.6 47.399609 42.300781 46.099609 41.300781 L 44.599609 40 L 46.099609 38.699219 C 47.399609 37.699219 48 36.4 48 35 L 48 32 L 49 32 C 49.6 32 50 31.6 50 31 C 50 30.4 49.6 30 49 30 L 33 30 z M 36 32 L 46 32 L 46 35 C 46 35.8 45.700391 36.499219 44.900391 37.199219 L 42.5 39.199219 C 42.2 39.399219 42.099609 39.7 42.099609 40 C 42.099609 40.3 42.2 40.599219 42.5 40.699219 L 44.900391 42.800781 C 45.700391 43.500781 46 44.1 46 45 L 46 48 L 44 48 C 44 46 41 44 41 44 C 41 44 38 46 38 48 L 36 48 L 36 45 C 36 44.1 36.399219 43.500781 37.199219 42.800781 L 39.599609 40.800781 C 39.899609 40.600781 40 40.3 40 40 C 40 39.7 39.899609 39.400781 39.599609 39.300781 L 37.199219 37.199219 C 36.399219 36.499219 36 35.8 36 35 L 36 32 z M 38 35 C 38 37.2 41 38 41 38 C 41 38 44 37.2 44 35 L 38 35 z M 14 36 L 14 38 L 18 38 L 18 36 L 14 36 z M 21 36 L 21 38 L 32 38 L 32.775391 38 C 32.434391 37.366 32.204797 36.694 32.091797 36 L 32 36 L 21 36 z"/>
</svg>
