<?xml version="1.0"?>
<svg xmlns="http://www.w3.org/2000/svg" width="50" height="50" viewBox="0 0 50 50">
    <path style="text-indent:0;text-align:start;line-height:normal;text-transform:none;block-progression:tb;-inkscape-font-specification:Bitstream Vera Sans" d="M 25 0 C 23.951631 0 22.031122 0.18446456 20.34375 1.59375 C 19.521547 2.2809982 14.598012 6.6147968 9.78125 10.875 C 4.9644876 15.135203 0.34375 19.25 0.34375 19.25 A 1.0001 1.0001 0 0 0 0 20 L 0 49 A 1.0001 1.0001 0 0 0 1 50 L 49 50 A 1.0001 1.0001 0 0 0 50 49 L 50 20 A 1.0001 1.0001 0 0 0 49.65625 19.25 C 49.65625 19.25 45.079914 15.182102 40.28125 10.9375 C 35.482586 6.6928983 30.537326 2.3323072 29.65625 1.59375 C 27.969167 0.18136285 26.046943 0 25 0 z M 25 2 C 25.823057 2 27.200083 2.1413871 28.375 3.125 C 29.088924 3.7234428 34.139914 8.1938517 38.9375 12.4375 C 43.557552 16.524113 47.678065 20.152103 48 20.4375 L 48 20.5 L 42 25.25 L 42 18 A 1.0001 1.0001 0 0 0 41 17 L 9 17 A 1.0001 1.0001 0 0 0 8.90625 17 A 1.0001 1.0001 0 0 0 8.8125 17 A 1.0001 1.0001 0 0 0 8 18 L 8 25.25 L 2 20.5 L 2 20.4375 C 2.3223127 20.151829 6.4862256 16.477781 11.125 12.375 C 15.940738 8.1157032 20.997203 3.6497518 21.625 3.125 C 22.801628 2.1422854 24.178369 2 25 2 z M 10 19 L 40 19 L 40 26.84375 L 33.65625 31.84375 C 32.391547 30.855069 30.665133 29.497443 30.03125 29 L 35 29 A 1.0001 1.0001 0 1 0 35 27 L 25 27 L 15 27 A 1.0001 1.0001 0 0 0 14.90625 27 A 1.001098 1.001098 0 0 0 14.8125 27 A 1.0043849 1.0043849 0 0 0 15 29 L 19.96875 29 C 19.335192 29.497266 17.60827 30.855168 16.34375 31.84375 L 10 26.84375 L 10 19 z M 14.71875 22 A 1.0043849 1.0043849 0 0 0 15 24 L 35 24 A 1.0001 1.0001 0 1 0 35 22 L 15 22 A 1.0001 1.0001 0 0 0 14.90625 22 A 1.001098 1.001098 0 0 0 14.8125 22 A 1.0043849 1.0043849 0 0 0 14.71875 22 z M 2 23.03125 L 14.71875 33.09375 C 9.4327764 37.226262 3.4664265 41.883299 2 43.03125 L 2 23.03125 z M 48 23.03125 L 48 43.03125 C 46.533612 41.88332 40.567437 37.226377 35.28125 33.09375 L 48 23.03125 z M 25 29 C 25.738376 29 27.084193 29.209715 28.375 30.21875 C 29.849611 31.370698 47.495024 45.167691 48 45.5625 L 48 48 L 2 48 L 2 45.5625 C 2.5049414 45.167739 20.149148 31.372437 21.625 30.21875 C 22.915807 29.209715 24.261624 29 25 29 z"/>
</svg>
