<?xml version="1.0"?>
<svg xmlns="http://www.w3.org/2000/svg" viewBox="0 0 50 50">
    <path style="line-height:normal;text-indent:0;text-align:start;text-decoration-line:none;text-decoration-style:solid;text-decoration-color:#000;text-transform:none;block-progression:tb;isolation:auto;mix-blend-mode:normal" d="M 8 20 C 4.6981361 20 2 22.698136 2 26 C 2 29.301864 4.6981361 32 8 32 C 11.301864 32 14 29.301864 14 26 C 14 22.698136 11.301864 20 8 20 z M 25 20 C 21.698136 20 19 22.698136 19 26 C 19 29.301864 21.698136 32 25 32 C 28.301864 32 31 29.301864 31 26 C 31 22.698136 28.301864 20 25 20 z M 42 20 C 38.698136 20 36 22.698136 36 26 C 36 29.301864 38.698136 32 42 32 C 45.301864 32 48 29.301864 48 26 C 48 22.698136 45.301864 20 42 20 z M 8 22 C 10.220984 22 12 23.779016 12 26 C 12 28.220984 10.220984 30 8 30 C 5.7790164 30 4 28.220984 4 26 C 4 23.779016 5.7790164 22 8 22 z M 25 22 C 27.220984 22 29 23.779016 29 26 C 29 28.220984 27.220984 30 25 30 C 22.779016 30 21 28.220984 21 26 C 21 23.779016 22.779016 22 25 22 z M 42 22 C 44.220984 22 46 23.779016 46 26 C 46 28.220984 44.220984 30 42 30 C 39.779016 30 38 28.220984 38 26 C 38 23.779016 39.779016 22 42 22 z" font-weight="400" font-family="sans-serif" white-space="normal" overflow="visible"/>
</svg>
