<?xml version="1.0"?>
<svg xmlns="http://www.w3.org/2000/svg" viewBox="0 0 50 50" enable-background="new 0 0 50 50">
    <path style="text-indent:0;text-align:start;line-height:normal;text-transform:none;block-progression:tb;-inkscape-font-specification:Bitstream Vera Sans" d="M 11 11 C 9.9555556 11 9.167207 11.603491 8.625 12.28125 A 1.0001 1.0001 0 0 0 8.59375 12.34375 L 0.1875 24.4375 A 1.0001 1.0001 0 0 0 0.1875 25.5625 L 8.53125 37.5625 L 8.59375 37.65625 C 9.0968689 38.532676 10.057773 39 11 39 L 47 39 C 48.645455 39 50 37.645455 50 36 L 50 14 C 50 12.354545 48.645455 11 47 11 L 11 11 z M 11 13 L 47 13 C 47.554545 13 48 13.445455 48 14 L 48 36 C 48 36.554545 47.554545 37 47 37 L 11 37 C 10.585714 37 10.402365 36.898479 10.28125 36.65625 A 1.0001 1.0001 0 0 0 10.21875 36.53125 L 2.21875 25 L 10.1875 13.53125 C 10.445293 13.209009 10.844444 13 11 13 z M 14 22 C 12.35499 22 11 23.35499 11 25 C 11 26.64501 12.35499 28 14 28 C 15.64501 28 17 26.64501 17 25 C 17 23.35499 15.64501 22 14 22 z M 22 22 C 20.35499 22 19 23.35499 19 25 C 19 26.64501 20.35499 28 22 28 C 23.64501 28 25 26.64501 25 25 C 25 23.35499 23.64501 22 22 22 z M 30 22 C 28.35499 22 27 23.35499 27 25 C 27 26.64501 28.35499 28 30 28 C 31.64501 28 33 26.64501 33 25 C 33 23.35499 31.64501 22 30 22 z M 38 22 C 36.35499 22 35 23.35499 35 25 C 35 26.64501 36.35499 28 38 28 C 39.64501 28 41 26.64501 41 25 C 41 23.35499 39.64501 22 38 22 z M 14 24 C 14.564128 24 15 24.435872 15 25 C 15 25.564128 14.564128 26 14 26 C 13.435872 26 13 25.564128 13 25 C 13 24.435872 13.435872 24 14 24 z M 22 24 C 22.564128 24 23 24.435872 23 25 C 23 25.564128 22.564128 26 22 26 C 21.435872 26 21 25.564128 21 25 C 21 24.435872 21.435872 24 22 24 z M 30 24 C 30.564128 24 31 24.435872 31 25 C 31 25.564128 30.564128 26 30 26 C 29.435872 26 29 25.564128 29 25 C 29 24.435872 29.435872 24 30 24 z M 38 24 C 38.564128 24 39 24.435872 39 25 C 39 25.564128 38.564128 26 38 26 C 37.435872 26 37 25.564128 37 25 C 37 24.435872 37.435872 24 38 24 z" overflow="visible" enable-background="accumulate" font-family="Bitstream Vera Sans"/>
</svg>
