<?xml version="1.0"?>
<svg xmlns="http://www.w3.org/2000/svg" viewBox="0 0 64 64">
    <path d="M 9 6 C 7.346 6 6 7.346 6 9 L 6 55 C 6 56.654 7.346 58 9 58 L 55 58 C 56.654 58 58 56.654 58 55 L 58 9 C 58 7.346 56.654 6 55 6 L 9 6 z M 9 8 L 55 8 C 55.552 8 56 8.449 56 9 L 56 55 C 56 55.551 55.552 56 55 56 L 9 56 C 8.448 56 8 55.551 8 55 L 8 9 C 8 8.449 8.448 8 9 8 z M 14 12 C 12.897 12 12 12.897 12 14 L 12 22 C 12 23.103 12.897 24 14 24 L 22 24 C 23.103 24 24 23.103 24 22 L 24 14 C 24 12.897 23.103 12 22 12 L 14 12 z M 27 12 C 26.447 12 26 12.448 26 13 L 26 17 C 26 17.552 26.447 18 27 18 L 30 18 L 30 21 C 30 21.552 30.447 22 31 22 C 31.553 22 32 21.552 32 21 L 32 18 L 36 18 L 36 22 L 33 22 C 32.447 22 32 22.448 32 23 L 32 26 L 27 26 C 26.447 26 26 26.448 26 27 L 26 32 L 24 32 L 24 29 C 24 28.448 23.553 28 23 28 L 19 28 C 18.447 28 18 28.448 18 29 L 18 33 C 18 33.552 18.447 34 19 34 L 23 34 L 26 34 L 26 37 C 26 37.552 26.447 38 27 38 L 32 38 L 32 40 L 29 40 C 28.447 40 28 40.448 28 41 L 28 45 C 28 45.552 28.447 46 29 46 L 33 46 C 33.553 46 34 45.552 34 45 L 34 43 L 34 41 L 34 37 C 34 36.448 33.553 36 33 36 L 28 36 L 28 34 L 36 34 L 36 41 L 36 43 L 36 45 C 36 45.552 36.447 46 37 46 L 41 46 C 41.553 46 42 45.552 42 45 L 42 42 L 46 42 L 46 47 L 46 51 C 46 51.552 46.447 52 47 52 L 51 52 C 51.553 52 52 51.552 52 51 L 52 47 C 52 46.448 51.553 46 51 46 L 48 46 L 48 41 C 48 40.448 47.553 40 47 40 L 42 40 L 42 38 L 47 38 L 51 38 C 51.553 38 52 37.552 52 37 L 52 35 L 52 33 L 52 27 C 52 26.448 51.553 26 51 26 L 45 26 C 44.447 26 44 26.448 44 27 C 44 27.552 44.447 28 45 28 L 50 28 L 50 32 L 47 32 C 46.447 32 46 32.448 46 33 L 46 36 L 41 36 C 40.447 36 40 36.448 40 37 L 40 40 L 38 40 L 38 34 L 41 34 C 41.553 34 42 33.552 42 33 L 42 29 C 42 28.448 41.553 28 41 28 L 37 28 C 36.447 28 36 28.448 36 29 L 36 32 L 28 32 L 28 28 L 33 28 C 33.553 28 34 27.552 34 27 L 34 24 L 37 24 C 37.553 24 38 23.552 38 23 L 38 17 C 38 16.448 37.553 16 37 16 L 32 16 L 32 13 C 32 12.448 31.553 12 31 12 L 27 12 z M 35 12 C 34.447 12 34 12.448 34 13 C 34 13.552 34.447 14 35 14 L 37 14 C 37.553 14 38 13.552 38 13 C 38 12.448 37.553 12 37 12 L 35 12 z M 42 12 C 40.897 12 40 12.897 40 14 L 40 22 C 40 23.103 40.897 24 42 24 L 50 24 C 51.103 24 52 23.103 52 22 L 52 14 C 52 12.897 51.103 12 50 12 L 42 12 z M 14 14 L 22 14 L 22.001953 22 L 14 22 L 14 14 z M 28 14 L 30 14 L 30 16 L 28 16 L 28 14 z M 42 14 L 50 14 L 50.001953 22 L 42 22 L 42 14 z M 17 16 C 16.447 16 16 16.448 16 17 L 16 19 C 16 19.552 16.447 20 17 20 L 19 20 C 19.553 20 20 19.552 20 19 L 20 17 C 20 16.448 19.553 16 19 16 L 17 16 z M 45 16 C 44.447 16 44 16.448 44 17 L 44 19 C 44 19.552 44.447 20 45 20 L 47 20 C 47.553 20 48 19.552 48 19 L 48 17 C 48 16.448 47.553 16 47 16 L 45 16 z M 27 20 C 26.447 20 26 20.448 26 21 L 26 23 C 26 23.552 26.447 24 27 24 C 27.553 24 28 23.552 28 23 L 28 21 C 28 20.448 27.553 20 27 20 z M 13 26 C 12.447 26 12 26.448 12 27 C 12 27.552 12.447 28 13 28 L 15 28 C 15.553 28 16 27.552 16 27 C 16 26.448 15.553 26 15 26 L 13 26 z M 20 30 L 22 30 L 22 32 L 20 32 L 20 30 z M 38 30 L 40 30 L 40 32 L 38 32 L 38 30 z M 13 31 C 12.447 31 12 31.448 12 32 C 12 32.552 12.447 33 13 33 L 15 33 C 15.553 33 16 32.552 16 32 C 16 31.448 15.553 31 15 31 L 13 31 z M 48 34 L 50 34 L 50 35 L 50 36 L 48 36 L 48 34 z M 13 36 C 12.447 36 12 36.448 12 37 C 12 37.552 12.447 38 13 38 L 15 38 C 15.553 38 16 37.552 16 37 C 16 36.448 15.553 36 15 36 L 13 36 z M 19 36 C 18.447 36 18 36.448 18 37 C 18 37.552 18.447 38 19 38 L 23 38 C 23.553 38 24 37.552 24 37 C 24 36.448 23.553 36 23 36 L 19 36 z M 14 40 C 12.897 40 12 40.897 12 42 L 12 50 C 12 51.103 12.897 52 14 52 L 22 52 C 23.103 52 24 51.103 24 50 L 24 42 C 24 40.897 23.103 40 22 40 L 14 40 z M 51 40 C 50.447 40 50 40.448 50 41 L 50 43 C 50 43.552 50.447 44 51 44 C 51.553 44 52 43.552 52 43 L 52 41 C 52 40.448 51.553 40 51 40 z M 14 42 L 22 42 L 22.001953 50 L 14 50 L 14 42 z M 30 42 L 32 42 L 32 43 L 32 44 L 30 44 L 30 42 z M 38 42 L 40 42 L 40 44 L 38 44 L 38 43 L 38 42 z M 17 44 C 16.447 44 16 44.448 16 45 L 16 47 C 16 47.552 16.447 48 17 48 L 19 48 C 19.553 48 20 47.552 20 47 L 20 45 C 20 44.448 19.553 44 19 44 L 17 44 z M 27 48 C 26.447 48 26 48.448 26 49 L 26 51 C 26 51.552 26.447 52 27 52 C 27.553 52 28 51.552 28 51 L 28 49 C 28 48.448 27.553 48 27 48 z M 32 48 C 31.447 48 31 48.448 31 49 L 31 51 C 31 51.552 31.447 52 32 52 C 32.553 52 33 51.552 33 51 L 33 49 C 33 48.448 32.553 48 32 48 z M 37 48 C 36.447 48 36 48.448 36 49 L 36 51 C 36 51.552 36.447 52 37 52 C 37.553 52 38 51.552 38 51 L 38 49 C 38 48.448 37.553 48 37 48 z M 42 48 C 41.447 48 41 48.448 41 49 L 41 51 C 41 51.552 41.447 52 42 52 C 42.553 52 43 51.552 43 51 L 43 49 C 43 48.448 42.553 48 42 48 z M 48 48 L 50 48 L 50 50 L 48 50 L 48 48 z"/>
</svg>
