<?xml version="1.0"?>
<svg xmlns="http://www.w3.org/2000/svg" viewBox="0 0 50 50" enable-background="new 0 0 50 50">
    <path style="text-indent:0;text-align:start;line-height:normal;text-transform:none;block-progression:tb;-inkscape-font-specification:Bitstream Vera Sans" d="M 0 0 L 0 1 L 0 15 L 0 16 L 1 16 L 15 16 L 16 16 L 16 15 L 16 1 L 16 0 L 15 0 L 1 0 L 0 0 z M 34 0 L 34 1 L 34 15 L 34 16 L 35 16 L 49 16 L 50 16 L 50 15 L 50 1 L 50 0 L 49 0 L 35 0 L 34 0 z M 2 2 L 14 2 L 14 14 L 2 14 L 2 2 z M 36 2 L 48 2 L 48 14 L 36 14 L 36 2 z M 20 3 L 20 4 L 20 8 L 20 9 L 21 9 L 24 9 L 24 13 L 21 13 L 20 13 L 20 14 L 20 19 L 10 19 L 9 19 L 9 20 L 9 23 L 6 23 L 5 23 L 5 24 L 5 28 L 5 29 L 6 29 L 10 29 L 11 29 L 11 28 L 11 25 L 16 25 L 16 28 L 16 29 L 17 29 L 21 29 L 22 29 L 22 28 L 22 21 L 24 21 L 24 24 L 24 25 L 25 25 L 31 25 L 31 28 L 31 29 L 32 29 L 35 29 L 35 31 L 33 31 L 32 31 L 32 32 L 32 35 L 30 35 L 30 32 L 30 31 L 29 31 L 25 31 L 24 31 L 24 32 L 24 36 L 24 37 L 25 37 L 28 37 L 28 39 L 25 39 L 24 39 L 24 40 L 24 44 L 24 45 L 25 45 L 29 45 L 30 45 L 30 44 L 30 41 L 33 41 L 34 41 L 34 40 L 34 37 L 36 37 L 36 44 L 33 44 L 32 44 L 32 45 L 32 49 L 32 50 L 33 50 L 37 50 L 38 50 L 38 49 L 38 46 L 40 46 L 40 49 L 40 50 L 41 50 L 45 50 L 46 50 L 46 49 L 46 45 L 46 44 L 45 44 L 42 44 L 42 36 L 42 35 L 41 35 L 38 35 L 38 33 L 49 33 L 50 33 L 50 32 L 50 24 L 50 23 L 49 23 L 46 23 L 46 20 L 46 19 L 45 19 L 41 19 L 40 19 L 40 20 L 40 24 L 40 25 L 41 25 L 44 25 L 44 27 L 37 27 L 37 20 L 37 19 L 36 19 L 26 19 L 26 15 L 29 15 L 30 15 L 30 14 L 30 8 L 30 7 L 29 7 L 26 7 L 26 4 L 26 3 L 25 3 L 21 3 L 20 3 z M 4 4 L 4 5 L 4 11 L 4 12 L 5 12 L 11 12 L 12 12 L 12 11 L 12 5 L 12 4 L 11 4 L 5 4 L 4 4 z M 38 4 L 38 5 L 38 11 L 38 12 L 39 12 L 45 12 L 46 12 L 46 11 L 46 5 L 46 4 L 45 4 L 39 4 L 38 4 z M 22 5 L 24 5 L 24 7 L 22 7 L 22 5 z M 6 6 L 10 6 L 10 10 L 6 10 L 6 6 z M 40 6 L 44 6 L 44 10 L 40 10 L 40 6 z M 26 9 L 28 9 L 28 13 L 26 13 L 26 9 z M 22 15 L 24 15 L 24 19 L 22 19 L 22 15 z M 11 21 L 20 21 L 20 27 L 18 27 L 18 24 L 18 23 L 17 23 L 11 23 L 11 21 z M 26 21 L 35 21 L 35 27 L 33 27 L 33 24 L 33 23 L 32 23 L 26 23 L 26 21 z M 42 21 L 44 21 L 44 23 L 42 23 L 42 21 z M 7 25 L 9 25 L 9 27 L 7 27 L 7 25 z M 46 25 L 48 25 L 48 31 L 38 31 L 37 31 L 37 29 L 45 29 L 46 29 L 46 28 L 46 25 z M 26 33 L 28 33 L 28 35 L 26 35 L 26 33 z M 34 33 L 36 33 L 36 35 L 34 35 L 34 33 z M 0 34 L 0 35 L 0 49 L 0 50 L 1 50 L 15 50 L 16 50 L 16 49 L 16 35 L 16 34 L 15 34 L 1 34 L 0 34 z M 2 36 L 14 36 L 14 48 L 2 48 L 2 36 z M 30 37 L 32 37 L 32 39 L 30 39 L 30 37 z M 38 37 L 40 37 L 40 44 L 38 44 L 38 37 z M 4 38 L 4 39 L 4 45 L 4 46 L 5 46 L 11 46 L 12 46 L 12 45 L 12 39 L 12 38 L 11 38 L 5 38 L 4 38 z M 6 40 L 10 40 L 10 44 L 6 44 L 6 40 z M 26 41 L 28 41 L 28 43 L 26 43 L 26 41 z M 34 46 L 36 46 L 36 48 L 34 48 L 34 46 z M 42 46 L 44 46 L 44 48 L 42 48 L 42 46 z"/>
</svg>
