<?xml version="1.0"?>
<svg xmlns="http://www.w3.org/2000/svg" viewBox="0 0 32 32">
    <path style="line-height:normal;text-indent:0;text-align:start;text-decoration-line:none;text-decoration-style:solid;text-decoration-color:#000;text-transform:none;block-progression:tb;isolation:auto;mix-blend-mode:normal" d="M 26.070312 3.9960938 C 25.732466 4.0107344 25.416138 4.1080163 25.134766 4.21875 L 25.132812 4.21875 C 24.84842 4.3311303 23.49044 4.9031118 21.433594 5.7675781 C 19.376747 6.6320444 16.702977 7.7568723 14.052734 8.8730469 C 8.7522493 11.105396 3.5449219 13.300781 3.5449219 13.300781 L 3.609375 13.277344 C 3.609375 13.277344 3.2489735 13.392984 2.8730469 13.650391 C 2.6850836 13.779094 2.4740306 13.948164 2.2890625 14.21875 C 2.1040944 14.489336 1.957942 14.901882 2.0117188 15.330078 C 2.1021968 16.050506 2.5704774 16.485697 2.9082031 16.724609 C 3.2459289 16.963522 3.5722656 17.076172 3.5722656 17.076172 L 3.5800781 17.080078 L 8.4628906 18.722656 C 8.677807 19.427337 9.9494832 23.596654 10.253906 24.558594 C 10.435545 25.132614 10.608999 25.490676 10.826172 25.767578 C 10.934902 25.906212 11.059175 26.024986 11.207031 26.117188 C 11.264451 26.152987 11.327916 26.179618 11.390625 26.205078 C 11.411385 26.213938 11.43059 26.216824 11.451172 26.224609 L 11.402344 26.210938 C 11.416394 26.216438 11.429169 26.225559 11.443359 26.230469 C 11.481362 26.243614 11.508277 26.245999 11.556641 26.255859 C 12.333094 26.487217 12.953125 26.007812 12.953125 26.007812 L 12.988281 25.980469 L 15.869141 23.355469 L 20.703125 27.0625 L 20.814453 27.111328 C 21.818462 27.549379 22.838391 27.302986 23.380859 26.869141 C 23.923326 26.435299 24.132813 25.875 24.132812 25.875 L 24.167969 25.787109 L 27.902344 6.6582031 C 28.008466 6.1835344 28.033707 5.7427558 27.917969 5.3125 C 27.802231 4.8822442 27.501123 4.4786116 27.134766 4.2636719 C 26.768408 4.0487322 26.40816 3.9814529 26.070312 3.9960938 z M 25.966797 6.0449219 C 25.964097 6.1092329 25.975999 6.102796 25.949219 6.2226562 L 25.947266 6.234375 L 22.251953 25.164062 C 22.236153 25.190932 22.205164 25.248772 22.132812 25.306641 C 22.053722 25.369891 21.993292 25.408607 21.666016 25.28125 L 15.757812 20.75 L 12.185547 24.005859 L 12.939453 19.214844 C 12.939453 19.214844 22.19575 10.586844 22.59375 10.214844 C 22.99175 9.8438437 22.859375 9.7636719 22.859375 9.7636719 C 22.886375 9.3126719 22.257812 9.6347656 22.257812 9.6347656 L 10.082031 17.175781 L 10.076172 17.15625 L 4.2421875 15.191406 L 4.2402344 15.189453 C 4.2400959 15.189398 4.2293136 15.183994 4.2285156 15.183594 C 4.2316356 15.182294 4.2558594 15.169922 4.2558594 15.169922 L 4.2890625 15.158203 L 4.3222656 15.144531 C 4.3222656 15.144531 9.5300637 12.948948 14.830078 10.716797 C 17.480085 9.6007214 20.153018 8.4754243 22.208984 7.6113281 C 24.263626 6.7477885 25.782827 6.1134525 25.867188 6.0800781 C 25.950228 6.0473981 25.911497 6.0485569 25.966797 6.0449219 z" font-weight="400" font-family="sans-serif" white-space="normal" overflow="visible"/>
</svg>
