<?xml version="1.0"?>
<svg xmlns="http://www.w3.org/2000/svg" viewBox="0 0 32 32">
    <path style="text-indent:0;text-align:start;line-height:normal;text-transform:none;block-progression:tb;-inkscape-font-specification:Sans" d="M 22.96875 4 C 22.815366 4.0020366 22.655473 4.0216118 22.5 4.0625 L 6.25 8.34375 C 4.9365565 8.6889212 4 9.8921551 4 11.25 L 4 16.6875 L 4 25 C 4 26.64497 5.3550302 28 7 28 L 25 28 C 26.64497 28 28 26.64497 28 25 L 28 12 C 28 10.35503 26.64497 9 25 9 L 11.625 9 L 23 6 L 23 8 L 25 8 L 25 6 C 25 4.8746789 24.042436 3.9857437 22.96875 4 z M 7 11 L 25 11 C 25.56503 11 26 11.43497 26 12 L 26 25 C 26 25.56503 25.56503 26 25 26 L 7 26 C 6.4349698 26 6 25.56503 6 25 L 6 12 C 6 11.43497 6.4349698 11 7 11 z M 22.5 17 C 21.671573 17 21 17.671573 21 18.5 C 21 19.328427 21.671573 20 22.5 20 C 23.328427 20 24 19.328427 24 18.5 C 24 17.671573 23.328427 17 22.5 17 z" overflow="visible" font-family="Sans"/>
</svg>
