<svg width="32" height="32" viewBox="0 0 32 32" fill="none" xmlns="http://www.w3.org/2000/svg">
<path d="M22.9688 3C22.8154 3.00204 22.6555 3.02161 22.5 3.0625L6.25 7.34375C4.93656 7.68892 4 8.89215 4 10.25V15.6875V24C4 25.645 5.35503 27 7 27H25C26.645 27 28 25.645 28 24V11C28 9.35503 26.645 8 25 8H10L23.5 4.5V7L25 7V5C25 3.87468 24.0424 2.98574 22.9688 3ZM7 9.5H25C25.565 9.5 26.5 10.435 26.5 11V24C26.5 24.565 25.565 25.5 25 25.5H20.5H16H7C6.43497 25.5 5.5 24.565 5.5 24V11C5.5 10.435 6.43497 9.5 7 9.5ZM22.5 16C21.6716 16 21 16.6716 21 17.5C21 18.3284 21.6716 19 22.5 19C23.3284 19 24 18.3284 24 17.5C24 16.6716 23.3284 16 22.5 16Z" fill="black"/>
</svg>
