<svg width="975" height="675" viewBox="0 0 975 675" fill="none" xmlns="http://www.w3.org/2000/svg">
<path d="M88.0968 294.406C70.0507 309.171 99.5807 438.773 99.5807 438.773C99.5807 438.773 106.143 636.457 120.088 645.48C134.032 654.503 165.203 644.66 177.507 643.019C189.811 641.379 179.147 519.159 161.101 474.044C143.055 428.93 157 363.308 157 363.308L254.613 382.174C254.613 382.174 195.553 432.211 198.014 442.874C200.475 453.538 263.636 489.629 275.12 491.27C286.604 492.91 308.751 425.649 328.438 379.714C348.124 333.779 193.912 304.249 193.912 304.249L172.585 264.056C172.585 264.056 106.143 279.641 88.0968 294.406Z" fill="#181C35"/>
<path d="M137.088 648.883C137.088 648.883 131.136 669.717 137.088 669.717C143.041 669.717 153.953 675.669 170.819 673.685C187.684 671.701 182.723 650.868 170.819 647.891C158.914 644.915 161.89 621.106 161.89 621.106C157.922 613.17 139.072 623.09 139.072 623.09L137.088 648.883Z" fill="#2F2E41"/>
<path d="M221.595 483.218C221.595 483.218 211.383 502.327 217.202 503.582C223.02 504.838 232.432 512.957 249.337 514.574C266.241 516.192 265.785 494.781 254.776 489.361C243.767 483.941 251.697 461.295 251.697 461.295C249.492 452.7 228.974 458.423 228.974 458.423L221.595 483.218Z" fill="#2F2E41"/>
<path d="M99.171 116.818C100.812 120.1 93.4291 161.113 93.4291 161.113L99.9913 172.597C99.9913 172.597 137.724 157.832 131.982 155.371C126.24 152.91 127.06 122.56 127.06 122.56C127.06 122.56 97.5305 113.537 99.171 116.818Z" fill="#FFB9B9"/>
<path d="M113.374 129.461C141.15 129.461 163.668 106.943 163.668 79.1669C163.668 51.3905 141.15 28.8733 113.374 28.8733C85.5968 28.8733 63.0793 51.3905 63.0793 79.1669C63.0793 106.943 85.5968 129.461 113.374 129.461Z" fill="#2F2E41"/>
<path d="M109.904 52.8949C121.398 52.8949 130.716 43.5774 130.716 32.0837C130.716 20.59 121.398 11.2726 109.904 11.2726C98.4106 11.2726 89.093 20.59 89.093 32.0837C89.093 43.5774 98.4106 52.8949 109.904 52.8949Z" fill="#2F2E41"/>
<path d="M119.009 41.5099C119.729 41.5846 120.453 41.6222 121.177 41.6224C123.91 41.6224 126.616 41.0841 129.141 40.0382C131.666 38.9924 133.961 37.4594 135.893 35.5269C137.826 33.5944 139.359 31.3002 140.404 28.7753C141.45 26.2504 141.989 23.5441 141.989 20.8112C141.989 18.0782 141.45 15.372 140.404 12.8471C139.359 10.3222 137.826 8.02795 135.893 6.09546C133.961 4.16296 131.666 2.63002 129.141 1.58416C126.616 0.538297 123.91 -8.14487e-08 121.177 0C120.453 0.000186216 119.729 0.0377409 119.009 0.112518C124.126 0.648558 128.862 3.06041 132.305 6.88273C135.748 10.7051 137.653 15.667 137.653 20.8112C137.653 25.9554 135.748 30.9173 132.305 34.7396C128.862 38.562 124.126 40.9738 119.009 41.5099Z" fill="#2F2E41"/>
<path d="M114.756 138.145C133.783 138.145 149.208 122.721 149.208 103.694C149.208 84.6672 133.783 69.2429 114.756 69.2429C95.7289 69.2429 80.3044 84.6672 80.3044 103.694C80.3044 122.721 95.7289 138.145 114.756 138.145Z" fill="#FFB9B9"/>
<path d="M65.1296 156.601C54.466 159.062 36.4199 185.311 36.4199 185.311L65.1296 214.02C65.1296 214.02 85.6365 291.125 88.0973 294.406C104.219 315.901 176.687 268.157 176.687 268.157C176.687 268.157 173.816 244.78 175.457 233.296C177.035 222.251 169.305 200.075 169.305 200.075C169.305 200.075 196.374 188.592 190.632 177.108C184.89 165.624 149.618 139.376 134.853 148.399C120.088 157.421 90.5583 148.399 90.5583 148.399C90.5583 148.399 75.7932 154.14 65.1296 156.601Z" fill="#08B952"/>
<path d="M274.71 321.885C274.71 321.885 321.466 362.078 332.95 353.876C344.434 345.673 288.655 316.964 288.655 316.964L274.71 321.885Z" fill="#FFB9B9"/>
<path d="M64.7193 307.941C71.2816 315.323 102.452 296.457 98.4559 288.078C94.4597 279.7 69.641 296.457 69.641 296.457C69.641 296.457 58.1571 300.558 64.7193 307.941Z" fill="#FFB9B9"/>
<path d="M65.1295 196.794L30.6779 260.775C30.6779 260.775 70.0511 293.586 74.9728 294.406C79.8944 295.226 65.1294 316.553 65.1294 316.553C65.1294 316.553 20.8345 285.383 3.60875 269.798C-13.617 254.213 36.4198 185.311 36.4198 185.311L51.1848 176.288L65.1295 196.794Z" fill="#08B952"/>
<path d="M165.203 194.333L205.396 256.674C205.396 256.674 266.917 325.576 275.12 328.857C283.323 332.138 293.166 316.553 293.166 316.553L219.341 227.144L191.452 177.108L180.788 173.006L165.203 194.333Z" fill="#08B952"/>
<path d="M113.373 83.5725C132.53 83.5725 148.059 74.2551 148.059 62.7614C148.059 51.2677 132.53 41.9502 113.373 41.9502C94.2171 41.9502 78.6877 51.2677 78.6877 62.7614C78.6877 74.2551 94.2171 83.5725 113.373 83.5725Z" fill="#2F2E41"/>
<path d="M210.678 511.786C209.542 511.787 208.452 512.239 207.648 513.043C206.844 513.847 206.392 514.937 206.391 516.074V662.317C206.392 663.454 206.844 664.544 207.648 665.348C208.452 666.151 209.542 666.604 210.678 666.605H709.35C710.487 666.604 711.576 666.151 712.38 665.347C713.184 664.544 713.636 663.454 713.638 662.317V516.073C713.636 514.937 713.184 513.847 712.38 513.043C711.576 512.239 710.487 511.787 709.35 511.786L210.678 511.786Z" fill="#252B50"/>
<path d="M217.135 655.86H702.892V522.531H217.135V655.86Z" fill="#181C35"/>
<path d="M641.577 628.201C640.643 628.199 639.719 628.382 638.856 628.739C637.993 629.095 637.209 629.618 636.549 630.278C635.889 630.938 635.365 631.721 635.007 632.583C634.65 633.445 634.466 634.37 634.466 635.303C634.466 636.237 634.65 637.161 635.007 638.023C635.365 638.885 635.889 639.669 636.549 640.328C637.209 640.988 637.993 641.511 638.856 641.868C639.719 642.224 640.643 642.407 641.577 642.406H669.987C671.871 642.406 673.678 641.657 675.01 640.325C676.342 638.993 677.09 637.187 677.09 635.303C677.09 633.419 676.342 631.613 675.01 630.281C673.678 628.949 671.871 628.201 669.987 628.201H641.577Z" fill="#08B952"/>
<path d="M677.091 614.424H349.124V616.293H677.091V614.424Z" fill="#E6E6E6"/>
<path d="M282 639C309.614 639 332 616.614 332 589C332 561.386 309.614 539 282 539C254.386 539 232 561.386 232 589C232 616.614 254.386 639 282 639Z" fill="#08B952"/>
<g clip-path="url(#clip0)">
<path d="M282.03 559C275.976 559.005 270.172 561.407 265.892 565.68C261.612 569.952 259.205 575.746 259.2 581.788C259.208 584.308 259.616 586.811 260.408 589.203C260.687 589.998 261.267 590.652 262.024 591.024C262.781 591.396 263.653 591.456 264.455 591.193C265.251 590.914 265.906 590.335 266.278 589.58C266.651 588.824 266.712 587.953 266.448 587.153C265.785 585.277 265.478 583.294 265.542 581.306C265.628 578.111 266.644 575.01 268.467 572.381C270.289 569.753 272.838 567.711 275.803 566.504C278.768 565.298 282.021 564.979 285.165 565.586C288.309 566.194 291.207 567.701 293.507 569.925C295.807 572.15 297.408 574.994 298.116 578.111C298.824 581.228 298.607 584.484 297.493 587.48C296.378 590.477 294.414 593.084 291.84 594.985C289.266 596.886 286.193 597.998 282.996 598.186C282.996 598.186 279.795 598.366 278.225 598.608C277.44 598.728 276.836 598.849 276.413 598.909C276.371 598.922 276.326 598.923 276.284 598.913C276.241 598.902 276.202 598.88 276.171 598.849C276.14 598.818 276.118 598.779 276.107 598.737C276.097 598.694 276.098 598.649 276.111 598.608L276.655 595.955L279.614 582.33C279.761 581.527 279.588 580.697 279.134 580.018C278.679 579.339 277.977 578.863 277.177 578.691C276.377 578.518 275.541 578.663 274.846 579.095C274.151 579.527 273.652 580.212 273.453 581.004C273.453 581.004 266.327 614.161 266.267 614.523C266.164 614.932 266.145 615.358 266.211 615.775C266.276 616.191 266.426 616.591 266.649 616.948C266.872 617.307 267.165 617.616 267.511 617.859C267.857 618.102 268.247 618.273 268.661 618.362C269.074 618.451 269.5 618.456 269.916 618.377C270.331 618.298 270.726 618.136 271.077 617.902C271.428 617.668 271.729 617.365 271.961 617.012C272.193 616.66 272.351 616.264 272.427 615.849C272.487 615.488 273.453 611.087 273.453 611.087C273.797 609.474 274.631 608.005 275.841 606.883C277.052 605.761 278.581 605.039 280.218 604.817C280.943 604.696 283.781 604.516 283.781 604.516C289.656 604.048 295.122 601.331 299.036 596.933C302.95 592.535 305.01 586.797 304.783 580.919C304.557 575.041 302.063 569.477 297.822 565.392C293.582 561.307 287.923 559.017 282.03 559ZM283.66 611.448C282.92 611.294 282.151 611.362 281.45 611.644C280.749 611.926 280.148 612.409 279.721 613.032C279.295 613.656 279.064 614.391 279.056 615.145C279.048 615.9 279.265 616.639 279.678 617.271C280.092 617.903 280.683 618.398 281.379 618.694C282.074 618.99 282.841 619.074 283.584 618.934C284.327 618.795 285.012 618.439 285.552 617.912C286.093 617.384 286.464 616.708 286.62 615.97C286.727 615.479 286.735 614.971 286.643 614.477C286.552 613.983 286.363 613.512 286.088 613.091C285.812 612.671 285.456 612.309 285.039 612.027C284.623 611.745 284.154 611.548 283.66 611.448Z" fill="#F1F3F2"/>
</g>
<path d="M349.641 603.989L348.605 602.434L382.685 579.713L406.055 590.931L439.671 569.455L506.539 597.979L559.789 571.821L611.498 592.784L676.471 535.238L677.71 536.637L611.87 594.952L559.862 573.867L506.593 600.034L439.845 571.561L406.186 593.067L382.836 581.86L349.641 603.989Z" fill="#40FF90"/>
<path d="M355.197 629.177C354.399 629.176 353.609 629.332 352.871 629.637C352.133 629.942 351.463 630.389 350.898 630.953C350.333 631.517 349.885 632.187 349.579 632.925C349.274 633.662 349.116 634.452 349.116 635.251C349.116 636.049 349.274 636.839 349.579 637.576C349.885 638.314 350.333 638.984 350.898 639.548C351.463 640.112 352.133 640.559 352.871 640.864C353.609 641.169 354.399 641.325 355.197 641.324H418.735C420.345 641.322 421.888 640.681 423.025 639.542C424.162 638.404 424.801 636.86 424.801 635.251C424.801 633.641 424.162 632.097 423.025 630.959C421.888 629.82 420.345 629.179 418.735 629.177H355.197Z" fill="#E6E6E6"/>
<path d="M275.613 43.354C274.477 43.3554 273.387 43.8075 272.583 44.6114C271.779 45.4152 271.327 46.5051 271.325 47.6418V193.886C271.327 195.022 271.779 196.112 272.583 196.916C273.387 197.72 274.477 198.172 275.613 198.173H774.285C775.422 198.172 776.511 197.72 777.315 196.916C778.119 196.112 778.571 195.022 778.572 193.886V47.6418C778.571 46.505 778.119 45.4152 777.315 44.6114C776.511 43.8075 775.422 43.3553 774.285 43.354L275.613 43.354Z" fill="#252B50"/>
<path d="M282.071 187.428H767.827V54.099H282.071V187.428Z" fill="#181C35"/>
<path d="M706.513 159.769C704.629 159.769 702.823 160.517 701.491 161.849C700.159 163.181 699.411 164.987 699.411 166.871C699.411 168.755 700.159 170.561 701.491 171.893C702.823 173.225 704.629 173.974 706.513 173.974H734.924C736.808 173.974 738.614 173.225 739.946 171.893C741.278 170.561 742.027 168.755 742.027 166.871C742.027 164.987 741.278 163.181 739.946 161.849C738.614 160.517 736.808 159.769 734.924 159.769H706.513Z" fill="#08B952"/>
<path d="M742.026 145.991H414.059V147.86H742.026V145.991Z" fill="#E6E6E6"/>
<path d="M346.518 180.117C374.132 180.117 396.518 157.732 396.518 130.117C396.518 102.503 374.132 80.1173 346.518 80.1173C318.904 80.1173 296.518 102.503 296.518 130.117C296.518 157.732 318.904 180.117 346.518 180.117Z" fill="#08B952"/>
<path d="M414.577 135.556L413.541 134.001L447.621 111.281L470.991 122.499L504.606 101.023L505.06 101.216L571.475 129.547L624.725 103.389L676.433 124.352L741.406 66.8044L742.645 68.2034L676.805 126.519L624.798 105.435L571.53 131.602L504.781 103.129L471.121 124.634L447.772 113.426L414.577 135.556Z" fill="#40FF90"/>
<path d="M420.132 160.745C418.523 160.748 416.98 161.388 415.843 162.527C414.706 163.666 414.067 165.209 414.067 166.819C414.067 168.428 414.706 169.972 415.843 171.111C416.98 172.249 418.523 172.89 420.132 172.892H483.67C485.281 172.892 486.826 172.252 487.965 171.113C489.104 169.974 489.744 168.43 489.744 166.819C489.744 165.208 489.104 163.663 487.965 162.524C486.826 161.385 485.281 160.745 483.67 160.745H420.132Z" fill="#E6E6E6"/>
<path d="M471.801 277.57C470.664 277.571 469.574 278.023 468.77 278.827C467.966 279.631 467.514 280.721 467.513 281.858V428.101C467.514 429.238 467.966 430.328 468.77 431.132C469.574 431.935 470.664 432.388 471.801 432.389H970.472C971.609 432.388 972.699 431.935 973.503 431.132C974.306 430.328 974.759 429.238 974.76 428.101V281.857C974.759 280.721 974.306 279.631 973.503 278.827C972.699 278.023 971.609 277.571 970.472 277.57L471.801 277.57Z" fill="#252B50"/>
<path d="M478.259 421.644H964.015V288.315H478.259V421.644Z" fill="#181C35"/>
<path d="M902.701 393.984C900.817 393.984 899.01 394.733 897.678 396.065C896.346 397.397 895.598 399.203 895.598 401.087C895.598 402.971 896.346 404.777 897.678 406.109C899.01 407.441 900.817 408.19 902.701 408.19H931.111C932.995 408.19 934.802 407.441 936.134 406.109C937.466 404.777 938.214 402.971 938.214 401.087C938.214 399.203 937.466 397.397 936.134 396.065C934.802 394.733 932.995 393.984 931.111 393.984H902.701Z" fill="#08B952"/>
<path d="M938.214 380.208H610.247V382.076H938.214V380.208Z" fill="#E6E6E6"/>
<path d="M540 405C567.614 405 590 382.614 590 355C590 327.386 567.614 305 540 305C512.386 305 490 327.386 490 355C490 382.614 512.386 405 540 405Z" fill="#08B952"/>
<path d="M569.844 349.12C571.091 342.816 564.737 339.427 556.049 337.166L558.867 328.626L551.984 327.33L549.24 335.645C547.433 335.305 545.575 334.983 543.729 334.665L546.493 326.295L539.616 325L536.795 333.537C535.298 333.279 533.828 333.025 532.401 332.757L532.409 332.73L522.92 330.94L521.089 336.492C521.089 336.492 526.195 337.376 526.087 337.431C527.039 337.517 527.908 337.882 528.508 338.447C529.108 339.013 529.39 339.733 529.293 340.454L526.083 350.183C526.326 350.229 526.565 350.286 526.798 350.356L526.073 350.22L521.571 363.848C521.472 364.086 521.312 364.307 521.1 364.498C520.888 364.689 520.628 364.846 520.335 364.961C520.041 365.076 519.721 365.146 519.392 365.167C519.063 365.188 518.732 365.159 518.418 365.083C518.487 365.159 513.416 364.14 513.416 364.14L510 370.092L518.957 371.778C520.623 372.094 522.255 372.424 523.86 372.735L521.013 381.374L527.886 382.669L530.708 374.124C532.584 374.509 534.406 374.864 536.19 375.199L533.379 383.704L540.26 385L543.108 376.379C554.842 378.056 563.667 377.379 567.377 369.364C570.369 362.908 567.23 359.185 561.056 356.755C565.552 355.969 568.939 353.735 569.842 349.12L569.844 349.12ZM554.12 365.775C551.992 372.23 537.607 368.742 532.94 367.865L536.719 356.422C541.383 357.301 556.339 359.043 554.122 365.775H554.12ZM556.247 349.027C554.306 354.898 542.332 351.915 538.446 351.184L541.871 340.805C545.758 341.536 558.269 342.901 556.247 349.027Z" fill="white"/>
<path d="M610.765 369.772L609.728 368.217L643.808 345.497L667.179 356.715L700.793 335.24L701.248 335.433L767.661 363.763L820.913 337.606L872.621 358.567L937.594 301.021L938.833 302.421L872.993 360.735L820.986 339.651L767.716 365.818L700.969 337.346L667.308 358.85L643.96 347.643L610.765 369.772Z" fill="#40FF90"/>
<path d="M616.32 394.961C614.71 394.961 613.165 395.601 612.026 396.74C610.887 397.879 610.247 399.424 610.247 401.035C610.247 402.646 610.887 404.19 612.026 405.329C613.165 406.468 614.71 407.108 616.32 407.108H679.858C681.469 407.108 683.014 406.468 684.153 405.329C685.292 404.19 685.932 402.646 685.932 401.035C685.932 399.424 685.292 397.879 684.153 396.74C683.014 395.601 681.469 394.961 679.858 394.961H616.32Z" fill="#E6E6E6"/>
<mask id="path-38-outside-1" maskUnits="userSpaceOnUse" x="316" y="99" width="62" height="62" fill="black">
<rect fill="white" x="316" y="99" width="62" height="62"/>
<path d="M350.458 118.534L354.188 123.044C356.06 125.308 365.176 134.285 364.183 143.472C363.679 148.143 361.403 152.623 357.507 155.812L357.358 155.933L356.618 156.526H356.581C352.74 159.288 348.137 160.375 343.71 159.887C338.98 159.366 334.445 157.049 331.25 153.062L328.273 149.349C329.842 149.9 331.482 150.276 333.165 150.461C333.827 150.534 334.491 150.577 335.15 150.59C337.532 153.349 340.804 154.958 344.212 155.333C347.779 155.726 351.493 154.767 354.493 152.363L354.492 152.362L354.599 152.277C357.533 149.877 359.242 146.499 359.63 142.974C360.023 139.408 359.901 137.776 356.926 133.453L353.277 128.527L351.384 125.757C349.391 123.274 346.715 117.087 349.298 115.498C354.062 113.291 356.616 112.935 361.346 113.456C365.773 113.943 369.159 115.369 372.307 118.9L372.343 118.912L372.937 119.652C376.134 123.639 377.408 128.569 376.887 133.3H376.876C376.355 138.034 374.04 142.57 370.059 145.761L366.347 148.736C366.898 147.168 367.274 145.529 367.459 143.845C367.532 143.183 367.574 142.52 367.587 141.859C370.353 139.473 371.965 136.203 372.34 132.8L372.329 132.799C372.722 129.232 371.763 125.518 369.358 122.519L369.33 122.483C366.927 119.506 363.511 117.865 359.969 117.383C355.209 116.735 353.047 117.094 350.453 118.547L350.458 118.534ZM345.392 144.041C342.148 146.27 338.255 147.699 333.526 147.179C328.796 146.658 324.261 144.34 321.064 140.354L320.471 139.613L320.474 139.577C317.712 135.736 316.625 131.134 317.113 126.707C317.634 121.978 319.951 117.443 323.939 114.247L327.652 111.27C327.1 112.841 326.725 114.481 326.54 116.162C326.467 116.825 326.424 117.486 326.411 118.147C323.652 120.529 322.043 123.799 321.667 127.208C321.275 130.775 322.233 134.49 324.638 137.489L324.637 137.49L324.666 137.526C327.07 140.503 330.474 142.235 334.026 142.627C336.87 142.94 339.878 143.579 343.837 142.047L338.621 135.754C336.332 133.092 328.964 126.498 329.818 116.524C330.306 112.098 332.368 107.841 335.899 104.694L335.902 104.657L336.642 104.063C340.63 100.867 345.56 99.5919 350.29 100.113L350.29 100.125C355.024 100.646 359.56 102.961 362.751 106.942L365.727 110.653C364.156 110.102 362.516 109.727 360.836 109.542C360.173 109.469 359.511 109.426 358.85 109.413C356.463 106.647 353.193 105.035 349.79 104.661L349.789 104.673C346.222 104.28 342.509 105.238 339.509 107.642C336.509 110.046 334.765 113.464 334.372 117.031C334.071 122.621 335.801 124.639 338.624 129.476L342.986 135.531C347.301 141.716 345.391 144.046 345.391 144.046L345.392 144.041ZM324.638 137.489L324.667 137.525Z"/>
</mask>
<path d="M350.458 118.534L354.188 123.044C356.06 125.308 365.176 134.285 364.183 143.472C363.679 148.143 361.403 152.623 357.507 155.812L357.358 155.933L356.618 156.526H356.581C352.74 159.288 348.137 160.375 343.71 159.887C338.98 159.366 334.445 157.049 331.25 153.062L328.273 149.349C329.842 149.9 331.482 150.276 333.165 150.461C333.827 150.534 334.491 150.577 335.15 150.59C337.532 153.349 340.804 154.958 344.212 155.333C347.779 155.726 351.493 154.767 354.493 152.363L354.492 152.362L354.599 152.277C357.533 149.877 359.242 146.499 359.63 142.974C360.023 139.408 359.901 137.776 356.926 133.453L353.277 128.527L351.384 125.757C349.391 123.274 346.715 117.087 349.298 115.498C354.062 113.291 356.616 112.935 361.346 113.456C365.773 113.943 369.159 115.369 372.307 118.9L372.343 118.912L372.937 119.652C376.134 123.639 377.408 128.569 376.887 133.3H376.876C376.355 138.034 374.04 142.57 370.059 145.761L366.347 148.736C366.898 147.168 367.274 145.529 367.459 143.845C367.532 143.183 367.574 142.52 367.587 141.859C370.353 139.473 371.965 136.203 372.34 132.8L372.329 132.799C372.722 129.232 371.763 125.518 369.358 122.519L369.33 122.483C366.927 119.506 363.511 117.865 359.969 117.383C355.209 116.735 353.047 117.094 350.453 118.547L350.458 118.534ZM345.392 144.041C342.148 146.27 338.255 147.699 333.526 147.179C328.796 146.658 324.261 144.34 321.064 140.354L320.471 139.613L320.474 139.577C317.712 135.736 316.625 131.134 317.113 126.707C317.634 121.978 319.951 117.443 323.939 114.247L327.652 111.27C327.1 112.841 326.725 114.481 326.54 116.162C326.467 116.825 326.424 117.486 326.411 118.147C323.652 120.529 322.043 123.799 321.667 127.208C321.275 130.775 322.233 134.49 324.638 137.489L324.637 137.49L324.666 137.526C327.07 140.503 330.474 142.235 334.026 142.627C336.87 142.94 339.878 143.579 343.837 142.047L338.621 135.754C336.332 133.092 328.964 126.498 329.818 116.524C330.306 112.098 332.368 107.841 335.899 104.694L335.902 104.657L336.642 104.063C340.63 100.867 345.56 99.5919 350.29 100.113L350.29 100.125C355.024 100.646 359.56 102.961 362.751 106.942L365.727 110.653C364.156 110.102 362.516 109.727 360.836 109.542C360.173 109.469 359.511 109.426 358.85 109.413C356.463 106.647 353.193 105.035 349.79 104.661L349.789 104.673C346.222 104.28 342.509 105.238 339.509 107.642C336.509 110.046 334.765 113.464 334.372 117.031C334.071 122.621 335.801 124.639 338.624 129.476L342.986 135.531C347.301 141.716 345.391 144.046 345.391 144.046L345.392 144.041ZM324.638 137.489L324.667 137.525Z" fill="white"/>
<path d="M350.458 118.534L350.844 118.216L350.304 117.564L349.993 118.35L350.458 118.534ZM354.188 123.044L354.573 122.725L354.573 122.725L354.188 123.044ZM364.183 143.472L363.686 143.419L363.686 143.419L364.183 143.472ZM357.507 155.812L357.822 156.201L357.824 156.199L357.507 155.812ZM357.358 155.933L357.671 156.323L357.673 156.321L357.358 155.933ZM356.618 156.526V157.026H356.793L356.93 156.917L356.618 156.526ZM356.581 156.526V156.026H356.419L356.289 156.121L356.581 156.526ZM343.71 159.887L343.655 160.384L343.656 160.384L343.71 159.887ZM331.25 153.062L331.641 152.749L331.64 152.749L331.25 153.062ZM328.273 149.349L328.439 148.877L326.789 148.298L327.883 149.662L328.273 149.349ZM333.165 150.461L333.11 150.958L333.11 150.958L333.165 150.461ZM335.15 150.59L335.529 150.263L335.383 150.094L335.16 150.09L335.15 150.59ZM344.212 155.333L344.266 154.836L344.266 154.836L344.212 155.333ZM354.493 152.363L354.806 152.753L355.757 151.991L354.545 151.865L354.493 152.363ZM354.492 152.362L354.179 151.973L353.233 152.735L354.441 152.86L354.492 152.362ZM354.599 152.277L354.912 152.666L354.915 152.664L354.599 152.277ZM359.63 142.974L359.133 142.919L359.133 142.919L359.63 142.974ZM356.926 133.453L357.338 133.169L357.333 133.162L357.328 133.155L356.926 133.453ZM353.277 128.527L352.864 128.809L352.87 128.817L352.875 128.825L353.277 128.527ZM351.384 125.757L351.797 125.475L351.786 125.459L351.774 125.444L351.384 125.757ZM349.298 115.498L349.088 115.044L349.061 115.056L349.036 115.072L349.298 115.498ZM361.346 113.456L361.292 113.953L361.292 113.953L361.346 113.456ZM372.307 118.9L371.934 119.232L372.023 119.332L372.149 119.374L372.307 118.9ZM372.343 118.912L372.733 118.599L372.641 118.484L372.501 118.437L372.343 118.912ZM372.937 119.652L373.327 119.339L373.327 119.339L372.937 119.652ZM376.887 133.3V133.8H377.335L377.384 133.354L376.887 133.3ZM376.876 133.3V132.8H376.428L376.379 133.245L376.876 133.3ZM370.059 145.761L369.746 145.371L369.746 145.371L370.059 145.761ZM366.347 148.736L365.875 148.57L365.296 150.22L366.66 149.126L366.347 148.736ZM367.459 143.845L366.962 143.791L366.962 143.791L367.459 143.845ZM367.587 141.859L367.26 141.48L367.091 141.626L367.087 141.85L367.587 141.859ZM372.34 132.8L372.837 132.855L372.893 132.35L372.387 132.302L372.34 132.8ZM372.329 132.799L371.832 132.744L371.776 133.249L372.282 133.297L372.329 132.799ZM369.358 122.519L368.966 122.829L368.968 122.832L369.358 122.519ZM369.33 122.483L369.722 122.172L369.719 122.169L369.33 122.483ZM359.969 117.383L359.902 117.879L359.902 117.879L359.969 117.383ZM350.453 118.547L349.988 118.363L349.472 119.67L350.698 118.983L350.453 118.547ZM345.392 144.041L345.884 144.131L346.101 142.946L345.109 143.629L345.392 144.041ZM333.526 147.179L333.471 147.676L333.471 147.676L333.526 147.179ZM321.064 140.354L320.674 140.667L320.674 140.667L321.064 140.354ZM320.471 139.613L319.972 139.571L319.955 139.77L320.08 139.926L320.471 139.613ZM320.474 139.577L320.972 139.619L320.988 139.435L320.88 139.285L320.474 139.577ZM317.113 126.707L316.616 126.652L316.616 126.652L317.113 126.707ZM323.939 114.247L324.251 114.637L324.251 114.637L323.939 114.247ZM327.652 111.27L328.124 111.436L328.704 109.786L327.339 110.88L327.652 111.27ZM326.54 116.162L327.037 116.217L327.037 116.217L326.54 116.162ZM326.411 118.147L326.738 118.526L326.907 118.38L326.911 118.157L326.411 118.147ZM321.667 127.208L321.17 127.154L321.17 127.154L321.667 127.208ZM324.638 137.489L325.135 137.542L325.157 137.337L325.028 137.177L324.638 137.489ZM324.637 137.49L324.14 137.438L324.118 137.644L324.249 137.805L324.637 137.49ZM324.666 137.526L325.055 137.212L325.055 137.211L324.666 137.526ZM334.026 142.627L333.971 143.124L333.971 143.124L334.026 142.627ZM343.837 142.047L344.017 142.513L344.665 142.263L344.222 141.728L343.837 142.047ZM338.621 135.754L339.006 135.435L339 135.428L338.621 135.754ZM329.818 116.524L329.321 116.469L329.32 116.481L329.818 116.524ZM335.899 104.694L336.231 105.067L336.38 104.935L336.397 104.736L335.899 104.694ZM335.902 104.657L335.589 104.267L335.422 104.401L335.404 104.614L335.902 104.657ZM336.642 104.063L336.33 103.673L336.33 103.673L336.642 104.063ZM350.29 100.113L350.79 100.13L350.806 99.6668L350.345 99.616L350.29 100.113ZM350.29 100.125L349.79 100.108L349.774 100.571L350.235 100.622L350.29 100.125ZM362.751 106.942L362.361 107.254L362.361 107.255L362.751 106.942ZM365.727 110.653L365.561 111.125L367.21 111.704L366.117 110.34L365.727 110.653ZM360.836 109.542L360.891 109.045L360.89 109.045L360.836 109.542ZM358.85 109.413L358.472 109.74L358.617 109.909L358.84 109.913L358.85 109.413ZM349.79 104.661L349.845 104.164L349.337 104.108L349.292 104.617L349.79 104.661ZM349.789 104.673L349.735 105.17L350.243 105.226L350.288 104.716L349.789 104.673ZM339.509 107.642L339.196 107.252L339.196 107.252L339.509 107.642ZM334.372 117.031L333.875 116.977L333.873 116.991L333.872 117.005L334.372 117.031ZM338.624 129.476L338.192 129.728L338.204 129.749L338.218 129.768L338.624 129.476ZM342.986 135.531L343.396 135.245L343.391 135.239L342.986 135.531ZM345.391 144.046L344.899 143.956L345.777 144.363L345.391 144.046ZM350.073 118.853L353.802 123.362L354.573 122.725L350.844 118.216L350.073 118.853ZM353.802 123.362C354.773 124.536 357.472 127.29 359.841 130.934C362.209 134.578 364.164 138.998 363.686 143.419L364.68 143.526C365.195 138.76 363.089 134.097 360.679 130.39C358.27 126.682 355.475 123.816 354.573 122.725L353.802 123.362ZM363.686 143.419C363.195 147.964 360.981 152.322 357.19 155.426L357.824 156.199C361.825 152.923 364.163 148.322 364.68 143.526L363.686 143.419ZM357.192 155.424L357.044 155.544L357.673 156.321L357.822 156.201L357.192 155.424ZM357.046 155.543L356.305 156.136L356.93 156.917L357.671 156.323L357.046 155.543ZM356.618 156.026H356.581V157.026H356.618V156.026ZM356.289 156.121C352.552 158.807 348.074 159.865 343.765 159.39L343.656 160.384C348.2 160.884 352.927 159.77 356.872 156.932L356.289 156.121ZM343.765 159.39C339.16 158.883 334.748 156.628 331.641 152.749L330.86 153.375C334.142 157.47 338.8 159.849 343.655 160.384L343.765 159.39ZM331.64 152.749L328.663 149.036L327.883 149.662L330.86 153.375L331.64 152.749ZM328.107 149.821C329.712 150.385 331.389 150.769 333.11 150.958L333.219 149.964C331.575 149.783 329.972 149.416 328.439 148.877L328.107 149.821ZM333.11 150.958C333.787 151.032 334.466 151.076 335.14 151.089L335.16 150.09C334.515 150.077 333.867 150.035 333.219 149.964L333.11 150.958ZM334.772 150.916C337.24 153.776 340.63 155.442 344.157 155.83L344.266 154.836C340.978 154.474 337.824 152.922 335.529 150.263L334.772 150.916ZM344.157 155.83C347.849 156.237 351.697 155.245 354.806 152.753L354.181 151.972C351.289 154.29 347.708 155.215 344.266 154.836L344.157 155.83ZM354.545 151.865L354.544 151.865L354.441 152.86L354.442 152.86L354.545 151.865ZM354.806 152.752L354.912 152.666L354.285 151.887L354.179 151.973L354.806 152.752ZM354.915 152.664C357.956 150.177 359.725 146.678 360.127 143.029L359.133 142.919C358.758 146.321 357.111 149.576 354.282 151.89L354.915 152.664ZM360.127 143.029C360.324 141.238 360.402 139.862 360.026 138.374C359.65 136.893 358.836 135.345 357.338 133.169L356.514 133.736C357.991 135.883 358.725 137.313 359.056 138.62C359.386 139.921 359.328 141.144 359.133 142.919L360.127 143.029ZM357.328 133.155L353.679 128.23L352.875 128.825L356.524 133.75L357.328 133.155ZM353.69 128.245L351.797 125.475L350.972 126.04L352.864 128.809L353.69 128.245ZM351.774 125.444C350.821 124.256 349.683 122.148 349.105 120.153C348.817 119.155 348.679 118.224 348.752 117.47C348.824 116.722 349.093 116.211 349.56 115.924L349.036 115.072C348.212 115.579 347.847 116.437 347.756 117.374C347.667 118.305 347.838 119.373 348.145 120.431C348.758 122.548 349.955 124.775 350.994 126.07L351.774 125.444ZM349.508 115.951C351.87 114.858 353.653 114.237 355.416 113.947C357.178 113.658 358.948 113.695 361.292 113.953L361.401 112.959C359.015 112.696 357.143 112.65 355.254 112.961C353.366 113.271 351.49 113.931 349.088 115.044L349.508 115.951ZM361.292 113.953C365.617 114.429 368.882 115.809 371.934 119.232L372.68 118.567C369.437 114.929 365.929 113.457 361.401 112.959L361.292 113.953ZM372.149 119.374L372.185 119.386L372.501 118.437L372.465 118.425L372.149 119.374ZM371.953 119.225L372.547 119.965L373.327 119.339L372.733 118.599L371.953 119.225ZM372.547 119.965C375.657 123.844 376.897 128.64 376.39 133.245L377.384 133.354C377.919 128.499 376.611 123.435 373.327 119.339L372.547 119.965ZM376.887 132.8H376.876V133.8H376.887V132.8ZM376.379 133.245C375.871 137.854 373.619 142.267 369.746 145.371L370.371 146.151C374.461 142.873 376.838 138.214 377.373 133.354L376.379 133.245ZM369.746 145.371L366.034 148.346L366.66 149.126L370.371 146.151L369.746 145.371ZM366.819 148.902C367.382 147.298 367.767 145.621 367.956 143.9L366.962 143.791C366.781 145.436 366.414 147.038 365.875 148.57L366.819 148.902ZM367.956 143.9C368.031 143.223 368.074 142.545 368.087 141.869L367.087 141.85C367.075 142.496 367.033 143.143 366.962 143.791L367.956 143.9ZM367.914 142.238C370.78 139.766 372.449 136.377 372.837 132.855L371.843 132.745C371.481 136.028 369.927 139.181 367.26 141.48L367.914 142.238ZM372.387 132.302L372.376 132.301L372.282 133.297L372.293 133.298L372.387 132.302ZM372.826 132.854C373.233 129.162 372.24 125.314 369.748 122.206L368.968 122.832C371.286 125.722 372.211 129.302 371.832 132.744L372.826 132.854ZM369.75 122.208L369.721 122.172L368.938 122.794L368.966 122.829L369.75 122.208ZM369.719 122.169C367.224 119.078 363.684 117.384 360.037 116.888L359.902 117.879C363.338 118.346 366.63 119.934 368.941 122.797L369.719 122.169ZM360.037 116.888C357.639 116.561 355.858 116.483 354.334 116.681C352.798 116.882 351.548 117.361 350.209 118.111L350.698 118.983C351.952 118.281 353.08 117.853 354.464 117.673C355.859 117.491 357.539 117.557 359.902 117.879L360.037 116.888ZM350.918 118.731L350.923 118.718L349.993 118.35L349.988 118.363L350.918 118.731ZM345.109 143.629C341.942 145.805 338.167 147.187 333.58 146.682L333.471 147.676C338.344 148.212 342.355 146.735 345.675 144.453L345.109 143.629ZM333.58 146.682C328.976 146.175 324.565 143.919 321.454 140.041L320.674 140.667C323.958 144.762 328.616 147.141 333.471 147.676L333.58 146.682ZM321.454 140.041L320.861 139.301L320.08 139.926L320.674 140.667L321.454 140.041ZM320.969 139.656L320.972 139.619L319.976 139.534L319.972 139.571L320.969 139.656ZM320.88 139.285C318.193 135.549 317.135 131.071 317.61 126.762L316.616 126.652C316.115 131.196 317.231 135.923 320.068 139.869L320.88 139.285ZM317.61 126.762C318.117 122.158 320.372 117.746 324.251 114.637L323.626 113.857C319.53 117.14 317.151 121.798 316.616 126.652L317.61 126.762ZM324.251 114.637L327.965 111.66L327.339 110.88L323.626 113.857L324.251 114.637ZM327.18 111.104C326.616 112.711 326.232 114.388 326.043 116.107L327.037 116.217C327.218 114.574 327.584 112.97 328.124 111.436L327.18 111.104ZM326.043 116.107C325.968 116.786 325.925 117.462 325.911 118.138L326.911 118.157C326.924 117.511 326.965 116.865 327.037 116.217L326.043 116.107ZM326.085 117.769C323.225 120.237 321.559 123.625 321.17 127.154L322.164 127.263C322.527 123.974 324.079 120.821 326.738 118.526L326.085 117.769ZM321.17 127.154C320.764 130.846 321.756 134.694 324.247 137.802L325.028 137.177C322.711 134.286 321.786 130.705 322.164 127.263L321.17 127.154ZM324.14 137.437L324.14 137.438L325.135 137.543L325.135 137.542L324.14 137.437ZM324.249 137.805L324.278 137.841L325.055 137.211L325.026 137.176L324.249 137.805ZM324.277 137.84C326.768 140.925 330.295 142.718 333.971 143.124L334.081 142.13C330.653 141.752 327.372 140.081 325.055 137.212L324.277 137.84ZM333.971 143.124C336.779 143.433 339.922 144.098 344.017 142.513L343.656 141.581C339.835 143.06 336.962 142.447 334.081 142.13L333.971 143.124ZM344.222 141.728L339.006 135.435L338.236 136.073L343.452 142.366L344.222 141.728ZM339 135.428C336.65 132.694 329.484 126.283 330.316 116.566L329.32 116.481C328.444 126.714 336.015 133.49 338.242 136.08L339 135.428ZM330.315 116.578C330.79 112.27 332.797 108.129 336.231 105.067L335.566 104.32C331.939 107.554 329.822 111.926 329.321 116.469L330.315 116.578ZM336.397 104.736L336.4 104.7L335.404 104.614L335.4 104.651L336.397 104.736ZM336.215 105.047L336.955 104.453L336.33 103.673L335.589 104.267L336.215 105.047ZM336.955 104.453C340.834 101.344 345.631 100.103 350.236 100.61L350.345 99.616C345.49 99.0811 340.425 100.39 336.33 103.673L336.955 104.453ZM349.791 100.096L349.79 100.108L350.79 100.142L350.79 100.13L349.791 100.096ZM350.235 100.622C354.844 101.129 359.257 103.383 362.361 107.254L363.141 106.629C359.863 102.54 355.204 100.163 350.345 99.6279L350.235 100.622ZM362.361 107.255L365.337 110.966L366.117 110.34L363.141 106.629L362.361 107.255ZM365.892 110.181C364.286 109.618 362.609 109.234 360.891 109.045L360.781 110.039C362.423 110.22 364.026 110.586 365.561 111.125L365.892 110.181ZM360.89 109.045C360.213 108.971 359.536 108.927 358.86 108.913L358.84 109.913C359.486 109.926 360.134 109.968 360.781 110.039L360.89 109.045ZM359.229 109.087C356.756 106.221 353.367 104.552 349.845 104.164L349.736 105.158C353.018 105.519 356.171 107.074 358.472 109.74L359.229 109.087ZM349.292 104.617L349.291 104.629L350.288 104.716L350.289 104.704L349.292 104.617ZM349.844 104.176C346.152 103.769 342.305 104.761 339.196 107.252L339.821 108.033C342.713 105.716 346.293 104.79 349.735 105.17L349.844 104.176ZM339.196 107.252C336.087 109.743 334.281 113.284 333.875 116.977L334.869 117.086C335.248 113.644 336.93 110.349 339.821 108.033L339.196 107.252ZM333.872 117.005C333.719 119.864 334.085 121.841 334.864 123.727C335.629 125.577 336.801 127.345 338.192 129.728L339.056 129.224C337.623 126.77 336.519 125.111 335.788 123.345C335.073 121.615 334.724 119.789 334.871 117.058L333.872 117.005ZM338.218 129.768L342.58 135.824L343.391 135.239L339.029 129.184L338.218 129.768ZM342.576 135.817C344.699 138.861 345.251 140.9 345.307 142.131C345.335 142.745 345.24 143.165 345.15 143.419C345.105 143.546 345.061 143.634 345.031 143.684C345.017 143.709 345.006 143.726 345.001 143.733C344.998 143.737 344.997 143.738 344.998 143.738C344.998 143.737 344.998 143.737 344.999 143.735C345 143.735 345.001 143.734 345.001 143.733C345.002 143.732 345.002 143.732 345.003 143.731C345.003 143.731 345.003 143.731 345.003 143.73C345.004 143.73 345.004 143.73 345.391 144.046C345.777 144.363 345.778 144.363 345.778 144.362C345.778 144.362 345.779 144.362 345.779 144.361C345.78 144.361 345.78 144.36 345.781 144.359C345.782 144.358 345.783 144.356 345.785 144.354C345.788 144.351 345.791 144.346 345.795 144.341C345.802 144.332 345.811 144.319 345.822 144.304C345.842 144.275 345.868 144.235 345.897 144.184C345.956 144.083 346.027 143.94 346.093 143.753C346.227 143.376 346.34 142.827 346.306 142.085C346.238 140.605 345.587 138.386 343.396 135.245L342.576 135.817ZM345.883 144.137L345.884 144.131L344.9 143.95L344.899 143.956L345.883 144.137ZM324.25 137.804L324.279 137.84L325.055 137.21L325.026 137.174L324.25 137.804Z" fill="white" mask="url(#path-38-outside-1)"/>
<defs>
<clipPath id="clip0">
<rect width="60" height="60" fill="white" transform="translate(252 559)"/>
</clipPath>
</defs>
</svg>
