<svg width="1099" height="798" viewBox="0 0 1099 798" fill="none" xmlns="http://www.w3.org/2000/svg">
<path d="M503.388 746.628C726.223 746.628 906.867 579.49 906.867 373.314C906.867 167.138 726.223 0 503.388 0C280.553 0 99.9091 167.138 99.9091 373.314C99.9091 579.49 280.553 746.628 503.388 746.628Z" fill="#181C35"/>
<path d="M148 797.68C229.738 797.68 296 787.078 296 774C296 760.922 229.738 750.32 148 750.32C66.2618 750.32 0 760.922 0 774C0 787.078 66.2618 797.68 148 797.68Z" fill="#181C35"/>
<path d="M870 773.609C996.473 773.609 1099 757.204 1099 736.969C1099 716.733 996.473 700.329 870 700.329C743.527 700.329 641 716.733 641 736.969C641 757.204 743.527 773.609 870 773.609Z" fill="#181C35"/>
<path d="M819.12 384.785C819.12 384.785 821.069 391.283 810.021 397.132C798.973 402.981 795.724 425.077 808.722 431.576C821.719 438.075 825.618 446.523 819.12 452.372C812.621 458.221 800.923 473.818 816.52 477.717C832.117 481.616 834.067 489.415 829.518 492.664C824.968 495.914 839.916 486.815 839.916 486.815C839.916 486.815 842.515 502.412 856.163 498.513C869.81 494.614 908.153 420.528 888.656 410.13C869.16 399.732 819.12 384.785 819.12 384.785Z" fill="#2F2E41"/>
<path d="M842.675 447.536C842.675 447.536 849.416 471.131 837.619 472.816C830.299 473.957 823.361 476.847 817.396 481.242L839.305 509.892H879.752L905.031 484.613C905.031 484.613 871.325 459.333 878.066 444.166C884.808 428.998 842.675 447.536 842.675 447.536Z" fill="#FFB9B9"/>
<path opacity="0.1" d="M842.675 447.536C842.675 447.536 849.416 471.131 837.619 472.816C830.299 473.957 823.361 476.847 817.396 481.242L839.305 509.892H879.752L905.031 484.613C905.031 484.613 871.325 459.333 878.066 444.166C884.808 428.998 842.675 447.536 842.675 447.536Z" fill="black"/>
<path d="M852.787 740.779L891.549 754.261L918.513 755.946L916.828 732.352L861.213 715.904L852.787 740.779Z" fill="#FFB9B9"/>
<path d="M902.503 735.722C902.503 735.722 902.503 759.316 905.874 759.316C909.245 759.316 954.748 754.26 968.23 759.316C981.713 764.372 1001.94 745.834 991.824 735.722C981.713 725.61 965.219 710.442 954.927 713.813C944.636 717.184 902.503 725.61 902.503 725.61V735.722Z" fill="#575A89"/>
<path d="M778.633 713.814C778.633 713.814 758.41 754.261 771.892 757.631C785.374 761.002 800.542 755.946 802.227 754.261C803.913 752.575 827.507 745.834 830.877 749.205C834.248 752.575 834.248 735.723 834.248 735.723L778.633 713.814Z" fill="#575A89"/>
<path d="M795.486 658.199C795.486 658.199 763.466 702.017 787.06 713.814C810.654 725.611 923.569 725.611 931.995 713.814C940.422 702.017 943.792 664.94 931.995 661.57C920.198 658.199 795.486 658.199 795.486 658.199Z" fill="#2F2E41"/>
<path opacity="0.2" d="M795.486 658.199C795.486 658.199 763.466 702.017 787.06 713.814C810.654 725.611 923.569 725.611 931.995 713.814C940.422 702.017 943.792 664.94 931.995 661.57C920.198 658.199 795.486 658.199 795.486 658.199Z" fill="black"/>
<path d="M856.158 459.333C877.565 459.333 894.919 441.979 894.919 420.572C894.919 399.164 877.565 381.81 856.158 381.81C834.75 381.81 817.396 399.164 817.396 420.572C817.396 441.979 834.75 459.333 856.158 459.333Z" fill="#FFB9B9"/>
<path d="M795.486 481.242L829.192 474.501C829.192 474.501 837.619 501.466 864.583 496.41C891.548 491.354 898.289 474.501 898.289 474.501C898.289 474.501 918.513 482.928 920.198 482.928C921.884 482.928 943.792 491.354 943.792 496.41C943.792 501.466 918.513 552.025 918.513 552.025L921.884 643.031L797.172 639.66L805.598 550.339L795.486 481.242Z" fill="#08B952"/>
<path d="M776.948 525.061C776.948 525.061 766.837 614.381 773.578 621.122C780.319 627.864 807.284 646.402 807.284 646.402V626.178L793.801 600.899L807.284 541.914L776.948 525.061Z" fill="#FFB9B9"/>
<path d="M951.376 522.533C951.376 522.533 945.478 614.381 945.478 617.752C945.478 621.123 930.31 632.92 925.254 632.92C920.199 632.92 916.828 624.493 916.828 624.493L928.625 611.011L920.199 541.914L951.376 522.533Z" fill="#FFB9B9"/>
<path d="M935.366 651.458C935.366 651.458 1011.2 609.326 1012.89 651.458C1014.57 693.59 974.128 710.443 974.128 710.443C974.128 710.443 869.639 741.775 865.426 730.322C861.213 718.87 852.786 700.332 859.527 698.646C866.269 696.961 874.695 693.59 878.066 696.961C881.436 700.331 923.569 671.681 923.569 671.681L935.366 651.458Z" fill="#2F2E41"/>
<path opacity="0.2" d="M970.758 646.401C970.758 646.401 955.59 653.143 950.534 658.198C945.478 663.254 923.569 671.681 923.569 671.681" stroke="black" stroke-width="2" stroke-miterlimit="10"/>
<path d="M805.599 484.613L795.487 481.242C795.487 481.242 758.41 520.004 770.207 530.116C782.004 540.228 788.746 543.598 792.116 546.969C795.487 550.34 812.34 552.025 812.34 552.025L805.599 484.613Z" fill="#08B952"/>
<path d="M928.625 493.04L943.793 496.41C943.793 496.41 955.59 521.69 958.961 525.06C962.331 528.431 953.905 526.745 948.849 533.487C943.793 540.228 938.737 552.025 928.625 552.025C918.514 552.025 905.031 535.172 905.031 535.172L928.625 493.04Z" fill="#08B952"/>
<path d="M798.857 666.625C798.857 666.625 734.816 621.122 712.907 654.828C690.998 688.533 807.284 734.037 824.137 740.778C840.99 747.519 856.157 754.26 856.157 754.26C856.157 754.26 871.325 717.184 871.325 710.442C871.325 703.701 859.528 703.701 856.157 703.701C852.787 703.701 837.619 700.331 834.248 695.275C830.878 690.219 798.857 666.625 798.857 666.625Z" fill="#2F2E41"/>
<path opacity="0.2" d="M763.466 654.828C763.466 654.828 780.319 668.311 795.487 671.681C810.654 675.052 815.71 683.478 815.71 683.478" stroke="black" stroke-width="2" stroke-miterlimit="10"/>
<path d="M787.232 591.461L788.578 662.817C788.623 665.174 789.597 667.418 791.289 669.06C792.98 670.701 795.253 671.608 797.61 671.581L930.399 670.089C932.662 670.064 934.831 669.181 936.467 667.618C938.104 666.056 939.087 663.93 939.217 661.671L943.248 591.807C943.318 590.593 943.139 589.377 942.723 588.234C942.306 587.091 941.66 586.046 940.825 585.161C939.99 584.276 938.984 583.572 937.867 583.09C936.75 582.609 935.546 582.36 934.33 582.36H796.163C794.976 582.36 793.8 582.597 792.706 583.056C791.611 583.516 790.619 584.189 789.787 585.036C788.956 585.884 788.301 586.888 787.863 587.992C787.424 589.095 787.209 590.274 787.232 591.461V591.461Z" fill="#575A89"/>
<path d="M858.228 371.879C858.228 371.879 860.388 379.079 848.149 385.558C835.91 392.038 832.311 416.515 846.709 423.715C861.108 430.914 865.428 440.273 858.228 446.753C851.029 453.232 838.07 470.51 855.349 474.83C872.627 479.149 874.787 487.789 869.747 491.388C864.708 494.988 881.266 484.909 881.266 484.909C881.266 484.909 884.146 502.187 899.265 497.868C914.383 493.548 929.468 415.028 912.615 394.804C896.944 376 858.228 371.879 858.228 371.879Z" fill="#2F2E41"/>
<path d="M853.63 364.469C853.633 353.922 885.188 361.501 898.718 376.227C908.086 386.425 922.316 401.767 910.392 412.582C898.468 423.397 930.831 437.574 939.511 441.873C948.191 446.171 965.328 459.316 949.854 468.134C934.38 476.952 934.63 485.854 940.453 487.961C946.277 490.069 927.614 484.828 927.614 484.828C927.614 484.828 929.499 502.243 913.776 502.159C898.053 502.076 852.944 415.665 863.72 391.646C873.74 369.313 853.63 364.469 853.63 364.469Z" fill="#2F2E41"/>
<path d="M860.465 362.157C818.267 359.616 814.032 391.38 814.032 391.38C814.323 409.762 843.515 400.806 851.622 403.546C861.404 396.509 880.258 383.196 893.742 373.694C883.952 366.801 872.42 362.803 860.465 362.157Z" fill="#2F2E41"/>
<path d="M848.442 564.848C848.442 564.848 810.59 387.449 573.669 258.76" stroke="#3F3D56" stroke-width="2" stroke-miterlimit="10"/>
<path d="M583.431 254.891L583.905 256.836L574.322 259.16L577.341 268.549L575.435 269.16L571.76 257.724L583.431 254.891Z" fill="#3F3D56"/>
<path d="M68.4732 746.111C68.4732 768.58 55.1167 776.425 38.6393 776.425C38.2576 776.425 37.8765 776.421 37.496 776.412C36.7325 776.396 35.9764 776.36 35.2293 776.309C20.3587 775.256 8.80542 767.008 8.80542 746.111C8.80542 724.486 36.4399 697.199 38.5157 695.18L38.5193 695.176C38.5993 695.098 38.6393 695.06 38.6393 695.06C38.6393 695.06 68.4732 723.643 68.4732 746.111Z" fill="#08B952"/>
<path d="M37.5522 772.987L48.4638 757.741L37.5249 774.662L37.4958 776.412C36.7324 776.396 35.9762 776.359 35.2291 776.308L36.4052 753.829L36.3961 753.654L36.4161 753.622L36.527 751.499L25.5608 734.536L36.5615 749.906L36.587 750.357L37.4758 733.373L28.0874 715.845L37.5903 730.392L38.5155 695.179L38.5192 695.059V695.175L38.3647 722.943L47.7113 711.935L38.3265 725.335L38.0793 740.542L46.8061 725.947L38.0429 742.779L37.9048 751.233L50.5741 730.92L37.8575 754.183L37.5522 772.987Z" fill="#3F3D56"/>
<path d="M210.773 740.29L217.155 735.549C217.155 735.549 221.379 759.146 216.666 762.681C211.952 766.216 194.275 772.109 194.275 779.179C194.275 786.25 154.207 795.678 153.029 785.072C151.85 774.466 156.564 768.573 156.564 768.573C156.564 768.573 175.419 749.718 177.776 746.183C180.133 742.647 186.026 735.576 186.026 735.576L210.773 740.29Z" fill="#2F2E41"/>
<path d="M116.496 446.853C116.496 446.853 116.673 447.89 116.98 449.788C117.263 451.473 117.651 453.854 118.123 456.788C123.072 486.992 137.509 575.907 136.53 578.841C135.352 582.376 127.103 595.339 136.53 598.875C137.438 599.217 138.416 600.324 139.465 602.068C141.489 605.825 143.158 609.762 144.449 613.83C150.071 630.139 156.081 656.242 159.557 674.32C161.078 682.263 162.115 688.65 162.421 691.997C162.528 692.77 162.539 693.554 162.456 694.33C161.278 699.044 169.527 715.542 173.063 720.256C176.598 724.97 182.49 729.684 181.312 734.398C180.133 739.112 210.773 752.075 214.309 743.826C217.844 735.576 217.844 730.862 219.022 728.506C220.201 726.149 221.379 709.65 215.487 707.293C209.595 704.936 213.13 663.69 207.238 655.441C205.27 652.695 202.265 643.397 199.118 632.213C197.881 627.83 196.632 623.163 195.406 618.484C190.433 599.311 186.026 580.02 186.026 580.02L187.204 442.14L122.389 433.89L120.727 437.555L117.416 444.826L116.496 446.853Z" fill="#2F2E41"/>
<path d="M112.961 673.118C112.961 673.118 103.533 663.69 98.8193 673.118C94.1055 682.546 89.3916 719.078 81.1424 727.327C72.8932 735.576 62.287 776.823 74.0717 779.18C85.8563 781.536 98.8193 775.644 99.9978 768.573C101.176 761.503 125.924 724.97 125.924 721.435C125.924 717.9 109.425 704.937 109.425 704.937L112.961 673.118Z" fill="#2F2E41"/>
<path d="M257.912 382.038C257.912 382.038 242.592 519.918 239.056 532.881C235.521 545.844 216.666 595.339 210.773 603.589C204.881 611.838 167.17 679.01 162.456 682.545C157.743 686.081 148.315 695.509 148.315 695.509C148.315 695.509 130.638 713.185 128.281 716.721C125.924 720.256 105.89 709.65 104.712 702.579C103.533 695.509 105.89 683.724 107.069 679.01C108.247 674.296 104.712 667.225 108.247 663.69C111.783 660.155 129.459 642.478 129.459 634.229C129.459 625.979 160.099 577.662 171.884 567.056C183.669 556.45 181.312 538.773 181.312 538.773V466.887L116.496 446.853C116.496 446.853 120.032 390.287 128.281 390.287C136.53 390.287 244.949 371.432 257.912 382.038Z" fill="#2F2E41"/>
<path d="M162.456 185.235C183.934 185.235 201.345 167.824 201.345 146.346C201.345 124.868 183.934 107.457 162.456 107.457C140.978 107.457 123.567 124.868 123.567 146.346C123.567 167.824 140.978 185.235 162.456 185.235Z" fill="#9F616A"/>
<path d="M175.419 176.986C175.419 176.986 180.133 194.663 186.025 199.376C191.918 204.09 170.705 224.124 170.705 224.124L130.638 226.481L123.567 204.09C123.567 204.09 136.53 178.164 132.995 161.666C129.459 145.167 175.419 176.986 175.419 176.986Z" fill="#9F616A"/>
<path d="M191.918 197.02C191.918 197.02 181.312 198.198 178.955 201.734C176.598 205.269 160.1 215.875 147.136 213.518C134.173 211.162 125.924 207.626 123.567 208.805C121.21 209.983 116.496 234.731 116.496 234.731L129.46 272.441L127.103 376.146L123.567 404.429C123.567 404.429 116.496 395.001 144.78 400.894C173.063 406.786 209.595 396.18 221.379 395.001C233.164 393.823 253.198 390.288 254.376 383.217C255.555 376.146 250.841 350.22 250.841 350.22L231.986 271.263L220.201 228.838L191.918 197.02Z" fill="#08B952"/>
<path d="M180.771 191.701C180.771 191.701 190.74 186.414 194.275 191.128C197.811 195.842 242.592 202.912 242.592 206.448C242.592 209.983 252.02 305.438 249.663 313.688C247.306 321.937 254.377 331.365 254.377 331.365L262.626 366.718C262.626 366.718 285.017 433.891 275.589 436.248C266.161 438.604 257.912 436.248 254.377 436.248C250.841 436.248 252.02 391.466 242.592 379.681C233.165 367.897 220.201 338.435 217.845 332.543C215.488 326.651 186.026 245.337 187.205 235.909C188.383 226.482 180.771 191.701 180.771 191.701Z" fill="#585D86"/>
<path d="M131.816 197.02C131.816 197.02 122.389 197.02 121.21 199.377C120.032 201.734 108.247 217.054 103.533 220.589C98.8196 224.125 82.3212 239.445 82.3212 242.98C82.3212 246.515 116.497 272.441 116.497 272.441C116.497 272.441 130.638 341.971 123.567 365.54C116.497 389.109 105.89 445.675 110.604 449.211C115.318 452.746 125.924 453.924 125.924 449.211C125.924 444.497 132.995 393.823 138.887 383.217C144.78 372.611 162.456 305.438 155.386 286.583C148.315 267.728 131.816 197.02 131.816 197.02Z" fill="#585D86"/>
<path d="M287.373 313.688C287.373 313.688 288.552 350.22 275.589 369.075C262.626 387.931 254.376 409.143 254.376 409.143C254.376 409.143 233.164 403.251 229.629 396.18C226.093 389.109 203.703 395.001 203.703 392.645C203.703 390.288 230.807 378.503 233.164 376.146C235.521 373.789 243.77 373.789 248.484 369.075C253.198 364.362 254.376 353.755 254.376 353.755L259.09 323.115L287.373 313.688Z" fill="#9F616A"/>
<path d="M189.241 122.367C192.233 122.096 195.318 121.797 197.963 120.371C203.887 117.176 205.458 108.077 200.948 103.08C199.704 101.809 198.314 100.69 196.805 99.7486L187.847 93.6515C183.885 90.9548 179.83 88.214 175.209 86.9427C171.029 85.7929 166.615 85.9111 162.289 86.18C153.89 86.702 145.44 87.7803 137.54 90.68C129.641 93.5797 122.272 98.4309 117.488 105.353C109.903 116.328 109.799 131.128 113.976 143.797C118.154 156.466 126.089 167.499 133.907 178.307L137.964 158.513C138.326 156.749 138.793 154.817 140.259 153.774C143.904 151.18 148.362 156.505 152.835 156.471C155.709 156.448 158.122 154.084 159.211 151.425C160.3 148.765 160.372 145.819 160.624 142.956C161.158 136.892 163.278 128.454 169.02 125.11C174.372 121.993 183.226 122.914 189.241 122.367Z" fill="#2F2E41"/>
<path opacity="0.1" d="M187.06 447.805C187.06 447.805 183.08 562.932 180.723 566.468C178.366 570.003 180.723 447.443 180.723 447.443L187.06 447.805Z" fill="black"/>
<path d="M233.164 206.447H242.592C242.592 206.447 282.66 260.656 277.946 264.192C273.232 267.727 277.946 277.155 277.946 277.155L287.373 294.832C287.373 294.832 299.158 305.438 295.623 307.795C292.087 310.152 287.373 319.58 287.373 319.58C287.373 319.58 263.804 316.044 256.733 330.186L241.449 310.89L233.164 206.447Z" fill="#D0CDE1"/>
<path d="M236.496 223.884L204.145 237.243L229.04 297.529L261.39 284.17L236.496 223.884Z" fill="#2F2E41"/>
<path d="M232.705 259.241C236.278 257.766 238.076 253.909 236.72 250.626C235.365 247.343 231.369 245.879 227.796 247.354C224.222 248.83 222.425 252.687 223.78 255.97C225.136 259.252 229.131 260.717 232.705 259.241Z" fill="#08B952"/>
<path d="M209.595 300.724C209.595 300.724 124.746 371.432 110.604 349.041C96.4629 326.65 125.924 307.795 125.924 307.795C125.924 307.795 151.851 308.974 181.312 290.118L210.774 277.155C210.774 277.155 237.67 238.756 246.835 253.378C256 268 231.19 293.449 209.595 300.724Z" fill="#9F616A"/>
<path d="M95.2843 238.266L82.3213 242.979V278.333L77.6074 285.404C77.6074 285.404 78.7859 299.546 82.3213 303.081C85.8567 306.616 92.9274 305.438 90.5705 313.687C89.154 319.065 88.7543 324.661 89.392 330.186C89.392 330.186 110.604 357.29 111.783 353.755C112.961 350.219 129.46 306.616 131.817 306.616C134.174 306.616 108.247 238.266 108.247 238.266H95.2843Z" fill="#D0CDE1"/>
<path d="M250.252 416.802C250.252 416.802 262.437 405.018 256.344 404.429C250.252 403.839 229.04 392.055 225.504 397.947C221.969 403.839 250.252 416.802 250.252 416.802Z" fill="#2F2E41"/>
<path d="M482 192C491.389 192 499 187.971 499 183C499 178.03 491.389 174 482 174C472.611 174 465 178.03 465 183C465 187.971 472.611 192 482 192Z" fill="#57B894"/>
<path d="M547 213C508.667 198.522 470.333 198.522 432 213V166C469.498 154.685 509.502 154.685 547 166V213Z" stroke="#3F3D56" stroke-width="2" stroke-miterlimit="10"/>
<path d="M531 203.281C503.333 192.832 475.666 192.832 448 203.281V169.359C475.064 161.192 503.936 161.192 531 169.359V203.281Z" stroke="#3F3D56" stroke-width="2" stroke-miterlimit="10"/>
<path d="M488 188C497.389 188 505 183.971 505 179C505 174.029 497.389 170 488 170C478.611 170 471 174.029 471 179C471 183.971 478.611 188 488 188Z" stroke="#3F3D56" stroke-width="2" stroke-miterlimit="10"/>
<path d="M494.5 248.364C503.699 246.486 510.351 241.016 509.357 236.146C508.363 231.276 500.099 228.85 490.9 230.727C481.701 232.605 475.049 238.075 476.043 242.945C477.037 247.815 485.301 250.241 494.5 248.364Z" fill="#57B894"/>
<path d="M562.387 255.941C521.933 249.422 484.373 257.087 449.71 278.938L440.311 232.888C474.789 214.302 513.984 206.303 552.988 209.891L562.387 255.941Z" stroke="#3F3D56" stroke-width="2" stroke-miterlimit="10"/>
<path d="M544.766 249.618C515.569 244.912 488.461 250.445 463.442 266.216L456.659 232.979C481.543 219.565 509.832 213.792 537.982 216.381L544.766 249.618Z" stroke="#3F3D56" stroke-width="2" stroke-miterlimit="10"/>
<path d="M499.578 243.245C508.778 241.367 515.429 235.897 514.435 231.027C513.441 226.157 505.178 223.731 495.979 225.608C486.78 227.486 480.128 232.956 481.122 237.826C482.116 242.696 490.379 245.122 499.578 243.245Z" stroke="#3F3D56" stroke-width="2" stroke-miterlimit="10"/>
<path d="M506.134 296.665C506.479 291.707 499.166 287.159 489.799 286.507C480.433 285.855 472.561 289.347 472.216 294.305C471.871 299.264 479.184 303.812 488.55 304.464C497.916 305.115 505.789 301.624 506.134 296.665Z" fill="#57B894"/>
<path d="M551.936 329.925C514.7 312.821 476.459 310.16 437.213 321.942L440.476 275.055C478.669 266.37 518.576 269.147 555.198 283.038L551.936 329.925Z" stroke="#3F3D56" stroke-width="2" stroke-miterlimit="10"/>
<path d="M536.649 319.118C509.774 306.774 482.174 304.853 453.849 313.356L456.204 279.516C483.77 273.248 512.572 275.252 539.004 285.278L536.649 319.118Z" stroke="#3F3D56" stroke-width="2" stroke-miterlimit="10"/>
<path d="M512.397 293.091C512.742 288.133 505.429 283.585 496.063 282.933C486.697 282.281 478.824 285.773 478.479 290.731C478.134 295.69 485.447 300.238 494.813 300.89C504.18 301.541 512.052 298.05 512.397 293.091Z" stroke="#3F3D56" stroke-width="2" stroke-miterlimit="10"/>
<path d="M414.922 214.092C414.922 214.092 341.426 204.037 288.94 234.796" stroke="#3F3D56" stroke-width="2" stroke-miterlimit="10"/>
<path d="M290.708 224.459L292.617 225.063L289.633 234.462L299.227 236.751L298.76 238.698L287.077 235.907L290.708 224.459Z" fill="#3F3D56"/>
</svg>
