<svg width="680" height="775" viewBox="0 0 680 775" fill="none" xmlns="http://www.w3.org/2000/svg">
<path d="M679.4 173.157H675.714V63.4789C675.714 46.6433 669.556 30.4972 658.596 18.5926C647.636 6.68796 632.77 1.32771e-05 617.27 2.0216e-10H403.331C395.656 -2.10368e-05 388.056 1.64189 380.965 4.83198C373.874 8.02208 367.431 12.6979 362.004 18.5924C356.577 24.487 352.272 31.4848 349.335 39.1864C346.398 46.888 344.886 55.1426 344.886 63.4788V665.183C344.886 673.519 346.398 681.774 349.335 689.476C352.272 697.177 356.577 704.175 362.004 710.07C367.431 715.964 373.874 720.64 380.965 723.83C388.056 727.02 395.656 728.662 403.331 728.662H617.27C632.77 728.662 647.635 721.974 658.596 710.07C669.556 698.165 675.714 682.019 675.714 665.183V251.228H679.4L679.4 173.157Z" fill="#252B50"/>
<path d="M620.032 15.3728H592.001C593.29 18.7887 593.782 22.4948 593.433 26.1647C593.085 29.8346 591.907 33.3555 590.003 36.4175C588.099 39.4794 585.528 41.9882 582.516 43.7231C579.504 45.4579 576.143 46.3654 572.73 46.3657H449.706C446.293 46.3654 442.932 45.4579 439.92 43.7231C436.908 41.9883 434.337 39.4794 432.433 36.4175C430.529 33.3555 429.351 29.8345 429.003 26.1646C428.654 22.4947 429.146 18.7886 430.436 15.3727H404.254C392.635 15.3727 381.492 20.3615 373.276 29.2416C365.061 38.1217 360.445 50.1657 360.445 62.7241V662.864C360.445 669.082 361.578 675.239 363.78 680.984C365.981 686.729 369.208 691.949 373.276 696.346C377.345 700.743 382.174 704.231 387.489 706.611C392.804 708.99 398.501 710.215 404.254 710.215H620.032C625.785 710.215 631.482 708.99 636.797 706.611C642.112 704.231 646.942 700.743 651.01 696.346C655.078 691.949 658.305 686.729 660.506 680.984C662.708 675.239 663.841 669.082 663.841 662.864V662.864V62.7242C663.841 56.5059 662.708 50.3485 660.506 44.6035C658.305 38.8586 655.078 33.6386 651.01 29.2416C646.942 24.8447 642.112 21.3568 636.797 18.9771C631.482 16.5975 625.785 15.3728 620.032 15.3728V15.3728Z" fill="#090D28"/>
<path d="M646.106 488.849H388.553C387.288 488.848 386.076 488.3 385.182 487.327C384.288 486.353 383.785 485.034 383.783 483.657V414.104C383.785 412.727 384.288 411.408 385.182 410.434C386.076 409.461 387.288 408.913 388.553 408.912H646.106C647.371 408.913 648.583 409.461 649.477 410.434C650.371 411.408 650.874 412.727 650.876 414.104V483.658C650.874 485.034 650.371 486.354 649.477 487.327C648.583 488.3 647.37 488.848 646.106 488.849V488.849ZM388.553 410.988C387.794 410.989 387.066 411.318 386.53 411.902C385.993 412.486 385.691 413.278 385.691 414.104V483.658C385.691 484.484 385.993 485.276 386.53 485.86C387.066 486.444 387.794 486.773 388.553 486.774H646.106C646.865 486.773 647.592 486.444 648.129 485.86C648.666 485.276 648.967 484.484 648.968 483.658V414.104C648.967 413.278 648.666 412.486 648.129 411.902C647.592 411.318 646.865 410.989 646.106 410.988H388.553Z" fill="#585D86"/>
<path d="M421.384 470.402C432.125 470.402 440.832 460.767 440.832 448.881C440.832 436.994 432.125 427.359 421.384 427.359C410.643 427.359 401.935 436.994 401.935 448.881C401.935 460.767 410.643 470.402 421.384 470.402Z" fill="#08B952"/>
<path d="M467.44 433.508C466.568 433.522 465.736 433.851 465.125 434.426C464.513 435.001 464.17 435.776 464.17 436.582C464.17 437.389 464.513 438.163 465.125 438.738C465.736 439.313 466.568 439.643 467.44 439.656H624.15C624.587 439.664 625.022 439.592 625.429 439.444C625.836 439.296 626.207 439.075 626.522 438.794C626.836 438.514 627.088 438.178 627.262 437.807C627.437 437.436 627.53 437.037 627.537 436.633C627.544 436.229 627.465 435.827 627.304 435.451C627.143 435.075 626.904 434.732 626.599 434.442C626.295 434.151 625.931 433.92 625.53 433.759C625.128 433.599 624.696 433.514 624.259 433.508C624.223 433.508 624.186 433.508 624.15 433.508H467.44Z" fill="#E6E6E6"/>
<path d="M467.44 455.03C466.568 455.044 465.736 455.373 465.125 455.948C464.513 456.523 464.17 457.298 464.17 458.104C464.17 458.911 464.513 459.685 465.125 460.26C465.736 460.835 466.568 461.165 467.44 461.178H624.15C624.587 461.186 625.022 461.114 625.429 460.966C625.836 460.818 626.207 460.597 626.522 460.316C626.836 460.036 627.088 459.7 627.262 459.329C627.437 458.958 627.53 458.559 627.537 458.155C627.544 457.75 627.465 457.349 627.304 456.973C627.143 456.597 626.904 456.254 626.599 455.964C626.295 455.673 625.931 455.441 625.53 455.281C625.128 455.121 624.696 455.036 624.259 455.03C624.223 455.03 624.186 455.03 624.15 455.03H467.44Z" fill="#E6E6E6"/>
<path d="M646.106 602.607H388.553C387.288 602.605 386.076 602.079 385.182 601.143C384.288 600.207 383.785 598.938 383.783 597.614V530.736C383.785 529.412 384.288 528.143 385.182 527.207C386.076 526.271 387.288 525.745 388.553 525.743H646.106C647.371 525.745 648.583 526.271 649.477 527.207C650.371 528.143 650.874 529.412 650.876 530.736V597.615C650.874 598.938 650.371 600.207 649.477 601.143C648.583 602.079 647.37 602.605 646.106 602.607ZM388.553 527.74C387.794 527.741 387.066 528.057 386.53 528.619C385.993 529.18 385.691 529.942 385.691 530.736V597.615C385.691 598.409 385.993 599.171 386.53 599.732C387.066 600.294 387.794 600.61 388.553 600.611H646.106C646.865 600.61 647.592 600.294 648.129 599.732C648.666 599.171 648.967 598.409 648.968 597.615V530.736C648.967 529.942 648.666 529.18 648.129 528.619C647.592 528.057 646.865 527.741 646.106 527.74H388.553Z" fill="#585D86"/>
<path d="M421.384 587.234C432.125 587.234 440.832 576.911 440.832 564.175C440.832 551.44 432.125 541.116 421.384 541.116C410.643 541.116 401.935 551.44 401.935 564.175C401.935 576.911 410.643 587.234 421.384 587.234Z" fill="#08B952"/>
<path d="M467.44 550.34C466.568 550.354 465.736 550.683 465.125 551.258C464.513 551.833 464.17 552.608 464.17 553.414C464.17 554.221 464.513 554.995 465.125 555.57C465.736 556.145 466.568 556.475 467.44 556.488H624.15C624.587 556.496 625.022 556.424 625.429 556.276C625.836 556.128 626.207 555.907 626.522 555.626C626.836 555.346 627.088 555.01 627.262 554.639C627.437 554.268 627.53 553.869 627.537 553.465C627.544 553.061 627.465 552.659 627.304 552.283C627.143 551.907 626.904 551.564 626.599 551.274C626.295 550.983 625.931 550.751 625.53 550.591C625.128 550.431 624.696 550.346 624.259 550.34C624.223 550.34 624.186 550.34 624.15 550.34H467.44Z" fill="#E6E6E6"/>
<path d="M467.44 571.862C466.568 571.875 465.736 572.205 465.125 572.78C464.513 573.355 464.17 574.129 464.17 574.936C464.17 575.742 464.513 576.517 465.125 577.092C465.736 577.667 466.568 577.996 467.44 578.01H624.15C624.587 578.017 625.022 577.945 625.429 577.797C625.836 577.65 626.207 577.429 626.522 577.148C626.836 576.867 627.088 576.532 627.262 576.161C627.437 575.79 627.53 575.391 627.537 574.986C627.544 574.582 627.465 574.18 627.304 573.804C627.143 573.428 626.904 573.085 626.599 572.795C626.295 572.505 625.931 572.273 625.53 572.113C625.128 571.953 624.696 571.867 624.259 571.862C624.223 571.861 624.186 571.861 624.15 571.862H467.44Z" fill="#E6E6E6"/>
<path d="M429.165 282.856L427.866 281.418L462.243 243.353L484.996 268.545L529.981 218.735L544.669 235L584.749 190.62L586.047 192.058L544.669 237.874L529.981 221.61L484.996 271.42L462.243 246.228L429.165 282.856Z" fill="#40FF90"/>
<path d="M510.842 344.347C498.928 344.352 487.131 341.814 476.123 336.876C465.115 331.939 455.111 324.7 446.684 315.571C438.257 306.443 431.571 295.605 427.007 283.676C422.443 271.746 420.092 258.959 420.087 246.044V245.962C420.087 245.756 420.087 245.539 420.098 245.333C420.375 191.454 461.085 147.577 510.842 147.577C534.911 147.574 557.996 157.937 575.018 176.385C592.039 194.834 601.604 219.857 601.606 245.95C601.609 272.043 592.05 297.069 575.032 315.522C558.014 333.974 534.932 344.343 510.862 344.346H510.842V344.347ZM510.842 149.646C487.386 149.703 464.898 159.792 448.265 177.72C431.632 195.649 422.197 219.968 422.01 245.395C421.999 245.615 421.999 245.795 421.999 245.959C421.997 265.011 427.206 283.635 436.968 299.477C446.73 315.319 460.606 327.667 476.841 334.96C493.076 342.252 510.942 344.162 528.178 340.448C545.415 336.734 561.249 327.562 573.677 314.092C586.105 300.622 594.569 283.46 598 264.775C601.431 246.09 599.673 226.722 592.95 209.12C586.227 191.518 574.84 176.473 560.229 165.886C545.618 155.3 528.439 149.648 510.866 149.646H510.842Z" fill="#585D86"/>
<path d="M140.971 251.725C140.971 251.725 146.717 275.746 127.181 285.145C127.181 285.145 131.778 338.408 161.656 339.453C191.534 340.497 191.534 311.255 191.534 311.255L186.938 295.589C186.938 295.589 165.103 284.101 178.893 262.169L140.971 251.725Z" fill="#FEB8B8"/>
<path d="M165.678 264.78C195.507 264.78 219.689 242.803 219.689 215.694C219.689 188.584 195.507 166.608 165.678 166.608C135.849 166.608 111.667 188.584 111.667 215.694C111.667 242.803 135.849 264.78 165.678 264.78Z" fill="#2F2E41"/>
<path d="M108.794 363.474V421.959L204.175 418.826L197.28 361.385L108.794 363.474Z" fill="#FEB8B8"/>
<path d="M166.253 268.435C185.293 268.435 200.728 254.407 200.728 237.103C200.728 219.799 185.293 205.772 166.253 205.772C147.213 205.772 131.778 219.799 131.778 237.103C131.778 254.407 147.213 268.435 166.253 268.435Z" fill="#FEB8B8"/>
<path d="M123.734 285.145C123.734 285.145 104.198 282.012 97.3028 285.145C90.4078 288.278 82.3637 287.233 74.3195 317.521L59.3803 380.183C59.3803 380.183 57.082 398.982 74.3195 396.893C91.5571 394.805 90.4078 367.651 90.4078 367.651L101.899 343.63L122.584 322.742L123.734 285.145Z" fill="#FEB8B8"/>
<path d="M189.236 297.677C189.236 297.677 216.816 300.811 219.114 314.388C221.413 327.964 208.772 383.317 208.772 383.317L189.236 365.562L199.579 331.098L189.236 297.677Z" fill="#FEB8B8"/>
<path d="M118.563 284.623L119.137 303.944L103.049 335.275L110.108 416.858L204.844 418.615L198.43 356.163C198.43 356.163 211.07 341.541 204.175 329.009C197.28 316.476 192.109 297.155 192.109 297.155L182.916 291.933C182.916 291.933 198.43 324.831 166.253 319.609C134.076 314.387 132.353 281.49 132.353 281.49L118.563 284.623Z" fill="#E6E6E6"/>
<path d="M91.557 495.065L75.4686 577.571L57.082 697.675L49.0378 711.252L55.9328 724.829L75.4686 716.474L83.5129 684.098C83.5129 684.098 111.093 653.811 106.496 615.169L155.91 507.598L91.557 495.065Z" fill="#FEB8B8"/>
<path d="M170.85 503.42L182.341 605.77C182.341 605.77 180.043 633.968 186.938 659.033C193.833 684.098 198.43 727.962 198.43 727.962H221.413L216.816 599.503L231.755 495.065L170.85 503.42Z" fill="#FEB8B8"/>
<path d="M154.761 409.426C154.761 409.426 106.496 406.293 106.496 411.515V421.959C106.496 421.959 97.3029 435.536 98.4521 448.068C99.6013 460.601 44.6451 549.285 73.3742 561.818C102.103 574.35 134.33 584.445 140.076 580.267C145.821 576.09 165.104 492.977 165.104 492.977C165.104 492.977 164.534 583.615 174.876 584.66C185.219 585.704 261.878 594.059 261.878 584.66C261.878 575.26 201.856 399.504 201.856 399.504C201.856 399.504 168.551 410.471 154.761 409.426Z" fill="#585D86"/>
<path d="M54.7837 712.297C54.7837 712.297 50.187 704.986 45.5904 710.208C40.9937 715.43 23.7562 727.962 23.7562 727.962C23.7562 727.962 -18.7629 738.406 9.96624 754.072C9.96624 754.072 35.2479 754.072 45.5904 746.761C55.9329 739.451 66.2753 742.584 66.2753 742.584C66.2753 742.584 82.3636 741.539 83.5128 735.273C84.662 729.007 77.4928 708.327 77.4928 708.327C77.4928 708.327 69.7228 717.519 54.7837 712.297Z" fill="#2F2E41"/>
<path d="M207.623 718.562C207.623 718.562 193.833 715.429 193.833 718.562C193.833 721.696 174.297 740.494 190.385 748.849C206.474 757.205 208.772 755.116 209.921 763.471C211.07 771.826 240.949 778.092 245.545 772.87C250.142 767.648 253.589 758.249 247.844 754.071C242.098 749.894 223.711 723.784 223.711 718.563C223.711 713.341 207.623 718.562 207.623 718.562Z" fill="#2F2E41"/>
<path opacity="0.1" d="M161.797 353.493H158.679V369.159H161.797V353.493Z" fill="white"/>
<path d="M213.368 370.785C213.368 370.785 191.534 344.675 192.683 363.474C193.833 382.273 206.473 391.672 208.772 391.672C211.07 391.672 220.263 389.583 213.368 370.785Z" fill="#FEB8B8"/>
<path opacity="0.1" d="M108.794 390.897C110.518 391.149 138.098 381.75 138.098 381.75L155.335 379.661L108.794 397.35L108.794 390.897Z" fill="black"/>
<path d="M116.264 194.806C125.149 194.806 132.352 188.26 132.352 180.185C132.352 172.11 125.149 165.563 116.264 165.563C107.379 165.563 100.176 172.11 100.176 180.185C100.176 188.26 107.379 194.806 116.264 194.806Z" fill="#2F2E41"/>
<path d="M215.092 190.628C223.978 190.628 231.181 184.082 231.181 176.007C231.181 167.932 223.978 161.386 215.092 161.386C206.207 161.386 199.004 167.932 199.004 176.007C199.004 184.082 206.207 190.628 215.092 190.628Z" fill="#2F2E41"/>
<path d="M197.855 169.741C197.855 166.135 199.322 162.656 201.974 159.973C204.625 157.29 208.274 155.592 212.219 155.206C209.973 154.983 207.699 155.192 205.548 155.821C203.396 156.45 201.414 157.484 199.732 158.855C198.049 160.226 196.703 161.904 195.782 163.78C194.86 165.656 194.384 167.687 194.384 169.741C194.384 171.795 194.86 173.826 195.782 175.701C196.703 177.577 198.049 179.255 199.732 180.626C201.414 181.998 203.396 183.031 205.548 183.66C207.699 184.289 209.973 184.499 212.219 184.276C208.274 183.889 204.625 182.192 201.974 179.509C199.322 176.826 197.855 173.347 197.855 169.741V169.741Z" fill="#2F2E41"/>
<path d="M98.2878 192.012C95.5112 189.436 93.88 186.018 93.7079 182.415C93.5357 178.812 94.8347 175.279 97.3552 172.493C95.5786 173.763 94.1163 175.359 93.0637 177.176C92.011 178.994 91.3915 180.993 91.2456 183.043C91.0997 185.092 91.4306 187.147 92.2169 189.073C93.0031 190.999 94.227 192.752 95.8088 194.219C97.3906 195.687 99.2947 196.834 101.397 197.588C103.5 198.342 105.753 198.684 108.011 198.594C110.269 198.503 112.481 197.981 114.502 197.061C116.523 196.142 118.308 194.846 119.741 193.257C116.626 195.491 112.712 196.599 108.752 196.369C104.792 196.139 101.065 194.587 98.2878 192.012V192.012Z" fill="#2F2E41"/>
<path d="M165.678 192.717C146.638 192.717 131.203 200.9 131.203 210.994C131.203 215.511 134.306 219.638 139.427 222.827L146.064 218.457L144.259 225.304C145.008 225.619 145.773 225.924 146.57 226.206L156.485 215.694V228.608C159.525 229.051 162.599 229.273 165.678 229.271C184.718 229.271 200.153 221.088 200.153 210.994C200.153 200.9 184.718 192.717 165.678 192.717Z" fill="#2F2E41"/>
<path d="M199.004 176.007C199.004 176.007 196.505 186.451 212.119 190.629Z" fill="#08B952"/>
<path d="M131.203 177.908C131.203 177.908 136.949 189.584 119.712 194.806Z" fill="#08B952"/>
<path d="M161.343 351.846C160.574 351.847 159.837 352.125 159.293 352.619C158.749 353.113 158.444 353.783 158.443 354.482V385.231C158.444 385.93 158.749 386.599 159.293 387.094C159.837 387.588 160.574 387.866 161.343 387.866H220.311C221.08 387.866 221.817 387.588 222.361 387.094C222.904 386.599 223.21 385.93 223.211 385.231V354.482C223.21 353.783 222.904 353.113 222.361 352.619C221.817 352.125 221.08 351.847 220.311 351.846L161.343 351.846Z" fill="#08B952"/>
<path d="M214.027 363.707H167.626C167.499 363.707 167.373 363.685 167.255 363.641C167.137 363.597 167.031 363.532 166.94 363.45C166.85 363.369 166.779 363.272 166.73 363.165C166.681 363.058 166.656 362.944 166.656 362.828C166.656 362.712 166.681 362.598 166.73 362.491C166.779 362.384 166.85 362.287 166.94 362.206C167.031 362.124 167.137 362.059 167.255 362.015C167.373 361.972 167.499 361.949 167.626 361.949H214.027C214.154 361.949 214.28 361.972 214.398 362.015C214.516 362.059 214.623 362.124 214.713 362.206C214.803 362.287 214.874 362.384 214.923 362.491C214.972 362.598 214.997 362.712 214.997 362.828C214.997 362.944 214.972 363.058 214.923 363.165C214.874 363.272 214.803 363.369 214.713 363.45C214.623 363.532 214.516 363.597 214.398 363.641C214.28 363.685 214.154 363.707 214.027 363.707V363.707Z" fill="white"/>
<path d="M214.027 370.735H167.626C167.499 370.735 167.373 370.713 167.255 370.669C167.137 370.625 167.031 370.56 166.94 370.479C166.85 370.397 166.779 370.3 166.73 370.193C166.681 370.087 166.656 369.972 166.656 369.857C166.656 369.741 166.681 369.626 166.73 369.52C166.779 369.413 166.85 369.316 166.94 369.234C167.031 369.153 167.137 369.088 167.255 369.044C167.373 369 167.499 368.978 167.626 368.978H214.027C214.154 368.978 214.28 369 214.398 369.044C214.516 369.088 214.623 369.153 214.713 369.234C214.803 369.316 214.874 369.413 214.923 369.52C214.972 369.626 214.997 369.741 214.997 369.857C214.997 369.972 214.972 370.087 214.923 370.193C214.874 370.3 214.803 370.397 214.713 370.479C214.623 370.56 214.516 370.625 214.398 370.669C214.28 370.713 214.154 370.735 214.027 370.735V370.735Z" fill="white"/>
<path d="M214.027 377.763H167.626C167.37 377.763 167.124 377.671 166.943 377.506C166.762 377.341 166.66 377.118 166.66 376.885C166.66 376.652 166.762 376.428 166.943 376.264C167.124 376.099 167.37 376.006 167.626 376.006H214.027C214.284 376.006 214.53 376.099 214.711 376.264C214.892 376.428 214.994 376.652 214.994 376.885C214.994 377.118 214.892 377.341 214.711 377.506C214.53 377.671 214.284 377.763 214.027 377.763Z" fill="white"/>
<path d="M73.1703 372.873C73.1703 372.873 82.3636 367.651 100.75 369.74L136.374 361.384C136.374 361.384 169.7 343.63 182.341 365.562C194.982 387.494 135.225 380.183 135.225 380.183C135.225 380.183 95.0044 409.426 70.8719 393.76L73.1703 372.873Z" fill="#FEB8B8"/>
</svg>
